<svg id="Layer_1" data-name="Layer 1" xmlns="http://www.w3.org/2000/svg" xmlns:xlink="http://www.w3.org/1999/xlink" viewBox="0 0 1366 3603.44"><defs><style>.cls-1{fill:#fff;}.cls-2{fill:#1d1d1b;}.cls-3{fill:#f2ada9;}.cls-4{fill:#a63e4d;}.cls-5{font-size:19.28px;font-family:Manrope-Semibold, Manrope;font-weight:600;}.cls-6{fill:#404040;}.cls-7,.cls-9{font-family:Manrope-Thin, Manrope;font-weight:200;}.cls-8{letter-spacing:-0.03em;}.cls-9{letter-spacing:0em;}.cls-10{letter-spacing:-0.04em;}.cls-11{letter-spacing:-0.02em;}.cls-12{letter-spacing:-0.03em;}.cls-13{fill:url(#linear-gradient);}.cls-14{fill:#f8b133;}.cls-15{fill:#811336;}.cls-16{fill:#530e34;}.cls-17{fill:url(#linear-gradient-2);}.cls-18{fill:#2e122d;}.cls-19{fill:url(#linear-gradient-3);}.cls-20{fill:url(#linear-gradient-4);}.cls-21{fill:url(#linear-gradient-5);}</style><linearGradient id="linear-gradient" x1="682.42" y1="762.87" x2="682.42" y2="621.01" gradientUnits="userSpaceOnUse"><stop offset="0" stop-color="#e7443c"/><stop offset="0.52" stop-color="#e5423c"/><stop offset="0.76" stop-color="#de3b3d"/><stop offset="0.93" stop-color="#d12f3e"/><stop offset="1" stop-color="#ca283e"/></linearGradient><linearGradient id="linear-gradient-2" x1="609.62" y1="724.41" x2="562.22" y2="724.41" gradientUnits="userSpaceOnUse"><stop offset="0" stop-color="#811436" stop-opacity="0"/><stop offset="0.61" stop-color="#500826" stop-opacity="0.67"/><stop offset="1" stop-color="#37021e"/></linearGradient><linearGradient id="linear-gradient-3" x1="687.95" y1="753.66" x2="622.42" y2="715.83" gradientUnits="userSpaceOnUse"><stop offset="0" stop-color="#811436" stop-opacity="0"/><stop offset="0.57" stop-color="#4f0718" stop-opacity="0.63"/><stop offset="1" stop-color="#310006"/></linearGradient><linearGradient id="linear-gradient-4" x1="691.58" y1="750.21" x2="742.85" y2="727.39" xlink:href="#linear-gradient-3"/><linearGradient id="linear-gradient-5" x1="770.95" y1="709.89" x2="795.85" y2="709.89" gradientUnits="userSpaceOnUse"><stop offset="0" stop-color="#811436" stop-opacity="0"/><stop offset="0.37" stop-color="#62102f" stop-opacity="0.41"/><stop offset="1" stop-color="#37021e"/></linearGradient></defs><title>sakura</title><rect class="cls-1" y="506" width="1366" height="487"/><path class="cls-2" d="M541.11,3497.18a16.32,16.32,0,0,1-4.53,5.85,20.29,20.29,0,0,1-6.93,3.61,30.16,30.16,0,0,1-8.93,1.25,40,40,0,0,1-13.5-2.36,35.69,35.69,0,0,1-12-7.27l7.82-9.38a39.31,39.31,0,0,0,8.47,5.34,22.68,22.68,0,0,0,9.51,2,11.58,11.58,0,0,0,6.4-1.5,4.73,4.73,0,0,0,2.28-4.17v-.17a5.31,5.31,0,0,0-.47-2.28,4.79,4.79,0,0,0-1.81-1.85,19,19,0,0,0-3.71-1.72c-1.58-.57-3.64-1.18-6.17-1.81a73.78,73.78,0,0,1-8.27-2.49,23.34,23.34,0,0,1-6.3-3.4,13.8,13.8,0,0,1-4-5,17.45,17.45,0,0,1-1.42-7.48v-.17a17.34,17.34,0,0,1,1.54-7.44,16.79,16.79,0,0,1,4.31-5.72,19.28,19.28,0,0,1,6.63-3.7,26.69,26.69,0,0,1,8.5-1.29,36,36,0,0,1,12.17,2,35.31,35.31,0,0,1,10.19,5.67l-6.88,10a43.67,43.67,0,0,0-7.91-4.34,20.23,20.23,0,0,0-7.74-1.59q-3.87,0-5.8,1.5a4.57,4.57,0,0,0-1.94,3.74v.17a5.44,5.44,0,0,0,.56,2.54,5.09,5.09,0,0,0,2,1.94,19.25,19.25,0,0,0,4,1.63q2.54.78,6.42,1.81a61.75,61.75,0,0,1,8.15,2.7,22.77,22.77,0,0,1,6,3.62,13.65,13.65,0,0,1,3.7,4.94,16.68,16.68,0,0,1,1.26,6.8v.17A18.63,18.63,0,0,1,541.11,3497.18Z"/><path class="cls-2" d="M599.07,3507l-5.51-13.5H568.11L562.6,3507H549.1l25.8-60.63h12.21l25.8,60.63Zm-18.24-44.72-8,19.52h16Z"/><path class="cls-2" d="M661.07,3507l-18.66-25.63-7,7.23V3507H622.2v-60.2h13.24v26.32l24.43-26.32h16l-24.51,25.54L677,3507Z"/><path class="cls-2" d="M734.64,3492.75a22.45,22.45,0,0,1-5.29,8.48,21.68,21.68,0,0,1-8.34,5.07,33.55,33.55,0,0,1-10.92,1.68q-12.12,0-19.09-6.71t-7-20v-34.4h13.25v34.06q0,7.4,3.44,11.13t9.54,3.74q6.11,0,9.55-3.61t3.44-10.83v-34.49h13.24v34A34.69,34.69,0,0,1,734.64,3492.75Z"/><path class="cls-2" d="M786.54,3507l-12.9-19.26h-10.4V3507H750v-60.2h27.52q10.75,0,16.73,5.25t6,14.62v.17q0,7.3-3.57,11.91a20.64,20.64,0,0,1-9.33,6.75L802,3507Zm.26-39.65a7.71,7.71,0,0,0-2.75-6.45q-2.76-2.14-7.65-2.15H763.24v17.29h13.41q4.9,0,7.53-2.32a7.85,7.85,0,0,0,2.62-6.19Z"/><path class="cls-2" d="M857,3507l-5.51-13.5H826l-5.51,13.5H807l25.8-60.63H845l25.8,60.63Zm-18.23-44.72-8,19.52h16Z"/><path class="cls-3" d="M749.57,3361.6a66.58,66.58,0,0,1-61.75,66.4c-1.58.11-3.2.17-4.82.17s-3.24-.06-4.83-.17a66.58,66.58,0,1,1,71.4-66.4Z"/><path class="cls-2" d="M719.24,3383.61a2.42,2.42,0,0,1-2.42,2.41h-6.18v13.43a9.66,9.66,0,0,1-9.65,9.66H687.82V3428c-1.58.11-3.2.17-4.82.17s-3.24-.06-4.83-.17v-50.3h-25.1a9,9,0,0,1-9-9v-45.77a2.42,2.42,0,1,1,4.83,0v45.77a4.17,4.17,0,0,0,4.17,4.16h9.25v-23.76a2.42,2.42,0,0,1,4.83,0v23.76h11V3361.6a4.83,4.83,0,1,1,9.65,0v1.87h2.56a2.81,2.81,0,0,0,2.81-2.81v-37.72a2.42,2.42,0,1,1,4.83,0v37.72a7.65,7.65,0,0,1-7.64,7.65h-2.56v36H701a4.85,4.85,0,0,0,4.83-4.83v-24.16a2.41,2.41,0,1,1,4.82,0v5.9h6.18A2.42,2.42,0,0,1,719.24,3383.61Z"/><path class="cls-4" d="M714.22,3311.57c-5.15,0-5.16,8,0,8S719.37,3311.57,714.22,3311.57Z"/><path class="cls-4" d="M708.47,3354.07c-5.15,0-5.16,8,0,8S713.62,3354.07,708.47,3354.07Z"/><path class="cls-4" d="M673.22,3334.32c-5.15,0-5.16,8,0,8S678.37,3334.32,673.22,3334.32Z"/><path class="cls-4" d="M635,3380.82c-5.15,0-5.16,8,0,8S640.12,3380.82,635,3380.82Z"/><path class="cls-4" d="M667.72,3404.82c-5.15,0-5.16,8,0,8S672.87,3404.82,667.72,3404.82Z"/><path class="cls-4" d="M742.22,3360.57c-5.15,0-5.16,8,0,8S747.37,3360.57,742.22,3360.57Z"/><path class="cls-4" d="M660.72,3300.57c-5.15,0-5.16,8,0,8S665.87,3300.57,660.72,3300.57Z"/><path class="cls-4" d="M636.22,3338.82c-5.15,0-5.16,8,0,8S641.37,3338.82,636.22,3338.82Z"/><path class="cls-4" d="M698.47,3393.07c-5.15,0-5.16,8,0,8S703.62,3393.07,698.47,3393.07Z"/><path class="cls-4" d="M726.72,3395.57c-5.15,0-5.16,8,0,8S731.87,3395.57,726.72,3395.57Z"/><text class="cls-5" transform="translate(47.01 3597.96)">01<tspan class="cls-6" x="21.37" y="0"> </tspan><tspan class="cls-7" x="25.38" y="0">|</tspan><tspan x="29.84" y="0" xml:space="preserve"> Saku</tspan><tspan class="cls-8" x="81.27" y="0">r</tspan><tspan x="89.42" y="0">a</tspan></text><path class="cls-2" d="M541.11,2954.18a16.32,16.32,0,0,1-4.53,5.85,20.29,20.29,0,0,1-6.93,3.61,30.16,30.16,0,0,1-8.93,1.25,40,40,0,0,1-13.5-2.36,35.69,35.69,0,0,1-12-7.27l7.82-9.38a39.31,39.31,0,0,0,8.47,5.34,22.68,22.68,0,0,0,9.51,2,11.58,11.58,0,0,0,6.4-1.5,4.73,4.73,0,0,0,2.28-4.17v-.17a5.31,5.31,0,0,0-.47-2.28,4.79,4.79,0,0,0-1.81-1.85,19,19,0,0,0-3.71-1.72c-1.58-.57-3.64-1.18-6.17-1.81a73.78,73.78,0,0,1-8.27-2.49,23.34,23.34,0,0,1-6.3-3.4,13.8,13.8,0,0,1-4-5,17.45,17.45,0,0,1-1.42-7.48v-.17a17.34,17.34,0,0,1,1.54-7.44,16.79,16.79,0,0,1,4.31-5.72,19.28,19.28,0,0,1,6.63-3.7,26.69,26.69,0,0,1,8.5-1.29,36,36,0,0,1,12.17,2,35.31,35.31,0,0,1,10.19,5.67l-6.88,10a43.67,43.67,0,0,0-7.91-4.34,20.23,20.23,0,0,0-7.74-1.59q-3.87,0-5.8,1.5a4.57,4.57,0,0,0-1.94,3.74v.17a5.44,5.44,0,0,0,.56,2.54,5.09,5.09,0,0,0,2,1.94,19.25,19.25,0,0,0,4,1.63q2.54.78,6.42,1.81a61.75,61.75,0,0,1,8.15,2.7,22.77,22.77,0,0,1,6,3.62,13.65,13.65,0,0,1,3.7,4.94,16.68,16.68,0,0,1,1.26,6.8v.17A18.63,18.63,0,0,1,541.11,2954.18Z"/><path class="cls-2" d="M599.07,2964l-5.51-13.5H568.11L562.6,2964H549.1l25.8-60.63h12.21l25.8,60.63Zm-18.24-44.72-8,19.52h16Z"/><path class="cls-2" d="M661.07,2964l-18.66-25.63-7,7.23V2964H622.2v-60.2h13.24v26.32l24.43-26.32h16l-24.51,25.54L677,2964Z"/><path class="cls-2" d="M734.64,2949.75a22.45,22.45,0,0,1-5.29,8.48,21.68,21.68,0,0,1-8.34,5.07,33.55,33.55,0,0,1-10.92,1.68q-12.12,0-19.09-6.71t-7-20v-34.4h13.25v34.06q0,7.4,3.44,11.13t9.54,3.74q6.11,0,9.55-3.61t3.44-10.83v-34.49h13.24v34A34.69,34.69,0,0,1,734.64,2949.75Z"/><path class="cls-2" d="M786.54,2964l-12.9-19.26h-10.4V2964H750v-60.2h27.52q10.75,0,16.73,5.25t6,14.62v.17q0,7.3-3.57,11.91a20.64,20.64,0,0,1-9.33,6.75L802,2964Zm.26-39.65a7.71,7.71,0,0,0-2.75-6.45q-2.76-2.14-7.65-2.15H763.24v17.29h13.41q4.9,0,7.53-2.32a7.85,7.85,0,0,0,2.62-6.19Z"/><path class="cls-2" d="M857,2964l-5.51-13.5H826l-5.51,13.5H807l25.8-60.63H845l25.8,60.63Zm-18.23-44.72-8,19.52h16Z"/><path class="cls-3" d="M749.57,2818.6a66.58,66.58,0,0,1-61.75,66.4c-1.58.11-3.2.17-4.82.17s-3.24-.06-4.83-.17a66.58,66.58,0,1,1,71.4-66.4Z"/><path class="cls-2" d="M719.24,2840.61a2.42,2.42,0,0,1-2.42,2.41h-6.18v13.43a9.66,9.66,0,0,1-9.65,9.66H687.82V2885c-1.58.11-3.2.17-4.82.17s-3.24-.06-4.83-.17v-50.3h-25.1a9,9,0,0,1-9-9v-45.77a2.42,2.42,0,1,1,4.83,0v45.77a4.17,4.17,0,0,0,4.17,4.16h9.25v-23.76a2.42,2.42,0,0,1,4.83,0v23.76h11V2818.6a4.83,4.83,0,1,1,9.65,0v1.87h2.56a2.81,2.81,0,0,0,2.81-2.81v-37.72a2.42,2.42,0,1,1,4.83,0v37.72a7.65,7.65,0,0,1-7.64,7.65h-2.56v36H701a4.85,4.85,0,0,0,4.83-4.83v-24.16a2.41,2.41,0,1,1,4.82,0v5.9h6.18A2.42,2.42,0,0,1,719.24,2840.61Z"/><path class="cls-4" d="M714.22,2768.57c-5.15,0-5.16,8,0,8S719.37,2768.57,714.22,2768.57Z"/><path class="cls-4" d="M708.47,2811.07c-5.15,0-5.16,8,0,8S713.62,2811.07,708.47,2811.07Z"/><path class="cls-4" d="M673.22,2791.32c-5.15,0-5.16,8,0,8S678.37,2791.32,673.22,2791.32Z"/><path class="cls-4" d="M635,2837.82c-5.15,0-5.16,8,0,8S640.12,2837.82,635,2837.82Z"/><path class="cls-4" d="M667.72,2861.82c-5.15,0-5.16,8,0,8S672.87,2861.82,667.72,2861.82Z"/><path class="cls-4" d="M742.22,2817.57c-5.15,0-5.16,8,0,8S747.37,2817.57,742.22,2817.57Z"/><path class="cls-4" d="M660.72,2757.57c-5.15,0-5.16,8,0,8S665.87,2757.57,660.72,2757.57Z"/><path class="cls-4" d="M636.22,2795.82c-5.15,0-5.16,8,0,8S641.37,2795.82,636.22,2795.82Z"/><path class="cls-4" d="M698.47,2850.07c-5.15,0-5.16,8,0,8S703.62,2850.07,698.47,2850.07Z"/><path class="cls-4" d="M726.72,2852.57c-5.15,0-5.16,8,0,8S731.87,2852.57,726.72,2852.57Z"/><text class="cls-5" transform="translate(47.01 3054.96)">01<tspan class="cls-6" x="21.37" y="0"> </tspan><tspan class="cls-7" x="25.38" y="0">|</tspan><tspan x="29.84" y="0" xml:space="preserve"> Saku</tspan><tspan class="cls-8" x="81.27" y="0">r</tspan><tspan x="89.42" y="0">a</tspan></text><path class="cls-2" d="M541.11,2405.18a16.32,16.32,0,0,1-4.53,5.85,20.29,20.29,0,0,1-6.93,3.61,30.16,30.16,0,0,1-8.93,1.25,40,40,0,0,1-13.5-2.36,35.69,35.69,0,0,1-12-7.27l7.82-9.38a39.31,39.31,0,0,0,8.47,5.34,22.68,22.68,0,0,0,9.51,2,11.58,11.58,0,0,0,6.4-1.5,4.73,4.73,0,0,0,2.28-4.17v-.17a5.31,5.31,0,0,0-.47-2.28,4.79,4.79,0,0,0-1.81-1.85,19,19,0,0,0-3.71-1.72c-1.58-.57-3.64-1.18-6.17-1.81a73.78,73.78,0,0,1-8.27-2.49,23.34,23.34,0,0,1-6.3-3.4,13.8,13.8,0,0,1-4-5,17.45,17.45,0,0,1-1.42-7.48v-.17a17.34,17.34,0,0,1,1.54-7.44,16.79,16.79,0,0,1,4.31-5.72,19.28,19.28,0,0,1,6.63-3.7,26.69,26.69,0,0,1,8.5-1.29,36,36,0,0,1,12.17,2,35.31,35.31,0,0,1,10.19,5.67l-6.88,10a43.67,43.67,0,0,0-7.91-4.34,20.23,20.23,0,0,0-7.74-1.59q-3.87,0-5.8,1.5a4.57,4.57,0,0,0-1.94,3.74v.17a5.44,5.44,0,0,0,.56,2.54,5.09,5.09,0,0,0,2,1.94,19.25,19.25,0,0,0,4,1.63q2.54.78,6.42,1.81a61.75,61.75,0,0,1,8.15,2.7,22.77,22.77,0,0,1,6,3.62,13.65,13.65,0,0,1,3.7,4.94,16.68,16.68,0,0,1,1.26,6.8v.17A18.63,18.63,0,0,1,541.11,2405.18Z"/><path class="cls-2" d="M599.07,2415l-5.51-13.5H568.11L562.6,2415H549.1l25.8-60.63h12.21l25.8,60.63Zm-18.24-44.72-8,19.52h16Z"/><path class="cls-2" d="M661.07,2415l-18.66-25.63-7,7.23V2415H622.2v-60.2h13.24v26.32l24.43-26.32h16l-24.51,25.54L677,2415Z"/><path class="cls-2" d="M734.64,2400.75a22.45,22.45,0,0,1-5.29,8.48,21.68,21.68,0,0,1-8.34,5.07,33.55,33.55,0,0,1-10.92,1.68q-12.12,0-19.09-6.71t-7-20v-34.4h13.25v34.06q0,7.4,3.44,11.13t9.54,3.74q6.11,0,9.55-3.61t3.44-10.83v-34.49h13.24v34A34.69,34.69,0,0,1,734.64,2400.75Z"/><path class="cls-2" d="M786.54,2415l-12.9-19.26h-10.4V2415H750v-60.2h27.52q10.75,0,16.73,5.25t6,14.62v.17q0,7.3-3.57,11.91a20.64,20.64,0,0,1-9.33,6.75L802,2415Zm.26-39.65a7.71,7.71,0,0,0-2.75-6.45q-2.76-2.14-7.65-2.15H763.24v17.29h13.41q4.9,0,7.53-2.32a7.85,7.85,0,0,0,2.62-6.19Z"/><path class="cls-2" d="M857,2415l-5.51-13.5H826l-5.51,13.5H807l25.8-60.63H845l25.8,60.63Zm-18.23-44.72-8,19.52h16Z"/><path class="cls-3" d="M749.57,2269.6a66.58,66.58,0,0,1-61.75,66.4c-1.58.11-3.2.17-4.82.17s-3.24-.06-4.83-.17a66.58,66.58,0,1,1,71.4-66.4Z"/><path class="cls-2" d="M719.24,2291.61a2.42,2.42,0,0,1-2.42,2.41h-6.18v13.43a9.66,9.66,0,0,1-9.65,9.66H687.82V2336c-1.58.11-3.2.17-4.82.17s-3.24-.06-4.83-.17v-50.3h-25.1a9,9,0,0,1-9-9v-45.77a2.42,2.42,0,1,1,4.83,0v45.77a4.17,4.17,0,0,0,4.17,4.16h9.25v-23.76a2.42,2.42,0,0,1,4.83,0v23.76h11V2269.6a4.83,4.83,0,1,1,9.65,0v1.87h2.56a2.81,2.81,0,0,0,2.81-2.81v-37.72a2.42,2.42,0,1,1,4.83,0v37.72a7.65,7.65,0,0,1-7.64,7.65h-2.56v36H701a4.85,4.85,0,0,0,4.83-4.83v-24.16a2.41,2.41,0,1,1,4.82,0v5.9h6.18A2.42,2.42,0,0,1,719.24,2291.61Z"/><path class="cls-4" d="M714.22,2219.57c-5.15,0-5.16,8,0,8S719.37,2219.57,714.22,2219.57Z"/><path class="cls-4" d="M708.47,2262.07c-5.15,0-5.16,8,0,8S713.62,2262.07,708.47,2262.07Z"/><path class="cls-4" d="M673.22,2242.32c-5.15,0-5.16,8,0,8S678.37,2242.32,673.22,2242.32Z"/><path class="cls-4" d="M635,2288.82c-5.15,0-5.16,8,0,8S640.12,2288.82,635,2288.82Z"/><path class="cls-4" d="M667.72,2312.82c-5.15,0-5.16,8,0,8S672.87,2312.82,667.72,2312.82Z"/><path class="cls-4" d="M742.22,2268.57c-5.15,0-5.16,8,0,8S747.37,2268.57,742.22,2268.57Z"/><path class="cls-4" d="M660.72,2208.57c-5.15,0-5.16,8,0,8S665.87,2208.57,660.72,2208.57Z"/><path class="cls-4" d="M636.22,2246.82c-5.15,0-5.16,8,0,8S641.37,2246.82,636.22,2246.82Z"/><path class="cls-4" d="M698.47,2301.07c-5.15,0-5.16,8,0,8S703.62,2301.07,698.47,2301.07Z"/><path class="cls-4" d="M726.72,2303.57c-5.15,0-5.16,8,0,8S731.87,2303.57,726.72,2303.57Z"/><text class="cls-5" transform="translate(47.01 2505.96)">01<tspan class="cls-6" x="21.37" y="0"> </tspan><tspan class="cls-7" x="25.38" y="0">|</tspan><tspan x="29.84" y="0" xml:space="preserve"> Saku</tspan><tspan class="cls-8" x="81.27" y="0">r</tspan><tspan x="89.42" y="0">a</tspan></text><rect class="cls-1" width="1366" height="487"/><path class="cls-2" d="M541.11,1874.18a16.32,16.32,0,0,1-4.53,5.85,20.29,20.29,0,0,1-6.93,3.61,30.16,30.16,0,0,1-8.93,1.25,40,40,0,0,1-13.5-2.36,35.69,35.69,0,0,1-12-7.27l7.82-9.38a39.31,39.31,0,0,0,8.47,5.34,22.68,22.68,0,0,0,9.51,2,11.58,11.58,0,0,0,6.4-1.5,4.73,4.73,0,0,0,2.28-4.17v-.17a5.31,5.31,0,0,0-.47-2.28,4.79,4.79,0,0,0-1.81-1.85,19,19,0,0,0-3.71-1.72c-1.58-.57-3.64-1.18-6.17-1.81a73.78,73.78,0,0,1-8.27-2.49,23.34,23.34,0,0,1-6.3-3.4,13.8,13.8,0,0,1-4-5,17.45,17.45,0,0,1-1.42-7.48v-.17a17.34,17.34,0,0,1,1.54-7.44,16.79,16.79,0,0,1,4.31-5.72,19.28,19.28,0,0,1,6.63-3.7,26.69,26.69,0,0,1,8.5-1.29,36,36,0,0,1,12.17,2,35.31,35.31,0,0,1,10.19,5.67l-6.88,10a43.67,43.67,0,0,0-7.91-4.34,20.23,20.23,0,0,0-7.74-1.59q-3.87,0-5.8,1.5a4.57,4.57,0,0,0-1.94,3.74v.17a5.44,5.44,0,0,0,.56,2.54,5.09,5.09,0,0,0,2,1.94,19.25,19.25,0,0,0,4,1.63q2.54.78,6.42,1.81a61.75,61.75,0,0,1,8.15,2.7,22.77,22.77,0,0,1,6,3.62,13.65,13.65,0,0,1,3.7,4.94,16.68,16.68,0,0,1,1.26,6.8v.17A18.63,18.63,0,0,1,541.11,1874.18Z"/><path class="cls-2" d="M599.07,1884l-5.51-13.5H568.11L562.6,1884H549.1l25.8-60.63h12.21l25.8,60.63Zm-18.24-44.72-8,19.52h16Z"/><path class="cls-2" d="M661.07,1884l-18.66-25.63-7,7.23V1884H622.2v-60.2h13.24v26.32l24.43-26.32h16l-24.51,25.54L677,1884Z"/><path class="cls-2" d="M734.64,1869.75a22.45,22.45,0,0,1-5.29,8.48,21.68,21.68,0,0,1-8.34,5.07,33.55,33.55,0,0,1-10.92,1.68q-12.12,0-19.09-6.71t-7-20v-34.4h13.25v34.06q0,7.39,3.44,11.13t9.54,3.74q6.11,0,9.55-3.61t3.44-10.83v-34.49h13.24v34A34.69,34.69,0,0,1,734.64,1869.75Z"/><path class="cls-2" d="M786.54,1884l-12.9-19.26h-10.4V1884H750v-60.2h27.52q10.75,0,16.73,5.25t6,14.62v.17q0,7.31-3.57,11.91a20.64,20.64,0,0,1-9.33,6.75L802,1884Zm.26-39.65a7.71,7.71,0,0,0-2.75-6.45q-2.76-2.15-7.65-2.15H763.24v17.29h13.41q4.9,0,7.53-2.32a7.85,7.85,0,0,0,2.62-6.19Z"/><path class="cls-2" d="M857,1884l-5.51-13.5H826l-5.51,13.5H807l25.8-60.63H845l25.8,60.63Zm-18.23-44.72-8,19.52h16Z"/><path class="cls-3" d="M749.57,1738.6a66.58,66.58,0,0,1-61.75,66.4c-1.58.11-3.2.17-4.82.17s-3.24-.06-4.83-.17a66.58,66.58,0,1,1,71.4-66.4Z"/><path class="cls-2" d="M719.24,1760.61a2.42,2.42,0,0,1-2.42,2.41h-6.18v13.43a9.66,9.66,0,0,1-9.65,9.66H687.82V1805c-1.58.11-3.2.17-4.82.17s-3.24-.06-4.83-.17v-50.3h-25.1a9,9,0,0,1-9-9v-45.77a2.42,2.42,0,1,1,4.83,0v45.77a4.17,4.17,0,0,0,4.17,4.16h9.25v-23.76a2.42,2.42,0,0,1,4.83,0v23.76h11V1738.6a4.83,4.83,0,1,1,9.65,0v1.87h2.56a2.81,2.81,0,0,0,2.81-2.81v-37.72a2.42,2.42,0,1,1,4.83,0v37.72a7.65,7.65,0,0,1-7.64,7.65h-2.56v36H701a4.85,4.85,0,0,0,4.83-4.83v-24.16a2.41,2.41,0,1,1,4.82,0v5.9h6.18A2.42,2.42,0,0,1,719.24,1760.61Z"/><path class="cls-4" d="M714.22,1688.57c-5.15,0-5.16,8,0,8S719.37,1688.57,714.22,1688.57Z"/><path class="cls-4" d="M708.47,1731.07c-5.15,0-5.16,8,0,8S713.62,1731.07,708.47,1731.07Z"/><path class="cls-4" d="M673.22,1711.32c-5.15,0-5.16,8,0,8S678.37,1711.32,673.22,1711.32Z"/><path class="cls-4" d="M635,1757.82c-5.15,0-5.16,8,0,8S640.12,1757.82,635,1757.82Z"/><path class="cls-4" d="M667.72,1781.82c-5.15,0-5.16,8,0,8S672.87,1781.82,667.72,1781.82Z"/><path class="cls-4" d="M742.22,1737.57c-5.15,0-5.16,8,0,8S747.37,1737.57,742.22,1737.57Z"/><path class="cls-4" d="M660.72,1677.57c-5.15,0-5.16,8,0,8S665.87,1677.57,660.72,1677.57Z"/><path class="cls-4" d="M636.22,1715.82c-5.15,0-5.16,8,0,8S641.37,1715.82,636.22,1715.82Z"/><path class="cls-4" d="M698.47,1770.07c-5.15,0-5.16,8,0,8S703.62,1770.07,698.47,1770.07Z"/><path class="cls-4" d="M726.72,1772.57c-5.15,0-5.16,8,0,8S731.87,1772.57,726.72,1772.57Z"/><text class="cls-5" transform="translate(47.01 1974.96)">01<tspan class="cls-6" x="21.37" y="0"> </tspan><tspan class="cls-7" x="25.38" y="0">|</tspan><tspan x="29.84" y="0" xml:space="preserve"> Saku</tspan><tspan class="cls-8" x="81.27" y="0">r</tspan><tspan x="89.42" y="0">a</tspan></text><path class="cls-2" d="M541.11,1362.18a16.32,16.32,0,0,1-4.53,5.85,20.29,20.29,0,0,1-6.93,3.61,30.16,30.16,0,0,1-8.93,1.25,40,40,0,0,1-13.5-2.36,35.69,35.69,0,0,1-12-7.27l7.82-9.38a39.31,39.31,0,0,0,8.47,5.34,22.68,22.68,0,0,0,9.51,2,11.58,11.58,0,0,0,6.4-1.5,4.73,4.73,0,0,0,2.28-4.17v-.17a5.31,5.31,0,0,0-.47-2.28,4.79,4.79,0,0,0-1.81-1.85,19,19,0,0,0-3.71-1.72c-1.58-.57-3.64-1.18-6.17-1.81a73.78,73.78,0,0,1-8.27-2.49,23.34,23.34,0,0,1-6.3-3.4,13.8,13.8,0,0,1-4-5,17.45,17.45,0,0,1-1.42-7.48v-.17a17.34,17.34,0,0,1,1.54-7.44,16.79,16.79,0,0,1,4.31-5.72,19.28,19.28,0,0,1,6.63-3.7,26.69,26.69,0,0,1,8.5-1.29,36,36,0,0,1,12.17,2,35.31,35.31,0,0,1,10.19,5.67l-6.88,10a43.67,43.67,0,0,0-7.91-4.34,20.23,20.23,0,0,0-7.74-1.59q-3.87,0-5.8,1.5a4.57,4.57,0,0,0-1.94,3.74v.17a5.44,5.44,0,0,0,.56,2.54,5.09,5.09,0,0,0,2,1.94,19.25,19.25,0,0,0,4,1.63q2.54.78,6.42,1.81a61.75,61.75,0,0,1,8.15,2.7,22.77,22.77,0,0,1,6,3.62,13.65,13.65,0,0,1,3.7,4.94,16.68,16.68,0,0,1,1.26,6.8v.17A18.63,18.63,0,0,1,541.11,1362.18Z"/><path class="cls-2" d="M599.07,1372l-5.51-13.5H568.11L562.6,1372H549.1l25.8-60.63h12.21l25.8,60.63Zm-18.24-44.72-8,19.52h16Z"/><path class="cls-2" d="M661.07,1372l-18.66-25.63-7,7.23V1372H622.2v-60.2h13.24v26.32l24.43-26.32h16l-24.51,25.54L677,1372Z"/><path class="cls-2" d="M734.64,1357.75a22.45,22.45,0,0,1-5.29,8.48,21.68,21.68,0,0,1-8.34,5.07,33.55,33.55,0,0,1-10.92,1.68q-12.12,0-19.09-6.71t-7-20v-34.4h13.25v34.06q0,7.39,3.44,11.13t9.54,3.74q6.11,0,9.55-3.61t3.44-10.83v-34.49h13.24v34A34.69,34.69,0,0,1,734.64,1357.75Z"/><path class="cls-2" d="M786.54,1372l-12.9-19.26h-10.4V1372H750v-60.2h27.52q10.75,0,16.73,5.25t6,14.62v.17q0,7.31-3.57,11.91a20.64,20.64,0,0,1-9.33,6.75L802,1372Zm.26-39.65a7.71,7.71,0,0,0-2.75-6.45q-2.76-2.15-7.65-2.15H763.24v17.29h13.41q4.9,0,7.53-2.32a7.85,7.85,0,0,0,2.62-6.19Z"/><path class="cls-2" d="M857,1372l-5.51-13.5H826l-5.51,13.5H807l25.8-60.63H845l25.8,60.63Zm-18.23-44.72-8,19.52h16Z"/><path class="cls-3" d="M749.57,1226.6a66.58,66.58,0,0,1-61.75,66.4c-1.58.11-3.2.17-4.82.17s-3.24-.06-4.83-.17a66.58,66.58,0,1,1,71.4-66.4Z"/><path class="cls-2" d="M719.24,1248.61a2.42,2.42,0,0,1-2.42,2.41h-6.18v13.43a9.66,9.66,0,0,1-9.65,9.66H687.82V1293c-1.58.11-3.2.17-4.82.17s-3.24-.06-4.83-.17v-50.3h-25.1a9,9,0,0,1-9-9v-45.77a2.42,2.42,0,1,1,4.83,0v45.77a4.17,4.17,0,0,0,4.17,4.16h9.25v-23.76a2.42,2.42,0,0,1,4.83,0v23.76h11V1226.6a4.83,4.83,0,1,1,9.65,0v1.87h2.56a2.81,2.81,0,0,0,2.81-2.81v-37.72a2.42,2.42,0,1,1,4.83,0v37.72a7.65,7.65,0,0,1-7.64,7.65h-2.56v36H701a4.85,4.85,0,0,0,4.83-4.83v-24.16a2.41,2.41,0,1,1,4.82,0v5.9h6.18A2.42,2.42,0,0,1,719.24,1248.61Z"/><path class="cls-4" d="M714.22,1176.57c-5.15,0-5.16,8,0,8S719.37,1176.57,714.22,1176.57Z"/><path class="cls-4" d="M708.47,1219.07c-5.15,0-5.16,8,0,8S713.62,1219.07,708.47,1219.07Z"/><path class="cls-4" d="M673.22,1199.32c-5.15,0-5.16,8,0,8S678.37,1199.32,673.22,1199.32Z"/><path class="cls-4" d="M635,1245.82c-5.15,0-5.16,8,0,8S640.12,1245.82,635,1245.82Z"/><path class="cls-4" d="M667.72,1269.82c-5.15,0-5.16,8,0,8S672.87,1269.82,667.72,1269.82Z"/><path class="cls-4" d="M742.22,1225.57c-5.15,0-5.16,8,0,8S747.37,1225.57,742.22,1225.57Z"/><path class="cls-4" d="M660.72,1165.57c-5.15,0-5.16,8,0,8S665.87,1165.57,660.72,1165.57Z"/><path class="cls-4" d="M636.22,1203.82c-5.15,0-5.16,8,0,8S641.37,1203.82,636.22,1203.82Z"/><path class="cls-4" d="M698.47,1258.07c-5.15,0-5.16,8,0,8S703.62,1258.07,698.47,1258.07Z"/><path class="cls-4" d="M726.72,1260.57c-5.15,0-5.16,8,0,8S731.87,1260.57,726.72,1260.57Z"/><text class="cls-5" transform="translate(47.01 1462.96)">01<tspan class="cls-6" x="21.37" y="0"> </tspan><tspan class="cls-7" x="25.38" y="0">|</tspan><tspan x="29.84" y="0" xml:space="preserve"> Saku</tspan><tspan class="cls-8" x="81.27" y="0">r</tspan><tspan x="89.42" y="0">a</tspan></text><text class="cls-5" transform="translate(47.01 945.96)">02<tspan class="cls-6" x="24.72" y="0"> </tspan><tspan class="cls-9" x="28.74" y="0">|</tspan><tspan x="33.19" y="0"> </tspan><tspan class="cls-10" x="37.21" y="0">W</tspan><tspan class="cls-11" x="55.79" y="0">e</tspan><tspan x="67.45" y="0">na</tspan><tspan class="cls-12" x="91.23" y="0">t</tspan><tspan x="99.2" y="0">chee</tspan></text><path class="cls-2" d="M541.11,339.18a16.32,16.32,0,0,1-4.53,5.85,20.29,20.29,0,0,1-6.93,3.61,30.16,30.16,0,0,1-8.93,1.25,40,40,0,0,1-13.5-2.36,35.69,35.69,0,0,1-12-7.27l7.82-9.38a39.31,39.31,0,0,0,8.47,5.34,22.68,22.68,0,0,0,9.51,2,11.58,11.58,0,0,0,6.4-1.5,4.73,4.73,0,0,0,2.28-4.17v-.17a5.31,5.31,0,0,0-.47-2.28,4.79,4.79,0,0,0-1.81-1.85,19,19,0,0,0-3.71-1.72c-1.58-.57-3.64-1.18-6.17-1.81a73.78,73.78,0,0,1-8.27-2.49,23.34,23.34,0,0,1-6.3-3.4,13.8,13.8,0,0,1-4-5,17.45,17.45,0,0,1-1.42-7.48v-.17a17.34,17.34,0,0,1,1.54-7.44,16.79,16.79,0,0,1,4.31-5.72,19.28,19.28,0,0,1,6.63-3.7,26.69,26.69,0,0,1,8.5-1.29,36,36,0,0,1,12.17,2,35.31,35.31,0,0,1,10.19,5.67l-6.88,10a43.67,43.67,0,0,0-7.91-4.34,20.23,20.23,0,0,0-7.74-1.59q-3.87,0-5.8,1.5a4.57,4.57,0,0,0-1.94,3.74v.17a5.44,5.44,0,0,0,.56,2.54,5.09,5.09,0,0,0,2,1.94,19.25,19.25,0,0,0,4,1.63q2.54.78,6.42,1.81a61.75,61.75,0,0,1,8.15,2.7,22.77,22.77,0,0,1,6,3.62,13.65,13.65,0,0,1,3.7,4.94,16.68,16.68,0,0,1,1.26,6.8v.17A18.63,18.63,0,0,1,541.11,339.18Z"/><path class="cls-2" d="M599.07,349l-5.51-13.5H568.11L562.6,349H549.1l25.8-60.63h12.21L612.91,349Zm-18.24-44.72-8,19.52h16Z"/><path class="cls-2" d="M661.07,349,642.41,323.4l-7,7.23V349H622.2v-60.2h13.24v26.32l24.43-26.32h16l-24.51,25.54L677,349Z"/><path class="cls-2" d="M734.64,334.75a22.45,22.45,0,0,1-5.29,8.48A21.68,21.68,0,0,1,721,348.3,33.55,33.55,0,0,1,710.09,350Q698,350,691,343.27t-7-20v-34.4h13.25v34.06q0,7.39,3.44,11.13t9.54,3.74q6.11,0,9.55-3.61t3.44-10.83V288.83h13.24v34A34.69,34.69,0,0,1,734.64,334.75Z"/><path class="cls-2" d="M786.54,349l-12.9-19.26h-10.4V349H750v-60.2h27.52q10.75,0,16.73,5.25t6,14.62v.17q0,7.31-3.57,11.91a20.64,20.64,0,0,1-9.33,6.75L802,349Zm.26-39.65a7.71,7.71,0,0,0-2.75-6.45q-2.76-2.15-7.65-2.15H763.24v17.29h13.41q4.9,0,7.53-2.32a7.85,7.85,0,0,0,2.62-6.19Z"/><path class="cls-2" d="M857,349l-5.51-13.5H826L820.51,349H807l25.8-60.63H845L870.82,349Zm-18.23-44.72-8,19.52h16Z"/><path class="cls-3" d="M749.57,203.6A66.58,66.58,0,0,1,687.82,270c-1.58.11-3.2.17-4.82.17s-3.24-.06-4.83-.17a66.58,66.58,0,1,1,71.4-66.4Z"/><path class="cls-2" d="M719.24,225.61a2.42,2.42,0,0,1-2.42,2.41h-6.18v13.43a9.66,9.66,0,0,1-9.65,9.66H687.82V270c-1.58.11-3.2.17-4.82.17s-3.24-.06-4.83-.17V219.7h-25.1a9,9,0,0,1-9-9V164.94a2.42,2.42,0,1,1,4.83,0v45.77a4.17,4.17,0,0,0,4.17,4.16h9.25V191.11a2.42,2.42,0,0,1,4.83,0v23.76h11V203.6a4.83,4.83,0,1,1,9.65,0v1.87h2.56a2.81,2.81,0,0,0,2.81-2.81V164.94a2.42,2.42,0,1,1,4.83,0v37.72a7.65,7.65,0,0,1-7.64,7.65h-2.56v36H701a4.85,4.85,0,0,0,4.83-4.83V217.29a2.41,2.41,0,1,1,4.82,0v5.9h6.18A2.42,2.42,0,0,1,719.24,225.61Z"/><path class="cls-4" d="M714.22,153.57c-5.15,0-5.16,8,0,8S719.37,153.57,714.22,153.57Z"/><path class="cls-4" d="M708.47,196.07c-5.15,0-5.16,8,0,8S713.62,196.07,708.47,196.07Z"/><path class="cls-4" d="M673.22,176.32c-5.15,0-5.16,8,0,8S678.37,176.32,673.22,176.32Z"/><path class="cls-4" d="M635,222.82c-5.15,0-5.16,8,0,8S640.12,222.82,635,222.82Z"/><path class="cls-4" d="M667.72,246.82c-5.15,0-5.16,8,0,8S672.87,246.82,667.72,246.82Z"/><path class="cls-4" d="M742.22,202.57c-5.15,0-5.16,8,0,8S747.37,202.57,742.22,202.57Z"/><path class="cls-4" d="M660.72,142.57c-5.15,0-5.16,8,0,8S665.87,142.57,660.72,142.57Z"/><path class="cls-4" d="M636.22,180.82c-5.15,0-5.16,8,0,8S641.37,180.82,636.22,180.82Z"/><path class="cls-4" d="M698.47,235.07c-5.15,0-5.16,8,0,8S703.62,235.07,698.47,235.07Z"/><path class="cls-4" d="M726.72,237.57c-5.15,0-5.16,8,0,8S731.87,237.57,726.72,237.57Z"/><text class="cls-5" transform="translate(47.01 439.96)">01<tspan class="cls-6" x="21.37" y="0"> </tspan><tspan class="cls-7" x="25.38" y="0">|</tspan><tspan x="29.84" y="0" xml:space="preserve"> Saku</tspan><tspan class="cls-8" x="81.27" y="0">r</tspan><tspan x="89.42" y="0">a</tspan></text><polygon class="cls-13" points="556.69 722.93 541.56 657.34 683 621.01 823.29 656.33 801.51 762.87 703.91 762.05 560.22 742.1 556.69 725.43 556.69 722.93"/><circle class="cls-14" cx="690.29" cy="730.97" r="15.14"/><circle class="cls-14" cx="690.29" cy="730.97" r="15.14"/><path class="cls-15" d="M570.51,745.74l24.9-15.66a3.59,3.59,0,0,0,.74-.61l.89-.94,2.9-3.09.31-.28a19,19,0,0,0,1.76-1.74c.67-.73,1.36-1.54,2-2.34.68-.39,1.37-1.9,2-2.15.66-.77,1.31-.81,1.92-2.06.61-1.06,1.19-1.75,1.7-1.83a4.6,4.6,0,0,0,1.36-1.41c.76-.66,1.22-1.52,1.22-1.3a2.63,2.63,0,0,1,1.47-1.68c.44-.28,1-1.16,1.51-1.52A5.86,5.86,0,0,0,617,707c.58-1.09,1.17-1.21,1.72-2s1.07-.82,1.51-1.73c.89-1.42,1.47-1.39,1.47-1.68,0,.56.33.39.88-.25.54.12,1.3-.81,2.18-.71.76-.76,1.62-.71,2.48-1.09a2.68,2.68,0,0,1,1.18-.23,3,3,0,0,0,2-.46c.88.21,1.64-.5,2.18-.69s.88-.11.88-.27c0-.31.79.5,2,1.4a3.3,3.3,0,0,0,.51.31,16.58,16.58,0,0,1,2,1.26,11.82,11.82,0,0,1,2.35,1.79,3.61,3.61,0,0,1,.53.64c.83,1.16,1.66,1.13,2.43,1.5.85-.36,1.64.77,2.32,1.61a2.55,2.55,0,0,0,1.64,1.15c.39.47.62,0,.62.43,0,.1.22.3.57.62a4.41,4.41,0,0,1,1.44,1.3,13.24,13.24,0,0,0,1.86,1.67c.32,0,.64.66,1,1.18.31.88.61.93.9.71.57.46,1.08.45,1.43,1.37.36-.45.58,1.08.58.55,0,.41.35.42.89-.36a4.36,4.36,0,0,1,2-1.49c.38,0,.75-.36,1.11-.74a3.91,3.91,0,0,1,1.26-.91c.3-.12.48-.28.48-.2,0-.92.3-1,.8.06.5-.3,1.2-.09,2,1,.4-.16.83.24,1.26.7.44-.23.89.72,1.34.48.44.38.89.92,1.33.79.44.5.86-.24,1.26,0a19.69,19.69,0,0,0,2,.75c.5,0,.8-.61.8.3,0-.23.66.65,1.71,1.54.53.79,1.16.55,1.85,1.67a3.63,3.63,0,0,1,1.08.77c.38.35.76.78,1.16,1.23.59.37,1.2.29,1.82,1.77.62,1.15,1.24.36,1.85,1.52.61.81,1.22,1.68,1.79,1.68.58,1.44,1.14.07,1.66,1.42s1,1.65,1.43,1.41c.43,0,.81,0,1.13.89.63.23,1,.23,1,.9a.42.42,0,0,1,.71-.07,3.35,3.35,0,0,0,1.08.79c.43.28.9.37,1.38.62.79-.24,1.58,1,2.17,1.13.6,1.77,1-.15,1,.22,0,.76.27-.14.71-.13s1.07-.52,1.79-1.09c.21-.13.41-.49.63-.29.75-.37,1.57,0,2.39-1.06.82-1.3,1.63-.74,2.37-1.34.09.18.18-.14.27-.15,0-1.08,1.84-1.13,1.84-.92.54.49,1-.41,1.36-1.14,0,.2.44-.85,1.13-1.53a8.94,8.94,0,0,0,1.22-1.52c.22,0,.46-.08.71-1,.24-.36.5-.76.76-1.09a22.74,22.74,0,0,1,1.6-2.22c.27-.29.54-.55.81-.87a5.8,5.8,0,0,0,.8-1.28,7.15,7.15,0,0,0,.76-1c.24,0,.48-.25.71-1.14a2.27,2.27,0,0,1,1.21-1.55c.7-1.6,1.13-1.69,1.13-1.54.24.3.42-.06.54-.43a8.27,8.27,0,0,0,.19-1.8h0a9.83,9.83,0,0,1,.08-1.15c.06-.7.13.27.24-1.48.1.57.23-.58.39-1.11a6.88,6.88,0,0,0,.53-1.34c.2-.23.43-2.31.68-1.14.25.23.52-.47.81-1a10.39,10.39,0,0,0,1.3-1.48c.37.37.79-1.78,1.21-1.47.42-.43.84-1,1.21-1.29.74-.76,1.3-2.06,1.3-1.49.5-.51,1.16-.61,1.87-1.16a12.49,12.49,0,0,1,2.2.08s.85-.24,2.13.74c.64-.11,1.39.58,2.19.85.4-.7.81.16,1.23.39.42-.29.85.51,1.28.39.42.18.85.61,1.27.61a10.07,10.07,0,0,0,1.23.31,6.13,6.13,0,0,1,1.16-.17c.36,0,.71.23,1,.88,1.28.15,2.13,1.46,2.13.74.29-.16.56.6.81.39,0,0,.56-.12,1.49,1a6.52,6.52,0,0,0,1.64,1.23c.63.06,1.33.82,2.07,1.17s1.53,1.42,2.34,1.57c.81.92,1.65.66,2.48,1.54.84-.13,1.67,1.62,2.48,1.6.82-.79,1.6,1,2.35,1.51a9.12,9.12,0,0,0,2.06,1.64c.63.3,1.18,1,1.65.75.92.95,1.48,1.74,1.48,1,.29.38.55.69.78.67a22.46,22.46,0,0,0,2,2.22c1,1,2,2.39,2,2.23.49.62,1.13.36,1.85,1.14,0,.53.73-.16,1.88.5.58-.08,1.27.45,2,.42.75,1,1.59.47,2.45.77.87.57,1.77-.13,2.68.7a10.86,10.86,0,0,1,1.35.7c.45.41.89,0,1.32,0a4,4,0,0,1,2.46.5c.76,0,1.45,1,2,.69,1.16,1.46,1.88.44,1.88.5s.27.5.72.19c.45.23,1.08-1,1.8.39.72-.51,1.53.69,2.33.54.81,1.07,1.62-.21,2.34.53.72,1.19,1.35-.55,1.8.42.45.35.72-.07.72.16.48-.07.93.32,1.31.47.39,1.43.72.6,1,1.12a6,6,0,0,0,.54,1.29,3.68,3.68,0,0,1,0,1.44,8.83,8.83,0,0,1-.2,1.1c-.12.35-.3,2.41-.52,3l-.77,4.53-6.68,38.78a3.78,3.78,0,0,1-2.45,2.92l-105.5,37.5a3.84,3.84,0,0,1-2.46,0l-109-36.26a3.79,3.79,0,0,1-2.48-2.71l-6.86-28.85a3.78,3.78,0,0,1,2.17-4.34L570,746A3.06,3.06,0,0,0,570.51,745.74Z"/><path class="cls-16" d="M810.65,708.13s0-.87-.14-2.2-.21-3.11-.36-4.95c-.14-1.43-.3-3.85-.48-5.26-.17-1.06-.34-2.25-.51-3.11a2.53,2.53,0,0,0-1.1-.5c-.58.32-1.36-.37-2.22.09a5.61,5.61,0,0,1-2.75.42,12.79,12.79,0,0,0-2.7.53,1.89,1.89,0,0,0-2,.45c-.51-.07-.81.52-.81.23,0,.83-.67.33-1.68,1.27-.51,0-1.1.93-1.73,1.29-.63.69-1.3.6-2,1.48a5.17,5.17,0,0,0-2,1.42c-.63.39-1.22,1.1-1.72,1.36-1,1-1.68,1.33-1.68,1.26,0-.28-.39-.34-1,.25-.57-.07-1.34.47-2.1.57-.77-.12-1.53.83-2.11.35a1.18,1.18,0,0,0-1,.47c0-.48-.23-.41-.62-.6-.39-.35-.93-.34-1.54-.78s-1.32-.31-2-.94c-.7,0-1.4-1.17-2-1.64a5.75,5.75,0,0,0-1.55-.82c-.39-.14-.62-.25-.62-.56,0-.09-.2.6-.55.6a5.11,5.11,0,0,1-1.37,1.49,17,17,0,0,1-1.78,1.61,14,14,0,0,1-1.78,2.28c-.55.72-1,1.93-1.37,1.54-.34.45-.55.45-.55.55a1.81,1.81,0,0,1-1.49,1.2,40.87,40.87,0,0,1-3.74,3c-.13.16-.27.31-.41.46a8.82,8.82,0,0,0,1.85,1.43c.62.3,1.18,1,1.64.75.93.95,1.49,1.74,1.49,1,.29.38.55.69.78.67a21.08,21.08,0,0,0,2,2.22c1,1,2,2.39,2,2.23.49.62,1.14.36,1.86,1.14,0,.53.72-.16,1.88.5.58-.08,1.26.45,2,.42.76,1,1.59.47,2.46.77.87.57,1.77-.13,2.67.7a10.31,10.31,0,0,1,1.36.7c.44.41.89,0,1.32,0a4,4,0,0,1,2.46.5c.76,0,1.44,1,2,.69,1.16,1.46,1.88.44,1.88.5s.27.5.72.19c.45.23,1.08-1,1.8.39.71-.51,1.52.69,2.33.54.81,1.07,1.62-.21,2.34.53.72,1.19,1.34-.55,1.79.42.45.35.72-.07.72.16.49-.07.93.32,1.32.47.39,1.43.72.6,1,1.12a5.51,5.51,0,0,0,.54,1.29,3.52,3.52,0,0,1,0,1.44,10.12,10.12,0,0,1-.19,1.1c-.12.35-.3,2.41-.52,3-.22,1.29-.48,2.82-.78,4.53l-.74,4.29,11.42-2.35,2-11.1V720Z"/><path class="cls-16" d="M566.77,747.4,570,746a4.09,4.09,0,0,0,.51-.26l24.89-15.66a3.59,3.59,0,0,0,.74-.61l.89-.94,2.91-3.09.3-.28a17.9,17.9,0,0,0,1.77-1.74c.67-.73,1.36-1.54,2-2.34.69-.39,1.38-1.9,2-2.15.67-.77,1.32-.81,1.93-2.06.57-1,1.11-1.63,1.59-1.78a4.44,4.44,0,0,1-1.54-1.06,5.35,5.35,0,0,0-1.58-.9c-1.16-.93-1.88-1.81-1.88-1.11,0,.42-.43-.54-1.16-1.3-.36-.1-.79-1.2-1.28-1.45-.49-1-1-1-1.61-1.79-.29-.24-.59-.89-.89-1.09-.31.57-.62-.34-.94-.88-.32.46-.64-.63-1-1-.32-.57-.65-.54-1-1.26-.33-.4-.66-.8-1-1.21l-1-1.21a8,8,0,0,0-1.83-1.79,18.71,18.71,0,0,1-1.61-1.85,7.35,7.35,0,0,0-1.28-1.4c-.73-1.1-1.16-1.3-1.16-1.29s-.27.17-.72-.37c-.45-.36-1.08-.27-1.8-.5a8.09,8.09,0,0,1-2.33-.78,17.14,17.14,0,0,0-2.34-.84c-1.44-.75-2.52-1.22-2.52-.88,0-.43-.4.2-1,.81-.31,0-.68.73-1.08.76-.4.66-.84,1.21-1.28,1.1s-.91.93-1.35,1.12c-.45-.08-.88.76-1.28,1a3,3,0,0,0-1.51,1.11c-.37.62-.6.14-.6.54s-.18-.63-.49.79c-.31-.06-.74.84-1.24,1.57a10.74,10.74,0,0,1-1.6,2.14,4.58,4.58,0,0,0-1.61,2.23,5.44,5.44,0,0,0-1.23,1.66c-.31.74-.49.69-.49.7a6.15,6.15,0,0,1-2,1.4,16.19,16.19,0,0,0-3.75,2.6l-2,1.4,2.69,33.61L566,757.81l-1.44-6.07A3.78,3.78,0,0,1,566.77,747.4Z"/><path class="cls-17" d="M608.08,714a5.08,5.08,0,0,0-1.58-.89c-1.16-.94-1.88-1.82-1.88-1.12,0,.42-.43-.54-1.16-1.3-.36-.09-.79-1.2-1.28-1.45-.49-1-1-1-1.61-1.79-.29-.24-.59-.88-.89-1.09-.31.58-.62-.34-.94-.87-.32.45-.64-.64-1-1-.32-.56-.65-.54-1-1.26-.33-.4-.66-.8-1-1.21l-1-1.2A8.06,8.06,0,0,0,593,699a18.71,18.71,0,0,1-1.61-1.85,7.55,7.55,0,0,0-1.28-1.39c-.73-1.11-1.16-1.31-1.16-1.3s-.27.17-.72-.37c-.45-.35-1.08-.27-1.8-.5a8.09,8.09,0,0,1-2.33-.78,17.14,17.14,0,0,0-2.34-.84,9,9,0,0,0-2.32-1l1.93,6.75L580,705.51l3.13,3L573.59,720l4.79,1.88-1.25,2.49L573.59,728l-1.26,1.76v9.84L568,741.83l-4.28,3.79a1.73,1.73,0,0,1,0,2,16,16,0,0,0-1.54,3.16h0l3.82,7-1.44-6.08a3.77,3.77,0,0,1,2.17-4.33L570,746q.25-.12.51-.27l24.89-15.66a3.89,3.89,0,0,0,.74-.6l.89-1,2.91-3.08a4,4,0,0,1,.3-.29A17.9,17.9,0,0,0,602,723.4c.67-.73,1.36-1.54,2-2.34.69-.39,1.38-1.89,2-2.14.67-.78,1.32-.82,1.93-2.07.57-1,1.11-1.63,1.59-1.78A4.31,4.31,0,0,1,608.08,714Z"/><path class="cls-18" d="M819.16,646l-132-31.31a17.91,17.91,0,0,0-8.3,0L546.84,646a18,18,0,0,0-13.38,21.55l26.4,114.35a18,18,0,0,0,12.37,13.19l105.61,31.6a17.9,17.9,0,0,0,10.32,0l105.61-31.6A18.1,18.1,0,0,0,804,787.19c.3,0,.61-.11.69-.48a.48.48,0,0,0-.16-.46,17.69,17.69,0,0,0,1.62-4.34l26.4-114.35A18,18,0,0,0,819.16,646ZM601.65,774.88a3.57,3.57,0,0,1,1.22,0,.81.81,0,0,0,.36,0l-1.59.73-.15-.12C601.22,775.22,601.15,775,601.65,774.88Zm1.71-1.34h.4c.56,0,1.43.31,1.55-.31v0a1,1,0,0,1,.69,0,2.13,2.13,0,0,1-1.08.8l-1.69.78c.3-.13.46-.46.63-.69S603.47,773.83,603.36,773.54Zm28.94,9.69a2.92,2.92,0,0,0,1.06-.33A2.78,2.78,0,0,0,635,783c-.43.33-.71.6-1,.8l-.37.23A6.3,6.3,0,0,1,632.3,783.23ZM645,788.79c-.28-.12-.58-.21-.86-.33s-.61-.26-.6-.34a.63.63,0,0,0-.45-.82l.29,0a1.69,1.69,0,0,1,.7.15,3.12,3.12,0,0,0,3.1-.14c.2-.12.43-.19.77-.35-.41.64-1,.8-1.37,1.17a.67.67,0,0,0-.24.43c0,.26.26.26.45.31a5.09,5.09,0,0,0,2.44-.28,16.25,16.25,0,0,1-3.77,2.95,7.41,7.41,0,0,1-2.52-1.31c.75,0,1.27-.58,2-.61.35,0,.94.26,1-.26S645.38,788.94,645,788.79Zm24.28,6.06a5.09,5.09,0,0,0,2.44-.28,18,18,0,0,1-3.06,2.52,25.57,25.57,0,0,1-5.83-2.42c1-1,2.6.2,3.64-.92a1.78,1.78,0,0,0,1.62,0,3.31,3.31,0,0,0,1.58-.49,7,7,0,0,1,.77-.34c-.41.64-1,.8-1.38,1.17a.71.71,0,0,0-.23.42C668.87,794.79,669.12,794.8,669.32,794.85Zm15-1.22a4.29,4.29,0,0,1,1.43,0,.86.86,0,0,0,.79-.35c.49,0,.43.62.86.78.13,0-.32.44-.55.63s-.4.22-.59.35-.56.18-.68.37c-.5-.34-1-.72-1.46-1.11S683.74,793.76,684.33,793.63Zm10.54-2.2a4.89,4.89,0,0,0,.77-.23l.14,0a5.67,5.67,0,0,0,2.66-.31c-.6.6-1.2,1.14-1.81,1.64a5.16,5.16,0,0,1-.63-.24A3.7,3.7,0,0,1,694.87,791.43Zm17.06-.8c-.35-.3-.43-.59.21-.74a5.1,5.1,0,0,1,1.56,0c.72.08,1-.55,1.27-.94s-.51-.41-.64-.79h.32a1.36,1.36,0,0,0,.41,0c.49-.06.43.62.87.77.12,0-.33.44-.56.63s-.4.22-.59.35-.8.2-.71.61.6,0,.88.25a1.59,1.59,0,0,1-.81.6l-.74.34C712.89,791.4,712.4,791,711.93,790.63Zm20.19,4.69a3.18,3.18,0,0,1,.61.14l-.48.14C732.21,795.51,732.17,795.41,732.12,795.32Zm45.56-24.2a1,1,0,0,0-.22.33l-.16-.12c-.35-.31-.44-.61.22-.75a3,3,0,0,1,1-.05A5.85,5.85,0,0,0,777.68,771.12Zm3,.51c-.43.44-.86.84-1.3,1.23h0c-.43-.27-.84-.58-1.24-.89A6.3,6.3,0,0,0,780.64,771.63Zm12.24-10.32a4.65,4.65,0,0,1-1.5-1.18,11.27,11.27,0,0,0,2.4-.92c-.18.77-.36,1.52-.53,2.26A1.53,1.53,0,0,1,792.88,761.31ZM622.67,776h.13a2.84,2.84,0,0,0,1.44.09h.09c-.42.33-.7.59-1,.79l-.09.06a.71.71,0,0,1,.1-.14C623.67,776.31,622.8,776.34,622.67,776Zm-.79,1.73-1.22.74a1.32,1.32,0,0,0-.25.16l-.18-.14c-.35-.3-.44-.6.22-.75A4.29,4.29,0,0,1,621.88,777.69Zm-.94,1.33a.8.8,0,0,1,.88.22l-.46.1Zm-43.62-15.88a2,2,0,0,0,1.78.35c-.35.29-.58.52-.84.69l-.32.21c-.18-.09-.49-.23-.48-.29.13-.77-.55-.68-.92-.91a3,3,0,0,1-1-.77,12.5,12.5,0,0,0,2-.81c.17-.07.41,0,.46-.25a4.69,4.69,0,0,0,1.2,0,4.62,4.62,0,0,1-1.87,1.15C577.06,762.69,576.9,762.81,577.32,763.14Zm238.5-99.44s-5.54,24-11.55,50q-.81,3.54-1.64,7.13c-.55,2.51-1.1,4.56-1.65,7.13-.55,2.78-1.09,5.34-1.62,7-.54,2.31-1.07,4.6-1.58,6.83l-3.64,15.77c-.4-.16-.8-.32-1.19-.5s-.75-.32-.74-.45c.09-1-.8-1.12-1.28-1.59s-1-.69-1.19-1.47a2.35,2.35,0,0,0,2-.22c.22-.12.6,0,.6-.41s-.31-.41-.55-.52a5.42,5.42,0,0,1-2.08-1.38c.51-.38,1.41-.19,1.44-.81s-.82-.54-1.23-.86l-.44-.35c1.07-.37.88-.72.16-1.22-.44-.3-1.4-.52-1-1.29.61-1.09-.22-1.64-.64-2.35a3.59,3.59,0,0,1-.4-1.25c-.15-.9-.38-1.78-.49-2.7,0-.17-.09-.42-.35-.34a.46.46,0,0,0-.25.33,13.42,13.42,0,0,1-.32,1.81c-.34,1-.11,2.16-1.17,2.87s-.89.66.09,1.18c-.23.38-.65.51-1,.75s-1.17.34-1.07.88.86.48,1.37.59c0,0,.08.11.13.17a4.66,4.66,0,0,1-1.51,1c-.23.12-.54.21-.48.55s.34.25.56.28.4-.08.42.32c-.69.35-1.41.7-2.12,1.07-.26.13-.66.21-.59.59s.42.26.67.32a6.6,6.6,0,0,0,2.34.11,7.06,7.06,0,0,1-2.86,1.77c-.55.24-.79.42-.14.92a3.06,3.06,0,0,0,2.73.55,14.66,14.66,0,0,1-1.29,1.06c-1.09.72-2.21,1.39-3.31,2.09-.22.14-.54.25-.41.59s.43.26.69.19a1.06,1.06,0,0,1,1.17.28l-2.73.67c-.18,0-.38.09-.45.3a.27.27,0,0,0,.18.37c1,.11,1.65,1.17,2.77,1.05.66-.07.58.84,1.16,1,.17.06-.43.59-.74.84s-.54.3-.79.47-1.07.26-1,.82.81,0,1.19.33a2.18,2.18,0,0,1-1.1.8l-.08,0a8.49,8.49,0,0,1-2.54-1.48c.94,0,1.59-.77,2.5-.8.44,0,1.18.34,1.24-.35,0-.53-.74-.52-1.17-.72s-.72-.27-1.07-.43-.77-.35-.75-.46c.21-1.18-.84-1-1.41-1.39a4.76,4.76,0,0,1-1.5-1.18,19.08,19.08,0,0,0,3.16-1.25c.28-.11.68,0,.72-.43s-.32-.48-.6-.6c-.57-.24-1.14-.45-1.7-.71-.27-.12-.76-.32-.74-.45.08-1-.81-1.12-1.28-1.59s-1-.69-1.19-1.47a2.36,2.36,0,0,0,2-.22c.22-.12.59,0,.59-.41s-.3-.41-.55-.52a5.5,5.5,0,0,1-2.08-1.38c.51-.38,1.42-.19,1.45-.81s-.83-.54-1.24-.86l-.43-.35c1.07-.37.88-.72.16-1.22-.44-.3-1.4-.52-1-1.29.61-1.09-.21-1.64-.63-2.35a3.4,3.4,0,0,1-.4-1.25c-.15-.9-.39-1.78-.49-2.7,0-.17-.1-.42-.35-.34a.49.49,0,0,0-.26.33,12,12,0,0,1-.31,1.81c-.35,1-.11,2.16-1.17,2.87s-.9.66.09,1.18c-.24.38-.66.51-1,.75s-1.17.34-1.07.88.85.48,1.36.59c.05,0,.09.11.14.17a4.66,4.66,0,0,1-1.51,1c-.23.12-.55.21-.48.55s.34.25.56.28.4-.08.42.32c-.69.35-1.41.7-2.12,1.07-.27.13-.66.21-.6.59s.42.26.68.32a6.6,6.6,0,0,0,2.34.11,7,7,0,0,1-2.87,1.77c-.54.24-.78.42-.14.92a3.09,3.09,0,0,0,2.74.55,16.21,16.21,0,0,1-1.3,1.06c-1.09.72-2.2,1.39-3.3,2.09-.22.14-.54.25-.42.59s.43.26.7.19a1,1,0,0,1,1.16.28l-2.72.67c-.19,0-.38.09-.45.3a.27.27,0,0,0,.18.37c1,.11,1.65,1.17,2.76,1.05.67-.07.58.84,1.16,1,.17.06-.43.59-.74.84a8.66,8.66,0,0,1-.79.47c-.36.24-1.06.26-1,.82s.81,0,1.18.33a2.15,2.15,0,0,1-1.09.8c-1.67.78-3.35,1.53-5,2.32-.32.15-.89.17-.83.64s.6.32,1,.33a1.87,1.87,0,0,1,.77.16,3.45,3.45,0,0,0,3.47-.16,9,9,0,0,1,.86-.38c-.46.72-1.09.89-1.53,1.31a.76.76,0,0,0-.27.47c0,.29.29.3.51.35a5.79,5.79,0,0,0,2.72-.31,17.11,17.11,0,0,1-5.38,3.88c-.32.13-1,.2-.73.67s-.16.57-.4.68a17.69,17.69,0,0,1-3.23,1.21c-.3.08-.86.46-.5.59.76.27,1.34,1.13,2.23.89,1.2-.33,2.46.33,3.63-.3a.45.45,0,0,1,.52.37,36,36,0,0,1-4.26,2.46,32.14,32.14,0,0,1-4.78,2c-.25.08-.55.13-.55.48a.39.39,0,0,0,.36.39c1.13,0,2.15,1.22,3.27.26.11.07.16.09.16.11a.1.1,0,0,1,0,.1,9.15,9.15,0,0,0-1.14.54c-.15.1-.35.17-.52.26a22,22,0,0,1-2.66-1.42,13.69,13.69,0,0,1-1.5-1.13c-.27-.23-.34-.46.16-.57a3.65,3.65,0,0,1,1.19,0c.55.06.75-.43,1-.72s-.39-.31-.49-.61h.39c.55,0,1.4.31,1.52-.29s-.81-.5-1.3-.66a8.16,8.16,0,0,1-3.13-1.56c.7,0,1.18-.57,1.86-.59.33,0,.88.25.93-.26s-.55-.39-.87-.54-.54-.2-.8-.33-.58-.25-.56-.33c.15-.89-.64-.78-1.06-1a3.78,3.78,0,0,1-1.12-.89,14.81,14.81,0,0,0,2.37-.94c.2-.08.5,0,.53-.31s-.24-.36-.45-.45c-.42-.18-.85-.34-1.27-.53-.2-.09-.56-.24-.56-.34.07-.73-.6-.84-.95-1.19s-.72-.51-.89-1.1a1.73,1.73,0,0,0,1.51-.17c.16-.08.45,0,.44-.3s-.23-.31-.41-.39a4.17,4.17,0,0,1-1.55-1c.38-.28,1.06-.14,1.08-.6s-.62-.41-.93-.65l-.32-.26c.8-.28.66-.54.12-.91-.33-.23-1-.39-.73-1,.46-.82-.16-1.23-.47-1.77a2.42,2.42,0,0,1-.3-.93c-.12-.67-.29-1.33-.37-2,0-.12-.07-.31-.26-.25a.36.36,0,0,0-.19.24,10.17,10.17,0,0,1-.24,1.36c-.26.72-.08,1.61-.87,2.14s-.67.5.06.89c-.17.28-.48.38-.74.56s-.87.25-.79.65.63.37,1,.45c0,0,.07.07.11.12a3.57,3.57,0,0,1-1.13.76c-.17.09-.41.15-.36.41s.25.18.42.21.29-.06.31.24l-1.59.8c-.19.1-.49.15-.44.44s.31.19.51.24a5,5,0,0,0,1.75.08,5.36,5.36,0,0,1-2.15,1.33c-.41.17-.58.31-.1.68a2.25,2.25,0,0,0,2,.41c-.4.33-.66.6-1,.8-.82.53-1.65,1-2.48,1.56-.16.1-.4.19-.31.44s.32.19.52.14a.79.79,0,0,1,.87.21l-2,.5c-.14,0-.29.07-.34.23a.2.2,0,0,0,.13.27c.76.09,1.24.88,2.07.79.5,0,.44.62.87.78.13,0-.32.44-.55.63s-.4.22-.59.35-.8.19-.72.61.61,0,.89.24a1.62,1.62,0,0,1-.82.6l-3.75,1.74c-.24.11-.66.12-.62.48s.45.24.71.24a1.43,1.43,0,0,1,.58.12,2.58,2.58,0,0,0,2.59-.11c.17-.1.36-.16.65-.29-.34.53-.82.67-1.15,1a.55.55,0,0,0-.2.35c0,.22.21.22.38.26a4.27,4.27,0,0,0,2-.23,12.68,12.68,0,0,1-4,2.9c-.24.1-.72.16-.54.5s-.13.43-.3.52a14.87,14.87,0,0,1-2.41.9c-.23.06-.65.34-.38.44.57.2,1,.84,1.67.66.89-.24,1.83.25,2.71-.22a.34.34,0,0,1,.39.27,27.3,27.3,0,0,1-3.19,1.85c-.71.36-1.43.67-2.17,1a.43.43,0,0,0,.05-.12c.1-.51-.81-.5-1.3-.65a8.57,8.57,0,0,1-3.14-1.56c.7,0,1.19-.58,1.87-.6.33,0,.88.26.93-.26s-.56-.39-.88-.54-.54-.2-.79-.32-.58-.26-.57-.34c.16-.88-.63-.78-1-1a3.62,3.62,0,0,1-1.12-.88,14.69,14.69,0,0,0,2.36-.94c.21-.08.51,0,.54-.32s-.25-.36-.45-.45c-.42-.18-.85-.34-1.27-.53-.21-.09-.57-.24-.56-.34.07-.73-.6-.83-1-1.19s-.72-.51-.89-1.09a1.72,1.72,0,0,0,1.51-.17c.17-.09.45,0,.45-.3s-.23-.31-.41-.4a4,4,0,0,1-1.56-1c.39-.28,1.06-.14,1.09-.6s-.62-.41-.93-.65c-.09-.06-.17-.13-.32-.25.8-.28.65-.54.11-.92-.33-.22-1-.38-.72-1,.45-.82-.16-1.23-.48-1.76a2.54,2.54,0,0,1-.3-.93c-.11-.68-.28-1.34-.36-2,0-.13-.07-.32-.26-.26a.35.35,0,0,0-.2.25,8.46,8.46,0,0,1-.23,1.35c-.26.73-.09,1.61-.88,2.15s-.66.49.07.88c-.17.29-.49.38-.74.56s-.88.25-.8.66.64.36,1,.44c0,0,.06.08.1.13a3.43,3.43,0,0,1-1.13.75c-.17.09-.4.16-.36.41s.26.19.42.22.3-.06.32.23l-1.59.8c-.2.1-.49.16-.44.44s.31.2.5.24a5,5,0,0,0,1.75.09,5.3,5.3,0,0,1-2.14,1.32c-.41.18-.59.31-.11.69a2.33,2.33,0,0,0,2.05.41,11.78,11.78,0,0,1-1,.79c-.81.54-1.65,1-2.47,1.56-.16.1-.4.19-.31.45s.32.19.52.14a.76.76,0,0,1,.87.21l-.94.22a9.23,9.23,0,0,1-3.26-1.75c.91,0,1.55-.75,2.44-.78.43,0,1.15.34,1.21-.34.05-.51-.72-.5-1.14-.7s-.7-.26-1-.42-.75-.34-.74-.44c.2-1.16-.82-1-1.37-1.36a4.73,4.73,0,0,1-1.47-1.16,18.24,18.24,0,0,0,3.09-1.22c.27-.11.66-.05.7-.42s-.32-.46-.59-.58c-.55-.24-1.11-.45-1.66-.69-.26-.13-.74-.32-.72-.45.08-1-.79-1.09-1.25-1.55s-1-.67-1.17-1.43a2.33,2.33,0,0,0,2-.22c.21-.12.58,0,.58-.4s-.3-.4-.54-.51a5.25,5.25,0,0,1-2-1.35c.5-.37,1.38-.18,1.41-.78s-.8-.54-1.21-.85l-.42-.34c1-.36.86-.7.16-1.19-.43-.29-1.37-.5-1-1.26.59-1.07-.21-1.6-.63-2.3a3.17,3.17,0,0,1-.38-1.22c-.15-.87-.38-1.74-.49-2.63,0-.17-.09-.41-.33-.34a.46.46,0,0,0-.25.33,14.53,14.53,0,0,1-.31,1.77c-.34.94-.11,2.1-1.15,2.79s-.87.65.09,1.16c-.23.37-.64.5-1,.74s-1.14.32-1,.85.84.47,1.33.58c.05,0,.09.1.14.17a4.61,4.61,0,0,1-1.48,1c-.22.12-.53.2-.47.54s.33.24.55.28.39-.08.41.3l-2.07,1c-.26.13-.65.2-.58.57s.41.26.66.32a6.74,6.74,0,0,0,2.28.11,7,7,0,0,1-2.8,1.73c-.53.22-.76.4-.13.89a3,3,0,0,0,2.67.54c-.52.43-.87.78-1.26,1-1.07.69-2.16,1.35-3.23,2-.22.14-.53.25-.41.58s.42.25.68.19a1,1,0,0,1,1.14.27l-2.66.65c-.19,0-.37.09-.44.3a.27.27,0,0,0,.17.36c1,.11,1.61,1.14,2.7,1,.65-.07.57.81,1.14,1,.16.06-.43.58-.73.82s-.52.29-.77.46-1,.25-.93.8.79,0,1.16.32a2.11,2.11,0,0,1-1.07.78c-.84.4-1.68.78-2.52,1.17a1.77,1.77,0,0,1-.67-.9,1.73,1.73,0,0,0,1.51-.17c.17-.08.45,0,.45-.3s-.23-.31-.42-.39a4.17,4.17,0,0,1-1.55-1c.38-.28,1.06-.14,1.08-.6s-.62-.41-.92-.65l-.33-.26c.8-.28.66-.54.12-.91-.33-.23-1-.39-.73-1,.46-.82-.16-1.22-.47-1.76a2.48,2.48,0,0,1-.3-.93c-.11-.67-.29-1.34-.37-2,0-.12-.07-.31-.26-.26a.41.41,0,0,0-.19.25,10.17,10.17,0,0,1-.24,1.36c-.25.72-.08,1.61-.87,2.14s-.67.5.07.89c-.18.28-.49.38-.74.56s-.88.25-.8.65.64.37,1,.45c0,0,.06.07.1.12a3.46,3.46,0,0,1-1.13.76c-.17.09-.41.15-.36.41s.25.18.42.21.3-.06.31.24c-.51.26-1,.52-1.58.8-.2.1-.5.15-.45.44s.32.19.51.24a5,5,0,0,0,1.75.08,5.47,5.47,0,0,1-2.15,1.33c-.4.17-.58.31-.1.68a2.29,2.29,0,0,0,2,.41,12.22,12.22,0,0,1-1,.8c-.72.47-1.45.91-2.18,1.37a7.94,7.94,0,0,1-2.62-1.47c.84,0,1.42-.69,2.23-.72.4,0,1.06.31,1.12-.31s-.67-.46-1-.64-.65-.25-1-.39-.69-.31-.67-.41c.18-1.05-.76-.93-1.26-1.24a4.5,4.5,0,0,1-1.35-1.06,18.07,18.07,0,0,0,2.84-1.13c.24-.09.6,0,.64-.38s-.29-.42-.54-.53c-.51-.22-1-.41-1.52-.64-.25-.11-.68-.29-.67-.4.08-.88-.72-1-1.15-1.43s-.86-.61-1.06-1.31a2.11,2.11,0,0,0,1.81-.2c.2-.11.53,0,.53-.37s-.27-.37-.49-.47a4.77,4.77,0,0,1-1.86-1.23c.45-.34,1.26-.17,1.29-.72s-.74-.49-1.11-.78l-.38-.31c1-.33.78-.64.14-1.09-.4-.27-1.26-.46-.87-1.15.54-1-.2-1.48-.57-2.11a3,3,0,0,1-.36-1.12c-.14-.8-.35-1.6-.44-2.42,0-.15-.09-.37-.31-.31a.45.45,0,0,0-.23.3,12.18,12.18,0,0,1-.29,1.62c-.31.87-.1,1.93-1,2.57s-.8.6.08,1.06c-.21.34-.59.46-.89.68s-1,.29-1,.78.77.43,1.22.53c.05,0,.08.09.13.15a4.14,4.14,0,0,1-1.36.9c-.2.12-.48.19-.43.5s.31.22.5.25.36-.07.38.28l-1.9,1c-.24.12-.59.19-.53.53s.37.23.6.29a6,6,0,0,0,2.1.1,6.4,6.4,0,0,1-2.57,1.59c-.49.2-.7.37-.12.82a2.75,2.75,0,0,0,2.45.49c-.48.4-.8.71-1.16.95-1,.64-2,1.24-3,1.87-.2.12-.48.23-.37.53s.38.23.62.17a.93.93,0,0,1,1,.25l-2.44.6c-.17,0-.34.08-.4.27a.24.24,0,0,0,.16.33c.91.1,1.48,1.05,2.48.94.59-.06.52.75,1,.94.15.05-.39.52-.67.75s-.48.26-.71.42-.95.23-.85.73.72,0,1.06.29a1.93,1.93,0,0,1-1,.72c-1,.46-1.95.9-2.92,1.35a24.63,24.63,0,0,1-3.92-2,15.73,15.73,0,0,1-1.8-1.36c-.32-.27-.4-.54.19-.67a4.29,4.29,0,0,1,1.43,0c.65.06.89-.51,1.16-.86s-.46-.38-.58-.73h.46c.66,0,1.68.37,1.82-.36s-1-.59-1.55-.78a10.07,10.07,0,0,1-3.76-1.87c.84,0,1.42-.68,2.23-.71.4,0,1.06.31,1.12-.31s-.66-.47-1-.65-.64-.24-1-.39-.69-.31-.68-.4c.19-1.06-.76-.94-1.26-1.25a4.35,4.35,0,0,1-1.35-1.06,16.8,16.8,0,0,0,2.84-1.12c.24-.1.6,0,.64-.38s-.29-.43-.54-.54c-.51-.21-1-.41-1.52-.63-.25-.11-.68-.29-.67-.41.08-.87-.72-1-1.14-1.43s-.87-.61-1.07-1.31a2.11,2.11,0,0,0,1.81-.2c.2-.1.53,0,.53-.36s-.27-.37-.49-.47a4.91,4.91,0,0,1-1.86-1.24c.46-.33,1.27-.16,1.29-.72s-.74-.49-1.11-.78l-.38-.3c1-.33.79-.65.14-1.09-.4-.28-1.25-.47-.87-1.16.54-1-.19-1.47-.57-2.11a3.07,3.07,0,0,1-.36-1.12c-.13-.8-.34-1.6-.44-2.41,0-.15-.08-.38-.31-.31a.42.42,0,0,0-.23.3,12.17,12.17,0,0,1-.28,1.62c-.31.86-.1,1.93-1,2.56s-.8.6.08,1.06c-.21.35-.59.46-.89.68s-1,.3-.95.78.76.44,1.22.53c0,0,.07.1.12.16a4.14,4.14,0,0,1-1.36.9c-.2.11-.48.18-.43.49s.31.22.51.26.35-.08.37.28l-1.9,1c-.23.11-.59.18-.53.52s.38.24.61.29a5.9,5.9,0,0,0,2.09.1,6.23,6.23,0,0,1-2.57,1.59c-.48.21-.7.37-.12.82a2.73,2.73,0,0,0,2.45.49,12,12,0,0,1-1.16.95c-1,.64-2,1.25-3,1.87-.2.13-.48.23-.37.53s.38.23.62.18a.92.92,0,0,1,1,.24l-2.44.6c-.16,0-.34.08-.4.27a.24.24,0,0,0,.16.33c.91.1,1.48,1.05,2.48,1,.59-.06.52.74,1,.93.15.05-.39.53-.67.75s-.48.27-.7.42-1,.23-.86.73.73,0,1.06.3a1.94,1.94,0,0,1-1,.72c-1.49.7-3,1.37-4.49,2.07-.29.14-.79.15-.74.58a.57.57,0,0,0,0,.14l-.16-.07a3.82,3.82,0,0,1-1.2-.9,15.44,15.44,0,0,0,2.53-1c.22-.08.54,0,.58-.32s-.26-.36-.49-.45c-.45-.19-.91-.35-1.36-.54-.22-.1-.6-.25-.59-.35.07-.74-.65-.85-1-1.21s-.77-.52-1-1.11a2,2,0,0,0,1.62-.18c.18-.08.48,0,.48-.3s-.24-.32-.44-.4a4.46,4.46,0,0,1-1.67-1.05c.42-.29,1.14-.15,1.16-.61s-.66-.42-1-.67l-.34-.26c.85-.28.7-.55.12-.92-.35-.23-1.12-.4-.78-1,.49-.84-.17-1.25-.51-1.8a2.38,2.38,0,0,1-.32-.95c-.12-.68-.31-1.35-.39-2.05,0-.13-.08-.32-.28-.26a.38.38,0,0,0-.21.25,8.85,8.85,0,0,1-.25,1.38c-.28.74-.09,1.64-.94,2.18s-.71.51.08.9c-.19.29-.53.39-.8.57s-.94.26-.85.67.68.37,1.09.45c0,0,.07.08.11.13a4,4,0,0,1-1.21.77c-.19.09-.44.15-.39.42s.27.18.45.21.32-.06.34.24l-1.7.81c-.21.1-.53.16-.48.45s.34.2.54.25a5.48,5.48,0,0,0,1.88.08,4.44,4.44,0,0,1-1.51,1l-.24-.09c-.22-.1-.62-.27-.6-.35.16-.9-.68-.79-1.13-1a4,4,0,0,1-1.21-.9,16.15,16.15,0,0,0,2.54-1c.22-.08.54,0,.58-.32s-.27-.37-.49-.46c-.45-.18-.91-.35-1.36-.54-.22-.09-.61-.24-.6-.34.07-.75-.64-.85-1-1.21s-.78-.52-1-1.12a2,2,0,0,0,1.62-.17c.18-.09.48,0,.48-.31s-.25-.31-.44-.4a4.38,4.38,0,0,1-1.67-1.05c.41-.28,1.14-.14,1.16-.61s-.66-.41-1-.66l-.35-.26c.86-.28.71-.55.13-.93-.35-.23-1.12-.39-.78-1,.49-.83-.17-1.25-.51-1.79a2.43,2.43,0,0,1-.32-1c-.12-.68-.31-1.36-.39-2,0-.13-.08-.32-.28-.26a.36.36,0,0,0-.21.25,9.06,9.06,0,0,1-.25,1.38c-.28.73-.09,1.64-.94,2.18s-.72.5.07.9c-.18.29-.52.39-.79.57s-.94.25-.86.66.69.37,1.1.46c0,0,.06.08.1.13a3.7,3.7,0,0,1-1.21.76c-.18.1-.43.16-.38.42s.27.19.45.22.32-.06.34.24l-1.71.81c-.21.1-.53.16-.47.45s.33.2.54.25a5.73,5.73,0,0,0,1.88.08,4.2,4.2,0,0,1-1.47,1,10.14,10.14,0,0,1-3.78-1.93c.93,0,1.57-.76,2.47-.8.44,0,1.17.35,1.23-.34.05-.52-.73-.51-1.16-.71s-.71-.27-1.05-.43-.76-.35-.75-.45c.21-1.17-.83-1-1.39-1.38a4.58,4.58,0,0,1-1.49-1.17,20,20,0,0,0,3.13-1.24c.28-.11.67-.05.72-.43s-.33-.47-.6-.59c-.56-.24-1.13-.45-1.69-.7-.27-.12-.75-.32-.73-.45.08-1-.8-1.11-1.27-1.58s-1-.68-1.18-1.45a2.31,2.31,0,0,0,2-.22c.22-.12.59-.05.59-.4s-.3-.41-.54-.52a5.25,5.25,0,0,1-2.06-1.37c.5-.37,1.4-.19,1.43-.8s-.82-.54-1.23-.86l-.43-.34c1.07-.37.87-.71.16-1.21-.44-.3-1.39-.51-1-1.27.6-1.09-.22-1.63-.64-2.34a3.53,3.53,0,0,1-.39-1.24c-.15-.89-.38-1.77-.49-2.67,0-.17-.09-.41-.34-.34a.49.49,0,0,0-.26.33,11.54,11.54,0,0,1-.31,1.79c-.34,1-.11,2.14-1.16,2.84s-.88.66.09,1.18c-.23.37-.65.5-1,.74s-1.16.33-1.06.87.85.48,1.35.59c0,0,.09.1.14.17a4.72,4.72,0,0,1-1.5,1c-.23.13-.54.21-.48.55s.34.24.56.28.39-.08.42.31L607.36,759c-.26.13-.65.21-.58.59s.41.26.66.32a6.5,6.5,0,0,0,2.32.11,7,7,0,0,1-2.84,1.75c-.54.23-.77.41-.14.91a3.05,3.05,0,0,0,2.71.55,14.71,14.71,0,0,1-1.28,1c-1.08.71-2.18,1.38-3.28,2.07-.21.13-.53.25-.4.58s.42.26.68.19a1,1,0,0,1,1.16.28l-2.7.66c-.19,0-.38.09-.45.3a.27.27,0,0,0,.18.37c1,.11,1.64,1.16,2.74,1,.66-.07.58.82,1.15,1,.17.06-.43.58-.73.83s-.53.3-.79.47-.88.25-.95.62c-.27-.07-.6-.11-.83-.19a8.49,8.49,0,0,1-3.2-1.58c.71,0,1.21-.59,1.9-.61.34,0,.9.26.95-.27s-.57-.39-.9-.54-.54-.21-.81-.34-.58-.26-.57-.34c.16-.9-.65-.8-1.07-1.06a3.54,3.54,0,0,1-1.15-.9,14.08,14.08,0,0,0,2.41-1c.21-.08.52,0,.55-.32s-.25-.37-.46-.46c-.43-.18-.87-.35-1.3-.54-.2-.09-.57-.25-.56-.35.06-.74-.62-.85-1-1.21s-.74-.52-.91-1.12a1.76,1.76,0,0,0,1.54-.17c.17-.09.46,0,.46-.31s-.24-.31-.42-.4a4.17,4.17,0,0,1-1.59-1.05c.39-.29,1.08-.14,1.11-.61s-.63-.42-1-.66l-.33-.27c.82-.28.67-.55.12-.93-.33-.23-1.06-.39-.74-1,.46-.83-.16-1.25-.48-1.8a2.53,2.53,0,0,1-.31-.95c-.11-.68-.29-1.36-.37-2.05,0-.13-.07-.32-.27-.27a.4.4,0,0,0-.19.26,10.19,10.19,0,0,1-.24,1.38c-.27.74-.09,1.64-.9,2.18s-.68.51.07.91c-.18.29-.5.39-.75.57s-.9.25-.82.66.65.38,1,.46c0,0,.07.08.11.13a3.79,3.79,0,0,1-1.16.77c-.17.09-.41.16-.36.42s.26.18.42.21.31-.06.33.24l-1.62.82c-.2.1-.51.16-.45.45s.32.2.51.25a5.2,5.2,0,0,0,1.79.08,5.54,5.54,0,0,1-2.19,1.35c-.42.18-.6.32-.11.7a2.36,2.36,0,0,0,2.09.42c-.41.34-.68.6-1,.81-.83.54-1.68,1.06-2.52,1.59-.16.1-.41.19-.31.45s.32.2.52.15a.79.79,0,0,1,.89.21l-2.07.5c-.15,0-.29.08-.35.24a.21.21,0,0,0,.14.28c.77.08,1.26.89,2.11.8.5,0,.44.64.88.79.13,0-.33.45-.56.64s-.41.23-.6.36-.82.2-.73.63.62,0,.9.25a1.68,1.68,0,0,1-.83.61l-3.36,1.55-.2-.17c-.24-.2-.29-.39.14-.49a3,3,0,0,1,1,0c.48,0,.65-.37.85-.63s-.34-.27-.43-.53h.34c.48,0,1.22.27,1.33-.25s-.71-.44-1.13-.57a7.23,7.23,0,0,1-2.73-1.36c.61,0,1-.5,1.62-.52.29,0,.77.23.81-.22s-.48-.34-.76-.47l-.7-.28c-.17-.09-.5-.23-.48-.3.13-.77-.56-.68-.92-.9a3.29,3.29,0,0,1-1-.77,12.29,12.29,0,0,0,2.06-.82c.18-.07.44,0,.47-.27s-.22-.31-.4-.39l-1.1-.46c-.18-.08-.49-.21-.49-.3.06-.63-.52-.73-.83-1s-.62-.44-.77-.95a1.53,1.53,0,0,0,1.31-.14c.15-.08.39,0,.39-.27s-.2-.27-.36-.34a3.54,3.54,0,0,1-1.35-.89c.33-.25.92-.13.94-.53s-.54-.35-.8-.56l-.28-.23c.69-.24.57-.46.1-.79-.29-.2-.91-.34-.63-.84.39-.71-.14-1.07-.42-1.53a2.27,2.27,0,0,1-.26-.81c-.1-.58-.25-1.16-.32-1.75,0-.11-.06-.28-.22-.23s-.15.14-.17.22a7.66,7.66,0,0,1-.21,1.18c-.22.62-.07,1.4-.76,1.86s-.58.43.06.77c-.15.25-.42.33-.64.49s-.76.21-.7.57.56.31.89.38c0,0,.05.07.09.11a3.08,3.08,0,0,1-1,.66c-.15.08-.36.13-.32.36s.22.16.37.18.26-.05.27.21l-1.38.69c-.08,0-.17.07-.25.12-.29-.12-.58-.23-.86-.36s-.49-.21-.48-.29c.06-.64-.52-.73-.83-1s-.63-.44-.78-.95a1.5,1.5,0,0,0,1.31-.15c.15-.07.39,0,.39-.26s-.2-.27-.36-.34a3.64,3.64,0,0,1-1.35-.9c.34-.24.92-.12.94-.52s-.53-.36-.8-.57a2.53,2.53,0,0,1-.28-.22c.69-.24.57-.47.1-.79-.29-.2-.91-.34-.63-.84.39-.71-.14-1.07-.42-1.53a2.48,2.48,0,0,1-.26-.81c-.09-.59-.25-1.17-.32-1.76,0-.11-.06-.27-.22-.22a.33.33,0,0,0-.17.21,7.45,7.45,0,0,1-.2,1.18c-.23.63-.08,1.4-.76,1.86s-.58.44.06.77a1.44,1.44,0,0,1-.57.44l-20.78-90a.82.82,0,0,1,.62-1l132-31.31a.81.81,0,0,1,.38,0l132,31.31A.82.82,0,0,1,815.82,663.7Z"/><path class="cls-19" d="M693.16,744.62V732.48c-.44-.37-.93-.79-1.42-.64-.47-.25-1-.34-1.38-.62a3.35,3.35,0,0,1-1.08-.79.42.42,0,0,0-.71.07c0-.67-.37-.67-1-.9-.32-.89-.7-.93-1.13-.89-.43.24-.91-.06-1.43-1.41s-1.08,0-1.65-1.42c-.58,0-1.19-.87-1.8-1.68-.61-1.16-1.23-.37-1.85-1.52-.61-1.48-1.23-1.4-1.82-1.77-.4-.45-.78-.88-1.16-1.23a3.63,3.63,0,0,0-1.08-.77c-.69-1.12-1.32-.88-1.85-1.67-1-.89-1.71-1.77-1.71-1.54,0-.91-.3-.26-.8-.3a20.64,20.64,0,0,1-2-.75c-.4-.21-.82.53-1.26,0-.44.13-.88-.41-1.33-.79-.45.24-.9-.71-1.34-.48-.43-.46-.86-.86-1.25-.7-.8-1.08-1.5-1.29-2-1-.5-1.08-.79-1-.79-.06,0-.08-.19.08-.49.2a3.91,3.91,0,0,0-1.26.91,1.87,1.87,0,0,1-1.11.74,4.36,4.36,0,0,0-2,1.49c-.54.78-.89.77-.89.36,0,.53-.22-1-.58-.55-.35-.92-.86-.91-1.43-1.37-.29.22-.59.17-.9-.71-.32-.52-.64-1.19-1-1.18a13.24,13.24,0,0,1-1.86-1.67,4.41,4.41,0,0,0-1.44-1.3c-.35-.32-.57-.52-.57-.62,0-.42-.23,0-.62-.43a2.55,2.55,0,0,1-1.64-1.15c-.68-.84-1.47-2-2.32-1.61-.77-.37-1.6-.34-2.42-1.5a3.66,3.66,0,0,0-.54-.64c-.4-.37-.8-1-1.19-1-.39-.21-.78-.76-1.16-.77a8.49,8.49,0,0,0-2.05-1.26c-.18.06-.35-.59-.51-.31-1.22-1.13-2-1.72-2-1.4s-.29.13-.75.23c0,.1-.14.67-.38,1.6-.12.28-.26,1.49-.43,1.87-.16.66-.35,1.25-.54,2.25a8.67,8.67,0,0,1-.31,1.49c-.11.09-.22,2.16-.33,1.18-.11.43-.23,1-.34,1.29-.12.57-.24,1.2-.36,1.67-.12,0-.24.6-.36,1.29a8.18,8.18,0,0,1-.36,1.59c-.12-.24-.24,1.11-.37,1.5-.12-.49-.24,1.59-.36,1.76-.12-.19-.23.75-.35,1.42-.12.86-.23.55-.34,1.49a8.58,8.58,0,0,1-.33,1.32c-.11-.05-.21,1.32-.31,1.4-.2.84-.38,1.65-.55,2.33a11.93,11.93,0,0,0-.42,1.79c-.24,1-.38.51-.38,1.6,0-.24.32,1.46.86,1.29.27.69.6,1.89,1,2,.38.34.79.86,1.25,1.38a6,6,0,0,1,1.44,2.39c.51.5,1,1.62,1.59,2.18a12,12,0,0,1,1.65,2.47c.55,0,1.11,1.42,1.65,2.51a17,17,0,0,0,3,4.57c.91,1.37,1.67,1.81,2.22,3.35.54.68.86,1.36.86,1.29a4.85,4.85,0,0,0,2.09.92,35.68,35.68,0,0,0,5,2.2c1.94.71,4,2,6,2.63a12.24,12.24,0,0,0,5,2.2c1.29.45,2.09,1.71,2.09.92a3.68,3.68,0,0,0,1.1,1.94c.66.9,1.55,2.7,2.43,4.26.88,2.39,1.76,2.83,2.42,4.27a4.68,4.68,0,0,1,1.1,1.94c0,.27.5-.16,1.3-1.44.8-1.71,1.9-2.07,3.1-3.42a10.51,10.51,0,0,0,3.71-4.08c1.2-1.41,2.3-2.45,3.1-3.42l1.3-1.43Z"/><path class="cls-20" d="M743,759.21,727.55,741.6l8.74-23.27-7.44-22.39a6,6,0,0,0-1.27,0c-.71.55-1.37.65-1.87,1.16,0-.57-.56.73-1.3,1.49-.37.34-.79.86-1.21,1.29-.42-.31-.84,1.84-1.21,1.47a10.39,10.39,0,0,1-1.3,1.48c-.29.58-.56,1.28-.81,1-.25-1.17-.47.91-.68,1.14a6.88,6.88,0,0,1-.53,1.34c-.16.53-.29,1.68-.39,1.11-.1,1.75-.18.78-.24,1.48a9.83,9.83,0,0,0-.08,1.15,8.93,8.93,0,0,1-.18,1.8c-.13.37-.31.73-.55.43,0-.15-.43-.06-1.13,1.54a2.3,2.3,0,0,0-1.21,1.55c-.23.89-.47,1.14-.71,1.14a7.15,7.15,0,0,1-.76,1,5.8,5.8,0,0,1-.8,1.28c-.26.32-.54.58-.81.87a22.74,22.74,0,0,0-1.6,2.22c-.26.33-.51.73-.76,1.09-.25,1-.49,1.07-.71,1a8.94,8.94,0,0,1-1.22,1.52c-.69.68-1.12,1.73-1.12,1.53-.36.73-.83,1.63-1.36,1.14,0-.21-1.85-.16-1.85.92-.09,0-.18.33-.27.15-.74.6-1.55,0-2.37,1.34-.82,1.06-1.64.69-2.38,1.06-.22-.2-.43.16-.63.29s-.61.48-.88.67V753l4.17,18,10,8.17,2.93-.56Z"/><path class="cls-21" d="M791.8,713.2l2-6.92,2-11.18c-.51,0-1.1.93-1.73,1.29-.63.69-1.3.6-2,1.48a5.17,5.17,0,0,0-2,1.42c-.63.39-1.22,1.1-1.72,1.36-1,1-1.68,1.33-1.68,1.26,0-.28-.39-.34-1,.25-.57-.07-1.34.47-2.1.57-.77-.12-1.53.83-2.11.35a1.18,1.18,0,0,0-1,.47c0-.48-.23-.41-.62-.6-.39-.35-.93-.34-1.54-.78s-1.32-.31-2-.94c-.7,0-1.4-1.17-2-1.64a5.75,5.75,0,0,0-1.55-.82,1.84,1.84,0,0,1-.37-.17l-1.6,4,1.35,6.73,5,5.71,4,3.31,1.15,5.1a4,4,0,0,1,2.46.5c.76,0,1.44,1,2,.69l-1-6.29Z"/><path class="cls-2" d="M600.86,871.35h1.45v13.21h-1.19l-8.53-10.83v10.83h-1.45V871.35h1.4l8.32,10.59Z"/><path class="cls-2" d="M618.35,884.56h-1.6l-1.55-3.49H608l-1.57,3.49h-1.52l6-13.3h1.4ZM611.61,873l-3,6.74h6Z"/><path class="cls-2" d="M624.24,884.56h-1.49V872.73h-4.44v-1.38h10.36v1.38h-4.43Z"/><path class="cls-2" d="M633.1,871.35v13.21h-1.49V871.35Z"/><path class="cls-2" d="M649.37,880.55a7,7,0,0,1-1.38,2.18,6.51,6.51,0,0,1-2.13,1.5,7.09,7.09,0,0,1-5.5,0,6.51,6.51,0,0,1-3.49-3.65,7.19,7.19,0,0,1-.48-2.61,7,7,0,0,1,.49-2.62,6.76,6.76,0,0,1,1.37-2.18,6.59,6.59,0,0,1,4.89-2,6.82,6.82,0,0,1,2.75.54,6.51,6.51,0,0,1,3.49,3.65,7.21,7.21,0,0,1,.48,2.62A7.12,7.12,0,0,1,649.37,880.55Zm-1.45-4.71a5.22,5.22,0,0,0-1.08-1.73,5.38,5.38,0,0,0-1.65-1.17,5,5,0,0,0-2.09-.44,5.09,5.09,0,0,0-2.08.43,4.8,4.8,0,0,0-1.63,1.16,5.26,5.26,0,0,0-1.07,1.73,5.71,5.71,0,0,0-.39,2.12,5.84,5.84,0,0,0,.39,2.13,5.12,5.12,0,0,0,2.74,2.91,5.33,5.33,0,0,0,4.17,0,4.92,4.92,0,0,0,1.63-1.17,5.29,5.29,0,0,0,1.06-1.72,5.74,5.74,0,0,0,.39-2.12A5.85,5.85,0,0,0,647.92,875.84Z"/><path class="cls-2" d="M662.73,871.35h1.45v13.21H663l-8.53-10.83v10.83H653V871.35h1.4l8.32,10.59Z"/><path class="cls-2" d="M680.22,884.56h-1.61l-1.54-3.49h-7.19l-1.57,3.49h-1.53l6-13.3h1.4ZM673.48,873l-3,6.74h6Z"/><path class="cls-2" d="M682.82,871.35h1.49v11.83h7.44v1.38h-8.93Z"/><path class="cls-2" d="M709.65,872.73h-8v4.72h7.15v1.36h-7.15v5.75h-1.49V871.35h9.49Z"/><path class="cls-2" d="M724.65,880.55a7,7,0,0,1-1.38,2.18,6.51,6.51,0,0,1-2.13,1.5,6.69,6.69,0,0,1-2.75.56,6.82,6.82,0,0,1-2.75-.55,6.53,6.53,0,0,1-2.12-1.48,6.61,6.61,0,0,1-1.37-2.17,7.19,7.19,0,0,1-.48-2.61,7,7,0,0,1,1.87-4.8,6.51,6.51,0,0,1,2.13-1.5,6.69,6.69,0,0,1,2.75-.55,6.78,6.78,0,0,1,2.75.54,6.51,6.51,0,0,1,3.49,3.65,7.21,7.21,0,0,1,.48,2.62A6.92,6.92,0,0,1,724.65,880.55Zm-1.44-4.71a5.24,5.24,0,0,0-1.09-1.73,5.15,5.15,0,0,0-1.65-1.17,4.94,4.94,0,0,0-2.08-.44,5.14,5.14,0,0,0-2.09.43,4.89,4.89,0,0,0-1.63,1.16,5.43,5.43,0,0,0-1.07,1.73,5.91,5.91,0,0,0-.38,2.12,6,6,0,0,0,.38,2.13,5.2,5.2,0,0,0,2.74,2.91,5.33,5.33,0,0,0,4.17,0,4.92,4.92,0,0,0,1.63-1.17,5.49,5.49,0,0,0,1.07-1.72,5.74,5.74,0,0,0,.38-2.12A5.84,5.84,0,0,0,723.21,875.84Z"/><path class="cls-2" d="M737.39,884.56l-3.83-5.13h-3.78v5.13h-1.49V871.35H734a6.33,6.33,0,0,1,2,.29,4.14,4.14,0,0,1,1.5.8,3.55,3.55,0,0,1,1,1.24,3.91,3.91,0,0,1,.33,1.62,3.83,3.83,0,0,1-.26,1.48,3.46,3.46,0,0,1-.74,1.13,4.57,4.57,0,0,1-1.15.81,5.43,5.43,0,0,1-1.43.45l4.06,5.39Zm-1-11.14a4,4,0,0,0-2.5-.69h-4.09v5.38h4.07a4.86,4.86,0,0,0,1.36-.19,3.42,3.42,0,0,0,1.08-.54,2.43,2.43,0,0,0,1-2A2.32,2.32,0,0,0,736.37,873.42Z"/><path class="cls-2" d="M751.48,872.71h-8.06v4.51h7.21v1.36h-7.21v4.62h8.16v1.36h-9.65V871.35h9.55Z"/><path class="cls-2" d="M755.88,875.49a1.72,1.72,0,0,0,.54.69,4,4,0,0,0,1.1.57,12.71,12.71,0,0,0,1.79.48,7.86,7.86,0,0,1,3.26,1.36,3,3,0,0,1,1,2.4,3.44,3.44,0,0,1-1.26,2.74,3.93,3.93,0,0,1-1.42.75,5.78,5.78,0,0,1-1.81.27,7.9,7.9,0,0,1-2.89-.51,8,8,0,0,1-2.5-1.59l.92-1.09a7.74,7.74,0,0,0,2.1,1.41,6.12,6.12,0,0,0,2.43.46,3.42,3.42,0,0,0,2.14-.62,2,2,0,0,0,.8-1.65,2.24,2.24,0,0,0-.15-.84,1.66,1.66,0,0,0-.53-.67,3.9,3.9,0,0,0-1.05-.55,14.19,14.19,0,0,0-1.71-.47,14,14,0,0,1-2-.57,4.94,4.94,0,0,1-1.39-.77,3,3,0,0,1-.81-1.06,3.5,3.5,0,0,1-.26-1.44,3.18,3.18,0,0,1,.32-1.45,3.43,3.43,0,0,1,.9-1.15,4.36,4.36,0,0,1,1.38-.75,5.38,5.38,0,0,1,1.74-.28,7.46,7.46,0,0,1,2.53.4,7.65,7.65,0,0,1,2.11,1.21l-.87,1.15a6.73,6.73,0,0,0-1.86-1.1,5.79,5.79,0,0,0-2-.33,3.49,3.49,0,0,0-1.16.17,2.86,2.86,0,0,0-.89.45,2.07,2.07,0,0,0-.57.68,1.89,1.89,0,0,0-.19.85A2.3,2.3,0,0,0,755.88,875.49Z"/><path class="cls-2" d="M771.35,884.56h-1.49V872.73h-4.44v-1.38h10.36v1.38h-4.43Z"/><path class="cls-2" d="M573.5,865.28h-5.84l-6.88-19.94-6.88,19.94h-5.83l-10.41-30.69h7.19l6.31,20.64L558,834.5h5.74l6.84,20.73,6.31-20.64h7Z"/><path class="cls-2" d="M588.87,865.07V834.59h22.94v6H595.49v6.18h14.37v6H595.49v6.4H612v6Z"/><path class="cls-2" d="M639.42,865.07l-14.76-19.38v19.38H618V834.59h6.18l14.29,18.76V834.59h6.61v30.48Z"/><path class="cls-2" d="M675.12,865.07l-2.78-6.84H659.45l-2.79,6.84h-6.83l13.06-30.7h6.18l13.06,30.7Zm-9.23-22.65-4,9.89h8.1Z"/><path class="cls-2" d="M700.64,840.77v24.3h-6.71v-24.3h-9.27v-6.18h25.25v6.18Z"/><path class="cls-2" d="M739.39,862.41a14.18,14.18,0,0,1-6,2.81,20.35,20.35,0,0,1-4,.37,15.79,15.79,0,0,1-6.22-1.22,15,15,0,0,1-8.23-8.32,15.91,15.91,0,0,1-1.18-6.14v-.08a15.9,15.9,0,0,1,4.44-11.13,15.27,15.27,0,0,1,5-3.4,16.39,16.39,0,0,1,6.44-1.24,20.26,20.26,0,0,1,3.9.35,15.81,15.81,0,0,1,3.2,1,14,14,0,0,1,2.66,1.48,17.36,17.36,0,0,1,2.26,1.92l-4.26,4.92a16.3,16.3,0,0,0-3.64-2.53,9.24,9.24,0,0,0-4.16-.91,8.46,8.46,0,0,0-6.36,2.78,9.46,9.46,0,0,0-1.82,3,10.18,10.18,0,0,0-.66,3.68v.09a10.37,10.37,0,0,0,.66,3.7,9.53,9.53,0,0,0,1.8,3,8.21,8.21,0,0,0,2.79,2.07,8.35,8.35,0,0,0,3.59.77,9.32,9.32,0,0,0,4.42-1,16.86,16.86,0,0,0,3.59-2.62l4.27,4.31A21.47,21.47,0,0,1,739.39,862.41Z"/><path class="cls-2" d="M766.26,865.07V852.83H753.89v12.24h-6.7V834.59h6.7v12.06h12.37V834.59H773v30.48Z"/><path class="cls-2" d="M780.28,865.07V834.59h22.94v6H786.9v6.18h14.36v6H786.9v6.4h16.54v6Z"/><path class="cls-2" d="M809.45,865.07V834.59H832.4v6H816.07v6.18h14.37v6H816.07v6.4h16.54v6Z"/></svg>