<svg xmlns="http://www.w3.org/2000/svg" viewBox="0 0 150.48 107.68"><defs><style>.cls-1{fill:#9cd8d9;}.cls-2{fill:#6ac7c0;}.cls-3{fill:#008075;}.cls-4{fill:#9dd8d8;}.cls-5{fill:#69c7c1;}.cls-6{fill:#00b4a5;}.cls-7{fill:#232257;}.cls-8{fill:#d3edf0;}</style></defs><title>bag</title><g id="Layer_2" data-name="Layer 2"><g id="Layer_1-2" data-name="Layer 1"><path class="cls-1" d="M131.9,54q0,1,0,1.92-.09,2.26-.36,4.47a51,51,0,0,1-2.36,10.22c-.2.59-.41,1.18-.64,1.76l-.15.38c-.37,1-.77,1.89-1.2,2.82-.29.62-.59,1.24-.9,1.85a51.06,51.06,0,0,1-5.16,8.08c-.13.17-.27.35-.42.52-.86,1.09-1.77,2.15-2.72,3.16-.41.44-.83.86-1.25,1.28a52.09,52.09,0,0,1-7.2,6l0,0a54.35,54.35,0,0,1-6.1,3.57c-.75.37-1.5.72-2.27,1.06a50,50,0,0,1-5.79,2.12,50.68,50.68,0,0,1-10.87,2c-1.29.1-2.59.15-3.91.15s-2.62,0-3.91-.15a50.94,50.94,0,0,1-16.83-4.22l-1.25-.56c-.69-.33-1.37-.67-2-1A51.21,51.21,0,0,1,45,91a50.26,50.26,0,0,1-4.56-5A50.83,50.83,0,0,1,35,77.73c-.31-.59-.61-1.18-.89-1.78-.64-1.34-1.22-2.72-1.74-4.12l-.33-.9c-.06-.19-.13-.37-.19-.56a48.14,48.14,0,0,1-1.35-4.77c-.38-1.63-.68-3.28-.9-5s-.34-3.16-.39-4.76a1.34,1.34,0,0,1,0-.2c0-.57,0-1.14,0-1.72,0-.18,0-.36,0-.54,0-.64,0-1.27.06-1.9,0-.27,0-.54,0-.81,0-.05,0-.11,0-.16,0-.7.1-1.39.18-2.08s.18-1.62.31-2.42a1.38,1.38,0,0,1,0-.2.34.34,0,0,1,0-.1l.06-.33c0-.27.09-.54.14-.8.08-.48.18-1,.28-1.43.16-.73.33-1.45.52-2.16,0-.06,0-.13,0-.2s0,0,0,0c.19-.71.39-1.41.61-2.1.14-.48.3-1,.47-1.43s.33-1,.51-1.43.48-1.23.74-1.83c.57-1.38,1.21-2.72,1.91-4a51.24,51.24,0,0,1,67.62-22.3l0,0A51.45,51.45,0,0,1,128.6,35.82c.18.47.35,1,.51,1.43s.33,1,.47,1.43c.22.69.42,1.39.61,2.1,0,0,0,0,0,0s0,.14.05.2c.19.71.36,1.43.52,2.16.1.47.2,1,.28,1.43,0,.26.1.53.14.8,0,.08,0,.17.05.25s0,0,0,.08,0,.2.05.3c.12.8.23,1.6.31,2.42s.13,1.38.18,2.08c0,.11,0,.21,0,.32l0,.65c0,.63,0,1.26,0,1.9C131.9,53.6,131.9,53.78,131.9,54Z"/><path class="cls-2" d="M131.24,45.67a2.61,2.61,0,0,1-1,.18h-14.9a2.49,2.49,0,0,0-2.51,2.51,2.51,2.51,0,0,0,2.51,2.51H148a2.5,2.5,0,0,1,2.5,2.64,2.6,2.6,0,0,1-2.64,2.37h-42.5a2.51,2.51,0,0,0-2.5,2.65,2.61,2.61,0,0,0,2.65,2.37h22.43a2.5,2.5,0,0,1,2.5,2.64,2.6,2.6,0,0,1-2.65,2.37H125.4a2.52,2.52,0,0,0-2.51,2.65,2.61,2.61,0,0,0,2.65,2.37H126a2.53,2.53,0,0,1,2.41,1.78c-.37,1-.77,1.89-1.2,2.82-.29.62-.59,1.24-.9,1.85a51.06,51.06,0,0,1-5.16,8.08c-.13.17-.27.35-.42.52h-.3a2.51,2.51,0,0,0-2.47,3,1.6,1.6,0,0,0,0,.21c-.41.44-.83.86-1.25,1.28a52.09,52.09,0,0,1-7.2,6l0,0a54.35,54.35,0,0,1-6.1,3.57c-.75.37-1.5.72-2.27,1.06H97.81a2.47,2.47,0,0,0-1.77.74,2.42,2.42,0,0,0-.71,1.38,50.68,50.68,0,0,1-10.87,2c-1.29.1-2.59.15-3.91.15s-2.62,0-3.91-.15a50.94,50.94,0,0,1-16.83-4.22l-1.25-.56c-.69-.33-1.37-.67-2-1A51.21,51.21,0,0,1,45,91H60.19a2.51,2.51,0,0,0,2.51-2.64A2.61,2.61,0,0,0,60.05,86H10a2.5,2.5,0,0,1-2.5-2.55A2.48,2.48,0,0,0,5,81H2.51A2.52,2.52,0,0,1,0,78.32,2.61,2.61,0,0,1,2.65,76H55.18a2.51,2.51,0,0,0,2.5-2.65A2.61,2.61,0,0,0,55,70.93h-23c-.06-.19-.13-.37-.19-.56a48.14,48.14,0,0,1-1.35-4.77c-.38-1.63-.68-3.28-.9-5s-.34-3.16-.39-4.76H62.7a2.5,2.5,0,0,0,2.5-2.64,2.59,2.59,0,0,0-2.64-2.37H52.67a2.51,2.51,0,0,1-2.51-2.51,2.51,2.51,0,0,0-2.51-2.51H17.56a2.52,2.52,0,0,1-2.51-2.64,2.61,2.61,0,0,1,2.65-2.38H55.18a2.49,2.49,0,0,0,2.5-2.55,2.48,2.48,0,0,1,2.51-2.46h45.14a2.51,2.51,0,0,1,2.51,2.55,2.48,2.48,0,0,0,2.51,2.46H130.2Z"/><path class="cls-3" d="M67,26.15l1.78-1.78a1.25,1.25,0,0,0,0-1.77h0a1.26,1.26,0,0,0-1.78,0l-1.77,1.77L63.43,22.6a1.25,1.25,0,0,0-1.77,0h0a1.25,1.25,0,0,0,0,1.77l1.77,1.78-1.77,1.77a1.26,1.26,0,0,0,1.77,1.78l1.78-1.78L67,29.7a1.26,1.26,0,1,0,1.78-1.78Z"/><path class="cls-3" d="M96.11,85.55l1.78-1.78a1.25,1.25,0,0,0,0-1.77h0a1.26,1.26,0,0,0-1.78,0l-1.77,1.77L92.56,82a1.25,1.25,0,0,0-1.77,0h0a1.25,1.25,0,0,0,0,1.77l1.77,1.78-1.77,1.77a1.26,1.26,0,0,0,1.77,1.78l1.78-1.78,1.77,1.78a1.26,1.26,0,0,0,1.78-1.78Z"/><path class="cls-3" d="M91.32,3.92,93.1,2.14a1.25,1.25,0,0,0,0-1.77h0a1.26,1.26,0,0,0-1.78,0L89.55,2.14,87.77.37A1.25,1.25,0,0,0,86,.37h0a1.25,1.25,0,0,0,0,1.77l1.77,1.78L86,5.69a1.26,1.26,0,1,0,1.77,1.78l1.78-1.78,1.77,1.78A1.26,1.26,0,1,0,93.1,5.69Z"/><path class="cls-3" d="M49.75,14.94H46.33a.58.58,0,0,1-.51-.88l1.71-3,1.71-3a.58.58,0,0,1,1,0l1.72,3,1.71,3a.59.59,0,0,1-.51.88Z"/><path class="cls-3" d="M45.74,94H42.32a.58.58,0,0,1-.51-.88l1.71-3,1.71-3a.58.58,0,0,1,1,0l1.71,3,1.71,3a.59.59,0,0,1-.51.88Z"/><path class="cls-3" d="M128.61,43.33h-3.42a.58.58,0,0,1-.51-.88l1.71-3,1.71-3a.59.59,0,0,1,1,0l1.71,3,1.71,3a.59.59,0,0,1-.51.88Z"/><circle class="cls-3" cx="105.56" cy="55.45" r="3.92"/><circle class="cls-3" cx="110.5" cy="16.35" r="3.92"/><path class="cls-3" d="M61.51,61.49l1.78-1.78a1.25,1.25,0,0,0,0-1.77h0a1.26,1.26,0,0,0-1.78,0l-1.77,1.77L58,57.94a1.25,1.25,0,0,0-1.77,0h0a1.25,1.25,0,0,0,0,1.77L58,61.49l-1.77,1.77A1.26,1.26,0,0,0,58,65l1.78-1.78L61.51,65a1.26,1.26,0,1,0,1.78-1.78Z"/><circle class="cls-3" cx="91.61" cy="103.76" r="3.92"/><circle class="cls-3" cx="47.08" cy="35.82" r="3.92"/><circle class="cls-3" cx="30.88" cy="65.19" r="3.92"/><path class="cls-3" d="M67,101.39l1.78-1.77a1.26,1.26,0,0,0,0-1.78h0a1.26,1.26,0,0,0-1.78,0l-1.77,1.78-1.78-1.78a1.25,1.25,0,0,0-1.77,0h0a1.26,1.26,0,0,0,0,1.78l1.77,1.77-1.77,1.78a1.25,1.25,0,1,0,1.77,1.77l1.78-1.77L67,104.94a1.26,1.26,0,1,0,1.78-1.77Z"/><path class="cls-4" d="M100.75,44.64A18.52,18.52,0,0,0,82.86,30.92H78.25A18.51,18.51,0,0,0,60.37,44.64h-.63V82.87h41.64V44.64Z"/><path class="cls-5" d="M79.89,30.92H78.25A18.51,18.51,0,0,0,60.37,44.64h-.63V82.87H79.89Z"/><rect class="cls-6" x="67.39" y="61.2" width="26.47" height="5.75"/><rect class="cls-3" x="67.15" y="66.95" width="26.72" height="4.97"/><rect class="cls-4" x="67.15" y="71.92" width="26.72" height="10.95"/><path class="cls-7" d="M90.66,30.16V28.71a4.78,4.78,0,0,0-4.77-4.78H75.23a4.78,4.78,0,0,0-4.78,4.78v1.45A15.41,15.41,0,0,0,57.76,45.31V79.57a6,6,0,0,0,6,6H97.38a6,6,0,0,0,6-6V45.31A15.4,15.4,0,0,0,90.66,30.16ZM75.23,27.89H85.89a.82.82,0,0,1,.82.82v1.21H74.41V28.71A.82.82,0,0,1,75.23,27.89ZM92,65.19H69.13V65.1A2.87,2.87,0,0,1,72,62.24H89.13A2.87,2.87,0,0,1,92,65.1ZM69.13,81.59V69.14H92V81.59Zm30.27-2a2,2,0,0,1-2,2H95.94V65.1a6.82,6.82,0,0,0-6.81-6.81H72a6.83,6.83,0,0,0-6.82,6.81V81.59H63.74a2,2,0,0,1-2-2V45.31A11.43,11.43,0,0,1,73.15,33.88H88A11.44,11.44,0,0,1,99.4,45.31Z"/><rect class="cls-8" x="70.53" y="23.94" width="3.67" height="18.72"/><rect class="cls-8" x="88.66" y="48.93" width="4.88" height="5.91"/><rect class="cls-4" x="88.66" y="48.93" width="1.48" height="5.91"/><path class="cls-7" d="M93.57,48.06H91.94V40.55a.76.76,0,0,0-.76-.76.77.77,0,0,0-.77.76v7.51H88.78a.76.76,0,0,0-.76.76V55.6a.77.77,0,0,0,.76.77H91A3.38,3.38,0,0,0,94.34,53V48.82A.77.77,0,0,0,93.57,48.06Zm-.76,2.6h-1.2V49.59h1.2Zm-2.07-1.07v1.07H89.55V49.59ZM91,54.84H89.55V51.53h3.26V53A1.85,1.85,0,0,1,91,54.84Z"/><path class="cls-7" d="M92.67,40.69H68.44a2,2,0,1,0,0,4H92.67a2,2,0,1,0,0-4Z"/><path class="cls-7" d="M71.29,44.64v-.28H72a.48.48,0,0,0,.48-.48A.47.47,0,0,0,72,43.4h-.7V42.06H72a.48.48,0,1,0,0-1h-.7V39.77H72a.48.48,0,1,0,0-1h-.7V37.48H72a.48.48,0,1,0,0-1h-.7V35.18H72a.48.48,0,1,0,0-1h-.7V32.89H72a.48.48,0,1,0,0-.95h-.7V30.6H72a.48.48,0,0,0,0-1h-.7V28.31H72a.48.48,0,0,0,.48-.48.47.47,0,0,0-.48-.48h-.7V26H72a.48.48,0,1,0,0-1h-.7v-.5h2.28V44.64h1.67V23.72a.83.83,0,0,0-.83-.83h-4a.83.83,0,0,0-.83.83V44.64Z"/><path class="cls-3" d="M32.65,47l1.78-1.78a1.25,1.25,0,0,0,0-1.77h0a1.24,1.24,0,0,0-1.78,0l-1.77,1.77L29.1,43.4a1.24,1.24,0,0,0-1.78,0h0a1.25,1.25,0,0,0,0,1.77L29.1,47l-1.78,1.77A1.26,1.26,0,0,0,29.1,50.5l1.78-1.78,1.77,1.78a1.26,1.26,0,0,0,1.78-1.78Z"/></g></g></svg>