<svg xmlns="http://www.w3.org/2000/svg" viewBox="0 0 132.63 126.55"><defs><style>.cls-1{fill:#fff;}</style></defs><title>Asset 11</title><g id="Layer_2" data-name="Layer 2"><g id="Layer_1-2" data-name="Layer 1"><path class="cls-1" d="M130.13,102.78,122,94.67,87.59,60.24h0l-5-5h0l-3.21-3.22h0l-5-5h0l-3.21-3.21h0l-5-4.95h0L39,11.6a2.34,2.34,0,0,0-.3-.25l-.18-.15a4.35,4.35,0,0,0-.7-.38h0L10.86.24A3.51,3.51,0,0,0,6.32,4.78L16.89,31.67v0a4.35,4.35,0,0,0,.38.7l.15.18a2.34,2.34,0,0,0,.25.3L45,60.24,10.61,94.67,2.5,102.78a8.53,8.53,0,0,0,0,12.06l9.21,9.21a8.53,8.53,0,0,0,12.06,0l8.11-8.11L66.32,81.51l34.43,34.43,8.11,8.11a8.53,8.53,0,0,0,12.06,0l9.21-9.21A8.53,8.53,0,0,0,130.13,102.78ZM37.94,20.48,113,95.54a2.26,2.26,0,0,1,0,3.21h0a2.26,2.26,0,0,1-3.21,0L79.43,68.4h0l-2.17-2.16-6-6h0l-5-5h0L63.1,52.07h0l-5-5h0L34.72,23.69a2.08,2.08,0,0,1,0-2.92l.29-.29A2.09,2.09,0,0,1,37.94,20.48ZM18.27,16a6.65,6.65,0,0,0,3.84-3.84l8.11,3.18-8.77,8.77ZM51.6,66.79h0a2.26,2.26,0,0,1,0,3.21L22.85,98.75a2.26,2.26,0,0,1-3.21,0h0a2.26,2.26,0,0,1,0-3.21L48.39,66.79A2.26,2.26,0,0,1,51.6,66.79ZM18.82,119.1a1.52,1.52,0,0,1-2.16,0l-9.21-9.21a1.52,1.52,0,0,1,0-2.16l5.63-5.64,11.38,11.38Zm9-12.19h0a2.26,2.26,0,0,1,0-3.21L56.55,75a2.28,2.28,0,0,1,3.21,0h0a2.26,2.26,0,0,1,0,3.21L31,106.91A2.26,2.26,0,0,1,27.8,106.91Zm77,0a2.26,2.26,0,0,1-3.21,0L71.27,76.56l-5-5h0L63.1,68.4h0l-5-5-3.21-3.21h0l-4.95-5L26.56,31.86a2.09,2.09,0,0,1,0-2.93l.29-.29a2.08,2.08,0,0,1,2.92,0l75.06,75.06a2.26,2.26,0,0,1,0,3.21Zm20.35,3L116,119.1a1.52,1.52,0,0,1-2.16,0l-5.64-5.63,11.38-11.38,5.63,5.64A1.52,1.52,0,0,1,125.18,109.89Z"/><path class="cls-1" d="M74.48,40.7,94.93,20.24a1.74,1.74,0,0,1,2.45,0l.77.77a1.74,1.74,0,0,1,0,2.45L77.69,43.91l5,5,20.45-20.45a1.73,1.73,0,0,1,2.45,0l.77.76a1.74,1.74,0,0,1,0,2.45L85.85,52.07l5,5L115,32.87a3.5,3.5,0,0,0,.24-.3l.15-.18a4.35,4.35,0,0,0,.38-.7v0L126.31,4.78A3.5,3.5,0,0,0,121.77.24L94.88,10.81h0a3.88,3.88,0,0,0-.69.38l-.19.15a3.31,3.31,0,0,0-.3.25L69.53,35.75Zm36-28.51A6.63,6.63,0,0,0,114.37,16l-3.19,8.11-8.77-8.77Z"/><ellipse class="cls-1" cx="66.32" cy="104.75" rx="6.11" ry="6.02" transform="translate(-54.65 77.62) rotate(-45.02)"/><path class="cls-1" d="M64.93,18.11a6.09,6.09,0,0,0,7.31-7.31,6.08,6.08,0,1,0-7.31,7.31Z"/><path class="cls-1" d="M106.68,57.08a6.08,6.08,0,1,0,4.53-4.53A6,6,0,0,0,106.68,57.08Z"/><path class="cls-1" d="M26,59.86a6.09,6.09,0,0,0-7.32-7.31,6,6,0,0,0-4.53,4.53A6.09,6.09,0,0,0,26,59.86Z"/></g></g></svg>