<svg xmlns="http://www.w3.org/2000/svg" xmlns:xlink="http://www.w3.org/1999/xlink" viewBox="0 0 2981.93 2882.68"><defs><style>.cls-1{fill:none;}.cls-2{fill:#ffc907;}.cls-3{opacity:0.5;}.cls-4{clip-path:url(#clip-path);}.cls-5{fill:#ffd65a;}.cls-6{fill:#fbaa19;}.cls-7{fill:#354053;}</style><clipPath id="clip-path"><rect class="cls-1" x="856.47" y="994.61" width="1366" height="768"/></clipPath></defs><title>background</title><g id="Layer_2" data-name="Layer 2"><g id="Layer_1-2" data-name="Layer 1"><rect class="cls-2" x="856.47" y="994.61" width="1366" height="768"/><rect class="cls-2" x="856.47" y="994.61" width="1366" height="768"/><rect class="cls-2" x="856.47" y="994.61" width="1366" height="768"/><rect class="cls-2" x="856.47" y="994.61" width="1366" height="768"/><rect class="cls-2" x="856.47" y="994.61" width="1366" height="768"/><rect class="cls-2" x="856.47" y="994.61" width="1366" height="768"/><rect class="cls-2" x="856.47" y="994.61" width="1366" height="768"/><rect class="cls-2" x="856.47" y="994.61" width="1366" height="768"/><rect class="cls-2" x="856.47" y="994.61" width="1366" height="768"/><rect class="cls-2" x="856.47" y="994.61" width="1366" height="768"/><rect class="cls-2" x="856.47" y="994.61" width="1366" height="768"/><rect class="cls-2" x="856.47" y="994.61" width="1366" height="768"/><rect class="cls-2" x="856.47" y="994.61" width="1366" height="768"/><rect class="cls-2" x="856.47" y="994.61" width="1366" height="768"/><rect class="cls-2" x="856.47" y="994.61" width="1366" height="768"/><rect class="cls-2" x="856.47" y="994.61" width="1366" height="768"/><rect class="cls-2" x="856.47" y="994.61" width="1366" height="768"/><rect class="cls-2" x="856.47" y="994.61" width="1366" height="768"/><rect class="cls-2" x="856.47" y="994.61" width="1366" height="768"/><rect class="cls-2" x="856.47" y="994.61" width="1366" height="768"/><rect class="cls-2" x="856.47" y="994.61" width="1366" height="768"/><rect class="cls-2" x="856.47" y="994.61" width="1366" height="768"/><rect class="cls-2" x="856.47" y="994.61" width="1366" height="768"/><rect class="cls-2" x="856.47" y="994.61" width="1366" height="768"/><rect class="cls-2" x="856.47" y="994.61" width="1366" height="768"/><rect class="cls-2" x="856.47" y="994.61" width="1366" height="768"/><rect class="cls-2" x="856.47" y="994.61" width="1366" height="768"/><rect class="cls-2" x="856.47" y="994.61" width="1366" height="768"/><rect class="cls-2" x="856.47" y="994.61" width="1366" height="768"/><rect class="cls-2" x="856.47" y="994.61" width="1366" height="768"/><rect class="cls-2" x="856.47" y="994.61" width="1366" height="768"/><rect class="cls-2" x="856.47" y="994.61" width="1366" height="768"/><rect class="cls-2" x="856.47" y="994.61" width="1366" height="768"/><rect class="cls-2" x="856.47" y="994.61" width="1366" height="768"/><rect class="cls-2" x="856.47" y="994.61" width="1366" height="768"/><rect class="cls-2" x="856.47" y="994.61" width="1366" height="768"/><rect class="cls-2" x="856.47" y="994.61" width="1366" height="768"/><rect class="cls-2" x="856.47" y="994.61" width="1366" height="768"/><rect class="cls-2" x="856.47" y="994.61" width="1366" height="768"/><rect class="cls-2" x="856.47" y="994.61" width="1366" height="768"/><rect class="cls-2" x="856.47" y="994.61" width="1366" height="768"/><rect class="cls-2" x="856.47" y="994.61" width="1366" height="768"/><rect class="cls-2" x="856.47" y="994.61" width="1366" height="768"/><g class="cls-3"><g class="cls-4"><rect class="cls-2" x="368.05" y="592.17" width="2368.64" height="1674.79" transform="translate(1465.54 -678.98) rotate(45)"/><polygon class="cls-5" points="1074.29 1235.43 1038.48 1199.63 984.77 1253.34 877.34 1360.77 913.15 1396.58 984.77 1324.96 1002.67 1342.86 1038.48 1307.06 1145.91 1414.48 1002.67 1557.72 1074.29 1629.34 1217.53 1486.1 1253.34 1450.29 1271.24 1432.39 1074.29 1235.43"/><path class="cls-5" d="M1468.2,1951.63l-107.43,107.43-179,179.05,35.81,35.81,17.21,17.21L1504,2560.39l71.5,71.5.12.12,35.81-35.81-.13-.12,17.91-17.9,35.93,35.93,125.34-125.33,17.9-17.91,89.53-89.52Zm-197.65,303.69,143.24-143.24,269.27,269.27-143.24,143.24Z"/><rect class="cls-5" x="1146.81" y="1475.24" width="177.25" height="379.82" transform="translate(1539.29 -385.87) rotate(45)"/><rect class="cls-5" x="536.14" y="1728.72" width="557.07" height="177.25" transform="translate(1523.67 -43.77) rotate(45)"/><polygon class="cls-5" points="680.38 841.53 626.67 895.24 752 1020.58 734.1 1038.48 787.81 1092.2 644.58 1235.43 716.19 1307.06 877.34 1145.91 931.05 1092.2 680.38 841.53"/><rect class="cls-5" x="138.52" y="1240.68" width="582.39" height="25.32" transform="translate(1012.11 63.24) rotate(45)"/><polygon class="cls-5" points="2578.3 1951.63 2685.73 1844.2 2381.35 1539.82 2291.82 1629.34 2273.92 1647.25 2130.68 1790.49 2112.77 1808.39 2005.34 1915.82 2166.49 2076.96 2291.82 1951.63 2184.39 1844.2 2327.63 1700.96 2578.3 1951.63"/><polygon class="cls-5" points="1468.2 483.43 1414.48 537.15 1396.58 555.05 1342.86 501.34 1378.67 465.53 1414.48 501.34 1468.2 447.62 1486.1 465.53 1557.72 393.91 1504.01 340.19 1486.1 322.29 1414.48 393.91 1360.77 447.62 1324.96 483.43 1289.15 519.24 1396.58 626.67 1432.39 590.86 1450.29 572.96 1504.01 519.24 1468.2 483.43"/><polygon class="cls-5" points="2202.3 1396.58 1969.54 1163.82 1951.63 1145.91 1933.72 1128.01 1826.3 1235.43 1862.11 1271.24 1880.01 1253.34 2112.77 1486.1 2076.96 1521.91 1808.39 1253.34 1718.87 1342.86 1987.44 1611.44 1880.01 1718.87 1862.11 1700.96 1933.72 1629.34 1844.2 1539.82 1736.77 1647.25 1790.49 1700.96 1826.3 1736.77 1897.91 1808.39 1933.72 1772.58 2112.77 1593.53 2130.68 1575.63 2166.49 1539.82 2256.01 1450.29 2202.3 1396.58"/><rect class="cls-5" x="1965.45" y="1102.05" width="455.78" height="177.25" transform="translate(1484.35 -1202.19) rotate(45)"/><rect class="cls-5" x="2148.42" y="1051.23" width="377.77" height="101.29" transform="translate(1463.72 -1330) rotate(45)"/><polygon class="cls-5" points="1593.53 1181.72 1496.85 1278.41 1443.13 1224.69 1539.82 1128.01 1504.01 1092.2 1342.86 1253.34 1378.67 1289.15 1432.39 1342.86 1486.1 1396.58 1647.25 1235.43 1593.53 1181.72"/><rect class="cls-5" x="11.65" y="1243.12" width="531.75" height="253.21" transform="translate(1049.82 204.94) rotate(45)"/><rect class="cls-5" x="570.78" y="785.64" width="75.96" height="75.96" transform="translate(760.69 -189.23) rotate(45)"/><rect class="cls-5" x="517.07" y="864.68" width="75.96" height="25.32" transform="translate(782.94 -135.51) rotate(45)"/><rect class="cls-5" x="472.31" y="896.78" width="75.96" height="50.64" transform="translate(801.48 -90.75) rotate(45)"/><polygon class="cls-5" points="429.72 1056.39 501.34 984.77 447.62 931.05 322.29 1056.39 358.1 1092.2 376 1110.1 501.34 1235.43 555.05 1181.72 429.72 1056.39"/><rect class="cls-5" x="520.14" y="1251.17" width="177.25" height="75.96" transform="translate(1089.87 -52.88) rotate(45)"/><polygon class="cls-5" points="1844.2 572.96 1826.3 555.05 1808.39 537.15 1754.68 483.43 1611.44 626.67 1683.06 698.29 1790.49 590.86 1808.39 608.76 1844.2 572.96"/><rect class="cls-5" x="1268.44" y="821.71" width="202.57" height="379.82" transform="translate(1116.51 -672.24) rotate(45)"/><polygon class="cls-5" points="877.34 644.58 1002.67 519.24 1110.1 626.67 1163.82 572.96 1056.39 465.53 984.77 393.91 734.1 644.58 805.72 716.19 966.86 877.34 1038.48 805.72 877.34 644.58"/><polygon class="cls-5" points="1253.34 662.48 1235.43 644.58 1199.63 608.76 1145.91 662.48 1181.72 698.29 984.77 895.24 1056.39 966.86 1307.06 716.19 1253.34 662.48"/><rect class="cls-5" x="1490.97" y="790.89" width="455.78" height="101.29" transform="translate(1098.49 -968.94) rotate(45)"/><path class="cls-6" d="M2309.73,2291.82l572.95-573,17.91-17.91-17.91-17.9L2524.59,1325l53.71-53.71-35.81-35.81L1897.92,1880,1505,1487.13l644.57-644.57-18.93-18.94L1486.1,1468.2,1091.87,1074l340.19-340.2,233.09,233.09,17.91-17.9L1450,715.87l286.48-286.48L1701,393.91,1396.58,698.29l-179-179L1539.82,197l-17.91-17.9L1199.63,501.34,984.77,286.48l-17.91,17.9,411.81,411.81-322.28,322.29L662.48,644.57l-53.71,53.72,393.9,393.91-486,486,35.49,35.48,127.87-127.87,465.85,465.85L1018,2079.5l35.81,35.81,468-468a25.42,25.42,0,0,1,35.94,0l304.32,304.32-56.79,56.78a76,76,0,0,0-86.45,14.84L1486.1,1790.49l-17.9-17.91-17.91,17.91-393.9,393.9,17.9,17.91,393.91-393.91L1704,2044.22a76,76,0,1,0,137.1,0l3.07-3.07,250.67,250.67-107.43,107.43-17.91,17.91-322.28,322.28,17.9,17.91,322.29-322.29,71.62,71.62-340.19,340.19,35.81,35.81,519.24-519.24,9.73,9.73,53.71-53.72Zm-1145.91-358.1L698,1467.87l340.2-340.19L1504,1593.53Zm1342.86-590.86,358.1,358.1-573,573-358.1-358.1Zm-694.82,766.08a50.65,50.65,0,1,1,0-64A50.66,50.66,0,0,1,1811.86,2108.94ZM2077,2488.78l-71.62-71.62,107.43-107.43,17.91-17.91-17.91-17.9-250.66-250.67,35.81-35.81,340.19,340.19Z"/><rect class="cls-2" x="368.05" y="592.17" width="2368.64" height="1674.79" transform="translate(1465.54 -678.98) rotate(45)"/><polygon class="cls-5" points="1074.29 1235.43 1038.48 1199.63 984.77 1253.34 877.34 1360.77 913.15 1396.58 984.77 1324.96 1002.67 1342.86 1038.48 1307.06 1145.91 1414.48 1002.67 1557.72 1074.29 1629.34 1217.53 1486.1 1253.34 1450.29 1271.24 1432.39 1074.29 1235.43"/><path class="cls-5" d="M1468.2,1951.63l-107.43,107.43-179,179.05,35.81,35.81,17.21,17.21L1504,2560.39l71.5,71.5.12.12,35.81-35.81-.13-.12,17.91-17.9,35.93,35.93,125.34-125.33,17.9-17.91,89.53-89.52Zm-197.65,303.69,143.24-143.24,269.27,269.27-143.24,143.24Z"/><rect class="cls-5" x="1146.81" y="1475.24" width="177.25" height="379.82" transform="translate(1539.29 -385.87) rotate(45)"/><rect class="cls-5" x="536.14" y="1728.72" width="557.07" height="177.25" transform="translate(1523.67 -43.77) rotate(45)"/><polygon class="cls-5" points="680.38 841.53 626.67 895.24 752 1020.58 734.1 1038.48 787.81 1092.2 644.58 1235.43 716.19 1307.06 877.34 1145.91 931.05 1092.2 680.38 841.53"/><rect class="cls-5" x="138.52" y="1240.68" width="582.39" height="25.32" transform="translate(1012.11 63.24) rotate(45)"/><polygon class="cls-5" points="2578.3 1951.63 2685.73 1844.2 2381.35 1539.82 2291.82 1629.34 2273.92 1647.25 2130.68 1790.49 2112.77 1808.39 2005.34 1915.82 2166.49 2076.96 2291.82 1951.63 2184.39 1844.2 2327.63 1700.96 2578.3 1951.63"/><polygon class="cls-5" points="1468.2 483.43 1414.48 537.15 1396.58 555.05 1342.86 501.34 1378.67 465.53 1414.48 501.34 1468.2 447.62 1486.1 465.53 1557.72 393.91 1504.01 340.19 1486.1 322.29 1414.48 393.91 1360.77 447.62 1324.96 483.43 1289.15 519.24 1396.58 626.67 1432.39 590.86 1450.29 572.96 1504.01 519.24 1468.2 483.43"/><polygon class="cls-5" points="2202.3 1396.58 1969.54 1163.82 1951.63 1145.91 1933.72 1128.01 1826.3 1235.43 1862.11 1271.24 1880.01 1253.34 2112.77 1486.1 2076.96 1521.91 1808.39 1253.34 1718.87 1342.86 1987.44 1611.44 1880.01 1718.87 1862.11 1700.96 1933.72 1629.34 1844.2 1539.82 1736.77 1647.25 1790.49 1700.96 1826.3 1736.77 1897.91 1808.39 1933.72 1772.58 2112.77 1593.53 2130.68 1575.63 2166.49 1539.82 2256.01 1450.29 2202.3 1396.58"/><rect class="cls-5" x="1965.45" y="1102.05" width="455.78" height="177.25" transform="translate(1484.35 -1202.19) rotate(45)"/><rect class="cls-5" x="2148.42" y="1051.23" width="377.77" height="101.29" transform="translate(1463.72 -1330) rotate(45)"/><polygon class="cls-5" points="1593.53 1181.72 1496.85 1278.41 1443.13 1224.69 1539.82 1128.01 1504.01 1092.2 1342.86 1253.34 1378.67 1289.15 1432.39 1342.86 1486.1 1396.58 1647.25 1235.43 1593.53 1181.72"/><rect class="cls-5" x="11.65" y="1243.12" width="531.75" height="253.21" transform="translate(1049.82 204.94) rotate(45)"/><rect class="cls-5" x="570.78" y="785.64" width="75.96" height="75.96" transform="translate(760.69 -189.23) rotate(45)"/><rect class="cls-5" x="517.07" y="864.68" width="75.96" height="25.32" transform="translate(782.94 -135.51) rotate(45)"/><rect class="cls-5" x="472.31" y="896.78" width="75.96" height="50.64" transform="translate(801.48 -90.75) rotate(45)"/><polygon class="cls-5" points="429.72 1056.39 501.34 984.77 447.62 931.05 322.29 1056.39 358.1 1092.2 376 1110.1 501.34 1235.43 555.05 1181.72 429.72 1056.39"/><rect class="cls-5" x="520.14" y="1251.17" width="177.25" height="75.96" transform="translate(1089.87 -52.88) rotate(45)"/><polygon class="cls-5" points="1844.2 572.96 1826.3 555.05 1808.39 537.15 1754.68 483.43 1611.44 626.67 1683.06 698.29 1790.49 590.86 1808.39 608.76 1844.2 572.96"/><rect class="cls-5" x="1268.44" y="821.71" width="202.57" height="379.82" transform="translate(1116.51 -672.24) rotate(45)"/><polygon class="cls-5" points="877.34 644.58 1002.67 519.24 1110.1 626.67 1163.82 572.96 1056.39 465.53 984.77 393.91 734.1 644.58 805.72 716.19 966.86 877.34 1038.48 805.72 877.34 644.58"/><polygon class="cls-5" points="1253.34 662.48 1235.43 644.58 1199.63 608.76 1145.91 662.48 1181.72 698.29 984.77 895.24 1056.39 966.86 1307.06 716.19 1253.34 662.48"/><rect class="cls-5" x="1490.97" y="790.89" width="455.78" height="101.29" transform="translate(1098.49 -968.94) rotate(45)"/><path class="cls-6" d="M2309.73,2291.82l572.95-573,17.91-17.91-17.91-17.9L2524.59,1325l53.71-53.71-35.81-35.81L1897.92,1880,1505,1487.13l644.57-644.57-18.93-18.94L1486.1,1468.2,1091.87,1074l340.19-340.2,233.09,233.09,17.91-17.9L1450,715.87l286.48-286.48L1701,393.91,1396.58,698.29l-179-179L1539.82,197l-17.91-17.9L1199.63,501.34,984.77,286.48l-17.91,17.9,411.81,411.81-322.28,322.29L662.48,644.57l-53.71,53.72,393.9,393.91-486,486,35.49,35.48,127.87-127.87,465.85,465.85L1018,2079.5l35.81,35.81,468-468a25.42,25.42,0,0,1,35.94,0l304.32,304.32-56.79,56.78a76,76,0,0,0-86.45,14.84L1486.1,1790.49l-17.9-17.91-17.91,17.91-393.9,393.9,17.9,17.91,393.91-393.91L1704,2044.22a76,76,0,1,0,137.1,0l3.07-3.07,250.67,250.67-107.43,107.43-17.91,17.91-322.28,322.28,17.9,17.91,322.29-322.29,71.62,71.62-340.19,340.19,35.81,35.81,519.24-519.24,9.73,9.73,53.71-53.72Zm-1145.91-358.1L698,1467.87l340.2-340.19L1504,1593.53Zm1342.86-590.86,358.1,358.1-573,573-358.1-358.1Zm-694.82,766.08a50.65,50.65,0,1,1,0-64A50.66,50.66,0,0,1,1811.86,2108.94ZM2077,2488.78l-71.62-71.62,107.43-107.43,17.91-17.91-17.91-17.9-250.66-250.67,35.81-35.81,340.19,340.19Z"/></g></g><path class="cls-7" d="M1641.2,1295.35a5.46,5.46,0,0,0-4.93-.75l-12.5,4.16v-18.68a5.47,5.47,0,0,0-7.21-5.19l-51.91,17.3v-12.11a5.47,5.47,0,0,0-7.2-5.19l-51.91,17.3v-12.11a5.47,5.47,0,0,0-7.21-5.19l-59.11,19.71a5.45,5.45,0,0,0-3.74,5.19v157.64a5.47,5.47,0,0,0,7.2,5.19l12.5-4.16v18.68a5.47,5.47,0,0,0,7.21,5.19l51.91-17.3v12.11a5.47,5.47,0,0,0,7.2,5.19l51.91-17.3v12.11a5.48,5.48,0,0,0,7.21,5.19l59.11-19.71a5.45,5.45,0,0,0,3.74-5.19V1299.79A5.46,5.46,0,0,0,1641.2,1295.35Zm-47.87,57.94v87l-28.68,9.56v-87Zm-39.62,80.49-48.17,16.06v-87l48.17-16Zm59.11-127.42v127.42l-8.54,2.85V1345.7a5.47,5.47,0,0,0-7.2-5.2l-12.61,4.21v-47.58l28.35-9.45Zm-39.3-5.58v47.57l-8.87,3v-47.58Zm-19.81-13.1v47.57l-48.17,16.06v-47.58Zm-59.12,0v47.57l-48.17,16.06v-47.58Zm-48.17,75.17,48.17-16v87l-35.67,11.89h0l-12.5,4.17Z"/></g></g></svg>