<svg xmlns="http://www.w3.org/2000/svg" viewBox="0 0 208 208"><defs><style>.cls-1{fill:#354053;}</style></defs><title>logo</title><g id="Layer_2" data-name="Layer 2"><g id="Layer_1-2" data-name="Layer 1"><path class="cls-1" d="M205.73,20.74a5.48,5.48,0,0,0-4.94-.75l-12.5,4.16V5.48a5.47,5.47,0,0,0-7.2-5.2l-51.91,17.3V5.48A5.48,5.48,0,0,0,122,.28L70.06,17.59V5.48a5.47,5.47,0,0,0-7.2-5.2L3.74,20A5.47,5.47,0,0,0,0,25.18V182.82a5.46,5.46,0,0,0,5.47,5.47A5.36,5.36,0,0,0,7.2,188l12.51-4.16v18.68a5.47,5.47,0,0,0,7.2,5.19l51.91-17.3v12.11a5.47,5.47,0,0,0,7.2,5.19l51.92-17.3v12.11a5.47,5.47,0,0,0,7.2,5.19L204.26,188a5.47,5.47,0,0,0,3.74-5.19V25.18A5.49,5.49,0,0,0,205.73,20.74ZM157.86,78.68v87l-28.68,9.56v-87Zm-39.63,80.49L70.06,175.23v-87l48.17-16ZM177.35,31.75V159.17L168.81,162V71.09a5.49,5.49,0,0,0-7.21-5.2L149,70.1V22.52l28.36-9.45ZM138,26.17V73.74l-8.86,3V29.12Zm-19.81-13.1V60.64L70.06,76.7V29.12Zm-59.11,0V60.64L11,76.7V29.12ZM11,88.24l48.17-16v87L23.45,171.06h0L11,175.23Z"/></g></g></svg>