<svg xmlns="http://www.w3.org/2000/svg" viewBox="0 0 738.81 897"><defs><style>.cls-1{fill:#fff;}.cls-2,.cls-6{fill:#232257;}.cls-3{opacity:0.25;}.cls-4{opacity:0.75;}.cls-5{opacity:0.5;}.cls-6{font-size:84.46px;font-family:Manrope-ExtraBold, Manrope;font-weight:800;}</style></defs><title>ui-design</title><g id="Layer_2" data-name="Layer 2"><g id="Layer_6" data-name="Layer 6"><rect class="cls-1" x="9.31" y="9.44" width="360.1" height="691.25" rx="42.98"/><path class="cls-2" d="M326.43,710H52.29A52.35,52.35,0,0,1,0,657.71V52.42A52.34,52.34,0,0,1,52.29.14H326.43a52.34,52.34,0,0,1,52.29,52.28V657.71A52.35,52.35,0,0,1,326.43,710ZM52.29,18.75A33.71,33.71,0,0,0,18.62,52.42V657.71a33.7,33.7,0,0,0,33.67,33.67H326.43a33.71,33.71,0,0,0,33.67-33.67V52.42a33.72,33.72,0,0,0-33.67-33.67Z"/><rect class="cls-1" x="59.86" y="230.82" width="111.19" height="111.19"/><path class="cls-2" d="M171.05,349.25H59.86A7.24,7.24,0,0,1,52.62,342V230.82a7.24,7.24,0,0,1,7.24-7.24H171.05a7.24,7.24,0,0,1,7.24,7.24V342A7.24,7.24,0,0,1,171.05,349.25Zm-104-14.48h96.71V238.06H67.1Z"/><path class="cls-2" d="M165.93,347.13l-50.47-50.48L65,347.13,54.74,336.89l50.48-50.48L54.74,235.94a7.24,7.24,0,0,1,5.12-12.36H171.05a7.24,7.24,0,0,1,5.12,12.36l-50.48,50.47,50.48,50.48ZM77.34,238.06l38.12,38.11,38.11-38.11Z"/><rect class="cls-1" x="208.53" y="230.82" width="111.19" height="111.19"/><path class="cls-2" d="M319.72,349.25H208.53a7.24,7.24,0,0,1-7.24-7.24V230.82a7.24,7.24,0,0,1,7.24-7.24H319.72a7.24,7.24,0,0,1,7.24,7.24V342A7.25,7.25,0,0,1,319.72,349.25Zm-104-14.48h96.71V238.06H215.77Z"/><path class="cls-2" d="M314.6,347.13l-50.48-50.48-50.47,50.48-10.24-10.24,50.47-50.48-50.47-50.47a7.24,7.24,0,0,1,5.12-12.36H319.72a7.25,7.25,0,0,1,5.12,12.36l-50.48,50.47,50.48,50.48ZM226,238.06l38.11,38.11,38.12-38.11Z"/><rect class="cls-1" x="115.68" y="194.66" width="147.35" height="147.35"/><path class="cls-2" d="M263,349.25H115.69a7.24,7.24,0,0,1-7.24-7.24V194.66a7.24,7.24,0,0,1,7.24-7.24H263a7.24,7.24,0,0,1,7.24,7.24V342A7.24,7.24,0,0,1,263,349.25ZM122.92,334.77H255.79V201.9H122.92Z"/><path class="cls-2" d="M318.63,402.82H60.09a7.24,7.24,0,1,1,0-14.48H318.63a7.24,7.24,0,0,1,0,14.48Z"/><path class="cls-2" d="M189.36,530.27a34.09,34.09,0,1,1,34.09-34.09A34.13,34.13,0,0,1,189.36,530.27Zm0-60a25.89,25.89,0,1,0,25.88,25.88A25.91,25.91,0,0,0,189.36,470.3Z"/><path class="cls-2" d="M128.4,514.91a3.44,3.44,0,0,1-2.48-1.07l-14.49-15.31a3.41,3.41,0,0,1,0-4.7l14.49-15.3a3.42,3.42,0,0,1,5.9,2.35v30.61a3.42,3.42,0,0,1-2.16,3.17A3.26,3.26,0,0,1,128.4,514.91Zm-9.78-18.73,6.36,6.73V489.46Z"/><path class="cls-2" d="M111.18,514.91a3.42,3.42,0,0,1-3.42-3.42V480.88a3.42,3.42,0,1,1,6.83,0v30.61A3.42,3.42,0,0,1,111.18,514.91Z"/><path class="cls-2" d="M250.32,477.46a3.4,3.4,0,0,1,2.48,1.07l14.49,15.3a3.41,3.41,0,0,1,0,4.7L252.8,513.84a3.42,3.42,0,0,1-5.9-2.35V480.88a3.42,3.42,0,0,1,2.15-3.18A3.49,3.49,0,0,1,250.32,477.46Zm9.78,18.72-6.37-6.72v13.45Z"/><path class="cls-2" d="M267.54,477.46a3.42,3.42,0,0,1,3.42,3.42v30.61a3.42,3.42,0,0,1-6.84,0V480.88A3.42,3.42,0,0,1,267.54,477.46Z"/><path class="cls-2" d="M257.91,347.13l-68.55-68.56L120.8,347.13l-10.23-10.24,68.55-68.56-68.55-68.55a7.24,7.24,0,0,1,5.12-12.36H263a7.24,7.24,0,0,1,5.12,12.36L199.6,268.33l68.55,68.56ZM133.16,201.9l56.2,56.19,56.19-56.19Z"/><path class="cls-2" d="M169.32,521.11a5.18,5.18,0,0,1-3.66-8.83l40.08-40.08a5.17,5.17,0,0,1,7.32,7.31L173,519.59A5.15,5.15,0,0,1,169.32,521.11Z"/><path class="cls-2" d="M209.4,521.11a5.17,5.17,0,0,1-3.66-1.52l-40.08-40.08A5.17,5.17,0,0,1,173,472.2l40.09,40.08a5.18,5.18,0,0,1-3.66,8.83Z"/><rect class="cls-1" x="102.79" y="476.88" width="38.02" height="38.02"/><path class="cls-2" d="M140.81,519h-38a4.14,4.14,0,0,1-4.14-4.14v-38a4.14,4.14,0,0,1,4.14-4.13h38a4.14,4.14,0,0,1,4.14,4.13v38A4.14,4.14,0,0,1,140.81,519Zm-33.88-8.27h29.74V481H106.93Z"/><line class="cls-1" x1="102.79" y1="514.9" x2="140.81" y2="476.88"/><rect class="cls-2" x="94.92" y="491.76" width="53.77" height="8.27" transform="translate(-314.98 231.37) rotate(-45)"/><line class="cls-1" x1="102.79" y1="476.88" x2="140.81" y2="514.9"/><rect class="cls-2" x="117.66" y="469.01" width="8.27" height="53.77" transform="translate(-314.98 231.37) rotate(-45)"/><rect class="cls-1" x="52.69" y="482.68" width="26.42" height="26.42"/><path class="cls-2" d="M79.11,512H52.69a2.87,2.87,0,0,1-2.87-2.87V482.68a2.87,2.87,0,0,1,2.87-2.87H79.11A2.88,2.88,0,0,1,82,482.68v26.43A2.88,2.88,0,0,1,79.11,512Zm-23.54-5.75H76.24V485.56H55.57Z"/><line class="cls-1" x1="52.69" y1="509.1" x2="79.11" y2="482.68"/><rect class="cls-2" x="47.22" y="493.02" width="37.36" height="5.75" transform="translate(-331.35 191.84) rotate(-45)"/><line class="cls-1" x1="52.69" y1="482.68" x2="79.11" y2="509.1"/><rect class="cls-2" x="63.03" y="477.21" width="5.75" height="37.36" transform="translate(-331.35 191.84) rotate(-45)"/><rect class="cls-1" x="239.62" y="476.88" width="38.02" height="38.02"/><path class="cls-2" d="M277.64,519h-38a4.14,4.14,0,0,1-4.14-4.14v-38a4.13,4.13,0,0,1,4.14-4.13h38a4.13,4.13,0,0,1,4.13,4.13v38A4.13,4.13,0,0,1,277.64,519Zm-33.89-8.27H273.5V481H243.75Z"/><line class="cls-1" x1="239.62" y1="514.9" x2="277.64" y2="476.88"/><rect class="cls-2" x="231.74" y="491.76" width="53.77" height="8.27" transform="translate(-274.9 328.12) rotate(-45)"/><line class="cls-1" x1="239.62" y1="476.88" x2="277.64" y2="514.9"/><rect class="cls-2" x="254.49" y="469.01" width="8.27" height="53.77" transform="translate(-274.9 328.12) rotate(-45)"/><rect class="cls-1" x="300.11" y="482.68" width="26.42" height="26.42"/><path class="cls-2" d="M326.53,512H300.11a2.88,2.88,0,0,1-2.87-2.87V482.68a2.88,2.88,0,0,1,2.87-2.87h26.42a2.88,2.88,0,0,1,2.88,2.87v26.43A2.88,2.88,0,0,1,326.53,512ZM303,506.23h20.67V485.56H303Z"/><line class="cls-1" x1="300.11" y1="509.1" x2="326.53" y2="482.68"/><rect class="cls-2" x="294.64" y="493.02" width="37.36" height="5.75" transform="translate(-258.88 366.8) rotate(-45)"/><line class="cls-1" x1="300.11" y1="482.68" x2="326.53" y2="509.1"/><rect class="cls-2" x="310.45" y="477.21" width="5.75" height="37.36" transform="translate(-258.88 366.8) rotate(-45)"/><g class="cls-3"><rect class="cls-2" x="155.27" y="9.35" width="360.1" height="691.25" rx="42.98"/></g><rect class="cls-1" x="189.36" y="9.44" width="360.1" height="691.25" rx="42.98"/><path class="cls-2" d="M506.48,710H232.34a52.35,52.35,0,0,1-52.29-52.29V52.42A52.34,52.34,0,0,1,232.34.14H506.48a52.34,52.34,0,0,1,52.28,52.28V657.71A52.34,52.34,0,0,1,506.48,710ZM232.34,18.75a33.71,33.71,0,0,0-33.67,33.67V657.71a33.7,33.7,0,0,0,33.67,33.67H506.48a33.71,33.71,0,0,0,33.67-33.67V52.42a33.72,33.72,0,0,0-33.67-33.67Z"/><g class="cls-4"><rect class="cls-2" x="281.83" y="230.82" width="13.9" height="111.19"/></g><g class="cls-4"><rect class="cls-2" x="443.08" y="230.82" width="13.9" height="111.19"/></g><path class="cls-2" d="M443.08,349.25H295.73a7.25,7.25,0,0,1-7.24-7.24V194.66a7.24,7.24,0,0,1,7.24-7.24H443.08a7.24,7.24,0,0,1,7.24,7.24V342A7.24,7.24,0,0,1,443.08,349.25ZM303,334.77H435.84V201.9H303Z"/><path class="cls-2" d="M295.73,349.25H240.14A7.24,7.24,0,0,1,232.9,342V230.82a7.24,7.24,0,0,1,7.24-7.24h55.59a7.24,7.24,0,0,1,7.24,7.24V342A7.24,7.24,0,0,1,295.73,349.25Zm-48.35-14.48h41.11V238.06H247.38Z"/><path class="cls-2" d="M498.68,349.25h-55.6a7.24,7.24,0,0,1-7.24-7.24V230.82a7.24,7.24,0,0,1,7.24-7.24h55.6a7.24,7.24,0,0,1,7.23,7.24V342A7.24,7.24,0,0,1,498.68,349.25Zm-48.36-14.48h41.12V238.06H450.32Z"/><g class="cls-5"><path class="cls-2" d="M498.68,402.82H240.14a7.24,7.24,0,1,1,0-14.48H498.68a7.24,7.24,0,0,1,0,14.48Z"/></g><path class="cls-2" d="M416.34,402.82H240.14a7.24,7.24,0,1,1,0-14.48h176.2a7.24,7.24,0,0,1,0,14.48Z"/><circle class="cls-2" cx="416.34" cy="395.58" r="10.6"/><path class="cls-2" d="M369.41,530.27a34.09,34.09,0,1,1,34.09-34.09A34.13,34.13,0,0,1,369.41,530.27Zm0-60a25.89,25.89,0,1,0,25.88,25.88A25.92,25.92,0,0,0,369.41,470.3Z"/><path class="cls-2" d="M361.6,511.3a4.11,4.11,0,0,1-4.11-4.11v-22a4.11,4.11,0,0,1,8.21,0v22A4.11,4.11,0,0,1,361.6,511.3Z"/><path class="cls-2" d="M377.22,511.3a4.1,4.1,0,0,1-4.1-4.11v-22a4.1,4.1,0,1,1,8.2,0v22A4.11,4.11,0,0,1,377.22,511.3Z"/><path class="cls-2" d="M308.45,514.91a3.44,3.44,0,0,1-2.48-1.07l-14.49-15.31a3.41,3.41,0,0,1,0-4.7L306,478.53a3.42,3.42,0,0,1,5.9,2.35v30.61a3.42,3.42,0,0,1-2.16,3.17A3.26,3.26,0,0,1,308.45,514.91Zm-9.79-18.73,6.37,6.73V489.46Z"/><path class="cls-2" d="M291.23,514.91a3.42,3.42,0,0,1-3.42-3.42V480.88a3.42,3.42,0,1,1,6.83,0v30.61A3.42,3.42,0,0,1,291.23,514.91Z"/><path class="cls-2" d="M430.36,477.46a3.41,3.41,0,0,1,2.49,1.07l14.49,15.3a3.41,3.41,0,0,1,0,4.7l-14.49,15.31a3.42,3.42,0,0,1-5.9-2.35V480.88a3.42,3.42,0,0,1,2.15-3.18A3.48,3.48,0,0,1,430.36,477.46Zm9.79,18.72-6.37-6.72v13.45Z"/><path class="cls-2" d="M447.59,477.46a3.42,3.42,0,0,1,3.42,3.42v30.61a3.42,3.42,0,0,1-6.84,0V480.88A3.42,3.42,0,0,1,447.59,477.46Z"/><path class="cls-2" d="M255.88,488.81a1.43,1.43,0,0,0,0,2.86,6.22,6.22,0,1,1,0,12.43h-9.67v-1.82a.82.82,0,0,0-1.38-.6l-3.46,3.25a.84.84,0,0,0-.25.6.82.82,0,0,0,.25.59l3.46,3.25a.8.8,0,0,0,.56.23.88.88,0,0,0,.32-.07.83.83,0,0,0,.5-.75V507h9.67a9.08,9.08,0,1,0,0-18.15Z"/><path class="cls-2" d="M238.41,504.1a6.22,6.22,0,0,1,0-12.43h9.68v1.82a.81.81,0,0,0,.49.75.78.78,0,0,0,.33.07.82.82,0,0,0,.56-.23l3.45-3.24a.82.82,0,0,0,0-1.2l-3.45-3.25a.83.83,0,0,0-.89-.15.81.81,0,0,0-.49.75v1.82h-9.68a9.08,9.08,0,0,0,0,18.15,1.43,1.43,0,1,0,0-2.86Z"/><path class="cls-2" d="M498.29,489.85l-3.18-3a.75.75,0,0,0-.81-.14.76.76,0,0,0-.45.69v1.69h-1.33a1.33,1.33,0,0,0-.94.39l-13.3,13.62h-3.11a1.32,1.32,0,0,0,0,2.63h3.66a1.3,1.3,0,0,0,.94-.39l13.31-13.62h.77v1.65a.76.76,0,0,0,.45.69.8.8,0,0,0,.3.06.74.74,0,0,0,.51-.2l3.18-3a.74.74,0,0,0,0-1.09Z"/><path class="cls-2" d="M495.11,500.89a.75.75,0,0,0-.81-.14.76.76,0,0,0-.45.69v1.67h-.77L489,498.94l-1.84,1.89,4.41,4.52a1.33,1.33,0,0,0,.94.39h1.33v1.67a.76.76,0,0,0,.45.69.8.8,0,0,0,.3.06.74.74,0,0,0,.51-.2l3.18-3a.74.74,0,0,0,0-1.09Z"/><path class="cls-2" d="M475.17,491.73h3.11l4.07,4.16,1.84-1.88-4.42-4.52a1.3,1.3,0,0,0-.94-.39h-3.66a1.32,1.32,0,0,0,0,2.63Z"/><path class="cls-2" d="M385.55,290h-.15a7.22,7.22,0,0,1-5.58-2.8L339.39,235l-38,46.91-11.25-9.12,43.78-54a7.32,7.32,0,0,1,5.7-2.68,7.24,7.24,0,0,1,5.65,2.8l40.54,52.3,25-29.68A7.21,7.21,0,0,1,416,239a7.31,7.31,0,0,1,5.44,2.14l26.74,27-10.28,10.19L416.77,257l-25.69,30.47A7.24,7.24,0,0,1,385.55,290Z"/><rect class="cls-2" x="366.86" y="245.82" width="50.41" height="14.48" transform="translate(-53.86 115.57) rotate(-15.7)"/><g class="cls-4"><polygon class="cls-2" points="379.11 274.46 375.75 257.64 398.14 251.35 404.83 259.88 390.29 277.13 379.11 274.46"/></g><g class="cls-3"><rect class="cls-2" x="338.38" y="9.31" width="360.1" height="691.25" rx="42.98"/></g><rect class="cls-1" x="369.41" y="9.31" width="360.1" height="691.25" rx="42.98"/><path class="cls-2" d="M686.53,709.87H412.39a52.35,52.35,0,0,1-52.29-52.29V52.29A52.35,52.35,0,0,1,412.39,0H686.53a52.34,52.34,0,0,1,52.28,52.29V657.58A52.34,52.34,0,0,1,686.53,709.87ZM412.39,18.62a33.7,33.7,0,0,0-33.67,33.67V657.58a33.7,33.7,0,0,0,33.67,33.67H686.53a33.71,33.71,0,0,0,33.67-33.67V52.29a33.71,33.71,0,0,0-33.67-33.67Z"/><path class="cls-2" d="M688.14,707.8H410.77a48.66,48.66,0,0,1-48.6-48.61V603.87a7.24,7.24,0,0,1,7.24-7.24h360.1a7.25,7.25,0,0,1,7.24,7.24v55.32A48.67,48.67,0,0,1,688.14,707.8ZM376.65,611.11v48.08a34.17,34.17,0,0,0,34.12,34.13H688.14a34.17,34.17,0,0,0,34.13-34.13V611.11Z"/><path class="cls-2" d="M729.51,113.23H369.41a7.24,7.24,0,0,1-7.24-7.24V50.67a48.65,48.65,0,0,1,48.6-48.6H688.14a48.66,48.66,0,0,1,48.61,48.6V106A7.24,7.24,0,0,1,729.51,113.23ZM376.65,98.75H722.27V50.67a34.17,34.17,0,0,0-34.13-34.12H410.77a34.16,34.16,0,0,0-34.12,34.12Z"/><path class="cls-2" d="M549.46,687.93a35.72,35.72,0,1,1,35.71-35.71A35.75,35.75,0,0,1,549.46,687.93Zm0-56.95a21.24,21.24,0,1,0,21.23,21.24A21.27,21.27,0,0,0,549.46,631Z"/><g class="cls-4"><rect class="cls-2" x="461.88" y="230.68" width="13.9" height="111.19"/></g><g class="cls-4"><rect class="cls-2" x="623.13" y="230.68" width="13.9" height="111.19"/></g><path class="cls-2" d="M623.13,349.11H475.78a7.24,7.24,0,0,1-7.24-7.24V194.52a7.24,7.24,0,0,1,7.24-7.24H623.13a7.24,7.24,0,0,1,7.24,7.24V341.87A7.24,7.24,0,0,1,623.13,349.11ZM483,334.63H615.89V201.76H483Z"/><path class="cls-2" d="M475.78,349.11H420.19a7.24,7.24,0,0,1-7.24-7.24V230.68a7.24,7.24,0,0,1,7.24-7.24h55.59a7.24,7.24,0,0,1,7.24,7.24V341.87A7.24,7.24,0,0,1,475.78,349.11Zm-48.35-14.48h41.11V237.92H427.43Z"/><path class="cls-2" d="M678.73,349.11h-55.6a7.24,7.24,0,0,1-7.24-7.24V230.68a7.24,7.24,0,0,1,7.24-7.24h55.6a7.24,7.24,0,0,1,7.24,7.24V341.87A7.24,7.24,0,0,1,678.73,349.11Zm-48.36-14.48h41.12V237.92H630.37Z"/><g class="cls-5"><path class="cls-2" d="M678.73,402.68H420.19a7.24,7.24,0,0,1,0-14.48H678.73a7.24,7.24,0,0,1,0,14.48Z"/></g><path class="cls-2" d="M596.39,402.68H420.19a7.24,7.24,0,0,1,0-14.48h176.2a7.24,7.24,0,0,1,0,14.48Z"/><circle class="cls-2" cx="596.39" cy="395.44" r="10.6"/><path class="cls-2" d="M549.46,530.14a34.09,34.09,0,1,1,34.08-34.09A34.13,34.13,0,0,1,549.46,530.14Zm0-60a25.88,25.88,0,1,0,25.88,25.88A25.91,25.91,0,0,0,549.46,470.17Z"/><path class="cls-2" d="M541.65,511.16a4.11,4.11,0,0,1-4.11-4.1V485a4.11,4.11,0,0,1,8.21,0v22A4.11,4.11,0,0,1,541.65,511.16Z"/><path class="cls-2" d="M557.27,511.16a4.1,4.1,0,0,1-4.1-4.1V485a4.1,4.1,0,1,1,8.2,0v22A4.11,4.11,0,0,1,557.27,511.16Z"/><path class="cls-2" d="M488.5,514.77A3.4,3.4,0,0,1,486,513.7l-14.49-15.3a3.41,3.41,0,0,1,0-4.7L486,478.4a3.4,3.4,0,0,1,3.74-.83,3.43,3.43,0,0,1,2.16,3.18v30.6a3.43,3.43,0,0,1-2.16,3.18A3.48,3.48,0,0,1,488.5,514.77Zm-9.79-18.72,6.37,6.72V489.32Z"/><path class="cls-2" d="M471.28,514.77a3.42,3.42,0,0,1-3.42-3.42v-30.6a3.42,3.42,0,1,1,6.83,0v30.6A3.42,3.42,0,0,1,471.28,514.77Z"/><path class="cls-2" d="M610.41,477.33a3.43,3.43,0,0,1,2.49,1.06l14.49,15.31a3.43,3.43,0,0,1,0,4.7L612.9,513.7a3.41,3.41,0,0,1-5.9-2.35V480.74a3.42,3.42,0,0,1,2.15-3.17A3.48,3.48,0,0,1,610.41,477.33Zm9.79,18.72-6.37-6.73v13.45Z"/><path class="cls-2" d="M627.64,477.33a3.42,3.42,0,0,1,3.42,3.41v30.61a3.42,3.42,0,0,1-6.84,0V480.74A3.42,3.42,0,0,1,627.64,477.33Z"/><path class="cls-2" d="M435.93,488.67a1.44,1.44,0,0,0,0,2.87,6.21,6.21,0,1,1,0,12.42h-9.67v-1.82a.83.83,0,0,0-.5-.75.82.82,0,0,0-.88.16l-3.46,3.25a.83.83,0,0,0,0,1.19l3.46,3.25a.82.82,0,0,0,.56.22.71.71,0,0,0,.32-.07.82.82,0,0,0,.5-.75v-1.81h9.67a9.08,9.08,0,1,0,0-18.16Z"/><path class="cls-2" d="M418.46,504a6.21,6.21,0,0,1,0-12.42h9.68v1.81a.82.82,0,0,0,.49.76,1,1,0,0,0,.33.06.81.81,0,0,0,.56-.22L433,490.7a.81.81,0,0,0,0-1.19l-3.45-3.25a.83.83,0,0,0-.89-.15.8.8,0,0,0-.49.75v1.81h-9.68a9.08,9.08,0,0,0,0,18.16,1.44,1.44,0,0,0,0-2.87Z"/><path class="cls-2" d="M678.34,489.71l-3.18-3a.75.75,0,0,0-.81-.15.77.77,0,0,0-.45.69V489h-1.33a1.3,1.3,0,0,0-.94.4L658.33,503h-3.11a1.32,1.32,0,1,0,0,2.63h3.66a1.31,1.31,0,0,0,.94-.4l13.31-13.62h.77v1.66a.76.76,0,0,0,.45.69.8.8,0,0,0,.3.06.71.71,0,0,0,.51-.21l3.18-3a.75.75,0,0,0,0-1.1Z"/><path class="cls-2" d="M675.16,500.76a.73.73,0,0,0-.81-.14.76.76,0,0,0-.45.69V503h-.77l-4.07-4.17-1.84,1.88,4.41,4.52a1.34,1.34,0,0,0,.94.4h1.33v1.67a.76.76,0,0,0,.45.69.8.8,0,0,0,.3.06.74.74,0,0,0,.51-.2l3.18-3a.76.76,0,0,0,.24-.55.79.79,0,0,0-.24-.55Z"/><path class="cls-2" d="M655.22,491.59h3.11l4.07,4.17,1.84-1.88-4.42-4.52a1.27,1.27,0,0,0-.94-.4h-3.66a1.32,1.32,0,1,0,0,2.63Z"/><path class="cls-2" d="M565.6,289.87h-.15a7.19,7.19,0,0,1-5.57-2.8L519.44,234.9l-38,46.91-11.25-9.11,43.78-54a7.23,7.23,0,0,1,11.34.13l40.55,52.3,25-29.69a7.25,7.25,0,0,1,10.68-.42l26.74,27L618,278.2l-21.17-21.38-25.69,30.47A7.21,7.21,0,0,1,565.6,289.87Z"/><rect class="cls-2" x="546.91" y="245.68" width="50.41" height="14.48" transform="translate(-47.1 164.28) rotate(-15.7)"/><g class="cls-4"><polygon class="cls-2" points="559.16 274.33 555.8 257.51 578.19 251.21 584.88 259.74 570.34 277 559.16 274.33"/></g><path class="cls-2" d="M607,64.89h-115a7.24,7.24,0,0,1,0-14.48H607a7.24,7.24,0,1,1,0,14.48Z"/><circle class="cls-2" cx="465.77" cy="57.65" r="11.91"/><text class="cls-6" transform="translate(164.55 870.61)">UI Design</text></g></g></svg>