<svg xmlns="http://www.w3.org/2000/svg" viewBox="0 0 621.19 596.96"><defs><style>.cls-1{fill:#fff;}.cls-2{fill:#232257;}.cls-3{opacity:0.25;}.cls-4{opacity:0.75;}.cls-5{opacity:0.5;}</style></defs><title>ui-design-big</title><g id="Layer_2" data-name="Layer 2"><g id="Layer_2_copy" data-name="Layer 2 copy"><rect class="cls-1" x="7.83" y="7.94" width="302.77" height="581.2" rx="36.14"/><path class="cls-2" d="M274.46,597H44A44,44,0,0,1,0,553V44.08a44,44,0,0,1,44-44h230.5a44,44,0,0,1,44,44V553A44,44,0,0,1,274.46,597ZM44,15.77A28.34,28.34,0,0,0,15.65,44.08V553A28.34,28.34,0,0,0,44,581.31h230.5A28.34,28.34,0,0,0,302.77,553V44.08a28.34,28.34,0,0,0-28.31-28.31Z"/><rect class="cls-1" x="50.33" y="194.07" width="93.49" height="93.49"/><path class="cls-2" d="M143.82,293.64H50.33a6.09,6.09,0,0,1-6.09-6.08V194.07A6.09,6.09,0,0,1,50.33,188h93.49a6.09,6.09,0,0,1,6.08,6.09v93.49A6.08,6.08,0,0,1,143.82,293.64Zm-87.4-12.17h81.31V200.16H56.42Z"/><path class="cls-2" d="M139.51,291.86,97.07,249.42,54.63,291.86,46,283.25l42.44-42.44L46,198.37A6.09,6.09,0,0,1,50.33,188h93.49a6.09,6.09,0,0,1,4.3,10.39l-42.44,42.44,42.44,42.44ZM65,200.16l32,32,32.05-32Z"/><rect class="cls-1" x="175.33" y="194.07" width="93.49" height="93.49"/><path class="cls-2" d="M268.82,293.64H175.33a6.09,6.09,0,0,1-6.09-6.08V194.07a6.09,6.09,0,0,1,6.09-6.09h93.49a6.09,6.09,0,0,1,6.08,6.09v93.49A6.08,6.08,0,0,1,268.82,293.64Zm-87.4-12.17h81.31V200.16H181.42Z"/><path class="cls-2" d="M264.51,291.86l-42.44-42.44-42.44,42.44-8.6-8.61,42.43-42.44L171,198.37a6.09,6.09,0,0,1,4.3-10.39h93.49a6.09,6.09,0,0,1,4.3,10.39l-42.44,42.44,42.44,42.44ZM190,200.16l32,32,32.05-32Z"/><rect class="cls-1" x="97.27" y="163.67" width="123.89" height="123.89"/><path class="cls-2" d="M221.16,293.64H97.27a6.09,6.09,0,0,1-6.09-6.08V163.67a6.09,6.09,0,0,1,6.09-6.09H221.16a6.08,6.08,0,0,1,6.08,6.09V287.56A6.08,6.08,0,0,1,221.16,293.64ZM103.35,281.47H215.07V169.75H103.35Z"/><path class="cls-2" d="M267.9,338.68H50.52a6.09,6.09,0,0,1,0-12.17H267.9a6.09,6.09,0,0,1,0,12.17Z"/><path class="cls-2" d="M159.21,445.85a28.66,28.66,0,1,1,28.66-28.66A28.7,28.7,0,0,1,159.21,445.85Zm0-50.43A21.77,21.77,0,1,0,181,417.19,21.79,21.79,0,0,0,159.21,395.42Z"/><path class="cls-2" d="M108,432.93a2.88,2.88,0,0,1-2.09-.9L93.69,419.16a2.87,2.87,0,0,1,0-4l12.18-12.87a2.88,2.88,0,0,1,5,2v25.73a2.87,2.87,0,0,1-1.81,2.67A2.78,2.78,0,0,1,108,432.93Zm-8.23-15.74,5.35,5.65V411.53Z"/><path class="cls-2" d="M93.48,432.93a2.88,2.88,0,0,1-2.88-2.88V404.32a2.88,2.88,0,0,1,5.75,0v25.73A2.88,2.88,0,0,1,93.48,432.93Z"/><path class="cls-2" d="M210.46,401.45a2.87,2.87,0,0,1,2.09.89l12.18,12.87a2.87,2.87,0,0,1,0,4L212.55,432a2.88,2.88,0,0,1-5-2V404.32a2.86,2.86,0,0,1,2.87-2.87Zm8.23,15.74-5.35-5.66v11.31Z"/><path class="cls-2" d="M225,401.45a2.87,2.87,0,0,1,2.87,2.87v25.73a2.88,2.88,0,1,1-5.75,0V404.32A2.87,2.87,0,0,1,225,401.45Z"/><path class="cls-2" d="M216.85,291.86l-57.64-57.64-57.64,57.64L93,283.25l57.64-57.64L93,168a6.09,6.09,0,0,1,4.31-10.39H221.16a6.09,6.09,0,0,1,4.3,10.39l-57.64,57.64,57.64,57.64ZM112,169.75,159.21,217l47.25-47.25Z"/><path class="cls-2" d="M142.36,438.14a4.35,4.35,0,0,1-3.07-7.42L173,397a4.35,4.35,0,0,1,6.15,6.15l-33.71,33.7A4.32,4.32,0,0,1,142.36,438.14Z"/><path class="cls-2" d="M176.06,438.14a4.32,4.32,0,0,1-3.07-1.27l-33.7-33.7a4.35,4.35,0,0,1,6.14-6.15l33.71,33.7a4.35,4.35,0,0,1-3.08,7.42Z"/><rect class="cls-1" x="86.42" y="400.96" width="31.97" height="31.97"/><path class="cls-2" d="M118.39,436.41h-32A3.47,3.47,0,0,1,83,432.93V401a3.47,3.47,0,0,1,3.47-3.48h32a3.48,3.48,0,0,1,3.48,3.48v32A3.48,3.48,0,0,1,118.39,436.41Zm-28.49-7h25v-25h-25Z"/><line class="cls-1" x1="86.42" y1="432.93" x2="118.39" y2="400.96"/><rect class="cls-2" x="79.8" y="413.47" width="45.21" height="6.96" transform="translate(-264.83 194.53) rotate(-45)"/><line class="cls-1" x1="86.42" y1="400.96" x2="118.39" y2="432.93"/><rect class="cls-2" x="98.93" y="394.34" width="6.96" height="45.21" transform="translate(-264.83 194.53) rotate(-45)"/><rect class="cls-1" x="44.3" y="405.84" width="22.21" height="22.21"/><path class="cls-2" d="M66.52,430.47H44.3a2.41,2.41,0,0,1-2.41-2.42V405.84a2.41,2.41,0,0,1,2.41-2.42H66.52a2.41,2.41,0,0,1,2.41,2.42v22.21A2.41,2.41,0,0,1,66.52,430.47Zm-19.8-4.84H64.1V408.25H46.72Z"/><line class="cls-1" x1="44.3" y1="428.05" x2="66.52" y2="405.84"/><rect class="cls-2" x="39.7" y="414.53" width="31.42" height="4.83" transform="translate(-278.59 161.3) rotate(-45)"/><line class="cls-1" x1="44.3" y1="405.84" x2="66.52" y2="428.05"/><rect class="cls-2" x="52.99" y="401.24" width="4.83" height="31.42" transform="translate(-278.59 161.3) rotate(-45)"/><rect class="cls-1" x="201.47" y="400.96" width="31.97" height="31.97"/><path class="cls-2" d="M233.43,436.41h-32a3.48,3.48,0,0,1-3.48-3.48V401a3.48,3.48,0,0,1,3.48-3.48h32a3.48,3.48,0,0,1,3.48,3.48v32A3.48,3.48,0,0,1,233.43,436.41Zm-28.49-7h25v-25h-25Z"/><line class="cls-1" x1="201.47" y1="432.93" x2="233.43" y2="400.96"/><rect class="cls-2" x="194.85" y="413.47" width="45.21" height="6.96" transform="translate(-231.13 275.88) rotate(-45)"/><line class="cls-1" x1="201.47" y1="400.96" x2="233.43" y2="432.93"/><rect class="cls-2" x="213.97" y="394.34" width="6.96" height="45.21" transform="translate(-231.13 275.88) rotate(-45)"/><rect class="cls-1" x="252.33" y="405.84" width="22.21" height="22.21"/><path class="cls-2" d="M274.55,430.47H252.33a2.41,2.41,0,0,1-2.41-2.42V405.84a2.41,2.41,0,0,1,2.41-2.42h22.22a2.41,2.41,0,0,1,2.41,2.42v22.21A2.41,2.41,0,0,1,274.55,430.47Zm-19.8-4.84h17.38V408.25H254.75Z"/><line class="cls-1" x1="252.33" y1="428.05" x2="274.55" y2="405.84"/><rect class="cls-2" x="247.73" y="414.53" width="31.42" height="4.83" transform="translate(-217.66 308.4) rotate(-45)"/><line class="cls-1" x1="252.33" y1="405.84" x2="274.55" y2="428.05"/><rect class="cls-2" x="261.02" y="401.24" width="4.83" height="31.42" transform="translate(-217.66 308.4) rotate(-45)"/><g class="cls-3"><rect class="cls-2" x="130.55" y="7.86" width="302.77" height="581.2" rx="36.14"/></g><rect class="cls-1" x="159.21" y="7.94" width="302.77" height="581.2" rx="36.14"/><path class="cls-2" d="M425.84,597H195.35a44,44,0,0,1-44-44V44.08a44,44,0,0,1,44-44H425.84a44,44,0,0,1,44,44V553A44,44,0,0,1,425.84,597ZM195.35,15.77A28.34,28.34,0,0,0,167,44.08V553a28.34,28.34,0,0,0,28.31,28.31H425.84A28.34,28.34,0,0,0,454.15,553V44.08a28.34,28.34,0,0,0-28.31-28.31Z"/><g class="cls-4"><rect class="cls-2" x="236.96" y="194.07" width="11.69" height="93.49"/></g><g class="cls-4"><rect class="cls-2" x="372.54" y="194.07" width="11.69" height="93.49"/></g><path class="cls-2" d="M372.54,293.64H248.65a6.09,6.09,0,0,1-6.09-6.08V163.67a6.09,6.09,0,0,1,6.09-6.09H372.54a6.09,6.09,0,0,1,6.09,6.09V287.56A6.09,6.09,0,0,1,372.54,293.64Zm-117.8-12.17H366.45V169.75H254.74Z"/><path class="cls-2" d="M248.65,293.64H201.91a6.09,6.09,0,0,1-6.09-6.08V194.07a6.09,6.09,0,0,1,6.09-6.09h46.74a6.09,6.09,0,0,1,6.09,6.09v93.49A6.09,6.09,0,0,1,248.65,293.64ZM208,281.47h34.57V200.16H208Z"/><path class="cls-2" d="M419.28,293.64H372.54a6.09,6.09,0,0,1-6.09-6.08V194.07a6.09,6.09,0,0,1,6.09-6.09h46.74a6.09,6.09,0,0,1,6.09,6.09v93.49A6.09,6.09,0,0,1,419.28,293.64Zm-40.65-12.17h34.56V200.16H378.63Z"/><g class="cls-5"><path class="cls-2" d="M419.28,338.68H201.91a6.09,6.09,0,1,1,0-12.17H419.28a6.09,6.09,0,1,1,0,12.17Z"/></g><path class="cls-2" d="M350.05,338.68H201.91a6.09,6.09,0,1,1,0-12.17H350.05a6.09,6.09,0,1,1,0,12.17Z"/><circle class="cls-2" cx="350.05" cy="332.6" r="8.91"/><path class="cls-2" d="M310.6,445.85a28.66,28.66,0,1,1,28.66-28.66A28.7,28.7,0,0,1,310.6,445.85Zm0-50.43a21.77,21.77,0,1,0,21.76,21.77A21.79,21.79,0,0,0,310.6,395.42Z"/><path class="cls-2" d="M304,429.89a3.44,3.44,0,0,1-3.45-3.45V407.93a3.45,3.45,0,0,1,6.9,0v18.51A3.45,3.45,0,0,1,304,429.89Z"/><path class="cls-2" d="M317.16,429.89a3.45,3.45,0,0,1-3.45-3.45V407.93a3.45,3.45,0,1,1,6.9,0v18.51A3.44,3.44,0,0,1,317.16,429.89Z"/><path class="cls-2" d="M259.34,432.93a2.92,2.92,0,0,1-2.09-.9l-12.18-12.87a2.87,2.87,0,0,1,0-4l12.18-12.87a2.88,2.88,0,0,1,5,2v25.73a2.85,2.85,0,0,1-1.81,2.67A2.78,2.78,0,0,1,259.34,432.93Zm-8.23-15.74,5.36,5.65V411.53Z"/><path class="cls-2" d="M244.86,432.93a2.87,2.87,0,0,1-2.87-2.88V404.32a2.87,2.87,0,1,1,5.74,0v25.73A2.87,2.87,0,0,1,244.86,432.93Z"/><path class="cls-2" d="M361.85,401.45a2.87,2.87,0,0,1,2.08.89l12.19,12.87a2.87,2.87,0,0,1,0,4L363.93,432a2.88,2.88,0,0,1-5-2V404.32a2.86,2.86,0,0,1,2.88-2.87Zm8.22,15.74-5.35-5.66v11.31Z"/><path class="cls-2" d="M376.33,401.45a2.86,2.86,0,0,1,2.87,2.87v25.73a2.87,2.87,0,1,1-5.74,0V404.32A2.86,2.86,0,0,1,376.33,401.45Z"/><path class="cls-2" d="M215.15,411a1.2,1.2,0,1,0,0,2.4,5.23,5.23,0,0,1,0,10.45H207v-1.53a.68.68,0,0,0-.42-.63.68.68,0,0,0-.74.13l-2.91,2.73a.7.7,0,0,0,0,1l2.91,2.74a.69.69,0,0,0,.47.18.62.62,0,0,0,.27,0,.68.68,0,0,0,.42-.63v-1.53h8.14a7.63,7.63,0,0,0,0-15.26Z"/><path class="cls-2" d="M200.45,423.84a5.23,5.23,0,0,1,0-10.45h8.14v1.53a.67.67,0,0,0,.42.63.63.63,0,0,0,.27.06.7.7,0,0,0,.47-.19l2.9-2.73a.68.68,0,0,0,0-1l-2.9-2.73a.68.68,0,0,0-.74-.13.66.66,0,0,0-.42.63V411h-8.14a7.63,7.63,0,1,0,0,15.26,1.21,1.21,0,1,0,0-2.41Z"/><path class="cls-2" d="M419,411.86l-2.67-2.51a.65.65,0,0,0-.69-.12.64.64,0,0,0-.38.58v1.42h-1.11a1.11,1.11,0,0,0-.79.33L402.13,423h-2.61a1.11,1.11,0,1,0,0,2.21h3.08a1.11,1.11,0,0,0,.79-.33l11.18-11.45h.65v1.39a.64.64,0,0,0,.38.58.8.8,0,0,0,.26,0,.65.65,0,0,0,.43-.17l2.67-2.51a.63.63,0,0,0,0-.92Z"/><path class="cls-2" d="M416.29,421.15a.63.63,0,0,0-.69-.12.64.64,0,0,0-.38.58V423h-.65l-3.42-3.5-1.54,1.58,3.71,3.8a1.11,1.11,0,0,0,.79.33h1.11v1.41a.64.64,0,0,0,.38.58.8.8,0,0,0,.26.05.65.65,0,0,0,.43-.17l2.67-2.51a.67.67,0,0,0,.2-.46.65.65,0,0,0-.2-.46Z"/><path class="cls-2" d="M399.52,413.44h2.61l3.43,3.5,1.54-1.58-3.71-3.8a1.11,1.11,0,0,0-.79-.33h-3.08a1.11,1.11,0,1,0,0,2.21Z"/><path class="cls-2" d="M324.16,243.83H324a6.09,6.09,0,0,1-4.69-2.36l-34-43.85-32,39.44-9.46-7.67L280.73,184a6.19,6.19,0,0,1,4.8-2.26,6.09,6.09,0,0,1,4.74,2.36l34.09,44,21-24.95a6.08,6.08,0,0,1,4.41-2.16,6.15,6.15,0,0,1,4.57,1.8l22.48,22.7L368.22,234l-17.81-18-21.59,25.62A6.11,6.11,0,0,1,324.16,243.83Z"/><rect class="cls-2" x="308.46" y="206.68" width="42.39" height="12.17" transform="translate(-45.28 97.17) rotate(-15.7)"/><g class="cls-4"><polygon class="cls-2" points="318.75 230.77 315.93 216.62 334.75 211.33 340.38 218.5 328.16 233.01 318.75 230.77"/></g><g class="cls-3"><rect class="cls-2" x="284.51" y="7.83" width="302.77" height="581.2" rx="36.14"/></g><rect class="cls-1" x="310.59" y="7.83" width="302.77" height="581.2" rx="36.14"/><path class="cls-2" d="M577.23,596.85H346.73a44,44,0,0,1-44-44V44a44,44,0,0,1,44-44h230.5a44,44,0,0,1,44,44V552.89A44,44,0,0,1,577.23,596.85ZM346.73,15.65A28.34,28.34,0,0,0,318.42,44V552.89a28.34,28.34,0,0,0,28.31,28.31h230.5a28.34,28.34,0,0,0,28.31-28.31V44a28.34,28.34,0,0,0-28.31-28.31Z"/><path class="cls-2" d="M578.58,595.11H345.37a40.91,40.91,0,0,1-40.86-40.87V507.73a6.08,6.08,0,0,1,6.08-6.08H613.36a6.09,6.09,0,0,1,6.09,6.08v46.51A40.91,40.91,0,0,1,578.58,595.11Zm-261.9-81.29v40.42a28.73,28.73,0,0,0,28.69,28.7H578.58a28.73,28.73,0,0,0,28.69-28.7V513.82Z"/><path class="cls-2" d="M613.36,95.2H310.59a6.08,6.08,0,0,1-6.08-6.08V42.61A40.91,40.91,0,0,1,345.37,1.74H578.58a40.91,40.91,0,0,1,40.87,40.87V89.12A6.09,6.09,0,0,1,613.36,95.2ZM316.68,83H607.27V42.61a28.72,28.72,0,0,0-28.69-28.7H345.37a28.72,28.72,0,0,0-28.69,28.7Z"/><path class="cls-2" d="M462,578.41a30,30,0,1,1,30-30A30.07,30.07,0,0,1,462,578.41Zm0-47.89a17.86,17.86,0,1,0,17.85,17.86A17.88,17.88,0,0,0,462,530.52Z"/><g class="cls-4"><rect class="cls-2" x="388.35" y="193.96" width="11.69" height="93.49"/></g><g class="cls-4"><rect class="cls-2" x="523.92" y="193.96" width="11.69" height="93.49"/></g><path class="cls-2" d="M523.92,293.53H400a6.09,6.09,0,0,1-6.08-6.09V163.55a6.08,6.08,0,0,1,6.08-6.08H523.92a6.09,6.09,0,0,1,6.09,6.08V287.44A6.09,6.09,0,0,1,523.92,293.53Zm-117.8-12.17H517.84V169.64H406.12Z"/><path class="cls-2" d="M400,293.53H353.29a6.09,6.09,0,0,1-6.09-6.09V194a6.09,6.09,0,0,1,6.09-6.09H400a6.09,6.09,0,0,1,6.09,6.09v93.48A6.09,6.09,0,0,1,400,293.53Zm-40.65-12.17H394V200H359.38Z"/><path class="cls-2" d="M570.67,293.53H523.92a6.09,6.09,0,0,1-6.08-6.09V194a6.08,6.08,0,0,1,6.08-6.09h46.75a6.08,6.08,0,0,1,6.08,6.09v93.48A6.09,6.09,0,0,1,570.67,293.53ZM530,281.36h34.57V200H530Z"/><g class="cls-5"><path class="cls-2" d="M570.67,338.57H353.29a6.09,6.09,0,1,1,0-12.17H570.67a6.09,6.09,0,0,1,0,12.17Z"/></g><path class="cls-2" d="M501.44,338.57H353.29a6.09,6.09,0,1,1,0-12.17H501.44a6.09,6.09,0,0,1,0,12.17Z"/><circle class="cls-2" cx="501.44" cy="332.48" r="8.91"/><path class="cls-2" d="M462,445.73a28.66,28.66,0,1,1,28.66-28.66A28.69,28.69,0,0,1,462,445.73Zm0-50.42a21.77,21.77,0,1,0,21.76,21.76A21.78,21.78,0,0,0,462,395.31Z"/><path class="cls-2" d="M455.41,429.78a3.46,3.46,0,0,1-3.45-3.45V407.82a3.45,3.45,0,1,1,6.9,0v18.51A3.45,3.45,0,0,1,455.41,429.78Z"/><path class="cls-2" d="M468.55,429.78a3.45,3.45,0,0,1-3.45-3.45V407.82a3.45,3.45,0,0,1,6.9,0v18.51A3.46,3.46,0,0,1,468.55,429.78Z"/><path class="cls-2" d="M410.73,432.81a2.87,2.87,0,0,1-2.09-.89l-12.18-12.87a2.87,2.87,0,0,1,0-3.95l12.18-12.87a2.88,2.88,0,0,1,5,2v25.73a2.88,2.88,0,0,1-1.81,2.67A2.84,2.84,0,0,1,410.73,432.81Zm-8.23-15.74,5.35,5.66V411.42Z"/><path class="cls-2" d="M396.24,432.81a2.87,2.87,0,0,1-2.87-2.87V404.21a2.88,2.88,0,1,1,5.75,0v25.73A2.87,2.87,0,0,1,396.24,432.81Z"/><path class="cls-2" d="M513.23,401.33a2.92,2.92,0,0,1,2.09.9L527.5,415.1a2.87,2.87,0,0,1,0,3.95l-12.18,12.87a2.88,2.88,0,0,1-5-2V404.21a2.87,2.87,0,0,1,1.81-2.67A2.78,2.78,0,0,1,513.23,401.33Zm8.23,15.74-5.36-5.65v11.31Z"/><path class="cls-2" d="M527.71,401.33a2.88,2.88,0,0,1,2.88,2.88v25.73a2.88,2.88,0,0,1-5.75,0V404.21A2.88,2.88,0,0,1,527.71,401.33Z"/><path class="cls-2" d="M366.53,410.87a1.21,1.21,0,0,0,0,2.41,5.23,5.23,0,0,1,0,10.45h-8.14V422.2a.68.68,0,0,0-.41-.63.69.69,0,0,0-.75.13l-2.9,2.73a.68.68,0,0,0,0,1l2.9,2.73a.66.66,0,0,0,.47.19.69.69,0,0,0,.69-.69v-1.53h8.14a7.63,7.63,0,1,0,0-15.26Z"/><path class="cls-2" d="M351.84,423.73a5.23,5.23,0,1,1,0-10.45H360v1.53a.7.7,0,0,0,.42.63.66.66,0,0,0,.27.06.7.7,0,0,0,.47-.19l2.91-2.73a.68.68,0,0,0,.22-.5.7.7,0,0,0-.22-.51l-2.91-2.73a.68.68,0,0,0-.74-.13.7.7,0,0,0-.42.63v1.53h-8.13a7.63,7.63,0,1,0,0,15.26,1.2,1.2,0,1,0,0-2.4Z"/><path class="cls-2" d="M570.34,411.75l-2.67-2.51a.61.61,0,0,0-.68-.12.62.62,0,0,0-.38.58v1.41h-1.12a1.1,1.1,0,0,0-.79.34L553.52,422.9H550.9a1.11,1.11,0,0,0,0,2.21H554a1.1,1.1,0,0,0,.79-.33L566,413.33h.65v1.39a.64.64,0,0,0,.38.58.7.7,0,0,0,.25.05.63.63,0,0,0,.43-.17l2.67-2.51a.63.63,0,0,0,.2-.46A.61.61,0,0,0,570.34,411.75Z"/><path class="cls-2" d="M567.67,421a.63.63,0,0,0-1.06.46v1.41H566l-3.42-3.51L561,421l3.71,3.8a1.13,1.13,0,0,0,.79.33h1.12v1.4a.62.62,0,0,0,.38.58.54.54,0,0,0,.25.06.6.6,0,0,0,.43-.18l2.67-2.51a.6.6,0,0,0,.2-.46.63.63,0,0,0-.2-.46Z"/><path class="cls-2" d="M550.9,413.33h2.62l3.42,3.5,1.55-1.58-3.72-3.8a1.07,1.07,0,0,0-.79-.34H550.9a1.11,1.11,0,0,0,0,2.22Z"/><path class="cls-2" d="M475.55,243.72h-.13a6.1,6.1,0,0,1-4.68-2.36l-34-43.85-32,39.44-9.45-7.67,36.81-45.41a6.08,6.08,0,0,1,9.53.11l34.1,44,21-24.95a6.1,6.1,0,0,1,9-.37l22.49,22.71-8.65,8.56-17.8-18-21.6,25.62A6.06,6.06,0,0,1,475.55,243.72Z"/><rect class="cls-2" x="459.84" y="206.57" width="42.39" height="12.17" transform="translate(-39.6 138.13) rotate(-15.7)"/><g class="cls-4"><polygon class="cls-2" points="470.14 230.65 467.31 216.51 486.14 211.22 491.77 218.39 479.54 232.9 470.14 230.65"/></g><path class="cls-2" d="M510.34,54.56H413.61a6.09,6.09,0,0,1,0-12.18h96.73a6.09,6.09,0,0,1,0,12.18Z"/><circle class="cls-2" cx="391.62" cy="48.47" r="10.02"/></g></g></svg>