<svg xmlns="http://www.w3.org/2000/svg" viewBox="0 0 708.57 954"><defs><style>.cls-1{font-size:84.46px;font-family:Manrope-ExtraBold, Manrope;font-weight:800;}.cls-1,.cls-2{fill:#232257;}.cls-3{opacity:0.5;}.cls-4{fill:#242058;}</style></defs><title>xd</title><g id="Layer_2" data-name="Layer 2"><g id="Layer_7" data-name="Layer 7"><text class="cls-1" transform="translate(144.46 927.6)">Adobe XD</text><path class="cls-2" d="M625.21,706.62H83.37A82.39,82.39,0,0,1,1,624.23V82.39A82.39,82.39,0,0,1,83.37,0H625.21a82.38,82.38,0,0,1,82.38,82.39V624.23A82.38,82.38,0,0,1,625.21,706.62ZM83.37,62.61A19.79,19.79,0,0,0,63.59,82.39V624.23A19.78,19.78,0,0,0,83.37,644H625.21A19.77,19.77,0,0,0,645,624.23V82.39a19.78,19.78,0,0,0-19.77-19.78Z"/><g class="cls-3"><rect class="cls-4" y="644.46" width="708.57" height="109.14" rx="50.02"/></g><path class="cls-2" d="M381.63,462.41H330.87L311.73,430.2c-7.6-12.77-19.14-33.74-23.1-41.64-3.64,7.9-15.2,28.26-23.09,41.64l-19.15,32.21H195.63l67.47-108.8L198.67,249.68h50.76L265.54,277c7.6,12.76,19.14,33.73,23.09,41.63,4-7.9,15.2-28.27,23.1-41.63l16.11-27.35h50.75L313.85,353.61Z"/><path class="cls-2" d="M512.94,462.41H471v-10c-7.9,7-18.54,13.37-33.74,13.37-34,0-62-25.52-62-85.09,0-47.71,22.48-81.15,62-81.15,14,0,26.14,5.47,33.74,12.47V240.86h41.93ZM471,412.87V352.7C464.63,343.88,454.9,339,442.75,339c-16.11,0-24.93,14-24.93,40.73,0,32.82,10.94,46.5,27.36,46.5C458.25,426.25,464.92,420.78,471,412.87Z"/></g></g></svg>