<svg xmlns="http://www.w3.org/2000/svg" viewBox="0 0 638.69 281.5"><defs><style>.cls-1{fill:#fff;}.cls-2,.cls-5{fill:#232257;}.cls-3{opacity:0.5;}.cls-4{fill:#242058;}.cls-5{font-size:13.26px;font-family:Manrope-ExtraBold, Manrope;font-weight:800;}.cls-6{letter-spacing:-0.02em;}.cls-7{letter-spacing:-0.03em;}</style></defs><title>skills</title><g id="Layer_2" data-name="Layer 2"><g id="Layer_2_copy" data-name="Layer 2 copy"><rect class="cls-1" width="638.69" height="281.5"/><path class="cls-2" d="M471.92,192.13a2.41,2.41,0,0,1-1-.23,2.34,2.34,0,0,1-.66-.47l-40.9-40.9-.07-.06-7.69-7.7a31.29,31.29,0,0,1,44.25-44.25l6.09,6.09L478,98.52a31.32,31.32,0,0,1,44.25,0h0a31.28,31.28,0,0,1,0,44.25l-7.69,7.7-.07.06-40.9,40.9A2.33,2.33,0,0,1,471.92,192.13Zm-39.16-44.88,39.16,39.16,39.15-39.16.07-.07,7.76-7.76a26.54,26.54,0,0,0,0-37.55h0a26.59,26.59,0,0,0-37.55,0l-7.76,7.76a2.35,2.35,0,0,1-1.67.7h0a2.35,2.35,0,0,1-1.68-.7l-7.76-7.76a26.55,26.55,0,1,0-37.55,37.55l7.76,7.76A.46.46,0,0,1,432.76,147.25Z"/><path class="cls-2" d="M454.35,127.89a2.46,2.46,0,0,1-.91-.18,2.37,2.37,0,0,1-1.46-2.19V93.75h4.74V119.8l13.52-13.52,3.35,3.35L456,127.2A2.39,2.39,0,0,1,454.35,127.89Z"/><path class="cls-2" d="M489.48,127.89a2.39,2.39,0,0,1-1.68-.69l-17.56-17.57,3.35-3.35,13.52,13.52v-26h4.74v31.77a2.37,2.37,0,0,1-1.46,2.19A2.46,2.46,0,0,1,489.48,127.89Z"/><rect class="cls-2" x="472.68" y="111.09" width="4.74" height="75.53"/><circle class="cls-2" cx="466.68" cy="127.99" r="3.12"/><path class="cls-2" d="M466.68,129.34H461.4a1.36,1.36,0,0,1,0-2.71h5.28a1.36,1.36,0,1,1,0,2.71Z"/><circle class="cls-2" cx="466.68" cy="145.73" r="3.12"/><path class="cls-2" d="M466.68,147.09H461.4a1.36,1.36,0,0,1,0-2.71h5.28a1.36,1.36,0,1,1,0,2.71Z"/><circle class="cls-2" cx="466.68" cy="163.48" r="3.12"/><path class="cls-2" d="M466.68,164.84H461.4a1.36,1.36,0,0,1,0-2.71h5.28a1.36,1.36,0,1,1,0,2.71Z"/><path class="cls-2" d="M440.42,147.5H429.36a6,6,0,0,1-6-6V128a1.36,1.36,0,0,1,1.36-1.36H445a1.36,1.36,0,0,1,1.35,1.36v13.55A6,6,0,0,1,440.42,147.5Zm-14.31-18.16v12.2a3.26,3.26,0,0,0,3.25,3.25h11.06a3.26,3.26,0,0,0,3.25-3.25v-12.2Z"/><path class="cls-2" d="M434.89,138.42a1.33,1.33,0,0,1-.9-.34L423.85,129a1.36,1.36,0,0,1,.91-2.37H445a1.36,1.36,0,0,1,.9,2.37l-10.13,9.08A1.37,1.37,0,0,1,434.89,138.42Zm-6.59-9.08,6.59,5.91,6.6-5.91Z"/><path class="cls-2" d="M514.66,147.5h-11a6,6,0,0,1-6-6V128a1.36,1.36,0,0,1,1.36-1.36h20.27a1.35,1.35,0,0,1,1.35,1.36v13.55A6,6,0,0,1,514.66,147.5Zm-14.31-18.16v12.2a3.26,3.26,0,0,0,3.26,3.25h11a3.26,3.26,0,0,0,3.26-3.25v-12.2Z"/><path class="cls-2" d="M509.13,138.42a1.35,1.35,0,0,1-.9-.34L498.09,129a1.36,1.36,0,0,1,.91-2.37h20.27a1.36,1.36,0,0,1,.9,2.37L510,138.08A1.36,1.36,0,0,1,509.13,138.42Zm-6.59-9.08,6.59,5.91,6.6-5.91Z"/><rect class="cls-2" x="421.27" y="100.02" width="33.08" height="4.74"/><rect class="cls-2" x="489.48" y="100.02" width="33.08" height="4.74"/><g class="cls-3"><path class="cls-4" d="M481.37,119.13v-2.39l-5.64-5.65v72.26h5.64V125.06l5.69,5.69a1.62,1.62,0,0,0,2.76-1.14v-2Z"/></g><g class="cls-3"><rect class="cls-4" x="451.26" y="118.35" width="25.56" height="3.71" rx="1.42" transform="translate(50.92 363.34) rotate(-45)"/></g><g class="cls-3"><rect class="cls-4" x="489.48" y="102.39" width="34.81" height="5.88"/></g><g class="cls-3"><rect class="cls-4" x="419.54" y="102.39" width="34.81" height="5.88"/></g><path class="cls-4" d="M495.5,128H499a0,0,0,0,1,0,0v7.57a0,0,0,0,1,0,0h-3.5a.58.58,0,0,1-.58-.58v-6.41A.58.58,0,0,1,495.5,128Z"/><path class="cls-1" d="M495.8,130.54v-.83H497v.23h-1v.6Z"/><path class="cls-1" d="M496.39,131.68c-.38,0-.61-.21-.61-.52s.23-.52.61-.52.61.21.61.52S496.77,131.68,496.39,131.68Zm0-.24c.24,0,.37-.12.37-.28s-.13-.28-.37-.28-.38.12-.38.28S496.15,131.44,496.39,131.44Z"/><path class="cls-1" d="M497,132.82l-1.18-.42v-.23l1.18-.42V132l-.68.22-.2,0,.2.06.68.21Z"/><path class="cls-1" d="M495.8,133.88V133H497v.82h-.23v-.58h-.21v.34h-.23v-.34H496v.6Z"/><path class="cls-2" d="M211.94,170.53H109a1.76,1.76,0,0,0-1.76,1.76V186.8a4.28,4.28,0,0,0,4.28,4.28H211.94a1.76,1.76,0,0,0,1.76-1.76v-17A1.76,1.76,0,0,0,211.94,170.53Zm-1.77,17H111.55a.76.76,0,0,1-.75-.75V174.06h2v6.75a1.77,1.77,0,0,0,3.53,0v-6.75h4.83v6.75a1.77,1.77,0,0,0,3.53,0v-6.75h4.83v6.75a1.77,1.77,0,0,0,3.53,0v-6.75h4.83v6.75a1.76,1.76,0,0,0,3.52,0v-6.75h4.83v6.75a1.77,1.77,0,0,0,3.53,0v-6.75h4.83v6.75a1.77,1.77,0,0,0,3.53,0v-6.75h4.83v6.75a1.77,1.77,0,0,0,3.53,0v-6.75h4.83v6.75a1.77,1.77,0,0,0,3.53,0v-6.75h4.83v6.75a1.76,1.76,0,0,0,3.52,0v-6.75H188v6.75a1.77,1.77,0,0,0,3.53,0v-6.75h4.83v6.75a1.77,1.77,0,0,0,3.53,0v-6.75h4.83v6.75a1.77,1.77,0,0,0,3.53,0v-6.75h1.95Z"/><g class="cls-3"><rect class="cls-2" x="109.06" y="180.81" width="5.73" height="8.35"/></g><g class="cls-3"><rect class="cls-2" x="120.4" y="171.95" width="4.26" height="16.48"/></g><g class="cls-3"><rect class="cls-2" x="165.6" y="128.79" width="4.26" height="90.59" transform="translate(341.81 6.35) rotate(90)"/></g><rect class="cls-1" x="109.06" y="167.95" width="11.46" height="20.87"/><g class="cls-3"><rect class="cls-2" x="109.06" y="122.46" width="5.73" height="57.73"/></g><path class="cls-2" d="M122.41,121.58a.49.49,0,0,0,0-.12,1.66,1.66,0,0,0-.11-.38h0l-5.8-13.31a1.83,1.83,0,0,0-1-1,1.78,1.78,0,0,0-2.21,1l-5.81,13.36h0a1.66,1.66,0,0,0-.11.38.49.49,0,0,0,0,.12,1.37,1.37,0,0,0,0,.19v65a4.29,4.29,0,0,0,4.3,4.29h6.57a4.29,4.29,0,0,0,4.29-4.29v-65A1.37,1.37,0,0,0,122.41,121.58Zm-10.47,2h0a1.15,1.15,0,0,1,1.15,1.14v53.41a1.15,1.15,0,0,1-1.15,1.15h0a1.14,1.14,0,0,1-1.14-1.15V124.68A1.14,1.14,0,0,1,111.94,123.54Zm1.54-7.56a3.38,3.38,0,0,0,2.74,0l1.76,4h-6.25Zm4.28,7.56h0a1.15,1.15,0,0,1,1.15,1.14v53.41a1.15,1.15,0,0,1-1.15,1.15h0a1.14,1.14,0,0,1-1.14-1.15V124.68A1.14,1.14,0,0,1,117.76,123.54Zm1.15,63.25a.77.77,0,0,1-.77.76h-6.57a.76.76,0,0,1-.77-.76v-4h8.11Z"/><path class="cls-2" d="M182.84,173.72h-62A1.77,1.77,0,0,1,119,172V99.86a9.46,9.46,0,0,1,9.45-9.45h54.37a1.76,1.76,0,0,1,1.76,1.77V172A1.76,1.76,0,0,1,182.84,173.72Zm-60.29-3.53h58.52V93.94h-52.6a5.93,5.93,0,0,0-5.92,5.92Z"/><path class="cls-2" d="M134.33,113.72a.31.31,0,1,0-.31.31,1.28,1.28,0,0,1,1.26,1.27,1.26,1.26,0,1,1-2.52,0h1A.31.31,0,1,0,134,115a1.26,1.26,0,1,1,1.26-1.26Z"/><path class="cls-2" d="M140,112.47l-1.87,1.87,2.22,2.22h-1.52l-1.46-1.45-.25.26v1.19H136v-4.09h1.08v1.38l1.37-1.38Z"/><path class="cls-2" d="M140.72,112.47h2.54v.89H141.8V114h1.3v.91h-1.3v.75h1.46v.88h-2.54Z"/><path class="cls-2" d="M144,112.46h3.22v1.07h-1.09v3H145v-3H144Z"/><path class="cls-2" d="M150.33,113.82a1,1,0,0,0-.69-.27,1,1,0,1,0,0,1.92,1,1,0,0,0,.69-.27l.76.75a2,2,0,1,1-1.45-3.48,2,2,0,0,1,1.44.59Z"/><path class="cls-2" d="M153,112.47v1.45h1.29v-1.45h1.08v4.09h-1.08V115H153v1.56h-1.08v-4.09Z"/><path class="cls-2" d="M156.18,116.56v-4.09H158a1.23,1.23,0,0,1,1.21,1.21,1.19,1.19,0,0,1-.26.74,1.2,1.2,0,0,1-.74,2.14Zm1.6-2.49a.36.36,0,0,0,.35-.36.35.35,0,0,0-.35-.35h-.52v.71Zm.2,1.6a.35.35,0,0,0,.35-.35A.35.35,0,0,0,158,115h-.72v.7Z"/><path class="cls-2" d="M162,112.47a2,2,0,1,1-2,2A2.05,2.05,0,0,1,162,112.47Zm0,1.07a1,1,0,0,0,0,1.95,1,1,0,1,0,0-1.95Z"/><path class="cls-2" d="M166.67,112.47a2,2,0,1,1-2,2A2.05,2.05,0,0,1,166.67,112.47Zm0,1.07a1,1,0,0,0,0,1.95,1,1,0,1,0,0-1.95Z"/><path class="cls-2" d="M173.42,112.47l-1.86,1.87,2.21,2.22h-1.52l-1.45-1.45-.26.26v1.19h-1.07v-4.09h1.07v1.38l1.38-1.38Z"/><g class="cls-3"><path class="cls-2" d="M128.16,92.18h0a0,0,0,0,1,0,0V172a0,0,0,0,1,0,0h-7.38a0,0,0,0,1,0,0V99.55A7.38,7.38,0,0,1,128.16,92.18Z"/></g><path class="cls-2" d="M190.75,129h-7.91a1.77,1.77,0,0,1-1.77-1.77v-22a1.77,1.77,0,0,1,1.77-1.77h7.91a1.77,1.77,0,0,1,1.77,1.77v22A1.77,1.77,0,0,1,190.75,129Zm-6.15-3.53H189v-18.5H184.6Z"/><path class="cls-2" d="M189.94,173.72h-6.29a1.77,1.77,0,0,1-1.77-1.77V127.19a1.76,1.76,0,0,1,1.77-1.76h6.29a1.76,1.76,0,0,1,1.77,1.76V172A1.77,1.77,0,0,1,189.94,173.72Zm-4.53-3.53h2.77V129h-2.77Z"/><g class="cls-3"><polygon class="cls-2" points="189.94 127.19 186.79 127.19 183.65 127.19 183.65 130.54 183.65 172.44 186.79 172.44 186.79 130.54 189.94 130.54 189.94 127.19"/></g><g class="cls-3"><rect class="cls-2" x="183.65" y="105.17" width="3.15" height="22.02"/></g><path class="cls-2" d="M195.12,125.4a1.51,1.51,0,0,1-1.51-1.51V108.37h-2.86a1.52,1.52,0,0,1,0-3h4.37a1.52,1.52,0,0,1,1.51,1.52v17A1.52,1.52,0,0,1,195.12,125.4Z"/><path class="cls-2" d="M210.17,173.72H189.94a1.76,1.76,0,0,1-1.76-1.77V143.44a4.36,4.36,0,0,1,4.36-4.36h15a4.36,4.36,0,0,1,4.36,4.36V172A1.77,1.77,0,0,1,210.17,173.72Zm-18.46-3.53h16.7V143.44a.83.83,0,0,0-.83-.83h-15a.83.83,0,0,0-.83.83Z"/><g class="cls-3"><rect class="cls-2" x="190.75" y="141.56" width="19.42" height="6.46"/></g><text class="cls-5" transform="translate(416.01 214.96)"><tspan class="cls-6">L</tspan><tspan class="cls-7" x="7.2" y="0">O</tspan><tspan x="17.53" y="0">VER OF DENIM</tspan></text><path class="cls-2" d="M312.33,189.36H269.67a6.5,6.5,0,0,1-6.49-6.49V140.21a6.5,6.5,0,0,1,6.49-6.49h42.66a6.5,6.5,0,0,1,6.49,6.49v42.66A6.5,6.5,0,0,1,312.33,189.36Zm-42.66-50.71a1.56,1.56,0,0,0-1.56,1.56v42.66a1.56,1.56,0,0,0,1.56,1.56h42.66a1.56,1.56,0,0,0,1.56-1.56V140.21a1.56,1.56,0,0,0-1.56-1.56Z"/><path class="cls-2" d="M297.56,169.85h-3.89l-1.39-3.95H285.8l-1.39,3.95h-3.79l6.78-17.7h3.44Zm-6.5-7.31-1.14-3.21c-.35-1-.7-2.1-.88-2.76-.18.66-.53,1.72-.88,2.76L287,162.54Z"/><path class="cls-2" d="M302.39,153.49a2,2,0,1,1-2-2A2,2,0,0,1,302.39,153.49Zm-.25,16.36h-3.49V156.57h3.49Z"/><path class="cls-2" d="M337.93,151c0,4.1-2.73,5.82-6.39,5.82h-3.9v6.27H324.1v-17.7h7.74C335.18,145.36,337.93,147.21,337.93,151Zm-3.64.08c0-1.54-1-2.25-2.58-2.25h-4.07v4.55h4.12C333.41,153.35,334.29,152.59,334.29,151.05Z"/><path class="cls-2" d="M348.91,159.19c0,3.06-2.43,4.15-5.41,4.15a10.42,10.42,0,0,1-5.57-1.55l1.17-2.65a9.29,9.29,0,0,0,4.6,1.21c1.36,0,1.77-.33,1.77-1s-.48-.91-2-1.34c-3.18-1-5.23-1.74-5.23-4.55s2.2-3.94,5.31-3.94a10.46,10.46,0,0,1,4.9,1.29l-1.11,2.75a8.54,8.54,0,0,0-3.87-1.06c-1.41,0-1.79.28-1.79.86s.4.78,2.75,1.54S348.91,156.54,348.91,159.19Z"/><path class="cls-2" d="M319.42,125H315.2l-1.59-2.68c-.63-1.06-1.59-2.81-1.92-3.46-.31.65-1.27,2.35-1.92,3.46l-1.6,2.68H304l5.61-9-5.36-8.65h4.22l1.35,2.28c.63,1.06,1.59,2.8,1.92,3.46.33-.66,1.26-2.35,1.92-3.46l1.34-2.28h4.22L313.78,116Z"/><path class="cls-2" d="M330.35,125h-3.49v-.83a4.1,4.1,0,0,1-2.81,1.11c-2.83,0-5.15-2.13-5.15-7.08,0-4,1.87-6.75,5.15-6.75a4.2,4.2,0,0,1,2.81,1V106.6h3.49Zm-3.49-4.12v-5a2.78,2.78,0,0,0-2.35-1.14c-1.34,0-2.07,1.17-2.07,3.39,0,2.73.9,3.87,2.27,3.87A2.44,2.44,0,0,0,326.86,120.91Z"/><g class="cls-3"><rect class="cls-4" x="291" y="130.71" width="19.01" height="5.47"/></g><path class="cls-2" d="M356.7,182.57H316.35a2.47,2.47,0,0,1-2.46-2.47V140.21a1.56,1.56,0,0,0-1.56-1.56H310a2.46,2.46,0,0,1-2.47-2.46v-2.77a6.5,6.5,0,0,1,6.49-6.49H356.7a6.5,6.5,0,0,1,6.49,6.49v42.66A6.5,6.5,0,0,1,356.7,182.57Zm-37.88-4.93H356.7a1.56,1.56,0,0,0,1.56-1.56V133.42a1.56,1.56,0,0,0-1.56-1.56H314a1.56,1.56,0,0,0-1.56,1.56v.3a6.5,6.5,0,0,1,6.34,6.49Z"/><path class="cls-2" d="M314.58,139.34a2.48,2.48,0,0,1-1.38-.42,1.52,1.52,0,0,0-.87-.27,2.47,2.47,0,0,1,0-4.93,6.5,6.5,0,0,1,3.63,1.11,2.42,2.42,0,0,1,1.08,2,2.4,2.4,0,0,1-.42,1.37A2.44,2.44,0,0,1,314.58,139.34Z"/><path class="cls-2" d="M310,138.65H291a2.46,2.46,0,0,1-2.46-2.46V95.39A6.49,6.49,0,0,1,295,88.91h42.66a6.49,6.49,0,0,1,6.49,6.48v34a2.46,2.46,0,0,1-2.46,2.46H314a1.56,1.56,0,0,0-1.56,1.56v2.77A2.46,2.46,0,0,1,310,138.65Zm-16.55-4.93h14.08v-.3a6.5,6.5,0,0,1,6.49-6.49h25.2V95.39a1.55,1.55,0,0,0-1.56-1.55H295a1.54,1.54,0,0,0-1.55,1.55Z"/><path class="cls-2" d="M316.17,141.48a2.47,2.47,0,0,1-2.35-1.73,1.42,1.42,0,0,0-.2-.41,2.53,2.53,0,0,1-.42-1.38,2.47,2.47,0,0,1,4.51-1.38,6.84,6.84,0,0,1,.82,1.7,2.64,2.64,0,0,1,.11.73,2.48,2.48,0,0,1-1.73,2.36A2.76,2.76,0,0,1,316.17,141.48Z"/><path class="cls-2" d="M315.44,140.11a2.47,2.47,0,0,1-1.91-.89,1.18,1.18,0,0,0-.33-.3,2.49,2.49,0,0,1-1.08-2,2.46,2.46,0,0,1,3.84-2,6.57,6.57,0,0,1,1.38,1.25,2.47,2.47,0,0,1-.34,3.47A2.43,2.43,0,0,1,315.44,140.11Z"/><g class="cls-3"><path class="cls-4" d="M311.19,130.58v5.95h5.24V180.1h5.47V137a6.4,6.4,0,0,0-6.4-6.4Z"/></g><g class="cls-3"><path class="cls-4" d="M363,179H315.83v5.7H264.34a4.07,4.07,0,0,0-4.08,3.43,4,4,0,0,0,3.93,4.49h53.58a4.07,4.07,0,0,0,4.08-3.36,2.58,2.58,0,0,0,0-.39,2.11,2.11,0,0,1,2.13-2H363.1A4,4,0,0,0,367,182.4,4.06,4.06,0,0,0,363,179Z"/></g><text class="cls-5" transform="translate(129.05 214.96)">ARTISTIC</text><text class="cls-5" transform="translate(241.05 214.96)">ADOBE EXPERIENCED</text></g></g></svg>