<svg xmlns="http://www.w3.org/2000/svg" viewBox="0 0 456.23 195.05"><defs><style>.cls-1{fill:#fff;}.cls-2,.cls-5{fill:#232257;}.cls-3{opacity:0.5;}.cls-4{fill:#242058;}.cls-5{font-size:13.26px;font-family:Manrope-ExtraBold, Manrope;font-weight:800;}.cls-6{letter-spacing:-0.02em;}.cls-7{letter-spacing:-0.03em;}</style></defs><title>skillsnew</title><g id="Layer_2" data-name="Layer 2"><g id="Layer_2_copy" data-name="Layer 2 copy"><rect class="cls-1" width="456.23" height="195.05"/><path class="cls-2" d="M364.65,148.9a2.4,2.4,0,0,1-1-.22,2.56,2.56,0,0,1-.66-.47l-40.9-40.9-.06-.07-7.7-7.69A31.29,31.29,0,0,1,358.56,55.3l6.09,6.08,6.08-6.08a31.32,31.32,0,0,1,44.25,0h0a31.28,31.28,0,0,1,0,44.25l-7.69,7.69-.07.07-40.9,40.9A2.36,2.36,0,0,1,364.65,148.9ZM325.49,104l39.16,39.15L403.8,104l.07-.07,7.76-7.77a26.53,26.53,0,0,0,0-37.54h0a26.57,26.57,0,0,0-37.54,0l-7.77,7.76a2.33,2.33,0,0,1-1.67.7h0a2.37,2.37,0,0,1-1.68-.7l-7.76-7.76a26.55,26.55,0,1,0-37.55,37.54l7.76,7.77A.23.23,0,0,1,325.49,104Z"/><path class="cls-2" d="M347.08,84.67a2.38,2.38,0,0,1-2.37-2.37V50.53h4.74V76.58L363,63.06l3.35,3.35L348.76,84A2.35,2.35,0,0,1,347.08,84.67Z"/><path class="cls-2" d="M382.21,84.67a2.35,2.35,0,0,1-1.67-.69L363,66.41l3.35-3.35,13.52,13.52v-26h4.74V82.3a2.38,2.38,0,0,1-1.46,2.19A2.42,2.42,0,0,1,382.21,84.67Z"/><rect class="cls-2" x="365.41" y="67.87" width="4.74" height="75.53"/><circle class="cls-2" cx="359.42" cy="84.76" r="3.12"/><path class="cls-2" d="M359.42,86.12h-5.29a1.36,1.36,0,0,1,0-2.71h5.29a1.36,1.36,0,0,1,0,2.71Z"/><circle class="cls-2" cx="359.42" cy="102.51" r="3.12"/><path class="cls-2" d="M359.42,103.87h-5.29a1.36,1.36,0,0,1,0-2.71h5.29a1.36,1.36,0,0,1,0,2.71Z"/><circle class="cls-2" cx="359.42" cy="120.26" r="3.12"/><path class="cls-2" d="M359.42,121.61h-5.29a1.36,1.36,0,0,1,0-2.71h5.29a1.36,1.36,0,0,1,0,2.71Z"/><path class="cls-2" d="M333.15,104.28H322.09a6,6,0,0,1-6-6V84.76a1.36,1.36,0,0,1,1.36-1.35h20.27a1.35,1.35,0,0,1,1.35,1.35V98.32A6,6,0,0,1,333.15,104.28ZM318.84,86.12v12.2a3.26,3.26,0,0,0,3.25,3.25h11.06a3.25,3.25,0,0,0,3.25-3.25V86.12Z"/><path class="cls-2" d="M327.62,95.2a1.36,1.36,0,0,1-.9-.35l-10.14-9.08a1.35,1.35,0,0,1,.91-2.36h20.27a1.35,1.35,0,0,1,.9,2.36l-10.13,9.08A1.37,1.37,0,0,1,327.62,95.2ZM321,86.12,327.62,92l6.6-5.91Z"/><path class="cls-2" d="M407.39,104.28H396.34a6,6,0,0,1-6-6V84.76a1.35,1.35,0,0,1,1.35-1.35H412a1.36,1.36,0,0,1,1.36,1.35V98.32A6,6,0,0,1,407.39,104.28ZM393.08,86.12v12.2a3.26,3.26,0,0,0,3.26,3.25h11.05a3.26,3.26,0,0,0,3.26-3.25V86.12Z"/><path class="cls-2" d="M401.87,95.2a1.37,1.37,0,0,1-.91-.35l-10.13-9.08a1.33,1.33,0,0,1-.36-1.49,1.35,1.35,0,0,1,1.26-.87H412a1.37,1.37,0,0,1,1.27.87,1.35,1.35,0,0,1-.37,1.49l-10.13,9.08A1.36,1.36,0,0,1,401.87,95.2Zm-6.6-9.08,6.6,5.91,6.59-5.91Z"/><rect class="cls-2" x="314" y="56.8" width="33.08" height="4.74"/><rect class="cls-2" x="382.21" y="56.8" width="33.08" height="4.74"/><g class="cls-3"><path class="cls-4" d="M374.11,75.91V73.52l-5.65-5.65v72.26h5.65V81.84l5.68,5.68a1.62,1.62,0,0,0,2.76-1.14v-2Z"/></g><g class="cls-3"><rect class="cls-4" x="343.99" y="75.13" width="25.56" height="3.71" rx="1.42" transform="translate(50.06 274.83) rotate(-45)"/></g><g class="cls-3"><rect class="cls-4" x="382.21" y="59.17" width="34.81" height="5.88"/></g><g class="cls-3"><rect class="cls-4" x="312.27" y="59.17" width="34.81" height="5.88"/></g><path class="cls-4" d="M388.23,84.76h3.5a0,0,0,0,1,0,0v7.57a0,0,0,0,1,0,0h-3.5a.58.58,0,0,1-.58-.58V85.34A.58.58,0,0,1,388.23,84.76Z"/><path class="cls-1" d="M388.53,87.31v-.82h1.18v.23h-.95v.59Z"/><path class="cls-1" d="M389.12,88.46a.54.54,0,0,1-.61-.52c0-.31.23-.52.61-.52s.61.21.61.52S389.5,88.46,389.12,88.46Zm0-.24c.24,0,.37-.12.37-.28s-.13-.28-.37-.28-.37.12-.37.28S388.88,88.22,389.12,88.22Z"/><path class="cls-1" d="M389.71,89.6l-1.18-.42V89l1.18-.42v.26L389,89l-.2.06.2.05.68.22Z"/><path class="cls-1" d="M388.53,90.66v-.84h1.18v.82h-.23v-.59h-.2v.34h-.23v-.34h-.29v.61Z"/><path class="cls-2" d="M104.67,127.3H1.76A1.76,1.76,0,0,0,0,129.07v14.5a4.29,4.29,0,0,0,4.29,4.29H104.67a1.76,1.76,0,0,0,1.76-1.76v-17A1.76,1.76,0,0,0,104.67,127.3Zm-1.77,17H4.29a.76.76,0,0,1-.76-.76V130.83h2v6.75a1.77,1.77,0,1,0,3.53,0v-6.75h4.83v6.75a1.77,1.77,0,1,0,3.53,0v-6.75H22.2v6.75a1.77,1.77,0,1,0,3.53,0v-6.75h4.83v6.75a1.77,1.77,0,1,0,3.53,0v-6.75h4.83v6.75a1.76,1.76,0,1,0,3.52,0v-6.75h4.83v6.75a1.77,1.77,0,1,0,3.53,0v-6.75h4.83v6.75a1.77,1.77,0,1,0,3.53,0v-6.75H64v6.75a1.77,1.77,0,1,0,3.53,0v-6.75h4.83v6.75a1.77,1.77,0,1,0,3.53,0v-6.75H80.7v6.75a1.77,1.77,0,1,0,3.53,0v-6.75h4.83v6.75a1.77,1.77,0,1,0,3.53,0v-6.75h4.83v6.75a1.77,1.77,0,1,0,3.53,0v-6.75h2Z"/><g class="cls-3"><rect class="cls-2" x="1.79" y="137.58" width="5.73" height="8.35"/></g><g class="cls-3"><rect class="cls-2" x="13.13" y="128.73" width="4.26" height="16.48"/></g><g class="cls-3"><rect class="cls-2" x="58.33" y="85.56" width="4.26" height="90.59" transform="translate(191.32 70.4) rotate(90)"/></g><rect class="cls-1" x="1.79" y="124.73" width="11.46" height="20.87"/><g class="cls-3"><rect class="cls-2" x="1.79" y="79.24" width="5.73" height="57.73"/></g><path class="cls-2" d="M15.15,78.36s0-.08,0-.12a1.6,1.6,0,0,0-.11-.39h0L9.22,64.54a1.81,1.81,0,0,0-1-1,1.77,1.77,0,0,0-2.21,1L.15,77.85h0a2.5,2.5,0,0,0-.11.39.49.49,0,0,0,0,.12,1.11,1.11,0,0,0,0,.19v65a4.29,4.29,0,0,0,4.3,4.3h6.57a4.3,4.3,0,0,0,4.3-4.3v-65C15.17,78.48,15.15,78.42,15.15,78.36Zm-10.48,2h0a1.14,1.14,0,0,1,1.15,1.14v53.41A1.14,1.14,0,0,1,4.67,136h0a1.14,1.14,0,0,1-1.14-1.14V81.46A1.14,1.14,0,0,1,4.67,80.32Zm1.54-7.56a3.38,3.38,0,0,0,2.74,0l1.76,4H4.46Zm4.28,7.56h0a1.15,1.15,0,0,1,1.15,1.14v53.41A1.15,1.15,0,0,1,10.49,136h0a1.14,1.14,0,0,1-1.14-1.14V81.46A1.14,1.14,0,0,1,10.49,80.32Zm1.15,63.24a.77.77,0,0,1-.77.77H4.3a.76.76,0,0,1-.77-.77v-4h8.11Z"/><path class="cls-2" d="M75.57,130.49h-62a1.76,1.76,0,0,1-1.76-1.76V56.64a9.45,9.45,0,0,1,9.44-9.45H75.57A1.76,1.76,0,0,1,77.33,49v79.78A1.76,1.76,0,0,1,75.57,130.49ZM15.28,127H73.8V50.72H21.2a5.93,5.93,0,0,0-5.92,5.92Z"/><path class="cls-2" d="M27.06,70.5a.31.31,0,1,0-.62,0,.3.3,0,0,0,.31.3A1.27,1.27,0,0,1,28,72.08a1.26,1.26,0,1,1-2.52,0h1a.31.31,0,1,0,.31-.3A1.26,1.26,0,1,1,28,70.5Z"/><path class="cls-2" d="M32.73,69.24l-1.87,1.88,2.22,2.22H31.56L30.1,71.88l-.25.27v1.19H28.77v-4.1h1.08v1.38l1.37-1.38Z"/><path class="cls-2" d="M33.45,69.24H36v.89H34.53v.67h1.3v.9h-1.3v.76H36v.88H33.45Z"/><path class="cls-2" d="M36.68,69.24H39.9v1.07H38.82v3H37.74v-3H36.68Z"/><path class="cls-2" d="M43.06,70.6a1,1,0,0,0-.69-.27,1,1,0,1,0,0,1.92,1,1,0,0,0,.69-.27l.76.75a2,2,0,1,1-1.45-3.49,2,2,0,0,1,1.44.6Z"/><path class="cls-2" d="M45.72,69.24V70.7H47V69.24h1.07v4.1H47V71.78h-1.3v1.56H44.64v-4.1Z"/><path class="cls-2" d="M48.92,73.34v-4.1h1.8a1.24,1.24,0,0,1,1.21,1.22,1.19,1.19,0,0,1-.26.74,1.19,1.19,0,0,1,.46.94,1.22,1.22,0,0,1-1.2,1.2Zm1.59-2.5a.36.36,0,0,0,0-.71H50v.71Zm.2,1.61a.35.35,0,0,0,.35-.35.36.36,0,0,0-.35-.36H50v.71Z"/><path class="cls-2" d="M54.74,69.24a2.05,2.05,0,1,1-2,2.06A2.06,2.06,0,0,1,54.74,69.24Zm0,1.07a1,1,0,1,0,1,1A1,1,0,0,0,54.74,70.31Z"/><path class="cls-2" d="M59.41,69.24a2.05,2.05,0,1,1-2,2.06A2.06,2.06,0,0,1,59.41,69.24Zm0,1.07a1,1,0,1,0,1,1A1,1,0,0,0,59.41,70.31Z"/><path class="cls-2" d="M66.15,69.24l-1.86,1.88,2.21,2.22H65l-1.46-1.46-.26.27v1.19H62.2v-4.1h1.07v1.38l1.38-1.38Z"/><g class="cls-3"><path class="cls-2" d="M20.9,49h0a0,0,0,0,1,0,0v79.77a0,0,0,0,1,0,0H13.52a0,0,0,0,1,0,0V56.33A7.38,7.38,0,0,1,20.9,49Z"/></g><path class="cls-2" d="M83.48,85.73H75.57A1.76,1.76,0,0,1,73.8,84V62a1.77,1.77,0,0,1,1.77-1.77h7.91A1.77,1.77,0,0,1,85.25,62V84A1.76,1.76,0,0,1,83.48,85.73Zm-6.15-3.52h4.39V63.71H77.33Z"/><path class="cls-2" d="M82.67,130.49H76.38a1.76,1.76,0,0,1-1.77-1.76V84a1.76,1.76,0,0,1,1.77-1.76h6.29A1.76,1.76,0,0,1,84.44,84v44.76A1.76,1.76,0,0,1,82.67,130.49ZM78.14,127h2.77V85.73H78.14Z"/><g class="cls-3"><polygon class="cls-2" points="82.67 83.97 79.53 83.97 76.38 83.97 76.38 87.31 76.38 129.22 79.53 129.22 79.53 87.31 82.67 87.31 82.67 83.97"/></g><g class="cls-3"><rect class="cls-2" x="76.38" y="61.95" width="3.15" height="22.02"/></g><path class="cls-2" d="M87.85,82.18a1.52,1.52,0,0,1-1.51-1.52V65.15H83.48a1.52,1.52,0,0,1,0-3h4.37a1.51,1.51,0,0,1,1.51,1.51v17A1.51,1.51,0,0,1,87.85,82.18Z"/><path class="cls-2" d="M102.9,130.49H82.67a1.76,1.76,0,0,1-1.76-1.76V100.21a4.36,4.36,0,0,1,4.36-4.36h15a4.37,4.37,0,0,1,4.36,4.36v28.52A1.76,1.76,0,0,1,102.9,130.49ZM84.44,127h16.7V100.21a.83.83,0,0,0-.83-.83h-15a.83.83,0,0,0-.83.83Z"/><g class="cls-3"><rect class="cls-2" x="83.48" y="98.33" width="19.42" height="6.46"/></g><text class="cls-5" transform="translate(308.74 171.74)"><tspan class="cls-6">L</tspan><tspan class="cls-7" x="7.2" y="0">O</tspan><tspan x="17.53" y="0">VER OF DENIM</tspan></text><path class="cls-2" d="M205.06,146.13H162.4a6.49,6.49,0,0,1-6.48-6.48V97a6.49,6.49,0,0,1,6.48-6.48h42.66A6.49,6.49,0,0,1,211.55,97v42.67A6.49,6.49,0,0,1,205.06,146.13ZM162.4,95.43A1.55,1.55,0,0,0,160.85,97v42.67a1.54,1.54,0,0,0,1.55,1.55h42.66a1.55,1.55,0,0,0,1.56-1.55V97a1.56,1.56,0,0,0-1.56-1.55Z"/><path class="cls-2" d="M190.29,126.62H186.4L185,122.68h-6.47l-1.4,3.94h-3.79l6.78-17.7h3.44Zm-6.5-7.3-1.13-3.22c-.36-1-.71-2.09-.89-2.75-.18.66-.53,1.72-.88,2.75l-1.14,3.22Z"/><path class="cls-2" d="M195.12,110.26a2,2,0,1,1-2-2A2,2,0,0,1,195.12,110.26Zm-.25,16.36h-3.49V113.35h3.49Z"/><path class="cls-2" d="M230.66,107.75c0,4.1-2.73,5.81-6.39,5.81h-3.9v6.28h-3.54v-17.7h7.74C227.91,102.14,230.66,104,230.66,107.75Zm-3.64.08c0-1.55-1-2.26-2.58-2.26h-4.07v4.56h4.12C226.14,110.13,227,109.37,227,107.83Z"/><path class="cls-2" d="M241.64,116c0,3.06-2.43,4.14-5.41,4.14a10.35,10.35,0,0,1-5.56-1.54l1.16-2.65a9.32,9.32,0,0,0,4.6,1.21c1.37,0,1.77-.33,1.77-1s-.48-.91-1.95-1.34c-3.18-1-5.23-1.75-5.23-4.55s2.2-4,5.31-4a10.66,10.66,0,0,1,4.91,1.29l-1.12,2.76a8.54,8.54,0,0,0-3.87-1.06c-1.41,0-1.79.27-1.79.86s.4.78,2.75,1.54S241.64,113.31,241.64,116Z"/><path class="cls-2" d="M212.16,81.81h-4.23l-1.59-2.68c-.63-1.07-1.59-2.81-1.92-3.47-.31.66-1.27,2.35-1.92,3.47l-1.6,2.68h-4.22l5.61-9-5.36-8.65h4.23l1.34,2.27c.63,1.07,1.59,2.81,1.92,3.47.33-.66,1.26-2.35,1.92-3.47l1.34-2.27h4.22l-5.38,8.65Z"/><path class="cls-2" d="M223.08,81.81h-3.49V81a4.1,4.1,0,0,1-2.81,1.11c-2.83,0-5.15-2.12-5.15-7.07,0-4,1.87-6.76,5.15-6.76a4.21,4.21,0,0,1,2.81,1V63.37h3.49Zm-3.49-4.12v-5a2.78,2.78,0,0,0-2.35-1.14c-1.34,0-2.07,1.16-2.07,3.39,0,2.73.91,3.87,2.27,3.87A2.45,2.45,0,0,0,219.59,77.69Z"/><g class="cls-3"><rect class="cls-4" x="183.73" y="87.49" width="19.01" height="5.47"/></g><path class="cls-2" d="M249.43,139.35H209.09a2.47,2.47,0,0,1-2.47-2.47V97a1.56,1.56,0,0,0-1.56-1.55h-2.31A2.48,2.48,0,0,1,200.28,93V90.2a6.5,6.5,0,0,1,6.49-6.49h42.66a6.5,6.5,0,0,1,6.49,6.49v42.66A6.5,6.5,0,0,1,249.43,139.35Zm-37.88-4.93h37.88a1.56,1.56,0,0,0,1.56-1.56V90.2a1.56,1.56,0,0,0-1.56-1.56H206.77a1.56,1.56,0,0,0-1.56,1.56v.3A6.5,6.5,0,0,1,211.55,97Z"/><path class="cls-2" d="M207.31,96.12a2.42,2.42,0,0,1-1.38-.43,1.54,1.54,0,0,0-.87-.26,2.47,2.47,0,0,1,0-4.93,6.42,6.42,0,0,1,3.63,1.11,2.47,2.47,0,0,1-1.38,4.51Z"/><path class="cls-2" d="M202.75,95.43h-19A2.47,2.47,0,0,1,181.27,93V52.17a6.49,6.49,0,0,1,6.48-6.49h42.67a6.49,6.49,0,0,1,6.48,6.49v34a2.46,2.46,0,0,1-2.46,2.46H206.77a1.56,1.56,0,0,0-1.56,1.56V93A2.47,2.47,0,0,1,202.75,95.43ZM186.2,90.5h14.08v-.3a6.5,6.5,0,0,1,6.49-6.49H232V52.17a1.56,1.56,0,0,0-1.55-1.56H187.75a1.56,1.56,0,0,0-1.55,1.56Z"/><path class="cls-2" d="M208.9,98.25a2.46,2.46,0,0,1-2.35-1.73,1.42,1.42,0,0,0-.2-.41,2.46,2.46,0,0,1,4.09-2.75,6.21,6.21,0,0,1,.82,1.7,2.64,2.64,0,0,1,.11.73,2.47,2.47,0,0,1-1.73,2.35A2.37,2.37,0,0,1,208.9,98.25Z"/><path class="cls-2" d="M208.17,96.89a2.47,2.47,0,0,1-1.91-.89,1.4,1.4,0,0,0-.33-.31,2.46,2.46,0,0,1-1.08-2,2.41,2.41,0,0,1,.42-1.38,2.46,2.46,0,0,1,3.42-.66,6.57,6.57,0,0,1,1.38,1.25,2.47,2.47,0,0,1-.34,3.47A2.41,2.41,0,0,1,208.17,96.89Z"/><g class="cls-3"><path class="cls-4" d="M203.92,87.35v6h5.24v43.57h5.47V93.75a6.4,6.4,0,0,0-6.4-6.4Z"/></g><g class="cls-3"><path class="cls-4" d="M255.68,135.75H208.57v5.7h-51.5a4.07,4.07,0,0,0-4.08,3.42,4,4,0,0,0,3.93,4.5H210.5a4.1,4.1,0,0,0,4.09-3.36c0-.13,0-.26,0-.39a2.11,2.11,0,0,1,2.13-2h39.07a4,4,0,0,0,3.92-4.49A4.05,4.05,0,0,0,255.68,135.75Z"/></g><text class="cls-5" transform="translate(21.78 171.74)">ARTISTIC</text><text class="cls-5" transform="translate(133.79 171.74)">ADOBE EXPERIENCED</text></g></g></svg>