<svg xmlns="http://www.w3.org/2000/svg" viewBox="0 0 488.31 195.05"><defs><style>.cls-1{fill:#fff;}.cls-2,.cls-5{fill:#232257;}.cls-3{opacity:0.5;}.cls-4{fill:#242058;}.cls-5{font-size:13.26px;font-family:Manrope-ExtraBold, Manrope;font-weight:800;}.cls-6{letter-spacing:-0.02em;}.cls-7{letter-spacing:-0.03em;}</style></defs><title>skills_1</title><g id="Layer_2" data-name="Layer 2"><g id="Layer_2_copy" data-name="Layer 2 copy"><rect class="cls-1" width="488.31" height="195.05"/><path class="cls-2" d="M396.73,148.9a2.4,2.4,0,0,1-1-.22,2.56,2.56,0,0,1-.66-.47l-40.9-40.9-.06-.07-7.7-7.69A31.29,31.29,0,0,1,390.64,55.3l6.09,6.08,6.08-6.08a31.32,31.32,0,0,1,44.25,0h0a31.28,31.28,0,0,1,0,44.25l-7.69,7.69a.23.23,0,0,1-.07.07l-40.9,40.9A2.36,2.36,0,0,1,396.73,148.9ZM357.57,104l39.16,39.15L435.88,104,436,104l7.76-7.77a26.53,26.53,0,0,0,0-37.54h0a26.57,26.57,0,0,0-37.54,0l-7.77,7.76a2.33,2.33,0,0,1-1.67.7h0a2.37,2.37,0,0,1-1.68-.7l-7.76-7.76a26.55,26.55,0,1,0-37.55,37.54L357.5,104A.23.23,0,0,1,357.57,104Z"/><path class="cls-2" d="M379.16,84.67a2.38,2.38,0,0,1-2.37-2.37V50.53h4.74V76.58l13.52-13.52,3.35,3.35L380.84,84A2.35,2.35,0,0,1,379.16,84.67Z"/><path class="cls-2" d="M414.29,84.67a2.35,2.35,0,0,1-1.67-.69L395.05,66.41l3.35-3.35,13.52,13.52v-26h4.74V82.3a2.38,2.38,0,0,1-1.46,2.19A2.42,2.42,0,0,1,414.29,84.67Z"/><rect class="cls-2" x="397.49" y="67.87" width="4.74" height="75.53"/><circle class="cls-2" cx="391.5" cy="84.76" r="3.12"/><path class="cls-2" d="M391.5,86.12h-5.29a1.36,1.36,0,0,1,0-2.71h5.29a1.36,1.36,0,0,1,0,2.71Z"/><circle class="cls-2" cx="391.5" cy="102.51" r="3.12"/><path class="cls-2" d="M391.5,103.87h-5.29a1.36,1.36,0,0,1,0-2.71h5.29a1.36,1.36,0,0,1,0,2.71Z"/><circle class="cls-2" cx="391.5" cy="120.26" r="3.12"/><path class="cls-2" d="M391.5,121.61h-5.29a1.36,1.36,0,0,1,0-2.71h5.29a1.36,1.36,0,0,1,0,2.71Z"/><path class="cls-2" d="M365.23,104.28H354.17a6,6,0,0,1-6-6V84.76a1.36,1.36,0,0,1,1.36-1.35h20.27a1.35,1.35,0,0,1,1.35,1.35V98.32A6,6,0,0,1,365.23,104.28ZM350.92,86.12v12.2a3.26,3.26,0,0,0,3.25,3.25h11.06a3.25,3.25,0,0,0,3.25-3.25V86.12Z"/><path class="cls-2" d="M359.7,95.2a1.36,1.36,0,0,1-.9-.35l-10.14-9.08a1.35,1.35,0,0,1,.91-2.36h20.27a1.35,1.35,0,0,1,.9,2.36l-10.13,9.08A1.37,1.37,0,0,1,359.7,95.2Zm-6.59-9.08L359.7,92l6.6-5.91Z"/><path class="cls-2" d="M439.47,104.28H428.42a6,6,0,0,1-6-6V84.76a1.35,1.35,0,0,1,1.35-1.35h20.27a1.36,1.36,0,0,1,1.36,1.35V98.32A6,6,0,0,1,439.47,104.28ZM425.16,86.12v12.2a3.26,3.26,0,0,0,3.26,3.25h11.05a3.26,3.26,0,0,0,3.26-3.25V86.12Z"/><path class="cls-2" d="M434,95.2a1.37,1.37,0,0,1-.91-.35l-10.13-9.08a1.33,1.33,0,0,1-.36-1.49,1.35,1.35,0,0,1,1.26-.87h20.27a1.35,1.35,0,0,1,.91,2.36l-10.14,9.08A1.36,1.36,0,0,1,434,95.2Zm-6.6-9.08L434,92l6.59-5.91Z"/><rect class="cls-2" x="346.08" y="56.8" width="33.08" height="4.74"/><rect class="cls-2" x="414.29" y="56.8" width="33.08" height="4.74"/><g class="cls-3"><path class="cls-4" d="M406.19,75.91V73.52l-5.65-5.65v72.26h5.65V81.84l5.68,5.68a1.62,1.62,0,0,0,2.76-1.14v-2Z"/></g><g class="cls-3"><rect class="cls-4" x="376.07" y="75.13" width="25.56" height="3.71" rx="1.42" transform="translate(59.46 297.51) rotate(-45)"/></g><g class="cls-3"><rect class="cls-4" x="414.29" y="59.17" width="34.81" height="5.88"/></g><g class="cls-3"><rect class="cls-4" x="344.35" y="59.17" width="34.81" height="5.88"/></g><path class="cls-4" d="M420.31,84.76h3.5a0,0,0,0,1,0,0v7.57a0,0,0,0,1,0,0h-3.5a.58.58,0,0,1-.58-.58V85.34A.58.58,0,0,1,420.31,84.76Z"/><path class="cls-1" d="M420.61,87.31v-.82h1.18v.23h-1v.59Z"/><path class="cls-1" d="M421.2,88.46a.54.54,0,0,1-.61-.52c0-.31.23-.52.61-.52s.61.21.61.52S421.58,88.46,421.2,88.46Zm0-.24c.24,0,.37-.12.37-.28s-.13-.28-.37-.28-.37.12-.37.28S421,88.22,421.2,88.22Z"/><path class="cls-1" d="M421.79,89.6l-1.18-.42V89l1.18-.42v.26l-.68.22-.2.06.2.05.68.22Z"/><path class="cls-1" d="M420.61,90.66v-.84h1.18v.82h-.23v-.59h-.2v.34h-.23v-.34h-.29v.61Z"/><path class="cls-2" d="M136.75,127.3H33.84a1.76,1.76,0,0,0-1.76,1.77v14.5a4.29,4.29,0,0,0,4.29,4.29H136.75a1.76,1.76,0,0,0,1.76-1.76v-17A1.76,1.76,0,0,0,136.75,127.3Zm-1.77,17H36.37a.76.76,0,0,1-.76-.76V130.83h2v6.75a1.77,1.77,0,1,0,3.53,0v-6.75h4.83v6.75a1.77,1.77,0,1,0,3.53,0v-6.75h4.83v6.75a1.77,1.77,0,1,0,3.53,0v-6.75h4.83v6.75a1.77,1.77,0,1,0,3.53,0v-6.75H71v6.75a1.76,1.76,0,1,0,3.52,0v-6.75h4.83v6.75a1.77,1.77,0,1,0,3.53,0v-6.75h4.83v6.75a1.77,1.77,0,1,0,3.53,0v-6.75h4.83v6.75a1.77,1.77,0,1,0,3.53,0v-6.75h4.83v6.75a1.77,1.77,0,1,0,3.53,0v-6.75h4.82v6.75a1.77,1.77,0,1,0,3.53,0v-6.75h4.83v6.75a1.77,1.77,0,1,0,3.53,0v-6.75h4.83v6.75a1.77,1.77,0,1,0,3.53,0v-6.75H135Z"/><g class="cls-3"><rect class="cls-2" x="33.87" y="137.58" width="5.73" height="8.35"/></g><g class="cls-3"><rect class="cls-2" x="45.21" y="128.73" width="4.26" height="16.48"/></g><g class="cls-3"><rect class="cls-2" x="90.41" y="85.56" width="4.26" height="90.59" transform="translate(223.4 38.32) rotate(90)"/></g><rect class="cls-1" x="33.87" y="124.73" width="11.46" height="20.87"/><g class="cls-3"><rect class="cls-2" x="33.87" y="79.24" width="5.73" height="57.73"/></g><path class="cls-2" d="M47.23,78.36s0-.08,0-.12a1.6,1.6,0,0,0-.11-.39h0L41.3,64.54a1.81,1.81,0,0,0-1-1,1.77,1.77,0,0,0-2.21,1L32.23,77.85h0a2.5,2.5,0,0,0-.11.39.49.49,0,0,0,0,.12,1.11,1.11,0,0,0,0,.19v65a4.29,4.29,0,0,0,4.3,4.3H43a4.3,4.3,0,0,0,4.3-4.3v-65C47.25,78.48,47.23,78.42,47.23,78.36Zm-10.48,2h0a1.14,1.14,0,0,1,1.15,1.14v53.41A1.14,1.14,0,0,1,36.75,136h0a1.14,1.14,0,0,1-1.14-1.14V81.46A1.14,1.14,0,0,1,36.75,80.32Zm1.54-7.56a3.38,3.38,0,0,0,2.74,0l1.76,4H36.54Zm4.28,7.56h0a1.15,1.15,0,0,1,1.15,1.14v53.41A1.15,1.15,0,0,1,42.57,136h0a1.14,1.14,0,0,1-1.14-1.14V81.46A1.14,1.14,0,0,1,42.57,80.32Zm1.15,63.24a.77.77,0,0,1-.77.77H36.38a.76.76,0,0,1-.77-.77v-4h8.11Z"/><path class="cls-2" d="M107.65,130.49h-62a1.76,1.76,0,0,1-1.76-1.76V56.64a9.45,9.45,0,0,1,9.44-9.45h54.37A1.76,1.76,0,0,1,109.41,49v79.78A1.76,1.76,0,0,1,107.65,130.49ZM47.36,127h58.52V50.72H53.28a5.93,5.93,0,0,0-5.92,5.92Z"/><path class="cls-2" d="M59.14,70.5a.31.31,0,1,0-.62,0,.3.3,0,0,0,.31.3,1.27,1.27,0,0,1,1.26,1.28,1.26,1.26,0,1,1-2.52,0h1a.31.31,0,1,0,.31-.3,1.26,1.26,0,1,1,1.26-1.26Z"/><path class="cls-2" d="M64.81,69.24l-1.87,1.88,2.22,2.22H63.64l-1.46-1.46-.25.27v1.19H60.85v-4.1h1.08v1.38l1.37-1.38Z"/><path class="cls-2" d="M65.53,69.24h2.55v.89H66.61v.67h1.3v.9h-1.3v.76h1.47v.88H65.53Z"/><path class="cls-2" d="M68.76,69.24H72v1.07H70.9v3H69.82v-3H68.76Z"/><path class="cls-2" d="M75.14,70.6a1,1,0,0,0-.69-.27,1,1,0,1,0,0,1.92,1,1,0,0,0,.69-.27l.76.75a2,2,0,1,1-1.45-3.49,2,2,0,0,1,1.44.6Z"/><path class="cls-2" d="M77.8,69.24V70.7h1.3V69.24h1.07v4.1H79.1V71.78H77.8v1.56H76.72v-4.1Z"/><path class="cls-2" d="M81,73.34v-4.1h1.8A1.24,1.24,0,0,1,84,70.46a1.19,1.19,0,0,1-.26.74,1.19,1.19,0,0,1,.46.94,1.22,1.22,0,0,1-1.2,1.2Zm1.59-2.5a.36.36,0,0,0,0-.71h-.52v.71Zm.2,1.61a.35.35,0,0,0,.35-.35.36.36,0,0,0-.35-.36h-.72v.71Z"/><path class="cls-2" d="M86.82,69.24a2.05,2.05,0,1,1-2,2.06A2.06,2.06,0,0,1,86.82,69.24Zm0,1.07a1,1,0,1,0,1,1A1,1,0,0,0,86.82,70.31Z"/><path class="cls-2" d="M91.49,69.24a2.05,2.05,0,1,1-2,2.06A2.06,2.06,0,0,1,91.49,69.24Zm0,1.07a1,1,0,1,0,1,1A1,1,0,0,0,91.49,70.31Z"/><path class="cls-2" d="M98.23,69.24l-1.86,1.88,2.21,2.22H97.07l-1.46-1.46-.26.27v1.19H94.28v-4.1h1.07v1.38l1.38-1.38Z"/><g class="cls-3"><path class="cls-2" d="M53,49h0a0,0,0,0,1,0,0v79.77a0,0,0,0,1,0,0H45.6a0,0,0,0,1,0,0V56.33A7.38,7.38,0,0,1,53,49Z"/></g><path class="cls-2" d="M115.56,85.73h-7.91A1.76,1.76,0,0,1,105.88,84V62a1.77,1.77,0,0,1,1.77-1.77h7.91A1.77,1.77,0,0,1,117.33,62V84A1.76,1.76,0,0,1,115.56,85.73Zm-6.15-3.52h4.39V63.71h-4.39Z"/><path class="cls-2" d="M114.75,130.49h-6.29a1.76,1.76,0,0,1-1.77-1.76V84a1.76,1.76,0,0,1,1.77-1.76h6.29A1.76,1.76,0,0,1,116.52,84v44.76A1.76,1.76,0,0,1,114.75,130.49ZM110.22,127H113V85.73h-2.77Z"/><g class="cls-3"><polygon class="cls-2" points="114.75 83.97 111.61 83.97 108.46 83.97 108.46 87.31 108.46 129.22 111.61 129.22 111.61 87.31 114.75 87.31 114.75 83.97"/></g><g class="cls-3"><rect class="cls-2" x="108.46" y="61.95" width="3.15" height="22.02"/></g><path class="cls-2" d="M119.93,82.18a1.52,1.52,0,0,1-1.51-1.52V65.15h-2.86a1.52,1.52,0,0,1,0-3h4.37a1.51,1.51,0,0,1,1.51,1.51v17A1.51,1.51,0,0,1,119.93,82.18Z"/><path class="cls-2" d="M135,130.49H114.75a1.76,1.76,0,0,1-1.76-1.76V100.21a4.36,4.36,0,0,1,4.36-4.36h15a4.37,4.37,0,0,1,4.36,4.36v28.52A1.76,1.76,0,0,1,135,130.49ZM116.52,127h16.7V100.21a.83.83,0,0,0-.83-.83h-15a.83.83,0,0,0-.83.83Z"/><g class="cls-3"><rect class="cls-2" x="115.56" y="98.33" width="19.42" height="6.46"/></g><text class="cls-5" transform="translate(340.82 171.74)"><tspan class="cls-6">L</tspan><tspan class="cls-7" x="7.2" y="0">O</tspan><tspan x="17.53" y="0">VER OF DENIM</tspan></text><path class="cls-2" d="M237.14,146.13H194.48a6.49,6.49,0,0,1-6.48-6.48V97a6.49,6.49,0,0,1,6.48-6.48h42.66A6.49,6.49,0,0,1,243.63,97v42.67A6.49,6.49,0,0,1,237.14,146.13Zm-42.66-50.7A1.55,1.55,0,0,0,192.93,97v42.67a1.54,1.54,0,0,0,1.55,1.55h42.66a1.55,1.55,0,0,0,1.56-1.55V97a1.56,1.56,0,0,0-1.56-1.55Z"/><path class="cls-2" d="M222.37,126.62h-3.89l-1.39-3.94h-6.47l-1.4,3.94h-3.79l6.78-17.7h3.44Zm-6.5-7.3-1.13-3.22c-.36-1-.71-2.09-.89-2.75-.18.66-.53,1.72-.88,2.75l-1.14,3.22Z"/><path class="cls-2" d="M227.2,110.26a2,2,0,1,1-2-2A2,2,0,0,1,227.2,110.26ZM227,126.62h-3.49V113.35H227Z"/><path class="cls-2" d="M262.74,107.75c0,4.1-2.73,5.81-6.39,5.81h-3.9v6.28h-3.54v-17.7h7.74C260,102.14,262.74,104,262.74,107.75Zm-3.64.08c0-1.55-1-2.26-2.58-2.26h-4.07v4.56h4.12C258.22,110.13,259.1,109.37,259.1,107.83Z"/><path class="cls-2" d="M273.72,116c0,3.06-2.43,4.14-5.41,4.14a10.35,10.35,0,0,1-5.56-1.54l1.16-2.65a9.32,9.32,0,0,0,4.6,1.21c1.37,0,1.77-.33,1.77-1s-.48-.91-1.95-1.34c-3.18-1-5.23-1.75-5.23-4.55s2.2-4,5.31-4a10.66,10.66,0,0,1,4.91,1.29l-1.12,2.76a8.54,8.54,0,0,0-3.87-1.06c-1.41,0-1.79.27-1.79.86s.4.78,2.75,1.54S273.72,113.31,273.72,116Z"/><path class="cls-2" d="M244.24,81.81H240l-1.59-2.68c-.63-1.07-1.59-2.81-1.92-3.47-.31.66-1.27,2.35-1.92,3.47L233,81.81h-4.22l5.61-9L229,64.11h4.23l1.34,2.27c.63,1.07,1.59,2.81,1.92,3.47.33-.66,1.26-2.35,1.92-3.47l1.34-2.27H244l-5.38,8.65Z"/><path class="cls-2" d="M255.16,81.81h-3.49V81a4.09,4.09,0,0,1-2.8,1.11c-2.84,0-5.16-2.12-5.16-7.07,0-4,1.87-6.76,5.16-6.76a4.2,4.2,0,0,1,2.8,1V63.37h3.49Zm-3.49-4.12v-5a2.78,2.78,0,0,0-2.35-1.14c-1.34,0-2.07,1.16-2.07,3.39,0,2.73.91,3.87,2.27,3.87A2.45,2.45,0,0,0,251.67,77.69Z"/><g class="cls-3"><rect class="cls-4" x="215.81" y="87.49" width="19.01" height="5.47"/></g><path class="cls-2" d="M281.51,139.35H241.17a2.47,2.47,0,0,1-2.47-2.47V97a1.56,1.56,0,0,0-1.56-1.55h-2.31A2.48,2.48,0,0,1,232.36,93V90.2a6.5,6.5,0,0,1,6.49-6.49h42.66A6.5,6.5,0,0,1,288,90.2v42.66A6.5,6.5,0,0,1,281.51,139.35Zm-37.88-4.93h37.88a1.56,1.56,0,0,0,1.56-1.56V90.2a1.56,1.56,0,0,0-1.56-1.56H238.85a1.56,1.56,0,0,0-1.56,1.56v.3A6.5,6.5,0,0,1,243.63,97Z"/><path class="cls-2" d="M239.39,96.12a2.42,2.42,0,0,1-1.38-.43,1.54,1.54,0,0,0-.87-.26,2.47,2.47,0,0,1,0-4.93,6.42,6.42,0,0,1,3.63,1.11,2.47,2.47,0,0,1-1.38,4.51Z"/><path class="cls-2" d="M234.83,95.43h-19A2.47,2.47,0,0,1,213.35,93V52.17a6.49,6.49,0,0,1,6.48-6.49H262.5A6.49,6.49,0,0,1,269,52.17v34a2.46,2.46,0,0,1-2.46,2.46H238.85a1.56,1.56,0,0,0-1.56,1.56V93A2.47,2.47,0,0,1,234.83,95.43ZM218.28,90.5h14.08v-.3a6.5,6.5,0,0,1,6.49-6.49h25.2V52.17a1.56,1.56,0,0,0-1.55-1.56H219.83a1.56,1.56,0,0,0-1.55,1.56Z"/><path class="cls-2" d="M241,98.25a2.46,2.46,0,0,1-2.35-1.73,1.69,1.69,0,0,0-.19-.41,2.41,2.41,0,0,1-.43-1.37,2.46,2.46,0,0,1,4.51-1.38,6.21,6.21,0,0,1,.82,1.7,2.64,2.64,0,0,1,.11.73,2.47,2.47,0,0,1-1.73,2.35A2.37,2.37,0,0,1,241,98.25Z"/><path class="cls-2" d="M240.25,96.89a2.44,2.44,0,0,1-1.9-.89,1.67,1.67,0,0,0-.34-.31,2.46,2.46,0,0,1-1.08-2,2.41,2.41,0,0,1,.42-1.38,2.46,2.46,0,0,1,3.42-.66,6.57,6.57,0,0,1,1.38,1.25,2.47,2.47,0,0,1-.34,3.47A2.41,2.41,0,0,1,240.25,96.89Z"/><g class="cls-3"><path class="cls-4" d="M236,87.35v6h5.24v43.57h5.47V93.75a6.4,6.4,0,0,0-6.4-6.4Z"/></g><g class="cls-3"><path class="cls-4" d="M287.76,135.75H240.65v5.7h-51.5a4.07,4.07,0,0,0-4.08,3.42,4,4,0,0,0,3.93,4.5h53.58a4.1,4.1,0,0,0,4.09-3.36c0-.13,0-.26,0-.39a2.11,2.11,0,0,1,2.13-2h39.07a4,4,0,0,0,3.93-4.49A4.07,4.07,0,0,0,287.76,135.75Z"/></g><text class="cls-5" transform="translate(53.86 171.74)">ARTISTIC</text><text class="cls-5" transform="translate(165.87 171.74)">ADOBE EXPERIENCED</text></g></g></svg>