<svg id="skull" xmlns="http://www.w3.org/2000/svg" width="214.45" height="234.09" viewBox="0 0 214.45 234.09">
  <g id="Layer_2" data-name="Layer 2">
    <rect id="Rectangle_51" data-name="Rectangle 51" width="17.99" height="17.99" transform="translate(98.23 216.1)" fill="#fff"/>
    <rect id="Rectangle_52" data-name="Rectangle 52" width="17.99" height="17.99" transform="translate(58.94 216.1)" fill="#fff"/>
    <rect id="Rectangle_53" data-name="Rectangle 53" width="17.99" height="17.99" transform="translate(137.52 216.1)" fill="#fff"/>
    <rect id="Rectangle_54" data-name="Rectangle 54" width="17.99" height="17.99" transform="translate(58.94 196.46)" fill="#fff"/>
    <rect id="Rectangle_55" data-name="Rectangle 55" width="17.99" height="17.99" transform="translate(78.58 196.46)" fill="#fff"/>
    <rect id="Rectangle_56" data-name="Rectangle 56" width="17.99" height="17.99" transform="translate(98.23 196.46)" fill="#fff"/>
    <rect id="Rectangle_57" data-name="Rectangle 57" width="17.99" height="17.99" transform="translate(117.88 196.46)" fill="#fff"/>
    <rect id="Rectangle_58" data-name="Rectangle 58" width="17.99" height="17.99" transform="translate(137.52 196.46)" fill="#fff"/>
    <rect id="Rectangle_59" data-name="Rectangle 59" width="17.99" height="17.99" transform="translate(19.65 176.81)" fill="#fff"/>
    <rect id="Rectangle_60" data-name="Rectangle 60" width="17.99" height="17.99" transform="translate(39.29 176.81)" fill="#fff"/>
    <rect id="Rectangle_61" data-name="Rectangle 61" width="17.99" height="17.99" transform="translate(58.94 176.81)" fill="#fff"/>
    <rect id="Rectangle_62" data-name="Rectangle 62" width="17.99" height="17.99" transform="translate(78.58 176.81)" fill="#fff"/>
    <rect id="Rectangle_63" data-name="Rectangle 63" width="17.99" height="17.99" transform="translate(117.88 176.81)" fill="#fff"/>
    <rect id="Rectangle_64" data-name="Rectangle 64" width="17.99" height="17.99" transform="translate(137.52 176.81)" fill="#fff"/>
    <rect id="Rectangle_65" data-name="Rectangle 65" width="17.99" height="17.99" transform="translate(157.17 176.81)" fill="#fff"/>
    <rect id="Rectangle_66" data-name="Rectangle 66" width="17.99" height="17.99" transform="translate(176.81 176.81)" fill="#fff"/>
    <rect id="Rectangle_67" data-name="Rectangle 67" width="17.99" height="17.99" transform="translate(19.65 157.17)" fill="#fff"/>
    <rect id="Rectangle_68" data-name="Rectangle 68" width="17.99" height="17.99" transform="translate(39.29 157.17)" fill="#fff"/>
    <rect id="Rectangle_69" data-name="Rectangle 69" width="17.99" height="17.99" transform="translate(58.94 157.17)" fill="#fff"/>
    <rect id="Rectangle_70" data-name="Rectangle 70" width="17.99" height="17.99" transform="translate(78.58 157.17)" fill="#fff"/>
    <rect id="Rectangle_71" data-name="Rectangle 71" width="17.99" height="17.99" transform="translate(98.23 157.17)" fill="#fff"/>
    <rect id="Rectangle_72" data-name="Rectangle 72" width="17.99" height="17.99" transform="translate(117.88 157.17)" fill="#fff"/>
    <rect id="Rectangle_73" data-name="Rectangle 73" width="17.99" height="17.99" transform="translate(137.52 157.17)" fill="#fff"/>
    <rect id="Rectangle_74" data-name="Rectangle 74" width="17.99" height="17.99" transform="translate(157.17 157.17)" fill="#fff"/>
    <rect id="Rectangle_75" data-name="Rectangle 75" width="17.99" height="17.99" transform="translate(176.81 157.17)" fill="#fff"/>
    <rect id="Rectangle_76" data-name="Rectangle 76" width="17.99" height="17.99" transform="translate(0 137.52)" fill="#fff"/>
    <rect id="Rectangle_77" data-name="Rectangle 77" width="17.99" height="17.99" transform="translate(19.65 137.52)" fill="#fff"/>
    <rect id="Rectangle_78" data-name="Rectangle 78" width="17.99" height="17.99" transform="translate(78.58 137.52)" fill="#fff"/>
    <rect id="Rectangle_79" data-name="Rectangle 79" width="17.99" height="17.99" transform="translate(98.23 137.52)" fill="#fff"/>
    <rect id="Rectangle_80" data-name="Rectangle 80" width="17.99" height="17.99" transform="translate(117.88 137.52)" fill="#fff"/>
    <rect id="Rectangle_81" data-name="Rectangle 81" width="17.99" height="17.99" transform="translate(176.81 137.52)" fill="#fff"/>
    <rect id="Rectangle_82" data-name="Rectangle 82" width="17.99" height="17.99" transform="translate(196.46 137.52)" fill="#fff"/>
    <rect id="Rectangle_83" data-name="Rectangle 83" width="17.99" height="17.99" transform="translate(0 117.88)" fill="#fff"/>
    <rect id="Rectangle_84" data-name="Rectangle 84" width="17.99" height="17.99" transform="translate(19.65 117.88)" fill="#fff"/>
    <rect id="Rectangle_85" data-name="Rectangle 85" width="17.99" height="17.99" transform="translate(98.23 117.88)" fill="#fff"/>
    <rect id="Rectangle_86" data-name="Rectangle 86" width="17.99" height="17.99" transform="translate(176.81 117.88)" fill="#fff"/>
    <rect id="Rectangle_87" data-name="Rectangle 87" width="17.99" height="17.99" transform="translate(196.46 117.88)" fill="#fff"/>
    <rect id="Rectangle_88" data-name="Rectangle 88" width="17.99" height="17.99" transform="translate(0 98.23)" fill="#fff"/>
    <rect id="Rectangle_89" data-name="Rectangle 89" width="17.99" height="17.99" transform="translate(19.65 98.23)" fill="#fff"/>
    <rect id="Rectangle_90" data-name="Rectangle 90" width="17.99" height="17.99" transform="translate(39.29 98.23)" fill="#fff"/>
    <rect id="Rectangle_91" data-name="Rectangle 91" width="17.99" height="17.99" transform="translate(98.23 98.23)" fill="#fff"/>
    <rect id="Rectangle_92" data-name="Rectangle 92" width="17.99" height="17.99" transform="translate(176.81 98.23)" fill="#fff"/>
    <rect id="Rectangle_93" data-name="Rectangle 93" width="17.99" height="17.99" transform="translate(196.46 98.23)" fill="#fff"/>
    <rect id="Rectangle_94" data-name="Rectangle 94" width="17.99" height="17.99" transform="translate(19.65 78.58)" fill="#fff"/>
    <rect id="Rectangle_95" data-name="Rectangle 95" width="17.99" height="17.99" transform="translate(39.29 78.58)" fill="#fff"/>
    <rect id="Rectangle_96" data-name="Rectangle 96" width="17.99" height="17.99" transform="translate(58.94 78.58)" fill="#fff"/>
    <rect id="Rectangle_97" data-name="Rectangle 97" width="17.99" height="17.99" transform="translate(78.58 78.58)" fill="#fff"/>
    <rect id="Rectangle_98" data-name="Rectangle 98" width="17.99" height="17.99" transform="translate(98.23 78.58)" fill="#fff"/>
    <rect id="Rectangle_99" data-name="Rectangle 99" width="17.99" height="17.99" transform="translate(117.88 78.58)" fill="#fff"/>
    <rect id="Rectangle_100" data-name="Rectangle 100" width="17.99" height="17.99" transform="translate(137.52 78.58)" fill="#fff"/>
    <rect id="Rectangle_101" data-name="Rectangle 101" width="17.99" height="17.99" transform="translate(176.81 78.58)" fill="#fff"/>
    <rect id="Rectangle_102" data-name="Rectangle 102" width="17.99" height="17.99" transform="translate(19.65 58.94)" fill="#fff"/>
    <rect id="Rectangle_103" data-name="Rectangle 103" width="17.99" height="17.99" transform="translate(39.29 58.94)" fill="#fff"/>
    <rect id="Rectangle_104" data-name="Rectangle 104" width="17.99" height="17.99" transform="translate(58.94 58.94)" fill="#fff"/>
    <rect id="Rectangle_105" data-name="Rectangle 105" width="17.99" height="17.99" transform="translate(98.23 58.94)" fill="#fff"/>
    <rect id="Rectangle_106" data-name="Rectangle 106" width="17.99" height="17.99" transform="translate(117.88 58.94)" fill="#fff"/>
    <rect id="Rectangle_107" data-name="Rectangle 107" width="17.99" height="17.99" transform="translate(137.52 58.94)" fill="#fff"/>
    <rect id="Rectangle_108" data-name="Rectangle 108" width="17.99" height="17.99" transform="translate(176.81 58.94)" fill="#fff"/>
    <rect id="Rectangle_109" data-name="Rectangle 109" width="17.99" height="17.99" transform="translate(39.29 39.29)" fill="#fff"/>
    <rect id="Rectangle_110" data-name="Rectangle 110" width="17.99" height="17.99" transform="translate(58.94 39.29)" fill="#fff"/>
    <rect id="Rectangle_111" data-name="Rectangle 111" width="17.99" height="17.99" transform="translate(58.94 19.65)" fill="#fff"/>
    <rect id="Rectangle_112" data-name="Rectangle 112" width="17.99" height="17.99" transform="translate(117.88 19.65)" fill="#fff"/>
    <rect id="Rectangle_113" data-name="Rectangle 113" width="17.99" height="17.99" transform="translate(117.88)" fill="#fff"/>
    <rect id="Rectangle_114" data-name="Rectangle 114" width="17.99" height="17.99" transform="translate(117.88 39.29)" fill="#fff"/>
    <rect id="Rectangle_115" data-name="Rectangle 115" width="17.99" height="17.99" transform="translate(137.52 39.29)" fill="#fff"/>
  </g>
</svg>
