<?xml version="1.0" encoding="utf-8"?>
<!-- Generator: Adobe Illustrator 23.0.0, SVG Export Plug-In . SVG Version: 6.00 Build 0)  -->
<svg version="1.1" xmlns="http://www.w3.org/2000/svg" xmlns:xlink="http://www.w3.org/1999/xlink" x="0px" y="0px"
	 viewBox="0 0 400 500" style="enable-background:new 0 0 400 500;" xml:space="preserve">
<style type="text/css">
	.st0{fill:#00B5A5;}
	.st1{display:none;}
	.st2{display:inline;}
	.st3{fill:#FFFFFF;}
</style>
<g id="Layer_1">
	<rect class="st0" width="400" height="500"/>
</g>
<g id="Layer_2" class="st1">
	<g class="st2">
		<path id="Path_99_1_" class="st3" d="M257.6,202.9c-0.8-0.6-1.8-0.7-2.8-0.4l-7.1,2.4v-10.6c0-1.7-1.4-3.1-3.1-3.1
			c-0.3,0-0.7,0.1-1,0.2l-29.4,9.8v-6.9c0-1.7-1.4-3.1-3.1-3.1c-0.3,0-0.7,0.1-1,0.2l-29.4,9.8v-6.9c0-1.7-1.4-3.1-3.1-3.1
			c-0.3,0-0.7,0.1-1,0.2l-33.5,11.2c-1.3,0.4-2.1,1.6-2.1,2.9v89.2c0,1,0.5,1.9,1.3,2.5c0.5,0.4,1.2,0.6,1.8,0.6
			c0.3,0,0.7-0.1,1-0.2l7.1-2.4v10.6c0,1.7,1.4,3.1,3.1,3.1c0.3,0,0.7-0.1,1-0.2l29.4-9.8v6.9c0,1.7,1.4,3.1,3.1,3.1
			c0.3,0,0.7-0.1,1-0.2l29.4-9.8v6.9c0,1.7,1.4,3.1,3.1,3.1c0.3,0,0.7-0.1,1-0.2l33.5-11.2c1.3-0.4,2.1-1.6,2.1-2.9v-89.2
			C258.9,204.4,258.4,203.5,257.6,202.9L257.6,202.9z M230.5,235.7v49.2l-16.2,5.4v-49.2L230.5,235.7z M208.1,281.2l-27.3,9.1v-49.2
			l27.3-9.1L208.1,281.2z M241.5,209.1v72.1l-4.8,1.6v-51.5c0-1.7-1.4-3.1-3.1-3.1c-0.3,0-0.7,0.1-1,0.2l-7.1,2.4v-26.9l16-5.3
			V209.1z M219.3,205.9v26.9l-5,1.7v-26.9L219.3,205.9z M208.1,198.5v26.9l-27.3,9.1v-26.9L208.1,198.5z M174.6,198.5v26.9
			l-27.3,9.1v-26.9L174.6,198.5z M147.3,241.1l27.3-9.1v49.2l-13.6,4.5l-13.6,4.5V241.1z"/>
	</g>
</g>
<g id="Layer_3">
	<g>
		<title>Asset 11</title>
		<g>
			<g id="Layer_1-2_1_">
				<path class="st3" d="M287.4,304.1L276.2,293l-47.1-47.1l0,0l-6.8-6.8l0,0l-4.4-4.4l0,0l-6.8-6.8l0,0l-4.4-4.4l0,0l-6.8-6.8l0,0
					l-37.2-37.3c-0.1-0.1-0.3-0.2-0.4-0.3l-0.2-0.2c-0.3-0.2-0.6-0.4-1-0.5l0,0l-36.9-14.5c-2.5-1-5.3,0.3-6.2,2.7
					c-0.4,1.1-0.4,2.4,0,3.5l14.5,36.8l0,0c0.1,0.3,0.3,0.7,0.5,1l0.2,0.2c0.1,0.1,0.2,0.3,0.3,0.4l37.4,37.5L123.7,293l-11.1,11.1
					c-4.6,4.6-4.6,12,0,16.5l12.6,12.6c4.6,4.6,12,4.6,16.5,0l11.1-11.1L200,275l47.1,47.1l11.1,11.1c4.6,4.6,12,4.6,16.5,0
					l12.6-12.6C291.9,316,291.9,308.7,287.4,304.1z M161.2,191.4l102.8,102.8c1.2,1.2,1.2,3.2,0,4.4c0,0,0,0,0,0l0,0
					c-1.2,1.2-3.2,1.2-4.4,0c0,0,0,0,0,0L218,257l0,0l-3-3l-8.2-8.2l0,0l-6.8-6.8l0,0l-4.3-4.3l0,0l-6.8-6.8l0,0l-32-32
					c-1.1-1.1-1.1-2.9,0-4l0.4-0.4C158.3,190.3,160,190.3,161.2,191.4z M134.2,185.3c2.4-0.9,4.3-2.8,5.3-5.3l11.1,4.4l-12,12
					L134.2,185.3z M179.9,254.8L179.9,254.8c1.2,1.2,1.2,3.2,0,4.4c0,0,0,0,0,0l-39.4,39.4c-1.2,1.2-3.2,1.2-4.4,0c0,0,0,0,0,0l0,0
					c-1.2-1.2-1.2-3.2,0-4.4c0,0,0,0,0,0l39.4-39.4C176.7,253.6,178.6,253.6,179.9,254.8C179.8,254.8,179.8,254.8,179.9,254.8z
					 M135,326.4c-0.8,0.8-2.1,0.8-2.9,0c0,0,0,0,0,0l-12.6-12.6c-0.8-0.8-0.8-2.1,0-2.9c0,0,0,0,0,0l7.7-7.7l15.6,15.6L135,326.4z
					 M147.3,309.7L147.3,309.7c-1.2-1.2-1.2-3.2,0-4.4c0,0,0,0,0,0l39.3-39.3c1.2-1.2,3.2-1.2,4.4,0l0,0c1.2,1.2,1.2,3.2,0,4.4
					c0,0,0,0,0,0l-39.4,39.3C150.4,311,148.5,311,147.3,309.7C147.3,309.8,147.3,309.7,147.3,309.7L147.3,309.7z M252.7,309.7
					c-1.2,1.2-3.2,1.2-4.4,0c0,0,0,0,0,0l-41.5-41.6l-6.8-6.8l0,0l-4.3-4.3l0,0l-6.8-6.8l-4.4-4.4l0,0l-6.8-6.8l-32-31.9
					c-1.1-1.1-1.1-2.9,0-4l0.4-0.4c1.1-1.1,2.9-1.1,4,0l102.8,102.8C253.9,306.6,254,308.5,252.7,309.7
					C252.7,309.7,252.7,309.7,252.7,309.7L252.7,309.7z M280.6,313.9L268,326.4c-0.8,0.8-2.1,0.8-2.9,0c0,0,0,0,0,0l-7.7-7.7
					l15.6-15.6l7.7,7.7C281.4,311.7,281.4,313,280.6,313.9C280.6,313.8,280.6,313.8,280.6,313.9L280.6,313.9z"/>
				<path class="st3" d="M211.2,219.1l28-28c0.9-0.9,2.4-0.9,3.4,0l1.1,1.1c0.9,0.9,0.9,2.4,0,3.4l-28,28l6.8,6.8l28-28
					c0.9-0.9,2.4-0.9,3.3,0c0,0,0,0,0,0l1.1,1c0.9,0.9,0.9,2.4,0,3.4l-28.1,27.9l6.8,6.8l33.1-33.1c0.1-0.1,0.2-0.3,0.3-0.4l0.2-0.2
					c0.2-0.3,0.4-0.6,0.5-1l0,0l14.4-36.8c1-2.5-0.2-5.2-2.7-6.2c-1.1-0.4-2.4-0.4-3.5,0l-36.8,14.5l0,0c-0.3,0.1-0.6,0.3-0.9,0.5
					l-0.3,0.2c-0.1,0.1-0.3,0.2-0.4,0.3l-33.1,33.1L211.2,219.1z M260.5,180.1c0.9,2.4,2.9,4.3,5.3,5.2l-4.4,11.1l-12-12
					L260.5,180.1z"/>
				
					<ellipse transform="matrix(0.7069 -0.7074 0.7074 0.7069 -158.3795 231.413)" class="st3" cx="200" cy="306.8" rx="8.4" ry="8.2"/>
				<path class="st3" d="M198.1,188.2c4.5,1,9-1.7,10-6.2c0.3-1.2,0.3-2.5,0-3.8c-1.1-4.5-5.5-7.3-10-6.2c-4.5,1.1-7.3,5.5-6.2,10
					C192.6,185,195,187.4,198.1,188.2z"/>
				<path class="st3" d="M255.3,241.5c-1.1,4.5,1.7,9,6.2,10c4.5,1.1,9-1.7,10-6.2c1.1-4.5-1.7-9-6.2-10c-1.3-0.3-2.6-0.3-3.8,0
					C258.4,236,256,238.4,255.3,241.5z"/>
				<path class="st3" d="M144.8,245.3c1-4.5-1.7-9-6.2-10c-1.2-0.3-2.5-0.3-3.8,0c-3.1,0.7-5.5,3.1-6.2,6.2
					c-0.9,4.5,2.1,8.9,6.6,9.8C139.4,252.1,143.6,249.5,144.8,245.3z"/>
			</g>
		</g>
	</g>
</g>
<g id="Layer_4" class="st1">
	<g class="st2">
		<g>
			<rect id="Rectangle_51_1_" x="193.2" y="324.8" class="st3" width="13.6" height="13.6"/>
			<rect id="Rectangle_52_1_" x="163.5" y="324.8" class="st3" width="13.6" height="13.6"/>
			<rect id="Rectangle_53_1_" x="222.9" y="324.8" class="st3" width="13.6" height="13.6"/>
			<rect id="Rectangle_54_1_" x="163.5" y="310" class="st3" width="13.6" height="13.6"/>
			<rect id="Rectangle_55_1_" x="178.4" y="310" class="st3" width="13.6" height="13.6"/>
			<rect id="Rectangle_56_1_" x="193.2" y="310" class="st3" width="13.6" height="13.6"/>
			<rect id="Rectangle_57_1_" x="208" y="310" class="st3" width="13.6" height="13.6"/>
			<rect id="Rectangle_58_1_" x="222.9" y="310" class="st3" width="13.6" height="13.6"/>
			<rect id="Rectangle_59_1_" x="133.9" y="295.1" class="st3" width="13.6" height="13.6"/>
			<rect id="Rectangle_60_1_" x="148.7" y="295.1" class="st3" width="13.6" height="13.6"/>
			<rect id="Rectangle_61_1_" x="163.5" y="295.1" class="st3" width="13.6" height="13.6"/>
			<rect id="Rectangle_62_1_" x="178.4" y="295.1" class="st3" width="13.6" height="13.6"/>
			<rect id="Rectangle_63_1_" x="208" y="295.1" class="st3" width="13.6" height="13.6"/>
			<rect id="Rectangle_64_1_" x="222.9" y="295.1" class="st3" width="13.6" height="13.6"/>
			<rect id="Rectangle_65_1_" x="237.7" y="295.1" class="st3" width="13.6" height="13.6"/>
			<rect id="Rectangle_66_1_" x="252.6" y="295.1" class="st3" width="13.6" height="13.6"/>
			<rect id="Rectangle_67_1_" x="133.9" y="280.3" class="st3" width="13.6" height="13.6"/>
			<rect id="Rectangle_68_1_" x="148.7" y="280.3" class="st3" width="13.6" height="13.6"/>
			<rect id="Rectangle_69_1_" x="163.5" y="280.3" class="st3" width="13.6" height="13.6"/>
			<rect id="Rectangle_70_1_" x="178.4" y="280.3" class="st3" width="13.6" height="13.6"/>
			<rect id="Rectangle_71_1_" x="193.2" y="280.3" class="st3" width="13.6" height="13.6"/>
			<rect id="Rectangle_72_1_" x="208" y="280.3" class="st3" width="13.6" height="13.6"/>
			<rect id="Rectangle_73_1_" x="222.9" y="280.3" class="st3" width="13.6" height="13.6"/>
			<rect id="Rectangle_74_1_" x="237.7" y="280.3" class="st3" width="13.6" height="13.6"/>
			<rect id="Rectangle_75_1_" x="252.6" y="280.3" class="st3" width="13.6" height="13.6"/>
			<rect id="Rectangle_76_1_" x="119" y="265.5" class="st3" width="13.6" height="13.6"/>
			<rect id="Rectangle_77_1_" x="133.9" y="265.5" class="st3" width="13.6" height="13.6"/>
			<rect id="Rectangle_78_1_" x="178.4" y="265.5" class="st3" width="13.6" height="13.6"/>
			<rect id="Rectangle_79_1_" x="193.2" y="265.5" class="st3" width="13.6" height="13.6"/>
			<rect id="Rectangle_80_1_" x="208" y="265.5" class="st3" width="13.6" height="13.6"/>
			<rect id="Rectangle_81_1_" x="252.6" y="265.5" class="st3" width="13.6" height="13.6"/>
			<rect id="Rectangle_82_1_" x="267.4" y="265.5" class="st3" width="13.6" height="13.6"/>
			<rect id="Rectangle_83_1_" x="119" y="250.6" class="st3" width="13.6" height="13.6"/>
			<rect id="Rectangle_84_1_" x="133.9" y="250.6" class="st3" width="13.6" height="13.6"/>
			<rect id="Rectangle_85_1_" x="193.2" y="250.6" class="st3" width="13.6" height="13.6"/>
			<rect id="Rectangle_86_1_" x="252.6" y="250.6" class="st3" width="13.6" height="13.6"/>
			<rect id="Rectangle_87_1_" x="267.4" y="250.6" class="st3" width="13.6" height="13.6"/>
			<rect id="Rectangle_88_1_" x="119" y="235.8" class="st3" width="13.6" height="13.6"/>
			<rect id="Rectangle_89_1_" x="133.9" y="235.8" class="st3" width="13.6" height="13.6"/>
			<rect id="Rectangle_90_1_" x="148.7" y="235.8" class="st3" width="13.6" height="13.6"/>
			<rect id="Rectangle_91_1_" x="193.2" y="235.8" class="st3" width="13.6" height="13.6"/>
			<rect id="Rectangle_92_1_" x="252.6" y="235.8" class="st3" width="13.6" height="13.6"/>
			<rect id="Rectangle_93_1_" x="267.4" y="235.8" class="st3" width="13.6" height="13.6"/>
			<rect id="Rectangle_94_1_" x="133.9" y="220.9" class="st3" width="13.6" height="13.6"/>
			<rect id="Rectangle_95_1_" x="148.7" y="220.9" class="st3" width="13.6" height="13.6"/>
			<rect id="Rectangle_96_1_" x="163.5" y="220.9" class="st3" width="13.6" height="13.6"/>
			<rect id="Rectangle_97_1_" x="178.4" y="220.9" class="st3" width="13.6" height="13.6"/>
			<rect id="Rectangle_98_1_" x="193.2" y="220.9" class="st3" width="13.6" height="13.6"/>
			<rect id="Rectangle_99_1_" x="208" y="220.9" class="st3" width="13.6" height="13.6"/>
			<rect id="Rectangle_100_1_" x="222.9" y="220.9" class="st3" width="13.6" height="13.6"/>
			<rect id="Rectangle_101_1_" x="252.6" y="220.9" class="st3" width="13.6" height="13.6"/>
			<rect id="Rectangle_102_1_" x="133.9" y="206.1" class="st3" width="13.6" height="13.6"/>
			<rect id="Rectangle_103_1_" x="148.7" y="206.1" class="st3" width="13.6" height="13.6"/>
			<rect id="Rectangle_104_1_" x="163.5" y="206.1" class="st3" width="13.6" height="13.6"/>
			<rect id="Rectangle_105_1_" x="193.2" y="206.1" class="st3" width="13.6" height="13.6"/>
			<rect id="Rectangle_106_1_" x="208" y="206.1" class="st3" width="13.6" height="13.6"/>
			<rect id="Rectangle_107_1_" x="222.9" y="206.1" class="st3" width="13.6" height="13.6"/>
			<rect id="Rectangle_108_1_" x="252.6" y="206.1" class="st3" width="13.6" height="13.6"/>
			<rect id="Rectangle_109_1_" x="148.7" y="191.3" class="st3" width="13.6" height="13.6"/>
			<rect id="Rectangle_110_1_" x="163.5" y="191.3" class="st3" width="13.6" height="13.6"/>
			<rect id="Rectangle_111_1_" x="163.5" y="176.4" class="st3" width="13.6" height="13.6"/>
			<rect id="Rectangle_112_1_" x="208" y="176.4" class="st3" width="13.6" height="13.6"/>
			<rect id="Rectangle_113_1_" x="208" y="161.6" class="st3" width="13.6" height="13.6"/>
			<rect id="Rectangle_114_1_" x="208" y="191.3" class="st3" width="13.6" height="13.6"/>
			<rect id="Rectangle_115_1_" x="222.9" y="191.3" class="st3" width="13.6" height="13.6"/>
		</g>
	</g>
</g>
</svg>
