<svg xmlns="http://www.w3.org/2000/svg" viewBox="0 0 148.91 110.54"><defs><style>.cls-1{fill:#9cd8d9;}.cls-2{fill:#6ac7c0;}.cls-3{fill:#008075;}.cls-4{fill:#00b5a5;}.cls-5{fill:#1c3c4c;}.cls-6{fill:#4f7f98;}.cls-7{fill:#d4edf0;}.cls-8{fill:#b4cacc;}.cls-9{fill:#242058;}</style></defs><title>Portfolio</title><g id="Layer_2" data-name="Layer 2"><g id="Layer_2_copy" data-name="Layer 2 copy"><path class="cls-1" d="M125.81,55.27a51.84,51.84,0,0,1-.39,6.39,51,51,0,0,1-2.36,10.22c-.2.59-.41,1.18-.64,1.76-.41,1.09-.86,2.15-1.35,3.2-.29.62-.59,1.24-.9,1.85A51.06,51.06,0,0,1,115,86.77a50.37,50.37,0,0,1-4.39,5,52.09,52.09,0,0,1-7.2,6l0,0a54.35,54.35,0,0,1-6.1,3.57,51.08,51.08,0,0,1-18.93,5.2c-1.29.1-2.59.15-3.91.15s-2.62-.05-3.91-.15a50.94,50.94,0,0,1-16.83-4.22l-1.25-.56c-.69-.33-1.37-.67-2-1a52.3,52.3,0,0,1-5.64-3.47A51.42,51.42,0,0,1,28.94,79a49.5,49.5,0,0,1-2.63-5.9c-.18-.49-.36-1-.52-1.46a48.14,48.14,0,0,1-1.35-4.77c-.38-1.63-.68-3.28-.9-5s-.35-3.29-.4-5c0-.57,0-1.14,0-1.72,0-.18,0-.36,0-.54,0-.64,0-1.27.06-1.9,0-.27,0-.54,0-.81,0-.05,0-.11,0-.16,0-.7.1-1.39.18-2.08s.18-1.62.31-2.42c0-.1,0-.2,0-.3l.06-.33c0-.27.09-.54.14-.8.08-.48.18-1,.28-1.43.16-.73.33-1.45.52-2.16l.06-.25c.19-.71.39-1.41.61-2.1.14-.48.3-1,.47-1.43s.33-1,.51-1.43c.23-.62.48-1.23.74-1.83.57-1.38,1.21-2.72,1.91-4A51.24,51.24,0,0,1,96.68,9l0,0a51.45,51.45,0,0,1,25.81,28.14c.18.47.35.95.51,1.43s.33.95.47,1.43c.22.69.42,1.39.61,2.1l.06.25c.19.71.36,1.43.52,2.16.1.47.2,1,.28,1.43.05.26.1.53.14.8l.06.33c0,.1,0,.2,0,.3.12.8.23,1.6.31,2.42s.13,1.38.18,2.08c0,.32,0,.64,0,1,0,.63,0,1.26,0,1.9C125.81,54.91,125.81,55.09,125.81,55.27Z"/><path class="cls-2" d="M148.91,79.32a2.44,2.44,0,0,1-.73,1.75,2.47,2.47,0,0,1-1.75.73H144a2.49,2.49,0,0,0-2.48,2.49A2.49,2.49,0,0,1,139,86.77H89.35a2.48,2.48,0,0,0,0,5h21.27a52.09,52.09,0,0,1-7.2,6h0a53.07,53.07,0,0,1-6.11,3.58,51.08,51.08,0,0,1-18.93,5.2c-1.29.1-2.59.15-3.91.15s-2.62-.05-3.91-.15a50.94,50.94,0,0,1-16.83-4.22,2.38,2.38,0,0,0-1.25-.56c-.69-.33-1.37-.67-2-1a52.3,52.3,0,0,1-5.64-3.47A51.42,51.42,0,0,1,28.94,79a49.5,49.5,0,0,1-2.63-5.9c-.18-.49-.36-1-.52-1.46a2.48,2.48,0,0,0,.78-4,2.44,2.44,0,0,0-1.75-.73h-.38c-.38-1.63-.68-3.28-.9-5H44.67a2.46,2.46,0,0,0,1.7-.68,2.36,2.36,0,0,0,.7-1.13,2.46,2.46,0,0,0,.09-.67,1.93,1.93,0,0,0,0-.24,2.5,2.5,0,0,0-1.94-2.18,2.35,2.35,0,0,0-.54-.06H2.48a2.49,2.49,0,0,1,0-5H34.75a2.49,2.49,0,0,0,2.47-2.24,1.93,1.93,0,0,0,0-.24,2.44,2.44,0,0,0-.73-1.75,2.67,2.67,0,0,0-.57-.43,2.46,2.46,0,0,0-1.18-.3h-11l.06-.33c0-.27.09-.54.14-.8.08-.48.18-1,.28-1.43.16-.73.33-1.45.52-2.16l.06-.25H39.71A2.48,2.48,0,0,0,42.16,40a2.34,2.34,0,0,0,0-.38,2.49,2.49,0,0,1,.24-1,2.48,2.48,0,0,1,2.24-1.43H89.35a2.42,2.42,0,0,1,1.83.82,2.3,2.3,0,0,1,.47.76,2.26,2.26,0,0,1,.18.9,1.84,1.84,0,0,0,0,.41,2.26,2.26,0,0,0,.24.72,2.29,2.29,0,0,0,.45.62,2.47,2.47,0,0,0,1.75.73h37.23a2.41,2.41,0,0,1,1.07.25,2.47,2.47,0,0,1,1.4,2,1.48,1.48,0,0,1,0,.21,2.37,2.37,0,0,1-.31,1.19,2.11,2.11,0,0,1-.42.56,2.44,2.44,0,0,1-1.75.73H101.76a2.37,2.37,0,0,0-1.09.26l-.06,0a2.26,2.26,0,0,0-.63.47,2.37,2.37,0,0,0-.69,1.56.86.86,0,0,0,0,.16,2.44,2.44,0,0,1-.73,1.75,2.5,2.5,0,0,1-1.76.73H86.87a2.49,2.49,0,0,0-2.17,1.27,2.45,2.45,0,0,0-.32,1.21,1.77,1.77,0,0,0,0,.23,2.45,2.45,0,0,0,.72,1.53,2.53,2.53,0,0,0,1.51.72h35a2.35,2.35,0,0,1,.54.06l.26.07a2.51,2.51,0,0,1,1.68,2.35,2.47,2.47,0,0,0,.73,1.75,2.32,2.32,0,0,0,.6.44,51,51,0,0,1-2.36,10.22H94.31a2.44,2.44,0,0,0-1,.22A2.47,2.47,0,0,0,91.86,74a2.6,2.6,0,0,0,0,.4,2.24,2.24,0,0,0,.13.78,2.44,2.44,0,0,0,.6,1,2.47,2.47,0,0,0,1.44.71l.31,0h52.12A2.48,2.48,0,0,1,148.91,79.32Z"/><circle class="cls-3" cx="103.89" cy="35.29" r="3.92"/><circle class="cls-3" cx="59.97" cy="88.44" r="3.92"/><circle class="cls-3" cx="74.46" cy="106.62" r="3.92"/><path class="cls-4" d="M15,38.56H52.42a7.31,7.31,0,0,1,7.31,7.31v.06a0,0,0,0,1,0,0H16.08a4.22,4.22,0,0,1-4.22-4.22v0A3.14,3.14,0,0,1,15,38.56Z"/><path class="cls-2" d="M13.46,38.56H56a3.75,3.75,0,0,1,3.75,3.75v0a0,0,0,0,1,0,0H14a2.17,2.17,0,0,1-2.17-2.17v0a1.61,1.61,0,0,1,1.61-1.61Z"/><path class="cls-4" d="M65,49.3l-.7-.74c0-2.08-2.61-2.63-4.68-2.63H50.29a1.61,1.61,0,0,0-1.61,1.61v3.58a2.17,2.17,0,0,0,2.17,2.17H70.78V49.61Z"/><path class="cls-3" d="M61.9,47.61l-.56-.37c0-1-2.11-1.31-3.79-1.31H50c-.72,0-1.3.36-1.3.8v1.8c0,.59.78,1.08,1.75,1.08H66.54l-.29-1.45Z"/><rect class="cls-4" x="56.05" y="53.29" width="14.73" height="7.37"/><rect class="cls-3" x="56.05" y="53.29" width="14.73" height="3.68"/><rect class="cls-4" x="63.41" y="60.66" width="7.37" height="7.37"/><rect class="cls-3" x="63.41" y="60.66" width="7.37" height="3.68"/><path class="cls-4" d="M93.15,38.56H136.8a0,0,0,0,1,0,0v.06a7.31,7.31,0,0,1-7.31,7.31H92.07a3.14,3.14,0,0,1-3.14-3.14v0a4.22,4.22,0,0,1,4.22-4.22Z" transform="translate(225.73 84.49) rotate(180)"/><path class="cls-2" d="M91.09,38.56H136.8a0,0,0,0,1,0,0v0a3.75,3.75,0,0,1-3.75,3.75H90.54a1.61,1.61,0,0,1-1.61-1.61v0A2.17,2.17,0,0,1,91.09,38.56Z" transform="translate(225.73 80.9) rotate(180)"/><path class="cls-4" d="M83.61,49.3l.71-.74c0-2.08,2.6-2.63,4.67-2.63h9.37A1.62,1.62,0,0,1,100,47.54v3.58a2.17,2.17,0,0,1-2.17,2.17H77.88V49.61Z"/><path class="cls-3" d="M86.75,47.61l.57-.37c0-1,2.11-1.31,3.78-1.31h7.57c.72,0,1.31.36,1.31.8v1.8c0,.59-.79,1.08-1.76,1.08H82.12l.29-1.45Z"/><rect class="cls-4" x="77.88" y="53.29" width="14.73" height="7.37" transform="translate(170.49 113.95) rotate(-180)"/><rect class="cls-3" x="77.88" y="53.29" width="14.73" height="3.68" transform="translate(170.49 110.27) rotate(-180)"/><rect class="cls-4" x="77.88" y="60.66" width="7.37" height="7.37" transform="translate(163.12 128.68) rotate(-180)"/><rect class="cls-3" x="77.88" y="60.66" width="7.37" height="3.68" transform="translate(163.12 125) rotate(-180)"/><path class="cls-5" d="M74.37,38.56h0A3.59,3.59,0,0,1,78,42.16V68a0,0,0,0,1,0,0H70.78a0,0,0,0,1,0,0V42.16A3.59,3.59,0,0,1,74.37,38.56Z"/><rect class="cls-6" x="74.37" y="38.56" width="3.59" height="29.46"/><rect class="cls-4" x="70.78" y="68.02" width="7.52" height="7.52" transform="translate(146.32 -2.75) rotate(90)"/><rect class="cls-2" x="72.66" y="69.9" width="7.52" height="3.76" transform="translate(148.2 -4.63) rotate(90)"/><rect class="cls-7" x="19.64" y="46.73" width="29.04" height="6.1"/><rect class="cls-7" x="26.95" y="54.04" width="29.04" height="6.1"/><rect class="cls-7" x="34.18" y="61.27" width="29.04" height="6.1"/><rect class="cls-7" x="48.94" y="69.05" width="22.05" height="6.1"/><rect class="cls-8" x="19.64" y="46.73" width="29.04" height="3.05"/><rect class="cls-8" x="26.95" y="54" width="29.04" height="3.05"/><rect class="cls-8" x="48.94" y="69.05" width="22.05" height="3.05"/><rect class="cls-8" x="34.04" y="61.27" width="29.04" height="3.05"/><rect class="cls-7" x="100.67" y="46.73" width="29.04" height="6.1" transform="translate(230.39 99.56) rotate(-180)"/><rect class="cls-7" x="93.36" y="54.04" width="29.04" height="6.1" transform="translate(215.77 114.17) rotate(-180)"/><rect class="cls-7" x="86.13" y="61.27" width="29.04" height="6.1" transform="translate(201.31 128.64) rotate(-180)"/><rect class="cls-7" x="78.36" y="69.05" width="22.05" height="6.1" transform="translate(178.77 144.19) rotate(-180)"/><polygon class="cls-7" points="72.04 76.37 71 84.36 73.86 87.13 75.48 87.13 77.51 83.96 76.56 76.37 72.04 76.37"/><rect class="cls-8" x="100.61" y="46.73" width="29.04" height="3.05" transform="translate(230.26 96.51) rotate(-180)"/><rect class="cls-8" x="93.3" y="54" width="29.04" height="3.05" transform="translate(215.65 111.05) rotate(-180)"/><rect class="cls-8" x="78.3" y="69.05" width="22.05" height="3.05" transform="translate(178.64 141.14) rotate(-180)"/><rect class="cls-8" x="86.21" y="61.27" width="29.04" height="3.05" transform="translate(201.46 125.59) rotate(-180)"/><path class="cls-9" d="M137,38.63a5.06,5.06,0,0,0-3.62-1.5H94.47a7,7,0,0,0-3.29.82,7.25,7.25,0,0,0-3.45,4A10,10,0,0,1,86,45a10.28,10.28,0,0,1-1.36,1.36l-.12.1a7.47,7.47,0,0,1-.63.48h0c-.22.16-.46.3-.7.44l-.06,0a10.26,10.26,0,0,1-2.38,1h0a8.65,8.65,0,0,1-1.15.22V42.39A5.36,5.36,0,0,0,78,38.57h0a4.91,4.91,0,0,0-3-1.41l-.48,0a5.13,5.13,0,0,0-5.13,5.12v6.37a9.16,9.16,0,0,1-1.14-.22h0a10.31,10.31,0,0,1-1.61-.58h0c-.25-.12-.5-.24-.74-.38l-.08,0c-.23-.13-.45-.27-.67-.41l0,0a7.47,7.47,0,0,1-.63-.48l-.11-.09A11.08,11.08,0,0,1,62.91,45a10,10,0,0,1-1.72-3,7.19,7.19,0,0,0-6.74-4.83H15.53a5.12,5.12,0,0,0-5.11,5.08,5,5,0,0,0,1.49,3.57,5.33,5.33,0,0,0,3.76,1.58h2.64a5.12,5.12,0,0,0-.49,2.88A4.74,4.74,0,0,0,18.41,52a5.31,5.31,0,0,0,4.65,2.71h2.62A5,5,0,0,0,25.15,57a5.57,5.57,0,0,0,.08.9,5.29,5.29,0,0,0,5.16,4.2h2.66a5,5,0,0,0-.45,3.17,5.2,5.2,0,0,0,5.15,4.2h10a5,5,0,0,0-.45,3.17,5.2,5.2,0,0,0,5.16,4.19H70.36l-1,6.37a1.79,1.79,0,0,1,0,.23v1.45a1.36,1.36,0,0,0,1.44,1.34.88.88,0,0,1,.88.89v1.74a1.45,1.45,0,0,0,1.44,1.44h2.69a1.44,1.44,0,0,0,1.43-1.41l0-1.77a.88.88,0,0,1,.88-.89,1.36,1.36,0,0,0,1.43-1.34V83.42c0-.08,0-.15,0-.23l-1-6.37H96.43a5.26,5.26,0,0,0,3.88-1.68l.1-.1a5,5,0,0,0,1.18-2.41,3.88,3.88,0,0,0,.07-.75,4.91,4.91,0,0,0-.52-2.42h10a5.2,5.2,0,0,0,5.15-4.2,5,5,0,0,0-.45-3.17h2.66a5.2,5.2,0,0,0,5.12-4,1.16,1.16,0,0,0,0-.18,5.1,5.1,0,0,0-.45-3.16h2.62a5.21,5.21,0,0,0,5.23-4.49,5,5,0,0,0-.48-2.88h2.64A5.33,5.33,0,0,0,137,45.78a5,5,0,0,0,1.49-3.57A5,5,0,0,0,137,38.63Zm-3,5.74a2.21,2.21,0,0,1-.76.13H89.75a13.1,13.1,0,0,0,.68-1.59,2.94,2.94,0,0,1,.26-.57A4.35,4.35,0,0,1,94.47,40h38.91a2.24,2.24,0,0,1,1.6.67,2.21,2.21,0,0,1,.65,1.43.61.61,0,0,1,0,.14,2.16,2.16,0,0,1-.66,1.53A2.42,2.42,0,0,1,134,44.37ZM98.8,71.93c0,.06,0,.12,0,.17A2.36,2.36,0,0,1,96.46,74H79.57V71.61a2.16,2.16,0,0,1,2.16-2.15H96.56a2.25,2.25,0,0,1,2.24,2.42ZM76.71,83.63a3.82,3.82,0,0,0-2,2.07V81.6a1,1,0,0,0,.78-1.32,1,1,0,0,0-.69-.67,1,1,0,1,0-.49,2v4.11a3.8,3.8,0,0,0-2.05-2.08l.94-6.15h2.62l.94,6ZM13.94,43.76a2.16,2.16,0,0,1-.66-1.53v0A2.27,2.27,0,0,1,14,40.65,2.22,2.22,0,0,1,15.53,40H54.45a4.3,4.3,0,0,1,3.79,2.35,3.64,3.64,0,0,1,.25.57,13.1,13.1,0,0,0,.68,1.59H15.67A2.44,2.44,0,0,1,13.94,43.76Zm58.27-1.51A2.24,2.24,0,0,1,74.37,40h.31a2.32,2.32,0,0,1,2,2.34V66.59h-4.5Zm4.5,27.21V74h-4.5v-4.5ZM91.44,57a1.55,1.55,0,0,1,0,.21,2.32,2.32,0,0,1-2.34,2H79.57v-4.5h9.62A2.25,2.25,0,0,1,91.44,57Zm-11.87,5.1h2.26a2.24,2.24,0,0,1,2.24,2.25,1.77,1.77,0,0,1,0,.23,2.31,2.31,0,0,1-2.34,2H79.57Zm14.74-5V57a2.16,2.16,0,0,1,2.15-2.22h22.19A2.24,2.24,0,0,1,120.9,57v.06a.76.76,0,0,1,0,.15,2.32,2.32,0,0,1-2.34,2H93.78A5.15,5.15,0,0,0,94.31,57.05Zm-8.65-7.84,0,0c.24-.17.48-.35.71-.54l0,0a0,0,0,0,0,0,0c.23-.19.46-.39.68-.6s.44-.43.65-.66h8.8a2.22,2.22,0,0,1,1.59.66,2.26,2.26,0,0,1,.66,1.53v.08a2.32,2.32,0,0,1-2.35,2.23H79.57v-.34c.31,0,.62-.08.92-.14h0a13.07,13.07,0,0,0,4.54-1.77C85.26,49.49,85.46,49.35,85.66,49.21ZM62.51,66.59H37.63a2.26,2.26,0,0,1-2.25-2.27,1.34,1.34,0,0,1,0-.2,2.33,2.33,0,0,1,2.34-2h22A2.23,2.23,0,0,1,62,64.32v0A5,5,0,0,0,62.51,66.59ZM47.78,51.86H23a2.35,2.35,0,0,1-2.34-2.08,1,1,0,0,1,0-.17,2.25,2.25,0,0,1,2.25-2.25H45a2.23,2.23,0,0,1,2.22,2.23v0a1,1,0,0,0,0,.17A4.85,4.85,0,0,0,47.78,51.86Zm21.56,7.37H59.73A2.25,2.25,0,0,1,57.48,57a1.85,1.85,0,0,1,0-.23,2.31,2.31,0,0,1,2.34-2h9.51Zm0,7.36H67.09a2.25,2.25,0,0,1-2.25-2.25,1.62,1.62,0,0,1,0-.22,2.33,2.33,0,0,1,2.34-2h2.15ZM50.12,71.48a2.32,2.32,0,0,1,2.34-2H67.09a2.25,2.25,0,0,1,2.25,2.25V74h-17a2.26,2.26,0,0,1-2.21-1.86A2.12,2.12,0,0,1,50.12,71.48ZM64,49.72h0a13.19,13.19,0,0,0,4.35,1.65h0c.3.06.61.1.91.14v.34H52.46a2.34,2.34,0,0,1-2.35-2.25v0A2.25,2.25,0,0,1,50.78,48a2.18,2.18,0,0,1,1.58-.66h8.8a13.25,13.25,0,0,0,1.33,1.27h0l0,0a5.15,5.15,0,0,0,.7.53l0,0,.6.39ZM28,57a1.93,1.93,0,0,1,0-.24,2.31,2.31,0,0,1,2.34-2H52.46a2.14,2.14,0,0,1,2.15,2.15v.17a5.15,5.15,0,0,0,.53,2.18H30.27A2.26,2.26,0,0,1,28,57.05Zm85.51,7.58a2.32,2.32,0,0,1-2.34,2H86.41a5,5,0,0,0,.53-2.25v0a2.17,2.17,0,0,1,2.15-2.23h22.2a2.26,2.26,0,0,1,2.25,2.23A2.18,2.18,0,0,1,113.53,64.57ZM101.14,51.86a4.85,4.85,0,0,0,.52-2.08,1,1,0,0,0,0-.17v0a2.18,2.18,0,0,1,2.15-2.22H126a2.25,2.25,0,0,1,2.25,2.27.76.76,0,0,1,0,.15,2.32,2.32,0,0,1-2.34,2.08Z"/><path class="cls-3" d="M29.63,76.92a1.25,1.25,0,0,1,0,1.77,1.3,1.3,0,0,1-.69.35,49.5,49.5,0,0,1-2.63-5.9l1.54-1.55a1.26,1.26,0,0,1,1.78,0,1.26,1.26,0,0,1,0,1.78l-1.78,1.77Z"/><path class="cls-3" d="M97.33,11.39a1.26,1.26,0,0,1-1.78,0L93.78,9.61,92,11.39a1.26,1.26,0,0,1-1.77-1.78L92,7.84l-1.29-1.3a51.1,51.1,0,0,1,6,2.43l0,0,.63.62A1.26,1.26,0,0,1,97.33,11.39Z"/><path class="cls-3" d="M102.92,98.18l1.77-1.78a1.25,1.25,0,0,0,0-1.77h0a1.25,1.25,0,0,0-1.77,0l-1.78,1.77-1.77-1.77a1.26,1.26,0,0,0-1.78,0h0a1.25,1.25,0,0,0,0,1.77l1.78,1.78L97.59,100a1.26,1.26,0,0,0,1.78,1.78l1.77-1.78,1.78,1.78a1.26,1.26,0,1,0,1.77-1.78Z"/><path class="cls-3" d="M53.47,23.29l1.78-1.78a1.25,1.25,0,0,0,0-1.77h0a1.26,1.26,0,0,0-1.78,0L51.7,21.51l-1.78-1.77a1.26,1.26,0,0,0-1.78,0h0a1.25,1.25,0,0,0,0,1.77l1.78,1.78-1.78,1.77a1.26,1.26,0,0,0,1.78,1.78l1.78-1.78,1.77,1.78a1.26,1.26,0,0,0,1.78-1.78Z"/><circle class="cls-3" cx="51.7" cy="3.92" r="3.92"/><path class="cls-3" d="M114.71,25.39h-3.43a.58.58,0,0,1-.5-.88l1.71-3,1.71-3a.58.58,0,0,1,1,0l1.72,3,1.71,3a.59.59,0,0,1-.51.88Z"/><path class="cls-3" d="M81.56,28.94H78.14a.59.59,0,0,1-.51-.88l1.71-3,1.71-3a.59.59,0,0,1,1,0l1.71,3,1.71,3a.59.59,0,0,1-.51.88Z"/><path class="cls-3" d="M124.33,78.69h-6.85a.59.59,0,0,1-.51-.88l.56-1,1.16-2,1.71-3a0,0,0,0,1,0,0,.57.57,0,0,1,1,0,0,0,0,0,1,0,0l1,1.75c-.41,1.09-.86,2.15-1.35,3.2h3.2l.56,1A.58.58,0,0,1,124.33,78.69Z"/><path class="cls-3" d="M27,35.29H23.52a.58.58,0,0,1-.5-.88l1.71-3,1.71-3a.58.58,0,0,1,1,0l1.71,3,1.71,3a.58.58,0,0,1-.5.88Z"/><path class="cls-3" d="M46.61,101.73H43.19a.58.58,0,0,1-.51-.88l1.71-3,1.71-3a.58.58,0,0,1,1,0l1.72,3,1.71,3a.59.59,0,0,1-.51.88Z"/></g></g></svg>