<svg xmlns="http://www.w3.org/2000/svg" width="117.749" height="117.74" viewBox="0 0 117.749 117.74">
  <path id="Path_99" data-name="Path 99" d="M116.455,11.743a3.08,3.08,0,0,0-2.791-.427l-7.079,2.357V3.1A3.1,3.1,0,0,0,102.507.16l-29.385,9.8V3.1A3.1,3.1,0,0,0,69.044.16l-29.385,9.8V3.1A3.1,3.1,0,0,0,35.581.16L2.119,11.316A3.1,3.1,0,0,0,0,14.252v89.239A3.087,3.087,0,0,0,1.287,106a3.124,3.124,0,0,0,1.815.586,3.03,3.03,0,0,0,.976-.159l7.079-2.357v10.571a3.1,3.1,0,0,0,4.078,2.943l29.385-9.8v6.855a3.1,3.1,0,0,0,4.078,2.943l29.392-9.8v6.855a3.1,3.1,0,0,0,3.095,3.1,3.289,3.289,0,0,0,.983-.159l33.463-11.157a3.1,3.1,0,0,0,2.119-2.936V14.252a3.1,3.1,0,0,0-1.294-2.509Zm-27.1,32.8v49.24L73.122,99.189V49.949ZM66.94,90.093l-27.281,9.1V49.949L66.926,40.86ZM100.4,17.961V90.093l-4.837,1.612V40.238A3.095,3.095,0,0,0,91.488,37.3l-7.137,2.379V12.748L100.4,7.4ZM78.155,14.809V41.742L73.137,43.42V16.486ZM66.926,7.4V34.331L39.659,43.42V16.486Zm-33.463,0V34.331L6.2,43.42V16.486ZM6.2,49.949,33.463,40.86V90.1l-13.63,4.548L6.2,99.189Z" transform="translate(0 -0.002)" fill="#fff"/>
</svg>
