<svg xmlns="http://www.w3.org/2000/svg" viewBox="0 0 98.65 27.05"><defs><style>.cls-1{fill:#01877c;}</style></defs><title>bckgrnd2</title><g id="Layer_2" data-name="Layer 2"><g id="Layer_1-2" data-name="Layer 1"><path class="cls-1" d="M0,11.27H0a2.25,2.25,0,0,0,2.25,2.25H29.42a2.26,2.26,0,0,1,2.25,2.26h0A2.26,2.26,0,0,0,33.93,18H45.87a2.26,2.26,0,0,1,2.26,2.25h0a2.26,2.26,0,0,1-2.26,2.26H15.37a2.26,2.26,0,0,0-2.26,2.25h0a2.26,2.26,0,0,0,2.26,2.26H90.52a2.26,2.26,0,0,0,2.26-2.26h0a2.26,2.26,0,0,0-2.26-2.25H75.08a2.26,2.26,0,0,1-2.26-2.26h0A2.25,2.25,0,0,0,70.57,18H62.64a2.26,2.26,0,0,1-2.26-2.25h0a2.26,2.26,0,0,1,2.26-2.26H96.4a2.25,2.25,0,0,0,2.25-2.25h0A2.25,2.25,0,0,0,96.4,9H56.94a2.26,2.26,0,0,1-2.26-2.26h0a2.26,2.26,0,0,1,2.26-2.25H67.72A2.26,2.26,0,0,0,70,2.25h0A2.25,2.25,0,0,0,67.72,0H23.94a2.26,2.26,0,0,0-2.26,2.25h0a2.26,2.26,0,0,0,2.26,2.26H36.36a2.25,2.25,0,0,1,2.25,2.25h0A2.25,2.25,0,0,1,36.36,9H2.25A2.25,2.25,0,0,0,0,11.27Z"/></g></g></svg>