<svg xmlns="http://www.w3.org/2000/svg" viewBox="0 0 80.88 27.05"><defs><style>.cls-1{fill:#01877c;}</style></defs><title>bckgrnd_1</title><g id="Layer_2" data-name="Layer 2"><g id="Layer_1-2" data-name="Layer 1"><path class="cls-1" d="M80.88,15.78h0a2.26,2.26,0,0,0-2.26-2.26h-18a2.25,2.25,0,0,1-2.25-2.25h0A2.24,2.24,0,0,1,60.62,9h4.14A2.26,2.26,0,0,0,67,6.76h0a2.25,2.25,0,0,1,2.25-2.25h2.25a2.26,2.26,0,0,0,2.26-2.26h0A2.26,2.26,0,0,0,71.51,0H6.84A2.26,2.26,0,0,0,4.58,2.25h0A2.26,2.26,0,0,0,6.84,4.51h18a2.26,2.26,0,0,1,2.26,2.25h0A2.26,2.26,0,0,1,24.88,9H13.11a2.25,2.25,0,0,0-2.26,2.25h0a2.26,2.26,0,0,0,2.26,2.25H29.22a2.26,2.26,0,0,1,2.26,2.26h0A2.26,2.26,0,0,1,29.22,18h-27A2.25,2.25,0,0,0,0,20.28H0a2.26,2.26,0,0,0,2.25,2.26H35.32a2.25,2.25,0,0,1,2.25,2.25h0a2.26,2.26,0,0,0,2.26,2.26H71.51a2.26,2.26,0,0,0,2.26-2.26h0a2.26,2.26,0,0,0-2.26-2.25h-6.2a2.26,2.26,0,0,1-2.25-2.26h0A2.25,2.25,0,0,1,65.31,18H78.62A2.26,2.26,0,0,0,80.88,15.78Z"/></g></g></svg>