<svg xmlns="http://www.w3.org/2000/svg" viewBox="0 0 1366 487"><defs><style>.cls-1{fill:#fff;}.cls-2{font-size:19.28px;font-family:Manrope-Semibold, Manrope;font-weight:600;}.cls-3{fill:#404040;}.cls-4{font-family:Manrope-Thin, Manrope;font-weight:200;}.cls-5{letter-spacing:0em;}.cls-6{letter-spacing:-0.02em;}.cls-7{fill:#007a80;}</style></defs><title>anchor</title><g id="Layer_2" data-name="Layer 2"><g id="Layer_1-2" data-name="Layer 1"><rect class="cls-1" width="1366" height="487"/><text class="cls-2" transform="translate(47.01 439.96)">05<tspan class="cls-3" x="24.6" y="0"> </tspan><tspan class="cls-4" x="28.62" y="0">|</tspan><tspan class="cls-5" x="33.07" y="0" xml:space="preserve"> Anchor Appa</tspan><tspan class="cls-6" x="160.93" y="0">r</tspan><tspan x="169.19" y="0">el</tspan></text><path class="cls-7" d="M769.7,248.8a12.57,12.57,0,0,0-12.9,10.63c-2.34,15.72-8.58,27.65-18.61,35.56-10.4,8.18-23.35,10.9-34,11.52A14.48,14.48,0,0,1,689,292V167.32a1.63,1.63,0,0,1,1.62-1.62h13.77a6.41,6.41,0,1,0-.12-6.42H690.58a1.62,1.62,0,0,1-1.62-1.62V129.59a3.49,3.49,0,0,1,2.19-3.28,22.43,22.43,0,1,0-16.33,0,3.52,3.52,0,0,1,2.22,3.29v28.07a1.62,1.62,0,0,1-1.62,1.62H661.77a6.44,6.44,0,0,0-5.42-3.3,6.51,6.51,0,0,0-6.61,6.31,6.41,6.41,0,0,0,11.91,3.41h13.77a1.63,1.63,0,0,1,1.62,1.62V292a14.49,14.49,0,0,1-15.25,14.5c-10.58-.62-23.5-3.32-33.92-11.51-10.07-7.91-16.33-19.85-18.68-35.6A12.56,12.56,0,0,0,596.3,248.8h0c.87,25,9,43.68,24.2,55.61,14.87,11.67,33.22,14.21,46.42,14.21h.18a6.92,6.92,0,0,1,6,3.69,11.24,11.24,0,0,0,19.74,0,6.92,6.92,0,0,1,6-3.69h.18c13.19,0,31.55-2.54,46.41-14.21,15.2-11.93,23.34-30.64,24.21-55.61ZM670.6,107.05a12.5,12.5,0,1,1,10.77,10.77A12.51,12.51,0,0,1,670.6,107.05Z"/><path class="cls-7" d="M558.28,386.27l17.1-41.93,17.11,41.93h-6.24L585,383H565.83l-1.31,3.32Zm9.61-8.7h15l-7.5-19.21Z"/><path class="cls-7" d="M607.3,386.44h-5.78V343.71l27.11,32.43V344.46h5.78v42h-5.6L607.3,360Z"/><path class="cls-7" d="M664.15,380.55a13.27,13.27,0,0,0,6.72-1.75,14.62,14.62,0,0,0,5-4.66l5,3.72a21.1,21.1,0,0,1-7.18,6.18,20.11,20.11,0,0,1-9.53,2.28,19.9,19.9,0,0,1-8.06-1.65,21.29,21.29,0,0,1-6.58-4.49,21.05,21.05,0,0,1-4.43-6.64,21.19,21.19,0,0,1,0-16.3,20.9,20.9,0,0,1,4.43-6.63,21.14,21.14,0,0,1,6.58-4.5,19.9,19.9,0,0,1,8.06-1.65,20.11,20.11,0,0,1,9.53,2.28,21.1,21.1,0,0,1,7.18,6.18l-5,3.72a14.62,14.62,0,0,0-5-4.66,13.27,13.27,0,0,0-6.72-1.75,13.12,13.12,0,0,0-5.57,1.2,14.65,14.65,0,0,0-4.55,3.26,15.75,15.75,0,0,0-3.09,4.81,15.79,15.79,0,0,0,0,11.78,15.75,15.75,0,0,0,3.09,4.81,14.81,14.81,0,0,0,4.55,3.26A13.12,13.12,0,0,0,664.15,380.55Z"/><path class="cls-7" d="M712.31,344.4h6.12v41.87h-6.12v-13H696v13h-6.12V344.4H696v23.51h16.3V344.4Z"/><path class="cls-7" d="M748.35,344.23a20.35,20.35,0,0,1,8.18,1.66,21.07,21.07,0,0,1,12.75,19.5,20.6,20.6,0,0,1-1.63,8.18,20.94,20.94,0,0,1-11.12,11.21,20.35,20.35,0,0,1-8.18,1.66,20.07,20.07,0,0,1-8.15-1.66,21,21,0,0,1-11.1-11.21,20.6,20.6,0,0,1-1.63-8.18,21,21,0,0,1,12.73-19.5A20.07,20.07,0,0,1,748.35,344.23Zm0,36.32a13.52,13.52,0,0,0,5.63-1.2,14.73,14.73,0,0,0,4.63-3.25,15.12,15.12,0,0,0,3.12-4.81,15.32,15.32,0,0,0,1.15-5.9,15.72,15.72,0,0,0-4.27-10.8,14.47,14.47,0,0,0-4.63-3.27,13.52,13.52,0,0,0-5.63-1.2,13.33,13.33,0,0,0-5.61,1.2,14.57,14.57,0,0,0-4.6,3.27,15.66,15.66,0,0,0-4.26,10.8,15.31,15.31,0,0,0,1.14,5.9,15.12,15.12,0,0,0,3.12,4.81,14.83,14.83,0,0,0,4.6,3.25A13.33,13.33,0,0,0,748.35,380.55Z"/><path class="cls-7" d="M807.15,363.39a15,15,0,0,1-2.38,4.63,14.37,14.37,0,0,1-3.86,3.49.7.7,0,0,1-.29.17.88.88,0,0,0-.28.17l7.38,14.53h-6.47l-6.46-12.64c-.46.08-.92.13-1.37.17s-1,.06-1.49.06h-7.49v12.41h-6.12v-42h13.61a17.09,17.09,0,0,1,4.83.66,17.42,17.42,0,0,1,4.15,1.8,14.3,14.3,0,0,1,6.24,8.18,5,5,0,0,0,.11.51,3.47,3.47,0,0,0,.17.52v.29a1.81,1.81,0,0,1,.14.62q0,.34.09.69v.06a4,4,0,0,1,.06.69V360a3.91,3.91,0,0,1-.06.68v.12c0,.23-.07.45-.09.65a2.3,2.3,0,0,1-.14.66v.23A4.73,4.73,0,0,0,807.15,363.39Zm-14.48,5.2a7.48,7.48,0,0,0,3.47-.8,8.89,8.89,0,0,0,2.71-2.12,10.93,10.93,0,0,0,1.83-3,9.3,9.3,0,0,0,0-7,10.24,10.24,0,0,0-1.83-3,9.31,9.31,0,0,0-2.71-2.1,7.6,7.6,0,0,0-3.47-.8h-8.18v18.87Z"/><path class="cls-7" d="M631.26,404h-1.32l-1.28-2.88h-5.94L621.43,404h-1.27l5-11h1.15Zm-5.56-9.54L623.2,400h5Z"/><path class="cls-7" d="M650.59,398.12a3.3,3.3,0,0,1-.93,1.13,4,4,0,0,1-1.36.67,5.58,5.58,0,0,1-1.65.23H644V404h-1.24V393.09h4.09a5.48,5.48,0,0,1,1.67.24,3.75,3.75,0,0,1,1.3.69,2.86,2.86,0,0,1,.82,1.09,3.43,3.43,0,0,1,.29,1.46A3.31,3.31,0,0,1,650.59,398.12Zm-1.69-3.29a3.5,3.5,0,0,0-2.14-.6H644V399h2.7a4.3,4.3,0,0,0,1.23-.17,3,3,0,0,0,1-.49,2.15,2.15,0,0,0,.61-.77,2.25,2.25,0,0,0,.21-1A2.09,2.09,0,0,0,648.9,394.83Z"/><path class="cls-7" d="M670.35,398.12a3.39,3.39,0,0,1-.92,1.13,4.07,4.07,0,0,1-1.37.67,5.58,5.58,0,0,1-1.65.23h-2.65V404h-1.23V393.09h4.08a5.59,5.59,0,0,1,1.68.24,3.8,3.8,0,0,1,1.29.69,3,3,0,0,1,.83,1.09,3.59,3.59,0,0,1,.29,1.46A3.31,3.31,0,0,1,670.35,398.12Zm-1.69-3.29a3.49,3.49,0,0,0-2.13-.6h-2.77V399h2.7a4.3,4.3,0,0,0,1.23-.17,2.94,2.94,0,0,0,.95-.49,2.15,2.15,0,0,0,.61-.77,2.25,2.25,0,0,0,.21-1A2.06,2.06,0,0,0,668.66,394.83Z"/><path class="cls-7" d="M691.36,404H690l-1.28-2.88h-5.94L681.53,404h-1.26l5-11h1.15Zm-5.56-9.54L683.31,400h5Z"/><path class="cls-7" d="M710.38,404l-3.16-4.24H704.1V404h-1.23V393.09h4.69a5.53,5.53,0,0,1,1.63.23,3.79,3.79,0,0,1,1.24.67,2.87,2.87,0,0,1,.79,1,3,3,0,0,1,.28,1.33,3.12,3.12,0,0,1-.22,1.22,2.82,2.82,0,0,1-.61.94,3.65,3.65,0,0,1-.95.66,4.41,4.41,0,0,1-1.18.38l3.35,4.45Zm-.84-9.2a3.31,3.31,0,0,0-2.07-.57H704.1v4.44h3.36a3.65,3.65,0,0,0,1.12-.16,2.65,2.65,0,0,0,.89-.44,2.12,2.12,0,0,0,.59-.71,2.15,2.15,0,0,0,.21-1A1.93,1.93,0,0,0,709.54,394.8Z"/><path class="cls-7" d="M731.37,394.21h-6.65v3.73h5.95v1.12h-5.95v3.82h6.73V404h-8V393.09h7.88Z"/><path class="cls-7" d="M743.28,393.09h1.23v9.77h6.15V404h-7.38Z"/></g></g></svg>