<svg xmlns="http://www.w3.org/2000/svg" viewBox="0 0 1366 487"><defs><style>.cls-1{fill:#fff;}.cls-2{font-size:19.28px;font-family:Manrope-Semibold, Manrope;font-weight:600;}.cls-3{fill:#404040;}.cls-4{font-family:Manrope-Thin, Manrope;font-weight:200;}.cls-5{letter-spacing:-0.01em;}.cls-6{letter-spacing:0em;}.cls-7{fill:#68b32e;}.cls-8{fill:#86ad2a;}.cls-9{fill:#9fa427;}.cls-10{fill:#b29825;}.cls-11{fill:#c38823;}.cls-12{fill:#d07622;}.cls-13{fill:#dc5f1f;}.cls-14{fill:#e6401e;}.cls-15{fill:#c53917;}.cls-16{fill:#a53211;}</style></defs><title>deadbeat</title><g id="Layer_2" data-name="Layer 2"><g id="Layer_1-2" data-name="Layer 1"><rect class="cls-1" width="1366" height="487"/><text class="cls-2" transform="translate(47.01 439.96)">04<tspan class="cls-3" x="24.98" y="0"> </tspan><tspan class="cls-4" x="29" y="0">|</tspan><tspan x="33.46" y="0" xml:space="preserve"> D</tspan><tspan class="cls-5" x="51.35" y="0">e</tspan><tspan class="cls-6" x="63.12" y="0">adb</tspan><tspan class="cls-5" x="99.52" y="0">e</tspan><tspan class="cls-6" x="111.29" y="0">at</tspan></text><rect class="cls-7" x="672.36" y="360.71" width="21.29" height="21.29"/><rect class="cls-7" x="625.86" y="360.71" width="21.29" height="21.29"/><rect class="cls-7" x="718.85" y="360.71" width="21.29" height="21.29"/><rect class="cls-7" x="625.86" y="337.47" width="21.29" height="21.29"/><rect class="cls-7" x="649.11" y="337.47" width="21.29" height="21.29"/><rect class="cls-7" x="672.36" y="337.47" width="21.29" height="21.29"/><rect class="cls-7" x="695.6" y="337.47" width="21.29" height="21.29"/><rect class="cls-7" x="718.85" y="337.47" width="21.29" height="21.29"/><rect class="cls-7" x="579.37" y="314.22" width="21.29" height="21.29"/><rect class="cls-7" x="602.62" y="314.22" width="21.29" height="21.29"/><rect class="cls-7" x="625.86" y="314.22" width="21.29" height="21.29"/><rect class="cls-7" x="649.11" y="314.22" width="21.29" height="21.29"/><rect class="cls-7" x="695.6" y="314.22" width="21.29" height="21.29"/><rect class="cls-7" x="718.85" y="314.22" width="21.29" height="21.29"/><rect class="cls-7" x="742.1" y="314.22" width="21.29" height="21.29"/><rect class="cls-7" x="765.34" y="314.22" width="21.29" height="21.29"/><rect class="cls-8" x="579.37" y="290.97" width="21.29" height="21.29"/><rect class="cls-8" x="602.62" y="290.97" width="21.29" height="21.29"/><rect class="cls-8" x="625.86" y="290.97" width="21.29" height="21.29"/><rect class="cls-8" x="649.11" y="290.97" width="21.29" height="21.29"/><rect class="cls-8" x="672.36" y="290.97" width="21.29" height="21.29"/><rect class="cls-8" x="695.6" y="290.97" width="21.29" height="21.29"/><rect class="cls-8" x="718.85" y="290.97" width="21.29" height="21.29"/><rect class="cls-8" x="742.1" y="290.97" width="21.29" height="21.29"/><rect class="cls-8" x="765.34" y="290.97" width="21.29" height="21.29"/><rect class="cls-9" x="556.12" y="267.73" width="21.29" height="21.29"/><rect class="cls-9" x="579.37" y="267.73" width="21.29" height="21.29"/><rect class="cls-9" x="649.11" y="267.73" width="21.29" height="21.29"/><rect class="cls-9" x="672.36" y="267.73" width="21.29" height="21.29"/><rect class="cls-9" x="695.6" y="267.73" width="21.29" height="21.29"/><rect class="cls-9" x="765.34" y="267.73" width="21.29" height="21.29"/><rect class="cls-9" x="788.59" y="267.73" width="21.29" height="21.29"/><rect class="cls-10" x="556.12" y="244.48" width="21.29" height="21.29"/><rect class="cls-10" x="579.37" y="244.48" width="21.29" height="21.29"/><rect class="cls-10" x="672.36" y="244.48" width="21.29" height="21.29"/><rect class="cls-10" x="765.34" y="244.48" width="21.29" height="21.29"/><rect class="cls-10" x="788.59" y="244.48" width="21.29" height="21.29"/><rect class="cls-11" x="556.12" y="221.23" width="21.29" height="21.29"/><rect class="cls-11" x="579.37" y="221.23" width="21.29" height="21.29"/><rect class="cls-11" x="602.62" y="221.23" width="21.29" height="21.29"/><rect class="cls-11" x="672.36" y="221.23" width="21.29" height="21.29"/><rect class="cls-11" x="765.34" y="221.23" width="21.29" height="21.29"/><rect class="cls-11" x="788.59" y="221.23" width="21.29" height="21.29"/><rect class="cls-12" x="579.37" y="197.99" width="21.29" height="21.29"/><rect class="cls-12" x="602.62" y="197.99" width="21.29" height="21.29"/><rect class="cls-12" x="625.86" y="197.99" width="21.29" height="21.29"/><rect class="cls-12" x="649.11" y="197.99" width="21.29" height="21.29"/><rect class="cls-12" x="672.36" y="197.99" width="21.29" height="21.29"/><rect class="cls-12" x="695.6" y="197.99" width="21.29" height="21.29"/><rect class="cls-12" x="718.85" y="197.99" width="21.29" height="21.29"/><rect class="cls-12" x="765.34" y="197.99" width="21.29" height="21.29"/><rect class="cls-13" x="579.37" y="174.74" width="21.29" height="21.29"/><rect class="cls-13" x="602.62" y="174.74" width="21.29" height="21.29"/><rect class="cls-13" x="625.86" y="174.74" width="21.29" height="21.29"/><rect class="cls-13" x="672.36" y="174.74" width="21.29" height="21.29"/><rect class="cls-13" x="695.6" y="174.74" width="21.29" height="21.29"/><rect class="cls-13" x="718.85" y="174.74" width="21.29" height="21.29"/><rect class="cls-13" x="765.34" y="174.74" width="21.29" height="21.29"/><rect class="cls-14" x="602.62" y="151.49" width="21.29" height="21.29"/><rect class="cls-14" x="625.86" y="151.49" width="21.29" height="21.29"/><rect class="cls-15" x="625.86" y="128.25" width="21.29" height="21.29"/><rect class="cls-15" x="695.6" y="128.25" width="21.29" height="21.29"/><rect class="cls-16" x="695.6" y="105" width="21.29" height="21.29"/><rect class="cls-14" x="695.6" y="151.49" width="21.29" height="21.29"/><rect class="cls-14" x="718.85" y="151.49" width="21.29" height="21.29"/></g></g></svg>