<svg xmlns="http://www.w3.org/2000/svg" viewBox="0 0 1366 487"><defs><style>.cls-1{fill:#fff;}.cls-2{font-size:19.28px;font-family:Manrope-Semibold, Manrope;font-weight:600;}.cls-3{fill:#404040;}.cls-4{font-family:Manrope-Thin, Manrope;font-weight:200;}.cls-5{letter-spacing:-0.03em;}.cls-6{fill:#df4136;}</style></defs><title>pizza</title><g id="Layer_2" data-name="Layer 2"><g id="Layer_1-2" data-name="Layer 1"><rect class="cls-1" width="1366" height="487"/><text class="cls-2" transform="translate(47.01 439.96)">06<tspan class="cls-3" x="25.36" y="0"> </tspan><tspan class="cls-4" x="29.38" y="0">|</tspan><tspan x="33.84" y="0" xml:space="preserve"> JJ Piz</tspan><tspan class="cls-5" x="90.95" y="0">z</tspan><tspan x="101.91" y="0">a</tspan></text><path class="cls-6" d="M767.13,181.37l13.31-20.76.14-.24a3.07,3.07,0,0,0-.93-4.23A177.62,177.62,0,0,0,685.31,128c-1.38,0-2.81,0-4.11,0a177.74,177.74,0,0,0-93.84,28.12,3.08,3.08,0,0,0-.92,4.25l13.13,20.51a150.7,150.7,0,0,0-67,118.27,9.75,9.75,0,0,0,2.66,7.14,9.52,9.52,0,0,0,6.93,3H823.78a9.53,9.53,0,0,0,6.94-3,9.75,9.75,0,0,0,2.66-7.14A150.78,150.78,0,0,0,767.13,181.37ZM593.28,159.68a171.6,171.6,0,0,1,88-25.52h3.92a172.13,172.13,0,0,1,39.28,4.94c-.08,1.68-.13,3.36-.1,5.06s.08,3.41.2,5.12.3,3.44.57,5.18c.77-1.58,1.45-3.17,2.06-4.78s1.19-3.22,1.7-4.84c.47-1.41.87-2.83,1.24-4.25a171.09,171.09,0,0,1,43.55,19.09L762,178c-.34-.21-.69-.4-1-.61-.71-.44-1.43-.86-2.16-1.29s-1.61-.93-2.43-1.39l-2.2-1.21-2.46-1.29-2.25-1.13c-.83-.41-1.67-.81-2.5-1.2l-2.29-1.06c-.84-.38-1.69-.74-2.54-1.11l-2.31-1c-.86-.35-1.72-.68-2.58-1s-1.56-.61-2.34-.89-1.74-.63-2.62-.93l-2.36-.8-2.66-.84c-.79-.24-1.58-.49-2.38-.72s-1.8-.5-2.7-.74-1.59-.43-2.39-.63-1.83-.44-2.75-.65-1.59-.38-2.39-.55-1.87-.38-2.81-.56l-2.37-.45c-1-.17-1.93-.32-2.89-.47-.78-.12-1.56-.26-2.34-.37-1-.14-2-.25-3-.37-.76-.09-1.51-.2-2.27-.28-1.05-.11-2.11-.19-3.16-.28-.71-.06-1.42-.14-2.13-.19-1.18-.08-2.36-.13-3.54-.18-.59,0-1.19-.08-1.78-.1-1.78-.06-3.56-.09-5.35-.09-1,0-2,0-3,0-.53,0-1.08,0-1.49,0h-.11l-1.49,0-1.15,0c-.87,0-1.74.09-2.6.15H673l-.47,0h-.17l-.42,0c-.87.06-1.75.14-2.72.22l-1.38.14-.68.07-1.4.14-.19,0-.17,0a2.06,2.06,0,0,0-.26,0l-.16,0c-.75.08-1.5.19-2.25.29l-.48.06-3.06.45-1.08.18c-1,.16-2.05.35-3.19.56l-.32.06-.34.07-.92.19-1.23.25-.15,0h0l.12,0-.24,0h0a40.91,40.91,0,0,0-2.3-4.88,53.43,53.43,0,0,0-4-6.38,51.91,51.91,0,0,0,.82,7.46,44.35,44.35,0,0,0,1.07,4.79l-1.65.41c-.32-.83-.66-1.66-1-2.48-.7-1.53-1.45-3-2.27-4.55s-1.65-3-2.56-4.44-1.85-2.92-2.9-4.33c.05,1.76.19,3.49.39,5.2s.45,3.4.74,5.07.63,3.34,1,5c.19.74.39,1.47.61,2.2l-2.13.66-1.38.44-.64.21c-.67.22-1.35.45-2,.68l-1.07.37-.11,0-1.38.5c-.83.3-1.66.62-2.44.92l-1.19.47-.89.35-.36.15c-.91.37-1.82.75-2.74,1.15l-.46.2,0,0-.15.06c-1,.43-1.91.85-2.84,1.28l-1.37.64-.46.22-.57.27-1.21.59q-.95.47-1.83.93l-.44.23-1.42.75c-.88.47-1.77.94-2.62,1.42-.61.34-1.22.68-1.82,1l-.76.42c-.81.47-1.62,1-2.39,1.43l-.36.2Zm159.19,19.93.85.47c.78.43,1.55.87,2.32,1.32l2.08,1.24.93.58-2.85,4.45A11.75,11.75,0,0,0,752.47,179.61Zm.59,8.21a9.06,9.06,0,1,1-9-9.06A9.06,9.06,0,0,1,753.06,187.82ZM681.65,177.7a13.3,13.3,0,0,1-4.22-3.61,3.21,3.21,0,0,1-.54-2.87,5.11,5.11,0,0,1,1.22-1.42,12.4,12.4,0,0,1,5.73-3.18,11.55,11.55,0,0,1,6.41,1,36.49,36.49,0,0,1,6,3.58,1.69,1.69,0,0,0,.48.25c2.57,1.9,8.3,7,8.29,11.27-.46,2.84-1.6,6.3-2.69,7.6-2.62-.27-6.16-1.19-7.07-2.63a2.42,2.42,0,0,0-2.66-1.07,2.45,2.45,0,0,0-1.86,2.18,36.3,36.3,0,0,1-1.72,8.71l-7.4-5.36-7.75-5.63A53.21,53.21,0,0,1,681.5,182a2.47,2.47,0,0,0,.15-4.31ZM556.27,287.27a45,45,0,0,0,5,.56c-.09.56-.16,1.12-.24,1.68-.91,0-1.83.09-2.75.16-1.68.16-3.36.36-5,.66s-3.36.58-5,1-3.36.8-5,1.33c1.68.53,3.36,1,5,1.33s3.36.69,5,1,3.36.49,5,.65c.69.06,1.38.1,2.06.13-.2,2.47-.34,4.95-.4,7.44H542.21a3.4,3.4,0,0,1-2.48-1.06,3.53,3.53,0,0,1-1-2.62,143.63,143.63,0,0,1,12.77-52.94c1.32.41,2.68.74,4.05,1a52.76,52.76,0,0,0,7.43,1.09,54.31,54.31,0,0,0-6.23-4.19c-1.12-.65-2.25-1.27-3.4-1.83a144.83,144.83,0,0,1,49.5-56.54l11.51,18q-2.77,1.86-5.41,3.86a36.28,36.28,0,0,0-6-3.75,54.5,54.5,0,0,0-6.87-3,51.84,51.84,0,0,0,4.89,5.69,39,39,0,0,0,4.32,3.93L604,211.85q-1.37-1-2.79-1.89c-1.44-.87-2.91-1.71-4.44-2.47s-3-1.53-4.62-2.23-3.17-1.36-4.84-1.94q1.56,2.13,3.26,4.07c1.12,1.3,2.29,2.56,3.47,3.77s2.41,2.4,3.66,3.54c.51.44,1,.88,1.56,1.31a122.23,122.23,0,0,0-37.2,67.35,40.28,40.28,0,0,0-5.78.58,53.6,53.6,0,0,0-7.32,1.67A55.08,55.08,0,0,0,556.27,287.27Zm44.92,15.86H587.82a1.16,1.16,0,0,0-2.1,0h-8.86c0-.22,0-.44,0-.66a12.19,12.19,0,0,1,24.38,0C601.21,302.69,601.2,302.91,601.19,303.13Zm3.69,0c0-.22,0-.44,0-.66a15.88,15.88,0,1,0-31.76,0c0,.22,0,.44,0,.66h-7.06A116.37,116.37,0,0,1,617.7,209.2l5.73,8.93a11.18,11.18,0,0,0-8.35-3.76,10.74,10.74,0,0,0-2.49.28A11.2,11.2,0,1,0,624,232.39a11.15,11.15,0,0,0,1.41-11.22l36.33,56.7a.56.56,0,0,1,0,.08l4.73,7.38,4.4,6.86,0,.06,7,10.88Zm18.8-77.55a8.61,8.61,0,0,1-8.6,8.6,8.6,8.6,0,0,1-1-17.15c.31,0,.63-.05,1-.05A8.61,8.61,0,0,1,623.68,225.58Zm59.82,74.93L676.13,289l0-.08-2.85-4.43L667,274.75c0-.05,0-.1-.08-.14l-58.85-91.83c.34-.21.68-.43,1-.63l1.23-.73c1.23-.72,2.46-1.43,3.71-2.11l1.15-.6c1.17-.63,2.35-1.25,3.54-1.84l.16-.08c1.4-.7,2.81-1.36,4.22-2l.81-.36c1.19-.54,2.39-1,3.6-1.56l.9-.37q2.16-.88,4.35-1.7l.26-.09a143.46,143.46,0,0,1,14.39-4.47l.13,0a145.66,145.66,0,0,1,14.58-2.89l.61-.09c1.55-.22,3.1-.41,4.66-.58l.47,0c3.26-.34,6.55-.57,9.85-.69h.44c1.56,0,3.13-.08,4.7-.09a17,17,0,0,0-8,4.34,9.25,9.25,0,0,0-2.41,3,7.94,7.94,0,0,0,1,7.66,13.82,13.82,0,0,0,2.37,2.66,39.54,39.54,0,0,0-5.32,3.48c-2.38,1.86-2.23,3.75-1.92,4.7a4.41,4.41,0,0,0,1.77,2.23l17.36,12.59a2.42,2.42,0,0,0,.86.4,3.58,3.58,0,0,0,3-.6c2-1.42,3.06-5.25,3.65-8.8a23.63,23.63,0,0,0,7.91,1.78,2.46,2.46,0,0,0,1.39-.36c3.88-2.33,5.27-10.09,5.51-11.62a1.63,1.63,0,0,0,0-.31c.24-8.05-9.74-15.14-10.87-15.93a2.65,2.65,0,0,0-.5-.26,37.87,37.87,0,0,0-6.44-3.73,18.68,18.68,0,0,0-3.59-1.15c.42,0,.83,0,1.25.06,1.13.06,2.26.1,3.39.18l2,.18c1,.08,2,.16,3,.27l2.16.26c1,.12,1.93.23,2.88.37.75.1,1.49.23,2.24.34.92.15,1.85.29,2.77.45l2.27.44c.9.17,1.8.34,2.7.54s1.53.34,2.29.52,1.76.4,2.64.62,1.52.4,2.28.61,1.74.46,2.6.71,1.52.45,2.28.69,1.7.52,2.55.8l2.26.77,2.51.88,2.25.86c.82.31,1.65.64,2.46,1s1.49.62,2.23.93l2.43,1.06,2.19,1,1.52.73a11.8,11.8,0,1,0-1.8,23.45,11.66,11.66,0,0,0,4.79-1l-8.29,12.94A28,28,0,1,0,714,252.93Zm36.27-56.6-1.6,2.5c-.71.07-1.42.12-2.15.12a21.49,21.49,0,1,1,20.31-28.47l-15.9,24.82-.66,1Zm-2.34,59.22a5.23,5.23,0,0,0-9.53,0h-5.27a21.47,21.47,0,0,1,42.8,0Zm34.52,0a28,28,0,0,0-55.83,0h-7l.56-.86,13-20.22a1.4,1.4,0,0,0,.1-.16l.62-1,21.75-34,14.81-23.09h0l9.1-14.2a116.55,116.55,0,0,1,50.9,93.46Zm74.32-1.06a3.42,3.42,0,0,1-2.49,1.06H806a122.92,122.92,0,0,0-11.47-49c.9-.57,1.78-1.18,2.65-1.81a53,53,0,0,0,5.79-4.78,52.34,52.34,0,0,0-7.28,1.81c-1,.32-2,.66-3,1-.29-.57-.59-1.13-.89-1.69.32-.19.65-.37,1-.57,1.43-.9,2.84-1.83,4.2-2.85s2.74-2,4.07-3.13,2.64-2.22,3.9-3.45q-2.6.44-5.09,1.08c-1.67.42-3.31.89-4.94,1.41s-3.22,1.07-4.79,1.68c-.43.17-.85.37-1.28.55a123.13,123.13,0,0,0-36.57-38.89L760,192.55l3.86-6a144.8,144.8,0,0,1,61.68,96.34c-.81.2-1.61.44-2.41.68-1.61.51-3.21,1.07-4.79,1.71s-3.15,1.29-4.72,2-3.11,1.5-4.64,2.37c1.75.16,3.49.22,5.21.23s3.43,0,5.13-.13,3.38-.23,5.06-.43c.67-.09,1.35-.19,2-.31.41,3.46.71,6.94.88,10.45A3.54,3.54,0,0,1,826.27,302.07Z"/><path class="cls-6" d="M706.82,235.32c-2.79,0-2.8,4.34,0,4.34S709.61,235.32,706.82,235.32Z"/><path class="cls-6" d="M704.65,220.16c-7,0-7,10.83,0,10.83S711.63,220.16,704.65,220.16Z"/><path class="cls-6" d="M720.89,227.2c-4.18,0-4.18,6.5,0,6.5S725.08,227.2,720.89,227.2Z"/><path class="cls-6" d="M720.89,211c-5.57,0-5.58,8.66,0,8.66S726.48,211,720.89,211Z"/><path class="cls-6" d="M728.91,290.84c-5.58,0-5.59,8.67,0,8.67S734.49,290.84,728.91,290.84Z"/><path class="cls-6" d="M652.29,179.41a16.7,16.7,0,0,0-27.88,8.25,16,16,0,0,0-.45,3.81,16.75,16.75,0,1,0,28.33-12.06ZM640.7,204.33a12.87,12.87,0,0,1-12.85-12.86,12.62,12.62,0,0,1,1.31-5.65,12.86,12.86,0,0,1,11.54-7.2,12.66,12.66,0,0,1,6.6,1.83,12.85,12.85,0,0,1-6.6,23.88Z"/><path class="cls-6" d="M635.2,197.63a1.3,1.3,0,0,0,0,2.59A1.3,1.3,0,0,0,635.2,197.63Z"/><path class="cls-6" d="M633.9,188.56c-4.17,0-4.18,6.48,0,6.48S638.08,188.56,633.9,188.56Z"/><path class="cls-6" d="M643.62,192.77c-2.5,0-2.51,3.89,0,3.89S646.13,192.77,643.62,192.77Z"/><path class="cls-6" d="M643.62,183.05c-3.34,0-3.34,5.18,0,5.18S647,183.05,643.62,183.05Z"/><path class="cls-6" d="M677.11,226.48a11.8,11.8,0,1,0-11.79,11.81A11.81,11.81,0,0,0,677.11,226.48Zm-11.79,9.07a9.07,9.07,0,1,1,9-9.07A9.08,9.08,0,0,1,665.32,235.55Z"/><path class="cls-6" d="M661.43,230.82a.92.92,0,0,0,0,1.83A.92.92,0,0,0,661.43,230.82Z"/><path class="cls-6" d="M660.51,224.43c-2.93,0-2.94,4.57,0,4.57S663.46,224.43,660.51,224.43Z"/><path class="cls-6" d="M667.37,227.4a1.37,1.37,0,0,0,0,2.74A1.37,1.37,0,0,0,667.37,227.4Z"/><path class="cls-6" d="M667.37,220.55a1.83,1.83,0,0,0,0,3.65A1.83,1.83,0,0,0,667.37,220.55Z"/><path class="cls-6" d="M740.12,192.16a.92.92,0,0,0,0,1.83A.92.92,0,0,0,740.12,192.16Z"/><path class="cls-6" d="M739.21,185.76c-2.94,0-3,4.57,0,4.57S742.15,185.76,739.21,185.76Z"/><path class="cls-6" d="M746.06,188.73a1.37,1.37,0,0,0,0,2.74A1.37,1.37,0,0,0,746.06,188.73Z"/><path class="cls-6" d="M746.06,181.88a1.83,1.83,0,0,0,0,3.65A1.83,1.83,0,0,0,746.06,181.88Z"/><path class="cls-6" d="M766.19,286.59A11.8,11.8,0,1,0,778,274.78,11.81,11.81,0,0,0,766.19,286.59Zm11.8-9.07a9.07,9.07,0,1,1-9.06,9.07A9.06,9.06,0,0,1,778,277.52Z"/><path class="cls-6" d="M774.1,290.92a.92.92,0,0,0,0,1.83A.92.92,0,0,0,774.1,290.92Z"/><path class="cls-6" d="M773.19,289.1c2.94,0,2.94-4.57,0-4.57S770.25,289.1,773.19,289.1Z"/><path class="cls-6" d="M780,287.5a1.37,1.37,0,0,0,0,2.74A1.37,1.37,0,0,0,780,287.5Z"/><path class="cls-6" d="M780,284.3a1.83,1.83,0,0,0,0-3.65A1.83,1.83,0,0,0,780,284.3Z"/><path class="cls-6" d="M611.39,229.7a.87.87,0,0,0,0,1.73A.87.87,0,0,0,611.39,229.7Z"/><path class="cls-6" d="M610.52,223.63c-2.79,0-2.8,4.33,0,4.33S613.31,223.63,610.52,223.63Z"/><path class="cls-6" d="M617,226.45a1.3,1.3,0,0,0,0,2.6A1.3,1.3,0,0,0,617,226.45Z"/><path class="cls-6" d="M617,219.94a1.74,1.74,0,0,0,0,3.47A1.74,1.74,0,0,0,617,219.94Z"/><path class="cls-6" d="M659.42,276.57a15.87,15.87,0,1,0,3.57,10,16.14,16.14,0,0,0-.17-2.32A15.76,15.76,0,0,0,659.42,276.57Zm-12.3,22.21a12.19,12.19,0,1,1,12.19-12.19A12.21,12.21,0,0,1,647.12,298.78Z"/><path class="cls-6" d="M644.86,289a1.23,1.23,0,0,0,0-2.46A1.23,1.23,0,0,0,644.86,289Z"/><path class="cls-6" d="M640.71,278c-4,0-4,6.15,0,6.15S644.67,278,640.71,278Z"/><path class="cls-6" d="M652.26,290.58a1.85,1.85,0,0,0,0,3.69A1.85,1.85,0,0,0,652.26,290.58Z"/><path class="cls-6" d="M646.05,291.81c-3.16,0-3.17,4.91,0,4.91S649.22,291.81,646.05,291.81Z"/><path class="cls-6" d="M582.61,293.86c-4,0-4,6.14,0,6.14S586.57,293.86,582.61,293.86Z"/><path class="cls-6" d="M693.58,271.52a1.62,1.62,0,0,0,0-.19c-.24-1.27-1.85-2.66-3.44-3.74a12.4,12.4,0,0,0,2.63-3.44,1.23,1.23,0,0,0,.15-.75c-.26-2.41-3.71-4.83-4.41-5.3l-.14-.07c-3.84-1.93-9.53,1.31-10.16,1.68a2.43,2.43,0,0,0-.25.2,19.78,19.78,0,0,0-3.25,2.28,9.12,9.12,0,0,0-2.5,3.54c-.08.21-.14.45-.21.67a8.11,8.11,0,0,0-.11,3.09,11.94,11.94,0,0,0,.41,1.81,5,5,0,0,0,.93,1.84,2.59,2.59,0,0,0,.48.46,4.41,4.41,0,0,0,3.46.81,4,4,0,0,0,.54-.11,7.68,7.68,0,0,0,1.27-.44,21.92,21.92,0,0,0,.45,3.12h0a2,2,0,0,0,.05.24A2.45,2.45,0,0,0,680.7,279a2.55,2.55,0,0,0,.59.18,2.45,2.45,0,0,0,1.48-.36l9.53-5.33.48-.27a1.2,1.2,0,0,0,.38-.32,1.93,1.93,0,0,0,.42-1.4Zm-7.18,2.29-4.47,2.51a27.85,27.85,0,0,1-.48-4.7,1.3,1.3,0,0,0-.71-1.12,1.32,1.32,0,0,0-1.33.09,7.05,7.05,0,0,1-2.7,1.23,2.16,2.16,0,0,1-.62,0,1.36,1.36,0,0,1-.91-.4,2.72,2.72,0,0,1-.4-.91,8.64,8.64,0,0,1-.3-1.19v0a5.58,5.58,0,0,1,0-2.28,6.23,6.23,0,0,1,1.91-2.9,19.14,19.14,0,0,1,3.09-2.13,1,1,0,0,0,.24-.17c1.5-.82,5.26-2.46,7.33-1.5a10.41,10.41,0,0,1,3.08,3c-.72,1.21-2,2.72-2.87,2.84a1.32,1.32,0,0,0-1.12,1.05,1.33,1.33,0,0,0,.64,1.4,19.19,19.19,0,0,1,3.85,2.77Z"/><path class="cls-6" d="M749.57,225.8a16.64,16.64,0,0,0-7.67,4l-1.12-.65-.11.19h0l-.31.66v0a8.68,8.68,0,0,0-.5,1.83,7.94,7.94,0,0,0-.69,1.08s0,0,0,0-.06.14-.1.2a6.4,6.4,0,0,0-.56,2.42,8.43,8.43,0,0,0,1.51,5.23,13.57,13.57,0,0,0,2.37,2.67,39.71,39.71,0,0,0-5.31,3.47c-2.38,1.86-2.24,3.76-1.93,4.71a4.41,4.41,0,0,0,1.77,2.23l17.37,12.58a2.14,2.14,0,0,0,.86.41,3.56,3.56,0,0,0,3-.62c2-1.41,3.06-5.23,3.65-8.79a23.54,23.54,0,0,0,7.9,1.78,2.51,2.51,0,0,0,1.39-.35c3.88-2.33,5.27-10.1,5.52-11.63,0-.1,0-.2,0-.3.25-8.05-9.72-15.14-10.86-15.93a3.56,3.56,0,0,0-.51-.27,37.06,37.06,0,0,0-6.44-3.72A16,16,0,0,0,749.57,225.8Zm13.85,9.64c2.57,1.88,8.31,7,8.31,11.27-.47,2.83-1.61,6.28-2.71,7.59-2.61-.28-6.14-1.19-7.06-2.64a2.46,2.46,0,0,0-4.53,1.12,36.1,36.1,0,0,1-1.72,8.7l-7.39-5.36-7.76-5.63a53.23,53.23,0,0,1,7.58-4.49,2.44,2.44,0,0,0,.15-4.28,13,13,0,0,1-4.2-3.63,3.17,3.17,0,0,1-.56-2.86,5.17,5.17,0,0,1,1.22-1.43c.16-.14.31-.25.47-.38l.61,0a3.81,3.81,0,0,1,.08-.59,11.11,11.11,0,0,1,4.57-2.23,11.46,11.46,0,0,1,6.41,1,35.76,35.76,0,0,1,6.05,3.59A3.67,3.67,0,0,0,763.42,235.44Z"/><path class="cls-6" d="M609.08,266.09a14.54,14.54,0,0,0,3-4,1.43,1.43,0,0,0,.16-.86c-.32-2.79-4.31-5.56-5.11-6.08a.75.75,0,0,0-.17-.1c-4.45-2.2-11,1.58-11.73,2a1.86,1.86,0,0,0-.27.22,23.37,23.37,0,0,0-3.75,2.66,9.89,9.89,0,0,0-3.08,4.86,10.48,10.48,0,0,0,.36,5.67,5.92,5.92,0,0,0,1.09,2.13,4.91,4.91,0,0,0,4.54,1.43,8.76,8.76,0,0,0,2.11-.65,23.77,23.77,0,0,0,.58,3.87c.44,1.82,1.53,2.22,2.15,2.3a2.77,2.77,0,0,0,1.71-.43l11.51-6.52a1.43,1.43,0,0,0,.44-.37,2.21,2.21,0,0,0,.43-1.86C612.79,268.93,610.92,267.33,609.08,266.09Zm-4.23,7.21-5.15,2.92a31.59,31.59,0,0,1-.58-5.41,1.51,1.51,0,0,0-2.37-1.18,8.1,8.1,0,0,1-3.11,1.43,2,2,0,0,1-1.75-.43,3.29,3.29,0,0,1-.48-1.05,7.6,7.6,0,0,1-.32-4,7,7,0,0,1,2.18-3.34,22.4,22.4,0,0,1,3.57-2.49,1.74,1.74,0,0,0,.26-.19c1.72-1,6.06-2.88,8.45-1.78a12.24,12.24,0,0,1,3.58,3.46c-.83,1.4-2.25,3.15-3.3,3.3a1.51,1.51,0,0,0-.52,2.82,22.39,22.39,0,0,1,4.44,3.2Z"/><path class="cls-6" d="M724.67,260.33c-5.53,0-5.54,8.6,0,8.6S730.22,260.33,724.67,260.33Z"/><path class="cls-6" d="M756.63,270.77c-4.75,0-4.76,7.38,0,7.38S761.38,270.77,756.63,270.77Z"/><path class="cls-6" d="M750.17,218.54a1.84,1.84,0,0,0,0-3.68A1.84,1.84,0,0,0,750.17,218.54Z"/><path class="cls-6" d="M785.2,268.93c5.54,0,5.54-8.6,0-8.6S779.66,268.93,785.2,268.93Z"/><path class="cls-6" d="M677.36,251.72c5.53,0,5.54-8.6,0-8.6S671.82,251.72,677.36,251.72Z"/><path class="cls-6" d="M660.77,181.67c7.91,0,7.92-12.29,0-12.29S652.85,181.67,660.77,181.67Z"/><path class="cls-6" d="M646.94,213c-4,0-4,6.15,0,6.15S650.9,213,646.94,213Z"/><path class="cls-6" d="M722.52,184.75c5.54,0,5.55-8.61,0-8.61S717,184.75,722.52,184.75Z"/><path class="cls-6" d="M631,263.4c-4,0-4,6.14,0,6.14S634.93,263.4,631,263.4Z"/><path class="cls-6" d="M595,249.27c7.12,0,7.13-11.06,0-11.06S587.89,249.27,595,249.27Z"/><path class="cls-6" d="M619,282.76c-4,0-4,6.14,0,6.14S622.94,282.76,619,282.76Z"/><path class="cls-6" d="M576.28,284a1.85,1.85,0,0,0,0,3.69A1.85,1.85,0,0,0,576.28,284Z"/><path class="cls-6" d="M605,328.17l-.65,2v26.28L601.8,359H591.46l-2.52-2.56v-8.27l-.65-2h6.41l-.65,2v5.11l.61.57h3.93l.61-.57V330.16l-.65-2Z"/><path class="cls-6" d="M632,328.17l-.65,2v26.28L628.81,359H618.47L616,356.44v-8.27l-.65-2h6.41l-.65,2v5.11l.61.57h3.93l.61-.57V330.16l-.65-2Z"/><path class="cls-6" d="M667.5,359h-6.37l.65-1.95V330.16l-.65-2h13.46l2.6,2.52v14.07l-2.6,2.6h-7.13l-.61.61v9.08Zm0-16.79h3.93l.61-.57v-7.71l-.61-.57h-3.93l-.61.57v7.71Z"/><path class="cls-6" d="M694.42,359h-6.36l.65-1.95V330.16l-.65-2h6.36l-.64,2v26.89Z"/><path class="cls-6" d="M720.42,359H705.7v-5.19l9.73-20.45h-7.95l-2.19.57,1-5.76h14.84v5.07l-9.81,20.57h8l2.1-.61Z"/><path class="cls-6" d="M747,359H732.26v-5.19L742,333.36h-7.94l-2.2.57,1-5.76h14.84v5.07l-9.81,20.57h8l2.11-.61Z"/><path class="cls-6" d="M778.13,359h-6.45l.45-1.22-1.14-4.7-.61-.61h-5.07l-.6.61-1.14,4.7L764,359h-6.45l1-2.07,6.33-27-.57-1.79h7l-.57,1.79,6.33,27Zm-11.76-11.72h3l.49-.45-2-9.86-2,9.86Z"/></g></g></svg>