<svg xmlns="http://www.w3.org/2000/svg" viewBox="0 0 1366 487"><defs><style>.cls-1{fill:#fff;}.cls-2{fill:#1d1d1b;}.cls-3{fill:#f2ada9;}.cls-4{fill:#a63e4d;}.cls-5{font-size:19.28px;font-family:Manrope-Semibold, Manrope;font-weight:600;}.cls-6{fill:#404040;}.cls-7{font-family:Manrope-Thin, Manrope;font-weight:200;}.cls-8{letter-spacing:-0.03em;}</style></defs><title>sakura</title><g id="Layer_2" data-name="Layer 2"><g id="Layer_1-2" data-name="Layer 1"><rect class="cls-1" width="1366" height="487"/><path class="cls-2" d="M541.11,339.18a16.32,16.32,0,0,1-4.53,5.85,20.29,20.29,0,0,1-6.93,3.61,30.16,30.16,0,0,1-8.93,1.25,40,40,0,0,1-13.5-2.36,35.69,35.69,0,0,1-12-7.27l7.82-9.38a39.31,39.31,0,0,0,8.47,5.34,22.68,22.68,0,0,0,9.51,2,11.58,11.58,0,0,0,6.4-1.5,4.73,4.73,0,0,0,2.28-4.17v-.17a5.31,5.31,0,0,0-.47-2.28,4.79,4.79,0,0,0-1.81-1.85,19,19,0,0,0-3.71-1.72c-1.58-.57-3.64-1.18-6.17-1.81a73.78,73.78,0,0,1-8.27-2.49,23.34,23.34,0,0,1-6.3-3.4,13.8,13.8,0,0,1-4-5,17.45,17.45,0,0,1-1.42-7.48v-.17a17.34,17.34,0,0,1,1.54-7.44,16.79,16.79,0,0,1,4.31-5.72,19.28,19.28,0,0,1,6.63-3.7,26.69,26.69,0,0,1,8.5-1.29,36,36,0,0,1,12.17,2,35.31,35.31,0,0,1,10.19,5.67l-6.88,10a43.67,43.67,0,0,0-7.91-4.34,20.23,20.23,0,0,0-7.74-1.59q-3.87,0-5.8,1.5a4.57,4.57,0,0,0-1.94,3.74v.17a5.44,5.44,0,0,0,.56,2.54,5.09,5.09,0,0,0,2,1.94,19.25,19.25,0,0,0,4,1.63q2.54.78,6.42,1.81a61.75,61.75,0,0,1,8.15,2.7,22.77,22.77,0,0,1,6,3.62,13.65,13.65,0,0,1,3.7,4.94,16.68,16.68,0,0,1,1.26,6.8v.17A18.63,18.63,0,0,1,541.11,339.18Z"/><path class="cls-2" d="M599.07,349l-5.51-13.5H568.11L562.6,349H549.1l25.8-60.63h12.21L612.91,349Zm-18.24-44.72-8,19.52h16Z"/><path class="cls-2" d="M661.07,349,642.41,323.4l-7,7.23V349H622.2v-60.2h13.24v26.32l24.43-26.32h16l-24.51,25.54L677,349Z"/><path class="cls-2" d="M734.64,334.75a22.45,22.45,0,0,1-5.29,8.48A21.68,21.68,0,0,1,721,348.3,33.55,33.55,0,0,1,710.09,350Q698,350,691,343.27t-7-20v-34.4h13.25v34.06q0,7.39,3.44,11.13t9.54,3.74q6.11,0,9.55-3.61t3.44-10.83V288.83h13.24v34A34.69,34.69,0,0,1,734.64,334.75Z"/><path class="cls-2" d="M786.54,349l-12.9-19.26h-10.4V349H750v-60.2h27.52q10.75,0,16.73,5.25t6,14.62v.17q0,7.31-3.57,11.91a20.64,20.64,0,0,1-9.33,6.75L802,349Zm.26-39.65a7.71,7.71,0,0,0-2.75-6.45q-2.76-2.15-7.65-2.15H763.24v17.29h13.41q4.9,0,7.53-2.32a7.85,7.85,0,0,0,2.62-6.19Z"/><path class="cls-2" d="M857,349l-5.51-13.5H826L820.51,349H807l25.8-60.63H845L870.82,349Zm-18.23-44.72-8,19.52h16Z"/><path class="cls-3" d="M749.57,203.6A66.58,66.58,0,0,1,687.82,270c-1.58.11-3.2.17-4.82.17s-3.24-.06-4.83-.17a66.58,66.58,0,1,1,71.4-66.4Z"/><path class="cls-2" d="M719.24,225.61a2.42,2.42,0,0,1-2.42,2.41h-6.18v13.43a9.66,9.66,0,0,1-9.65,9.66H687.82V270c-1.58.11-3.2.17-4.82.17s-3.24-.06-4.83-.17V219.7h-25.1a9,9,0,0,1-9-9V164.94a2.42,2.42,0,1,1,4.83,0v45.77a4.17,4.17,0,0,0,4.17,4.16h9.25V191.11a2.42,2.42,0,0,1,4.83,0v23.76h11V203.6a4.83,4.83,0,1,1,9.65,0v1.87h2.56a2.81,2.81,0,0,0,2.81-2.81V164.94a2.42,2.42,0,1,1,4.83,0v37.72a7.65,7.65,0,0,1-7.64,7.65h-2.56v36H701a4.85,4.85,0,0,0,4.83-4.83V217.29a2.41,2.41,0,1,1,4.82,0v5.9h6.18A2.42,2.42,0,0,1,719.24,225.61Z"/><path class="cls-4" d="M714.22,153.57c-5.15,0-5.16,8,0,8S719.37,153.57,714.22,153.57Z"/><path class="cls-4" d="M708.47,196.07c-5.15,0-5.16,8,0,8S713.62,196.07,708.47,196.07Z"/><path class="cls-4" d="M673.22,176.32c-5.15,0-5.16,8,0,8S678.37,176.32,673.22,176.32Z"/><path class="cls-4" d="M635,222.82c-5.15,0-5.16,8,0,8S640.12,222.82,635,222.82Z"/><path class="cls-4" d="M667.72,246.82c-5.15,0-5.16,8,0,8S672.87,246.82,667.72,246.82Z"/><path class="cls-4" d="M742.22,202.57c-5.15,0-5.16,8,0,8S747.37,202.57,742.22,202.57Z"/><path class="cls-4" d="M660.72,142.57c-5.15,0-5.16,8,0,8S665.87,142.57,660.72,142.57Z"/><path class="cls-4" d="M636.22,180.82c-5.15,0-5.16,8,0,8S641.37,180.82,636.22,180.82Z"/><path class="cls-4" d="M698.47,235.07c-5.15,0-5.16,8,0,8S703.62,235.07,698.47,235.07Z"/><path class="cls-4" d="M726.72,237.57c-5.15,0-5.16,8,0,8S731.87,237.57,726.72,237.57Z"/><text class="cls-5" transform="translate(47.01 439.96)">01<tspan class="cls-6" x="21.37" y="0"> </tspan><tspan class="cls-7" x="25.38" y="0">|</tspan><tspan x="29.84" y="0" xml:space="preserve"> Saku</tspan><tspan class="cls-8" x="81.27" y="0">r</tspan><tspan x="89.42" y="0">a</tspan></text></g></g></svg>