<svg xmlns="http://www.w3.org/2000/svg" viewBox="0 0 1366 487"><defs><style>.cls-1{fill:#fff;}.cls-2{font-size:19.28px;font-family:Manrope-Semibold, Manrope;font-weight:600;}.cls-3{fill:#404040;}.cls-4{font-family:Manrope-Thin, Manrope;font-weight:200;}.cls-5{fill:#1d1d1b;}</style></defs><title>thegrind</title><g id="Layer_2" data-name="Layer 2"><g id="Layer_1-2" data-name="Layer 1"><rect class="cls-1" width="1366" height="487"/><text class="cls-2" transform="translate(47.01 439.96)">03<tspan class="cls-3" x="24.38" y="0"> </tspan><tspan class="cls-4" x="28.4" y="0">|</tspan><tspan x="32.85" y="0" xml:space="preserve"> The Grind</tspan></text><path class="cls-5" d="M533.13,313.17v33.64h-9.29V313.17H511v-8.56h35v8.56Z"/><path class="cls-5" d="M579.49,346.81V329.87H562.36v16.94h-9.28v-42.2h9.28v16.7h17.13v-16.7h9.28v42.2Z"/><path class="cls-5" d="M598.9,346.81v-42.2h31.77v8.26H608.06v8.56H628v8.26h-19.9v8.86H631v8.26Z"/><path class="cls-5" d="M688,345.57a25.41,25.41,0,0,1-10.28,2,24,24,0,0,1-9-1.63,20.71,20.71,0,0,1-7-4.52,20.36,20.36,0,0,1-4.55-6.87,22.62,22.62,0,0,1-1.63-8.68v-.12a21.73,21.73,0,0,1,6.27-15.41,21.89,21.89,0,0,1,7-4.7,22.5,22.5,0,0,1,8.86-1.72,31.26,31.26,0,0,1,5.16.4,24.68,24.68,0,0,1,4.31,1.11,20.19,20.19,0,0,1,3.74,1.81,27.93,27.93,0,0,1,3.37,2.47l-5.84,7.06a22.37,22.37,0,0,0-2.42-1.81,14.6,14.6,0,0,0-5.3-2.17,17.07,17.07,0,0,0-3.32-.3,10.84,10.84,0,0,0-4.73,1.05,12.87,12.87,0,0,0-3.86,2.84,13.09,13.09,0,0,0-2.59,4.17,14,14,0,0,0-.93,5.11v.12a15,15,0,0,0,.93,5.35,12.77,12.77,0,0,0,2.65,4.26,12.29,12.29,0,0,0,4,2.81,13,13,0,0,0,5.16,1,14.62,14.62,0,0,0,8.74-2.55v-6.07h-9.35v-8h18.33v18.33A30.6,30.6,0,0,1,688,345.57Z"/><path class="cls-5" d="M730.27,346.81l-9-13.51h-7.29v13.51h-9.29v-42.2h19.3q7.53,0,11.72,3.68t4.19,10.24v.12a13.21,13.21,0,0,1-2.5,8.35,14.57,14.57,0,0,1-6.54,4.74l10.31,15.07Zm.18-27.79a5.39,5.39,0,0,0-1.93-4.52,8.51,8.51,0,0,0-5.37-1.51h-9.22v12.12h9.4a7.76,7.76,0,0,0,5.28-1.63,5.53,5.53,0,0,0,1.84-4.34Z"/><path class="cls-5" d="M748.65,346.81v-42.2h9.29v42.2Z"/><path class="cls-5" d="M798.09,346.81,777.65,320v26.83h-9.16v-42.2h8.56l19.77,26v-26H806v42.2Z"/><path class="cls-5" d="M853.37,334a19.6,19.6,0,0,1-4.61,6.69,21.74,21.74,0,0,1-7.11,4.46,24.48,24.48,0,0,1-9.08,1.63H816.11v-42.2h16.46a24.89,24.89,0,0,1,9.08,1.6,21.34,21.34,0,0,1,7.11,4.43,19.67,19.67,0,0,1,4.61,6.66,20.85,20.85,0,0,1,1.63,8.29v.12A21.11,21.11,0,0,1,853.37,334Zm-8.08-8.32a13.84,13.84,0,0,0-.93-5.13,12.18,12.18,0,0,0-2.59-4,11.68,11.68,0,0,0-4-2.62,14,14,0,0,0-5.19-.93H825.4v25.44h7.17a14.43,14.43,0,0,0,5.19-.9,11.21,11.21,0,0,0,4-2.6,12.12,12.12,0,0,0,2.59-4,13.46,13.46,0,0,0,.93-5.12Z"/><path class="cls-5" d="M800.11,146.68a38.7,38.7,0,0,0-24,8.35V139.47H580.79V185a98.17,98.17,0,0,0,62.78,91.22c1.37.53,2.76,1,4.15,1.49V294h61.47V277.67a98.38,98.38,0,0,0,62.92-65.16,38.88,38.88,0,1,0,28-65.83ZM754,185A75.21,75.21,0,0,1,753,197.56a75.46,75.46,0,0,1-74.51,63,75,75,0,0,1-27-5A76,76,0,0,1,602.87,185V161.54H754Zm46.1,17.41a16.82,16.82,0,1,1,16.82-16.82A16.84,16.84,0,0,1,800.11,202.39Z"/></g></g></svg>