<svg xmlns="http://www.w3.org/2000/svg" viewBox="0 0 25.89 16.18"><defs><style>.cls-1{fill:#00b5a5;}</style></defs><title>behance g</title><g id="Layer_2" data-name="Layer 2"><g id="Layer_2_copy" data-name="Layer 2 copy"><path class="cls-1" d="M7.49,0A9.57,9.57,0,0,1,9.56.2a4.73,4.73,0,0,1,1.6.66,3.07,3.07,0,0,1,1,1.21,4.36,4.36,0,0,1,.36,1.87,3.51,3.51,0,0,1-.54,2A4,4,0,0,1,10.4,7.26a3.83,3.83,0,0,1,2.18,1.48,4.44,4.44,0,0,1,.72,2.55,4.37,4.37,0,0,1-.45,2.08,3.9,3.9,0,0,1-1.25,1.45,5.4,5.4,0,0,1-1.8.83,7.82,7.82,0,0,1-2.06.28H0V0H7.49ZM18.28,13.12a2.79,2.79,0,0,0,2,.7A2.87,2.87,0,0,0,22,13.34a2.05,2.05,0,0,0,.84-1h2.79a5.27,5.27,0,0,1-2.05,3,6,6,0,0,1-3.32.89,6.69,6.69,0,0,1-2.46-.43,5.35,5.35,0,0,1-1.85-1.23,5.41,5.41,0,0,1-1.16-1.91,6.89,6.89,0,0,1-.41-2.45,6.52,6.52,0,0,1,.44-2.4A5.7,5.7,0,0,1,16,5.83a5.59,5.59,0,0,1,1.87-1.29,5.68,5.68,0,0,1,2.4-.47,5.49,5.49,0,0,1,2.56.56,5.29,5.29,0,0,1,1.8,1.51,6.23,6.23,0,0,1,1,2.18,9,9,0,0,1,.23,2.57h-8.3a3.29,3.29,0,0,0,.76,2.23l-.08,0Zm-11,.06a4.46,4.46,0,0,0,1-.1A2.52,2.52,0,0,0,9,12.75a1.54,1.54,0,0,0,.56-.62,2.24,2.24,0,0,0,.21-1,2.11,2.11,0,0,0-.69-1.75,3,3,0,0,0-1.83-.52H3.5v4.37H7.23v0Zm14.68-6.1a2.38,2.38,0,0,0-1.78-.64,2.62,2.62,0,0,0-1.26.26,2.22,2.22,0,0,0-.8.64,2,2,0,0,0-.42.81,3.39,3.39,0,0,0-.15.76h5.14a3.14,3.14,0,0,0-.73-1.82h0ZM7,6.42A2.48,2.48,0,0,0,8.57,6a1.63,1.63,0,0,0,.6-1.44A2,2,0,0,0,9,3.62a1.71,1.71,0,0,0-.54-.56,2.4,2.4,0,0,0-.78-.27,4.53,4.53,0,0,0-.91-.08H3.49V6.42Zm9.81-5.35h6.44V2.64H16.85V1.07Z"/></g></g></svg>