<svg xmlns="http://www.w3.org/2000/svg" viewBox="0 0 27.89 22.67"><defs><style>.cls-1{fill:#00b5a5;}</style></defs><title>twitter g</title><g id="Layer_2" data-name="Layer 2"><g id="Layer_2_copy" data-name="Layer 2 copy"><path class="cls-1" d="M27.83,2.7a11.63,11.63,0,0,1-3.28.9A5.72,5.72,0,0,0,27.06.44a11.85,11.85,0,0,1-3.63,1.37,5.72,5.72,0,0,0-9.89,3.9A5.6,5.6,0,0,0,13.69,7a16.16,16.16,0,0,1-11.78-6,5.59,5.59,0,0,0-.78,2.88A5.72,5.72,0,0,0,3.67,8.7,5.63,5.63,0,0,1,1.09,8v.07a5.71,5.71,0,0,0,4.58,5.61,5.79,5.79,0,0,1-1.51.2,5.36,5.36,0,0,1-1.06-.1,5.74,5.74,0,0,0,5.35,4,11.49,11.49,0,0,1-7.09,2.45A12.4,12.4,0,0,1,0,20.1a16.25,16.25,0,0,0,8.78,2.57A16.15,16.15,0,0,0,25.05,6.42c0-.25,0-.49,0-.74a11.5,11.5,0,0,0,2.86-3Z"/></g></g></svg>