<svg xmlns="http://www.w3.org/2000/svg" xmlns:xlink="http://www.w3.org/1999/xlink" viewBox="0 0 1366 768.1"><defs><style>.cls-1{fill:none;}.cls-2{fill:#e15a26;}.cls-3{fill:#fff5e6;}.cls-4{fill:#ffe0bb;}.cls-5{fill:#576477;}.cls-6{clip-path:url(#clip-path);}.cls-7{fill:#ffe2bc;}.cls-8{fill:#ffe3be;}.cls-9{fill:#ffe4bf;}.cls-10{fill:#ffe4c1;}.cls-11{fill:#ffe5c3;}.cls-12{fill:#ffe6c4;}.cls-13{fill:#ffe6c6;}.cls-14{fill:#ffe7c7;}.cls-15{fill:#ffe8c8;}.cls-16{fill:#ffe8ca;}.cls-17{fill:#ffe9cc;}.cls-18{fill:#ffeacd;}.cls-19{fill:#ffeace;}.cls-20{fill:#ffebcf;}.cls-21{fill:#ffebd0;}.cls-22{fill:#ffecd2;}.cls-23{fill:#ffecd3;}.cls-24{fill:#ffedd4;}.cls-25{fill:#ffedd5;}.cls-26{fill:#ffeed6;}.cls-27{fill:#ffeed7;}.cls-28{fill:#ffefd8;}.cls-29{fill:#ffefd9;}.cls-30{fill:#fff0da;}.cls-31{fill:#fff0db;}.cls-32{fill:#fff1dc;}.cls-33{fill:#fff1dd;}.cls-34{fill:#fff2df;}.cls-35{fill:#fff3e0;}.cls-36{fill:#fff3e1;}.cls-37{fill:#fff3e2;}.cls-38{fill:#fff4e3;}.cls-39{fill:#fff4e4;}.cls-40{fill:#fff4e5;}.cls-41{fill:#ffd7a1;}.cls-42{fill:#323a45;}.cls-43{clip-path:url(#clip-path-2);}</style><clipPath id="clip-path"><rect class="cls-1" x="274.76" y="61.97" width="46.2" height="34.09" rx="9.33"/></clipPath><clipPath id="clip-path-2"><rect class="cls-1" x="1045.04" y="672.04" width="46.2" height="34.09" rx="9.33"/></clipPath></defs><title>background</title><g id="Layer_2" data-name="Layer 2"><g id="Layer_1-2" data-name="Layer 1"><rect class="cls-2" width="1366" height="768.1"/><path class="cls-3" d="M247.24,88.19H91.57a9.39,9.39,0,0,1-9.48-9V79a9.44,9.44,0,0,1,.19-1.85,8.5,8.5,0,0,1,.37-1.31,3,3,0,0,1,.17-.41,9.17,9.17,0,0,1,8-5.59H73.22a9.39,9.39,0,0,1-9.48-9,9.18,9.18,0,0,1,9.18-9.34H210.54a36.61,36.61,0,0,1,26,10.75,37,37,0,0,1,5.83,7.6,36.45,36.45,0,0,1,4.92,18.35Z"/><path class="cls-4" d="M72.92,106.53a9.18,9.18,0,1,0,0,18.35H91.27a9.18,9.18,0,1,0,0,18.35h18.34a9.18,9.18,0,0,0,0,18.35H128a9.18,9.18,0,0,0,0,18.35h18.35a9.18,9.18,0,0,0,0,18.35h18.35a9.18,9.18,0,0,0,0,18.35H183A9.18,9.18,0,0,0,183,235h64.22V106.53Z"/><path class="cls-3" d="M109.61,106.53H247.23V88.18H109.61a9.18,9.18,0,0,0-9.17,9.18h0A9.17,9.17,0,0,0,109.61,106.53Z"/><path class="cls-3" d="M128,124.88H247.23V106.53H128a9.18,9.18,0,0,0-9.17,9.18h0A9.18,9.18,0,0,0,128,124.88Z"/><path class="cls-3" d="M146.31,143.23H247.23V124.88H146.31a9.18,9.18,0,0,0-9.17,9.18h0A9.18,9.18,0,0,0,146.31,143.23Z"/><path class="cls-3" d="M164.66,161.58h82.57V143.23H164.66a9.18,9.18,0,0,0-9.17,9.18h0A9.18,9.18,0,0,0,164.66,161.58Z"/><path class="cls-3" d="M183,179.93h64.22V161.58H183a9.17,9.17,0,0,0-9.17,9.18h0A9.17,9.17,0,0,0,183,179.93Z"/><path class="cls-3" d="M339,97.36V64.27A12.78,12.78,0,0,0,326.2,51.49H281.7A16.12,16.12,0,0,0,265.58,67.6V90.42a16.12,16.12,0,0,0,16.12,16.11h36.38a2.55,2.55,0,0,1,2.55,2.55v13.26a2.55,2.55,0,0,0,2.55,2.54h13.25a2.55,2.55,0,0,0,2.55-2.54V106.53h-8.49a.66.66,0,0,1-.66-.72A9.18,9.18,0,0,1,339,97.36Z"/><path class="cls-5" d="M247.23,149.51V253.33h27.83a27.22,27.22,0,0,0,27.22-27.22V124.88H271.86A24.63,24.63,0,0,0,247.23,149.51Z"/><g class="cls-6"><polygon class="cls-7" points="274.76 94.98 283.51 96.05 274.76 96.05 274.76 94.98"/><polygon class="cls-7" points="274.76 94.18 290.03 96.05 283.51 96.05 274.76 94.98 274.76 94.18"/><polygon class="cls-8" points="274.76 93.38 296.55 96.05 290.03 96.05 274.76 94.18 274.76 93.38"/><polygon class="cls-9" points="274.76 92.58 303.06 96.05 296.55 96.05 274.76 93.38 274.76 92.58"/><polygon class="cls-10" points="274.76 91.78 309.58 96.05 303.06 96.05 274.76 92.58 274.76 91.78"/><polygon class="cls-11" points="274.76 90.98 316.1 96.05 309.58 96.05 274.76 91.78 274.76 90.98"/><polygon class="cls-12" points="274.76 90.18 320.96 95.85 320.96 96.05 316.1 96.05 274.76 90.98 274.76 90.18"/><polygon class="cls-13" points="274.76 89.38 320.96 95.05 320.96 95.85 274.76 90.18 274.76 89.38"/><polygon class="cls-14" points="274.76 88.58 320.96 94.25 320.96 95.05 274.76 89.38 274.76 88.58"/><polygon class="cls-15" points="274.76 87.78 320.96 93.45 320.96 94.25 274.76 88.58 274.76 87.78"/><polygon class="cls-16" points="274.76 86.98 320.96 92.65 320.96 93.45 274.76 87.78 274.76 86.98"/><polygon class="cls-17" points="274.76 86.18 320.96 91.85 320.96 92.65 274.76 86.98 274.76 86.18"/><polygon class="cls-18" points="274.76 85.38 320.96 91.05 320.96 91.85 274.76 86.18 274.76 85.38"/><polygon class="cls-19" points="274.76 84.58 320.96 90.25 320.96 91.05 274.76 85.38 274.76 84.58"/><polygon class="cls-20" points="274.76 83.78 320.96 89.45 320.96 90.25 274.76 84.58 274.76 83.78"/><polygon class="cls-21" points="274.76 82.98 320.96 88.65 320.96 89.45 274.76 83.78 274.76 82.98"/><polygon class="cls-22" points="274.76 82.17 320.96 87.85 320.96 88.65 274.76 82.98 274.76 82.17"/><polygon class="cls-23" points="274.76 81.38 320.96 87.05 320.96 87.85 274.76 82.17 274.76 81.38"/><polygon class="cls-24" points="274.76 80.58 320.96 86.25 320.96 87.05 274.76 81.38 274.76 80.58"/><polygon class="cls-25" points="274.76 79.78 320.96 85.45 320.96 86.25 274.76 80.58 274.76 79.78"/><polygon class="cls-26" points="274.76 78.97 320.96 84.65 320.96 85.45 274.76 79.78 274.76 78.97"/><polygon class="cls-27" points="274.76 78.17 320.96 83.85 320.96 84.65 274.76 78.97 274.76 78.17"/><polygon class="cls-28" points="274.76 77.37 320.96 83.05 320.96 83.85 274.76 78.17 274.76 77.37"/><polygon class="cls-29" points="274.76 76.57 320.96 82.25 320.96 83.05 274.76 77.37 274.76 76.57"/><polygon class="cls-30" points="274.76 75.77 320.96 81.45 320.96 82.25 274.76 76.57 274.76 75.77"/><polygon class="cls-31" points="274.76 74.97 320.96 80.65 320.96 81.45 274.76 75.77 274.76 74.97"/><polygon class="cls-32" points="274.76 74.17 320.96 79.85 320.96 80.65 274.76 74.97 274.76 74.17"/><polygon class="cls-33" points="274.76 73.37 320.96 79.05 320.96 79.85 274.76 74.17 274.76 73.37"/><polygon class="cls-33" points="274.76 72.57 320.96 78.25 320.96 79.05 274.76 73.37 274.76 72.57"/><polygon class="cls-34" points="274.76 71.77 320.96 77.45 320.96 78.25 274.76 72.57 274.76 71.77"/><polygon class="cls-34" points="274.76 70.97 320.96 76.65 320.96 77.45 274.76 71.77 274.76 70.97"/><polygon class="cls-35" points="274.76 70.17 320.96 75.84 320.96 76.65 274.76 70.97 274.76 70.17"/><polygon class="cls-36" points="274.76 69.37 320.96 75.05 320.96 75.84 274.76 70.17 274.76 69.37"/><polygon class="cls-36" points="274.76 68.57 320.96 74.25 320.96 75.05 274.76 69.37 274.76 68.57"/><polygon class="cls-37" points="274.76 67.77 320.96 73.44 320.96 74.25 274.76 68.57 274.76 67.77"/><polygon class="cls-38" points="274.76 66.97 320.96 72.64 320.96 73.44 274.76 67.77 274.76 66.97"/><polygon class="cls-38" points="274.76 66.17 320.96 71.84 320.96 72.64 274.76 66.97 274.76 66.17"/><polygon class="cls-39" points="274.76 65.37 320.96 71.04 320.96 71.84 274.76 66.17 274.76 65.37"/><polygon class="cls-39" points="274.76 64.57 320.96 70.24 320.96 71.04 274.76 65.37 274.76 64.57"/><polygon class="cls-40" points="274.76 63.77 320.96 69.44 320.96 70.24 274.76 64.57 274.76 63.77"/><polygon class="cls-40" points="274.76 62.97 320.96 68.64 320.96 69.44 274.76 63.77 274.76 62.97"/><polygon class="cls-40" points="274.76 62.17 320.96 67.84 320.96 68.64 274.76 62.97 274.76 62.17"/><polygon class="cls-3" points="279.62 61.97 320.96 67.04 320.96 67.84 274.76 62.17 274.76 61.97 279.62 61.97"/><polygon class="cls-3" points="286.14 61.97 320.96 66.24 320.96 67.04 279.62 61.97 286.14 61.97"/><polygon class="cls-3" points="292.66 61.97 320.96 65.44 320.96 66.24 286.14 61.97 292.66 61.97"/><polygon class="cls-3" points="299.18 61.97 320.96 64.64 320.96 65.44 292.66 61.97 299.18 61.97"/><polygon class="cls-3" points="305.69 61.97 320.96 63.84 320.96 64.64 299.18 61.97 305.69 61.97"/><polygon class="cls-3" points="312.21 61.97 320.96 63.04 320.96 63.84 305.69 61.97 312.21 61.97"/><polygon class="cls-3" points="320.96 63.04 312.21 61.97 320.96 61.97 320.96 63.04"/></g><rect class="cls-3" x="283.93" y="106.53" width="18.35" height="9.17"/><rect class="cls-4" x="283.93" y="106.53" width="18.35" height="4.59"/><path class="cls-4" d="M295.18,106.53h14.2a11.62,11.62,0,1,0-14.2,0Z"/><path class="cls-3" d="M283.93,124.88v9.18a9.18,9.18,0,0,0,18.35,0v-9.18Z"/><rect class="cls-4" x="283.93" y="124.88" width="18.35" height="4.59"/><rect class="cls-3" x="283.93" y="115.71" width="18.35" height="9.17"/><rect class="cls-4" x="283.93" y="115.71" width="18.35" height="4.59"/><path class="cls-3" d="M325.06,51.49h-4.43V88.18h-18a9.38,9.38,0,0,0-9.47,8.57,9.17,9.17,0,0,0,9.15,9.78h27.53A9.17,9.17,0,0,1,339,97.36V65.41A13.92,13.92,0,0,0,325.06,51.49Z"/><circle class="cls-4" cx="320.63" cy="79.01" r="9.17"/><circle class="cls-41" cx="320.63" cy="79.01" r="6.61"/><path class="cls-41" d="M245.94,78.48V79H82.09a9.44,9.44,0,0,1,.19-1.85,8.19,8.19,0,0,1,.37-1.31,3,3,0,0,1,.17-.41,9.06,9.06,0,0,1,8-5.59H242.32A36.22,36.22,0,0,1,245.94,78.48Z"/><path class="cls-41" d="M108.6,88.18c-4.51,0-8.16,4.11-8.16,9.18H247.23V88.18Z"/><path class="cls-41" d="M125.93,106.53c-4,0-7.14,4.11-7.14,9.18H247.23v-9.18Z"/><path class="cls-41" d="M143.25,124.88c-3.37,0-6.11,4.11-6.11,9.18H247.23v-9.18Z"/><path class="cls-41" d="M160.58,143.23c-2.81,0-5.09,4.11-5.09,9.18h91.74v-9.18Z"/><path class="cls-4" d="M309.74,85.71h-7.46v2.47h7.46A1.24,1.24,0,0,0,311,87h0A1.25,1.25,0,0,0,309.74,85.71Z"/><path class="cls-5" d="M192.19,178.53V288.65H220c15,0,27.22-12.92,27.22-28.87V152.41H216.82C203.21,152.41,192.19,164.1,192.19,178.53Z"/><path class="cls-42" d="M228.88,152.41V259.78c0,16-12.18,28.87-27.22,28.87H220c15,0,27.22-12.92,27.22-28.87V152.41Z"/><path class="cls-5" d="M137.14,211.75V345.86H165c15,0,27.22-15.74,27.22-35.16V179.93H161.77C148.17,179.93,137.14,194.18,137.14,211.75Z"/><path class="cls-42" d="M173.84,179.93V310.7c0,19.42-12.19,35.16-27.22,35.16H165c15,0,27.22-15.74,27.22-35.16V179.93Z"/><path class="cls-42" d="M50.24,388.61v83a20.84,20.84,0,0,0,20.83,20.83h34.22V364H74.87A24.63,24.63,0,0,0,50.24,388.61Z"/><path class="cls-5" d="M82.09,248.35V420.7h27.83c15,0,27.22-20.23,27.22-45.19V207.45H106.72C93.12,207.45,82.09,225.76,82.09,248.35Z"/><path class="cls-5" d="M70.71,468.36V572.17H98.53A27.22,27.22,0,0,0,125.75,545V464.07a20.33,20.33,0,0,0-20.34-20.34H95.34A24.62,24.62,0,0,0,70.71,468.36Z"/><path class="cls-42" d="M118.79,207.45V375.51c0,25-12.19,45.19-27.22,45.19h18.35c15,0,27.22-20.23,27.22-45.19V207.45Z"/><path class="cls-3" d="M1118.76,679.91h155.67a9.39,9.39,0,0,1,9.48,9v.16a9.36,9.36,0,0,1-.19,1.85,8.19,8.19,0,0,1-.37,1.31,3.07,3.07,0,0,1-.17.42,9.17,9.17,0,0,1-8,5.59h17.57a9.39,9.39,0,0,1,9.48,9,9.18,9.18,0,0,1-9.18,9.34H1155.46a36.61,36.61,0,0,1-26-10.75,37.26,37.26,0,0,1-5.83-7.6,36.45,36.45,0,0,1-4.92-18.35Z"/><path class="cls-4" d="M1293.08,661.56a9.18,9.18,0,1,0,0-18.35h-18.35a9.18,9.18,0,1,0,0-18.35h-18.34a9.17,9.17,0,0,0,0-18.34H1238a9.18,9.18,0,0,0,0-18.35h-18.35a9.18,9.18,0,0,0,0-18.35h-18.35a9.18,9.18,0,0,0,0-18.35H1183a9.18,9.18,0,0,0,0-18.35h-64.22V661.56Z"/><path class="cls-3" d="M1256.39,661.56H1118.77v18.35h137.62a9.18,9.18,0,0,0,9.17-9.17h0A9.18,9.18,0,0,0,1256.39,661.56Z"/><path class="cls-3" d="M1238,643.21H1118.77v18.35H1238a9.17,9.17,0,0,0,9.17-9.17h0A9.18,9.18,0,0,0,1238,643.21Z"/><path class="cls-3" d="M1219.69,624.86H1118.77v18.35h100.92a9.17,9.17,0,0,0,9.17-9.17h0A9.18,9.18,0,0,0,1219.69,624.86Z"/><path class="cls-3" d="M1201.34,606.52h-82.57v18.34h82.57a9.17,9.17,0,0,0,9.17-9.17h0A9.17,9.17,0,0,0,1201.34,606.52Z"/><path class="cls-3" d="M1183,588.17h-64.22v18.35H1183a9.17,9.17,0,0,0,9.17-9.18h0A9.16,9.16,0,0,0,1183,588.17Z"/><path class="cls-3" d="M1027,670.74v33.09a12.78,12.78,0,0,0,12.78,12.78h44.5a16.12,16.12,0,0,0,16.12-16.11V677.68a16.12,16.12,0,0,0-16.12-16.12h-36.38a2.55,2.55,0,0,1-2.55-2.54V645.76a2.55,2.55,0,0,0-2.55-2.55h-13.25a2.55,2.55,0,0,0-2.55,2.55v15.8h8.49a.67.67,0,0,1,.66.73A9.18,9.18,0,0,1,1027,670.74Z"/><path class="cls-5" d="M1118.77,618.58V514.77h-27.83A27.22,27.22,0,0,0,1063.72,542V643.21h30.42A24.63,24.63,0,0,0,1118.77,618.58Z"/><g class="cls-43"><polygon class="cls-7" points="1091.24 673.12 1082.49 672.04 1091.24 672.04 1091.24 673.12"/><polygon class="cls-7" points="1091.24 673.92 1075.97 672.04 1082.49 672.04 1091.24 673.12 1091.24 673.92"/><polygon class="cls-8" points="1091.24 674.72 1069.45 672.04 1075.97 672.04 1091.24 673.92 1091.24 674.72"/><polygon class="cls-9" points="1091.24 675.52 1062.94 672.04 1069.45 672.04 1091.24 674.72 1091.24 675.52"/><polygon class="cls-10" points="1091.24 676.32 1056.42 672.04 1062.94 672.04 1091.24 675.52 1091.24 676.32"/><polygon class="cls-11" points="1091.24 677.12 1049.9 672.04 1056.42 672.04 1091.24 676.32 1091.24 677.12"/><polygon class="cls-12" points="1091.24 677.92 1045.04 672.25 1045.04 672.04 1049.9 672.04 1091.24 677.12 1091.24 677.92"/><polygon class="cls-13" points="1091.24 678.72 1045.04 673.05 1045.04 672.25 1091.24 677.92 1091.24 678.72"/><polygon class="cls-14" points="1091.24 679.52 1045.04 673.85 1045.04 673.05 1091.24 678.72 1091.24 679.52"/><polygon class="cls-15" points="1091.24 680.32 1045.04 674.65 1045.04 673.85 1091.24 679.52 1091.24 680.32"/><polygon class="cls-16" points="1091.24 681.12 1045.04 675.45 1045.04 674.65 1091.24 680.32 1091.24 681.12"/><polygon class="cls-17" points="1091.24 681.92 1045.04 676.25 1045.04 675.45 1091.24 681.12 1091.24 681.92"/><polygon class="cls-18" points="1091.24 682.72 1045.04 677.05 1045.04 676.25 1091.24 681.92 1091.24 682.72"/><polygon class="cls-19" points="1091.24 683.52 1045.04 677.85 1045.04 677.05 1091.24 682.72 1091.24 683.52"/><polygon class="cls-20" points="1091.24 684.32 1045.04 678.65 1045.04 677.85 1091.24 683.52 1091.24 684.32"/><polygon class="cls-21" points="1091.24 685.12 1045.04 679.45 1045.04 678.65 1091.24 684.32 1091.24 685.12"/><polygon class="cls-22" points="1091.24 685.92 1045.04 680.25 1045.04 679.45 1091.24 685.12 1091.24 685.92"/><polygon class="cls-23" points="1091.24 686.72 1045.04 681.05 1045.04 680.25 1091.24 685.92 1091.24 686.72"/><polygon class="cls-24" points="1091.24 687.52 1045.04 681.85 1045.04 681.05 1091.24 686.72 1091.24 687.52"/><polygon class="cls-25" points="1091.24 688.32 1045.04 682.65 1045.04 681.85 1091.24 687.52 1091.24 688.32"/><polygon class="cls-26" points="1091.24 689.12 1045.04 683.45 1045.04 682.65 1091.24 688.32 1091.24 689.12"/><polygon class="cls-27" points="1091.24 689.92 1045.04 684.25 1045.04 683.45 1091.24 689.12 1091.24 689.92"/><polygon class="cls-28" points="1091.24 690.72 1045.04 685.05 1045.04 684.25 1091.24 689.92 1091.24 690.72"/><polygon class="cls-29" points="1091.24 691.52 1045.04 685.85 1045.04 685.05 1091.24 690.72 1091.24 691.52"/><polygon class="cls-30" points="1091.24 692.32 1045.04 686.65 1045.04 685.85 1091.24 691.52 1091.24 692.32"/><polygon class="cls-31" points="1091.24 693.12 1045.04 687.45 1045.04 686.65 1091.24 692.32 1091.24 693.12"/><polygon class="cls-32" points="1091.24 693.92 1045.04 688.25 1045.04 687.45 1091.24 693.12 1091.24 693.92"/><polygon class="cls-33" points="1091.24 694.72 1045.04 689.05 1045.04 688.25 1091.24 693.92 1091.24 694.72"/><polygon class="cls-33" points="1091.24 695.52 1045.04 689.85 1045.04 689.05 1091.24 694.72 1091.24 695.52"/><polygon class="cls-34" points="1091.24 696.32 1045.04 690.65 1045.04 689.85 1091.24 695.52 1091.24 696.32"/><polygon class="cls-34" points="1091.24 697.12 1045.04 691.45 1045.04 690.65 1091.24 696.32 1091.24 697.12"/><polygon class="cls-35" points="1091.24 697.92 1045.04 692.25 1045.04 691.45 1091.24 697.12 1091.24 697.92"/><polygon class="cls-36" points="1091.24 698.72 1045.04 693.05 1045.04 692.25 1091.24 697.92 1091.24 698.72"/><polygon class="cls-36" points="1091.24 699.52 1045.04 693.85 1045.04 693.05 1091.24 698.72 1091.24 699.52"/><polygon class="cls-37" points="1091.24 700.33 1045.04 694.65 1045.04 693.85 1091.24 699.52 1091.24 700.33"/><polygon class="cls-38" points="1091.24 701.13 1045.04 695.45 1045.04 694.65 1091.24 700.33 1091.24 701.13"/><polygon class="cls-38" points="1091.24 701.92 1045.04 696.25 1045.04 695.45 1091.24 701.13 1091.24 701.92"/><polygon class="cls-39" points="1091.24 702.73 1045.04 697.05 1045.04 696.25 1091.24 701.92 1091.24 702.73"/><polygon class="cls-39" points="1091.24 703.52 1045.04 697.85 1045.04 697.05 1091.24 702.73 1091.24 703.52"/><polygon class="cls-40" points="1091.24 704.33 1045.04 698.65 1045.04 697.85 1091.24 703.52 1091.24 704.33"/><polygon class="cls-40" points="1091.24 705.13 1045.04 699.45 1045.04 698.65 1091.24 704.33 1091.24 705.13"/><polygon class="cls-40" points="1091.24 705.93 1045.04 700.25 1045.04 699.45 1091.24 705.13 1091.24 705.93"/><polygon class="cls-3" points="1086.38 706.13 1045.04 701.05 1045.04 700.25 1091.24 705.93 1091.24 706.13 1086.38 706.13"/><polygon class="cls-3" points="1079.86 706.13 1045.04 701.85 1045.04 701.05 1086.38 706.13 1079.86 706.13"/><polygon class="cls-3" points="1073.34 706.13 1045.04 702.65 1045.04 701.85 1079.86 706.13 1073.34 706.13"/><polygon class="cls-3" points="1066.83 706.13 1045.04 703.45 1045.04 702.65 1073.34 706.13 1066.83 706.13"/><polygon class="cls-3" points="1060.31 706.13 1045.04 704.25 1045.04 703.45 1066.83 706.13 1060.31 706.13"/><polygon class="cls-3" points="1053.79 706.13 1045.04 705.05 1045.04 704.25 1060.31 706.13 1053.79 706.13"/><polygon class="cls-3" points="1045.04 705.05 1053.79 706.13 1045.04 706.13 1045.04 705.05"/></g><rect class="cls-3" x="1063.72" y="652.39" width="18.35" height="9.17"/><rect class="cls-4" x="1063.72" y="656.98" width="18.35" height="4.59"/><path class="cls-4" d="M1070.82,661.56h-14.2a11.62,11.62,0,1,0,14.2,0Z"/><path class="cls-3" d="M1082.07,643.21V634a9.18,9.18,0,1,0-18.35,0v9.17Z"/><rect class="cls-4" x="1063.72" y="638.63" width="18.35" height="4.59"/><rect class="cls-3" x="1063.72" y="643.21" width="18.35" height="9.17"/><rect class="cls-4" x="1063.72" y="647.8" width="18.35" height="4.59"/><path class="cls-3" d="M1040.94,716.61h4.43v-36.7h18a9.38,9.38,0,0,0,9.47-8.56,9.17,9.17,0,0,0-9.15-9.79h-27.53a9.17,9.17,0,0,1-9.17,9.18v32A13.92,13.92,0,0,0,1040.94,716.61Z"/><circle class="cls-4" cx="1045.37" cy="689.09" r="9.17"/><circle class="cls-41" cx="1045.37" cy="689.09" r="6.61"/><path class="cls-41" d="M1120.06,689.62v-.54h163.85a9.36,9.36,0,0,1-.19,1.85,7.91,7.91,0,0,1-.37,1.31,3.07,3.07,0,0,1-.17.42,9.09,9.09,0,0,1-8,5.59H1123.68A36.22,36.22,0,0,1,1120.06,689.62Z"/><path class="cls-41" d="M1257.4,679.91c4.51,0,8.16-4.11,8.16-9.17H1118.77v9.17Z"/><path class="cls-41" d="M1240.07,661.56c4,0,7.14-4.1,7.14-9.17H1118.77v9.17Z"/><path class="cls-41" d="M1222.75,643.21c3.37,0,6.11-4.1,6.11-9.17H1118.77v9.17Z"/><path class="cls-41" d="M1205.42,624.86c2.81,0,5.09-4.1,5.09-9.17h-91.74v9.17Z"/><path class="cls-4" d="M1056.26,682.38h7.46v-2.47h-7.46a1.25,1.25,0,0,0-1.24,1.24h0A1.24,1.24,0,0,0,1056.26,682.38Z"/><path class="cls-5" d="M1173.81,589.56V479.44H1146c-15,0-27.22,12.93-27.22,28.88V615.69h30.41C1162.79,615.69,1173.81,604,1173.81,589.56Z"/><path class="cls-42" d="M1137.12,615.69V508.32c0-15.95,12.18-28.88,27.22-28.88H1146c-15,0-27.22,12.93-27.22,28.88V615.69Z"/><path class="cls-5" d="M1228.86,556.35V422.23H1201c-15,0-27.22,15.75-27.22,35.17V588.17h30.42C1217.83,588.17,1228.86,573.92,1228.86,556.35Z"/><path class="cls-42" d="M1192.16,588.17V457.4c0-19.42,12.19-35.17,27.22-35.17H1201c-15,0-27.22,15.75-27.22,35.17V588.17Z"/><path class="cls-42" d="M1315.76,379.49v-83a20.84,20.84,0,0,0-20.83-20.84h-34.22V404.12h30.42A24.63,24.63,0,0,0,1315.76,379.49Z"/><path class="cls-5" d="M1283.91,519.75V347.39h-27.83c-15,0-27.22,20.24-27.22,45.2V560.64h30.42C1272.88,560.64,1283.91,542.33,1283.91,519.75Z"/><path class="cls-5" d="M1295.29,299.74V195.92h-27.82a27.22,27.22,0,0,0-27.22,27.23V304a20.34,20.34,0,0,0,20.34,20.34h10.07A24.63,24.63,0,0,0,1295.29,299.74Z"/><path class="cls-42" d="M1247.21,560.64v-168c0-25,12.19-45.2,27.22-45.2h-18.35c-15,0-27.22,20.24-27.22,45.2V560.64Z"/></g></g></svg>