<svg xmlns="http://www.w3.org/2000/svg" viewBox="0 0 540.68 642.99"><defs><style>.cls-1{fill:#232257;}.cls-2{opacity:0.5;}.cls-3{fill:#242058;}</style></defs><title>brief</title><g id="Layer_2" data-name="Layer 2"><g id="Layer_1-2" data-name="Layer 1"><path class="cls-1" d="M484.75,643H77.28a12.77,12.77,0,0,1-12.77-12.77V39.59A39.63,39.63,0,0,1,104.1,0H527.91a12.77,12.77,0,0,1,12.77,12.77V587.06A56,56,0,0,1,484.75,643ZM90.06,617.44H484.75a30.42,30.42,0,0,0,30.39-30.38V25.54h-411a14.05,14.05,0,0,0-14,14.05Z"/><path class="cls-1" d="M238.66,188.51H122.94a12.78,12.78,0,0,1-12.78-12.77V60a12.77,12.77,0,0,1,12.78-12.77H238.66A12.77,12.77,0,0,1,251.43,60V175.74A12.77,12.77,0,0,1,238.66,188.51ZM135.71,163h90.18V72.79H135.71Z"/><path class="cls-1" d="M482.26,238.7H122.94a12.77,12.77,0,1,1,0-25.54H482.26a12.77,12.77,0,0,1,0,25.54Z"/><path class="cls-1" d="M482.26,489.63H238.66a12.77,12.77,0,1,1,0-25.54h243.6a12.77,12.77,0,0,1,0,25.54Z"/><path class="cls-1" d="M194.17,489.63H122.94a12.77,12.77,0,1,1,0-25.54h71.23a12.77,12.77,0,0,1,0,25.54Z"/><path class="cls-1" d="M194.17,439.45H122.94a12.78,12.78,0,1,1,0-25.55h71.23a12.78,12.78,0,0,1,0,25.55Z"/><path class="cls-1" d="M306.24,439.45H235a12.78,12.78,0,0,1,0-25.55h71.23a12.78,12.78,0,0,1,0,25.55Z"/><path class="cls-1" d="M487,439.45H342.86a12.78,12.78,0,0,1,0-25.55H487a12.78,12.78,0,1,1,0,25.55Z"/><path class="cls-1" d="M194.17,288.89H122.94a12.78,12.78,0,1,1,0-25.55h71.23a12.78,12.78,0,0,1,0,25.55Z"/><path class="cls-1" d="M306.24,288.89H235a12.78,12.78,0,0,1,0-25.55h71.23a12.78,12.78,0,0,1,0,25.55Z"/><path class="cls-1" d="M487,288.89H342.86a12.78,12.78,0,0,1,0-25.55H487a12.78,12.78,0,1,1,0,25.55Z"/><path class="cls-1" d="M302.6,489.63H238.66a12.77,12.77,0,1,1,0-25.54H302.6a12.77,12.77,0,0,1,0,25.54Z"/><path class="cls-1" d="M416.68,539.82H122.94a12.77,12.77,0,1,1,0-25.54H416.68a12.77,12.77,0,1,1,0,25.54Z"/><path class="cls-1" d="M482.26,539.82H451.41a12.77,12.77,0,1,1,0-25.54h30.85a12.77,12.77,0,0,1,0,25.54Z"/><path class="cls-1" d="M416.68,389.26H122.94a12.77,12.77,0,1,1,0-25.54H416.68a12.77,12.77,0,1,1,0,25.54Z"/><path class="cls-1" d="M482.26,389.26H451.41a12.77,12.77,0,0,1,0-25.54h30.85a12.77,12.77,0,0,1,0,25.54Z"/><path class="cls-1" d="M342.86,590H122.94a12.77,12.77,0,1,1,0-25.54H342.86a12.77,12.77,0,0,1,0,25.54Z"/><path class="cls-1" d="M482.26,590H392.44a12.77,12.77,0,1,1,0-25.54h89.82a12.77,12.77,0,0,1,0,25.54Z"/><path class="cls-1" d="M342.86,339.07H122.94a12.77,12.77,0,1,1,0-25.54H342.86a12.77,12.77,0,0,1,0,25.54Z"/><path class="cls-1" d="M482.26,339.07H392.44a12.77,12.77,0,1,1,0-25.54h89.82a12.77,12.77,0,0,1,0,25.54Z"/><path class="cls-1" d="M77.28,643H62.85A62.92,62.92,0,0,1,0,580.14V321.49a12.77,12.77,0,0,1,12.77-12.77H77.28a12.78,12.78,0,0,1,12.78,12.77V630.22A12.78,12.78,0,0,1,77.28,643ZM25.54,334.27V580.14a37.35,37.35,0,0,0,37.31,37.3h1.66V334.27Z"/><g class="cls-2"><rect class="cls-3" x="45.03" y="321.49" width="32.25" height="308.72"/></g></g></g></svg>