<svg xmlns="http://www.w3.org/2000/svg" viewBox="0 0 819.72 810"><defs><style>.cls-1,.cls-3{fill:#232257;}.cls-2{opacity:0.5;}.cls-3{font-size:78.93px;font-family:Manrope-ExtraBold, Manrope;font-weight:800;}.cls-4{letter-spacing:-0.02em;}</style></defs><title>data-visual</title><g id="Layer_2" data-name="Layer 2"><g id="Layer_4" data-name="Layer 4"><path class="cls-1" d="M129.62,106.15A17.65,17.65,0,0,1,121.17,73C208.88,25.25,308.71,0,409.86,0c100,0,198.87,24.71,285.86,71.47A17.64,17.64,0,0,1,679,102.55c-81.86-44-174.93-67.27-269.15-67.27C314.58,35.28,220.59,59,138,104A17.56,17.56,0,0,1,129.62,106.15Z"/><path class="cls-1" d="M409.86,541.22a607.67,607.67,0,0,1-173.18-25,17.64,17.64,0,1,1,10-33.82,572.06,572.06,0,0,0,163.13,23.56,572,572,0,0,0,166.63-24.61,17.64,17.64,0,0,1,10.26,33.76A607.31,607.31,0,0,1,409.86,541.22Z"/><path class="cls-1" d="M409.86,484.07c-146.95,0-285-57.41-388.57-161.66a73.66,73.66,0,0,1,0-103.6C124.91,114.56,262.91,57.15,409.86,57.15s284.95,57.41,388.57,161.66a73.66,73.66,0,0,1,0,103.6C694.81,426.66,556.81,484.07,409.86,484.07Zm0-391.64c-137.49,0-266.6,53.72-363.55,151.26a38.29,38.29,0,0,0,0,53.84c96.95,97.54,226.06,151.26,363.55,151.26s266.6-53.72,363.55-151.26a38.27,38.27,0,0,0,0-53.84C676.46,146.15,547.35,92.43,409.86,92.43Z"/><path class="cls-1" d="M409.86,288.25H272.56a17.64,17.64,0,0,1-17.64-17.64A155,155,0,0,1,409.86,115.67a17.64,17.64,0,0,1,17.64,17.64v137.3A17.64,17.64,0,0,1,409.86,288.25ZM291.48,253H392.22V152.23A119.87,119.87,0,0,0,291.48,253Z"/><g class="cls-2"><path class="cls-1" d="M507,173.53l-97.12,97.08V133.31A136.76,136.76,0,0,1,507,173.53Z"/></g><path class="cls-1" d="M409.85,288.25a17.62,17.62,0,0,1-17.63-17.64V133.31a17.64,17.64,0,0,1,17.64-17.64,153.79,153.79,0,0,1,109.61,45.4,17.65,17.65,0,0,1,0,24.94l-97.13,97.08A17.67,17.67,0,0,1,409.85,288.25Zm17.65-136V228l53.63-53.61A118.29,118.29,0,0,0,427.5,152.23Z"/><path class="cls-1" d="M547.18,288.25H409.86a17.63,17.63,0,0,1-12.47-30.11l97.1-97.1a17.64,17.64,0,0,1,25,0,154,154,0,0,1,45.38,109.57A17.64,17.64,0,0,1,547.18,288.25ZM452.45,253h75.81a118.41,118.41,0,0,0-22.2-53.6Z"/><path class="cls-1" d="M409.86,425.6a155,155,0,0,1-154.94-155A17.64,17.64,0,0,1,272.56,253h137.3a17.65,17.65,0,0,1,12.47,5.17l97.13,97.12a17.64,17.64,0,0,1,0,24.95A154,154,0,0,1,409.86,425.6ZM291.48,288.25a119.75,119.75,0,0,0,189.65,78.58l-78.58-78.58Z"/><path class="cls-1" d="M507,385.38a17.65,17.65,0,0,1-12.47-5.17l-97.13-97.13A17.64,17.64,0,0,1,409.86,253H547.2a17.64,17.64,0,0,1,17.64,17.64,154,154,0,0,1-45.38,109.6A17.63,17.63,0,0,1,507,385.38Zm-54.53-97.13,53.62,53.63a118.38,118.38,0,0,0,22.21-53.63Z"/><text class="cls-3" transform="translate(46.21 785.33)">Data <tspan class="cls-4" x="207.18" y="0">V</tspan><tspan x="259.23" y="0">isualisation</tspan></text></g></g></svg>