<svg xmlns="http://www.w3.org/2000/svg" xmlns:xlink="http://www.w3.org/1999/xlink" viewBox="0 0 275.27 522.46"><defs><style>.cls-1{fill:#586578;}.cls-2{fill:#475262;}.cls-3{fill:#9fbab5;}.cls-4{fill:#faa724;}.cls-5{fill:#e05b26;}.cls-6{fill:#ffe5c1;}.cls-7{fill:#d7902a;}.cls-8{fill:url(#linear-gradient);}.cls-9{fill:url(#linear-gradient-2);}.cls-10{fill:url(#linear-gradient-3);}.cls-11{fill:url(#linear-gradient-4);}.cls-12{fill:#e25a26;}.cls-13{fill:#cb5128;}.cls-14{fill:#849a96;}</style><linearGradient id="linear-gradient" x1="150.96" y1="224.92" x2="150.96" y2="347.7" gradientUnits="userSpaceOnUse"><stop offset="0" stop-color="#e05b26"/><stop offset="0.17" stop-color="#d85727"/><stop offset="0.54" stop-color="#ce5328"/><stop offset="1" stop-color="#cb5128"/></linearGradient><linearGradient id="linear-gradient-2" x1="106.92" y1="254.28" x2="106.92" y2="377.06" xlink:href="#linear-gradient"/><linearGradient id="linear-gradient-3" x1="150.96" y1="386.4" x2="150.96" y2="496.49" gradientUnits="userSpaceOnUse"><stop offset="0" stop-color="#faa724"/><stop offset="0.59" stop-color="#e79a27"/><stop offset="1" stop-color="#d7902a"/></linearGradient><linearGradient id="linear-gradient-4" x1="106.92" y1="386.4" x2="106.92" y2="496.49" xlink:href="#linear-gradient-3"/></defs><title>illustration</title><g id="Layer_2" data-name="Layer 2"><g id="Layer_1-2" data-name="Layer 1"><path class="cls-1" d="M137.63,0h0A137.63,137.63,0,0,1,275.27,137.63V507.16a15.3,15.3,0,0,1-15.3,15.3H15.3A15.3,15.3,0,0,1,0,507.16V137.63A137.63,137.63,0,0,1,137.63,0Z"/><path class="cls-2" d="M0,468.52v38.64a15.3,15.3,0,0,0,15.3,15.3H260a15.3,15.3,0,0,0,15.3-15.3V468.52Z"/><rect class="cls-3" x="66.55" y="136.85" width="146.79" height="7.34" rx="2.59"/><path class="cls-3" d="M120.89,114.83H159a10.3,10.3,0,0,1,10.3,10.3v11.72a0,0,0,0,1,0,0H110.59a0,0,0,0,1,0,0V125.13A10.3,10.3,0,0,1,120.89,114.83Z"/><path class="cls-4" d="M104.72,202.91h71.6a22.35,22.35,0,0,1,22.35,22.35V496.49a0,0,0,0,1,0,0H81.23a0,0,0,0,1,0,0V226.4A23.49,23.49,0,0,1,104.72,202.91Z"/><path class="cls-5" d="M198.67,218.49V320.34H169.31a14.69,14.69,0,0,0-14.68,14.57,14.91,14.91,0,0,1-7.34,12.79,14.39,14.39,0,0,1-7.34,2H125.27a14.68,14.68,0,0,0-14.68,14.57,14.91,14.91,0,0,1-7.34,12.79,14.36,14.36,0,0,1-7.34,2H81.23V219.3a16.39,16.39,0,0,1,16.4-16.39h13V144.19h58.72v44.94a13.79,13.79,0,0,0,13.77,13.78A15.58,15.58,0,0,1,198.67,218.49Z"/><path class="cls-6" d="M110.59,144.19v29.36H95.91a29.36,29.36,0,0,0-29.36,29.36h44a29.36,29.36,0,0,0,0-58.72Z"/><circle class="cls-7" cx="121.99" cy="166.21" r="7.34"/><circle class="cls-4" cx="121.99" cy="166.21" r="5.58"/><path class="cls-8" d="M154.63,224.92v110a14.91,14.91,0,0,1-7.34,12.79V224.92Z"/><path class="cls-9" d="M110.59,254.28v110a14.91,14.91,0,0,1-7.34,12.79V254.28Z"/><path class="cls-10" d="M154.63,496.49V386.4h-7.34V496.49Z"/><path class="cls-11" d="M110.59,496.49V386.4h-7.34V496.49Z"/><polygon class="cls-12" points="81.23 295.71 45.97 330.98 45.97 350.77 81.23 350.77 81.23 295.71"/><polygon class="cls-13" points="74.1 302.85 74.1 350.77 81.23 350.77 81.23 295.71 74.1 302.85"/><path class="cls-6" d="M46,350.77H28.12a8.53,8.53,0,0,1-8.53-8.53V334.6a8.53,8.53,0,0,1,10.91-8.19L46,330.9Z"/><rect class="cls-14" x="110.59" y="129.51" width="58.68" height="7.34"/></g></g></svg>