<svg xmlns="http://www.w3.org/2000/svg" viewBox="0 0 737.27 954"><defs><style>.cls-1{font-size:84.46px;font-family:Manrope-ExtraBold, Manrope;font-weight:800;}.cls-1,.cls-4{fill:#232257;}.cls-2{letter-spacing:-0.03em;}.cls-3{letter-spacing:-0.03em;}.cls-5{opacity:0.5;}.cls-6{fill:#242058;}</style></defs><title>illustrator</title><g id="Layer_2" data-name="Layer 2"><g id="Layer_5" data-name="Layer 5"><text class="cls-1" transform="translate(0 927.6)">Adobe Illust<tspan class="cls-2" x="516.17" y="0">r</tspan><tspan x="554.18" y="0">a</tspan><tspan class="cls-3" x="605.48" y="0">t</tspan><tspan x="641.9" y="0">or</tspan></text><path class="cls-4" d="M639.55,706.62H97.71a82.38,82.38,0,0,1-82.38-82.39V82.39A82.38,82.38,0,0,1,97.71,0H639.55a82.39,82.39,0,0,1,82.39,82.39V624.23A82.39,82.39,0,0,1,639.55,706.62ZM97.71,62.61A19.78,19.78,0,0,0,77.94,82.39V624.23A19.77,19.77,0,0,0,97.71,644H639.55a19.77,19.77,0,0,0,19.78-19.77V82.39a19.78,19.78,0,0,0-19.78-19.78Z"/><path class="cls-4" d="M452,458.82H402.5l-17.66-50.11H302.62L285,458.82H236.79L322.85,234h43.68ZM369.42,366,355,325.22c-4.49-13.17-9-26.65-11.23-35-2.25,8.35-6.74,21.83-11.24,35L318,366Z"/><path class="cls-4" d="M511.91,242.7c6.83,20-12.32,39.13-32.29,32.3A25.33,25.33,0,0,1,464,259.36c-6.83-20,12.33-39.11,32.29-32.29A25.29,25.29,0,0,1,511.91,242.7Zm-1.8,216.12H465.79V290.22h44.32Z"/><g class="cls-5"><rect class="cls-6" x="14.35" y="644.46" width="708.57" height="109.14" rx="50.02"/></g></g></g></svg>