<svg xmlns="http://www.w3.org/2000/svg" xmlns:xlink="http://www.w3.org/1999/xlink" viewBox="0 0 652.24 909.43"><defs><style>.cls-1,.cls-13,.cls-14,.cls-3,.cls-4,.cls-8{fill:none;}.cls-11,.cls-2,.cls-5,.cls-7{fill:#fff;}.cls-13,.cls-14,.cls-2,.cls-3,.cls-4,.cls-5,.cls-7,.cls-8{stroke:#232257;stroke-linejoin:round;}.cls-2,.cls-3{stroke-width:10px;}.cls-13,.cls-14,.cls-3,.cls-4,.cls-5,.cls-7,.cls-8{stroke-linecap:round;}.cls-3,.cls-6,.cls-9{opacity:0.5;}.cls-4,.cls-7{stroke-width:4px;}.cls-5,.cls-8{stroke-width:12px;}.cls-12,.cls-15,.cls-9{fill:#232257;}.cls-10{clip-path:url(#clip-path);}.cls-13{stroke-width:20px;}.cls-14{stroke-width:32px;}.cls-15{opacity:0.2;}</style><clipPath id="clip-path"><circle class="cls-1" cx="434.75" cy="393.08" r="109.16"/></clipPath></defs><title>info-research_1</title><g id="Layer_2" data-name="Layer 2"><g id="Layer_2_copy" data-name="Layer 2 copy"><rect class="cls-2" x="69.82" y="159.28" width="420.94" height="590.87"/><rect class="cls-2" x="69.82" y="159.28" width="420.94" height="62.64"/><polyline class="cls-3" points="148.91 171.68 83.9 171.68 83.9 428.69"/><polyline class="cls-4" points="90.53 209.3 83.9 202.67 90.53 209.3"/><polyline class="cls-4" points="90.53 196.04 83.9 202.67 99.62 202.67"/><polyline class="cls-4" points="120.19 196.04 126.82 202.67 120.19 196.04"/><polyline class="cls-4" points="120.19 209.3 126.82 202.67 111.1 202.67"/><line class="cls-5" x1="357.08" y1="244.42" x2="455.07" y2="244.42"/><line class="cls-5" x1="303.97" y1="244.42" x2="338.3" y2="244.42"/><line class="cls-5" x1="428.75" y1="267.46" x2="455.07" y2="267.46"/><line class="cls-5" x1="303.97" y1="267.46" x2="384.22" y2="267.46"/><line class="cls-5" x1="397.44" y1="290.49" x2="455.07" y2="290.49"/><line class="cls-5" x1="351.17" y1="290.49" x2="375.68" y2="290.49"/><line class="cls-5" x1="303.97" y1="290.49" x2="332.03" y2="290.49"/><line class="cls-5" x1="350.82" y1="313.52" x2="455.07" y2="313.52"/><line class="cls-5" x1="303.97" y1="313.52" x2="325.77" y2="313.52"/><line class="cls-5" x1="438.61" y1="336.55" x2="455.07" y2="336.55"/><line class="cls-5" x1="303.97" y1="336.55" x2="423.42" y2="336.55"/><line class="cls-5" x1="357.08" y1="359.59" x2="455.07" y2="359.59"/><line class="cls-5" x1="303.97" y1="359.59" x2="335.55" y2="359.59"/><line class="cls-5" x1="388.93" y1="382.62" x2="455.07" y2="382.62"/><line class="cls-5" x1="330.03" y1="382.62" x2="373.07" y2="382.62"/><line class="cls-5" x1="303.97" y1="382.62" x2="314.87" y2="382.62"/><line class="cls-5" x1="397.44" y1="405.65" x2="455.07" y2="405.65"/><line class="cls-5" x1="298.18" y1="405.65" x2="373.07" y2="405.65"/><line class="cls-5" x1="188.25" y1="405.65" x2="278.47" y2="405.65"/><line class="cls-5" x1="105.53" y1="405.65" x2="164.73" y2="405.65"/><line class="cls-5" x1="292.84" y1="428.69" x2="455.07" y2="428.69"/><line class="cls-5" x1="105.53" y1="428.69" x2="261.23" y2="428.69"/><line class="cls-5" x1="202.1" y1="451.72" x2="455.07" y2="451.72"/><line class="cls-5" x1="105.53" y1="451.72" x2="165.97" y2="451.72"/><line class="cls-5" x1="332.03" y1="497.79" x2="455.07" y2="497.79"/><line class="cls-5" x1="105.53" y1="497.79" x2="298.18" y2="497.79"/><line class="cls-5" x1="422" y1="520.82" x2="455.07" y2="520.82"/><line class="cls-5" x1="218.31" y1="520.82" x2="402.94" y2="520.82"/><line class="cls-5" x1="105.53" y1="520.82" x2="192.91" y2="520.82"/><line class="cls-5" x1="261.23" y1="543.85" x2="455.07" y2="543.85"/><line class="cls-5" x1="105.53" y1="543.85" x2="238.84" y2="543.85"/><line class="cls-5" x1="247.85" y1="566.88" x2="262.04" y2="566.88"/><line class="cls-5" x1="105.53" y1="566.88" x2="227.34" y2="566.88"/><line class="cls-5" x1="172.18" y1="589.92" x2="262.04" y2="589.92"/><line class="cls-5" x1="105.53" y1="589.92" x2="145.65" y2="589.92"/><line class="cls-5" x1="208.73" y1="612.95" x2="262.04" y2="612.95"/><line class="cls-5" x1="105.53" y1="612.95" x2="192.91" y2="612.95"/><line class="cls-5" x1="158.64" y1="635.98" x2="262.04" y2="635.98"/><line class="cls-5" x1="105.53" y1="635.98" x2="125.86" y2="635.98"/><line class="cls-5" x1="227.34" y1="659.02" x2="262.04" y2="659.02"/><line class="cls-5" x1="135.13" y1="659.02" x2="212.44" y2="659.02"/><line class="cls-5" x1="105.53" y1="659.02" x2="116.59" y2="659.02"/><line class="cls-5" x1="183.78" y1="682.05" x2="262.04" y2="682.05"/><line class="cls-5" x1="105.53" y1="682.05" x2="158.64" y2="682.05"/><line class="cls-5" x1="105.53" y1="705.08" x2="262.04" y2="705.08"/><line class="cls-5" x1="367.68" y1="728.12" x2="455.07" y2="728.12"/><line class="cls-5" x1="204.41" y1="728.12" x2="348.42" y2="728.12"/><line class="cls-5" x1="105.53" y1="728.12" x2="187.06" y2="728.12"/><rect class="cls-5" x="105.53" y="244.42" width="174.77" height="138.2"/><g class="cls-6"><line class="cls-7" x1="280.3" y1="566.88" x2="280.3" y2="705.08"/><line class="cls-7" x1="294.86" y1="566.88" x2="294.86" y2="705.08"/><line class="cls-7" x1="309.43" y1="566.88" x2="309.43" y2="705.08"/><line class="cls-7" x1="323.99" y1="566.88" x2="323.99" y2="705.08"/><line class="cls-7" x1="338.55" y1="566.88" x2="338.55" y2="705.08"/><line class="cls-7" x1="353.12" y1="566.88" x2="353.12" y2="705.08"/><line class="cls-7" x1="367.68" y1="566.88" x2="367.68" y2="705.08"/><line class="cls-7" x1="382.25" y1="566.88" x2="382.25" y2="705.08"/><line class="cls-7" x1="396.81" y1="566.88" x2="396.81" y2="705.08"/><line class="cls-7" x1="411.37" y1="566.88" x2="411.37" y2="705.08"/><line class="cls-7" x1="425.94" y1="566.88" x2="425.94" y2="705.08"/><line class="cls-7" x1="440.5" y1="566.88" x2="440.5" y2="705.08"/><line class="cls-7" x1="455.07" y1="566.88" x2="455.07" y2="705.08"/></g><g class="cls-6"><line class="cls-7" x1="455.07" y1="563.16" x2="280.3" y2="563.16"/><line class="cls-7" x1="455.07" y1="577.73" x2="280.3" y2="577.73"/><line class="cls-7" x1="455.07" y1="592.29" x2="280.3" y2="592.29"/><line class="cls-7" x1="455.07" y1="606.86" x2="280.3" y2="606.86"/><line class="cls-7" x1="455.07" y1="621.42" x2="280.3" y2="621.42"/><line class="cls-7" x1="455.07" y1="635.98" x2="280.3" y2="635.98"/><line class="cls-7" x1="455.07" y1="650.55" x2="280.3" y2="650.55"/><line class="cls-7" x1="455.07" y1="665.11" x2="280.3" y2="665.11"/><line class="cls-7" x1="455.07" y1="679.68" x2="280.3" y2="679.68"/><line class="cls-7" x1="455.07" y1="694.24" x2="280.3" y2="694.24"/><line class="cls-7" x1="455.07" y1="708.81" x2="280.3" y2="708.81"/></g><rect class="cls-8" x="280.3" y="566.88" width="174.77" height="138.2"/><path class="cls-4" d="M144.89,210.75a8.08,8.08,0,1,1,8.08-8.08H148.6"/><line class="cls-4" x1="152.97" y1="202.67" x2="155.65" y2="199.99"/><path class="cls-9" d="M490.84,460.41a87.78,87.78,0,1,1,0-134.66V275.33A130.92,130.92,0,0,0,342.19,300.8c-50.88,50.88-50.88,133.67,0,184.55a129.66,129.66,0,0,0,92.28,38.17,131.4,131.4,0,0,0,56.37-12.81Z"/><g class="cls-10"><rect class="cls-11" x="7.57" y="7.57" width="637.11" height="894.3"/><path class="cls-12" d="M644.68,909.43H7.57A7.57,7.57,0,0,1,0,901.86V7.57A7.57,7.57,0,0,1,7.57,0H644.68a7.56,7.56,0,0,1,7.56,7.57V901.86A7.56,7.56,0,0,1,644.68,909.43ZM15.14,894.3h622V15.14h-622Z"/><rect class="cls-11" x="7.57" y="7.57" width="637.11" height="94.81"/><path class="cls-12" d="M644.68,109.94H7.57A7.56,7.56,0,0,1,0,102.38V7.57A7.57,7.57,0,0,1,7.57,0H644.68a7.56,7.56,0,0,1,7.56,7.57v94.81A7.55,7.55,0,0,1,644.68,109.94ZM15.14,94.81h622V15.14h-622Z"/><path class="cls-12" d="M93.84,76.26a3,3,0,0,1-2.15-.88l-10-10a3,3,0,0,1,4.28-4.28l10,10a3,3,0,0,1,0,4.28A3,3,0,0,1,93.84,76.26Z"/><path class="cls-12" d="M83.8,86.3a3,3,0,0,1-2.14-.89,3,3,0,0,1,0-4.28l4.87-4.87H70a3,3,0,1,1,0-6.05h23.8A3,3,0,0,1,96,75.38l-10,10A3,3,0,0,1,83.8,86.3Z"/><line class="cls-11" x1="442.34" y1="136.43" x2="590.64" y2="136.43"/><path class="cls-12" d="M590.64,145.51H442.34a9.08,9.08,0,1,1,0-18.16h148.3a9.08,9.08,0,1,1,0,18.16Z"/><line class="cls-11" x1="361.95" y1="136.43" x2="413.91" y2="136.43"/><path class="cls-12" d="M413.91,145.51H362a9.08,9.08,0,1,1,0-18.16h52a9.08,9.08,0,0,1,0,18.16Z"/><line class="cls-11" x1="550.81" y1="171.29" x2="590.64" y2="171.29"/><path class="cls-12" d="M590.64,180.37H550.81a9.08,9.08,0,1,1,0-18.16h39.83a9.08,9.08,0,1,1,0,18.16Z"/><line class="cls-11" x1="361.95" y1="171.29" x2="483.41" y2="171.29"/><path class="cls-12" d="M483.41,180.37H362a9.08,9.08,0,1,1,0-18.16H483.41a9.08,9.08,0,0,1,0,18.16Z"/><line class="cls-11" x1="503.42" y1="206.15" x2="590.64" y2="206.15"/><path class="cls-12" d="M590.64,215.24H503.42a9.09,9.09,0,0,1,0-18.17h87.22a9.09,9.09,0,0,1,0,18.17Z"/><line class="cls-11" x1="433.38" y1="206.15" x2="470.49" y2="206.15"/><path class="cls-12" d="M470.49,215.24H433.38a9.09,9.09,0,0,1,0-18.17h37.11a9.09,9.09,0,0,1,0,18.17Z"/><line class="cls-11" x1="361.95" y1="206.15" x2="404.43" y2="206.15"/><path class="cls-12" d="M404.43,215.24H362a9.09,9.09,0,0,1,0-18.17h42.48a9.09,9.09,0,0,1,0,18.17Z"/><line class="cls-11" x1="432.86" y1="241.02" x2="590.64" y2="241.02"/><path class="cls-12" d="M590.64,250.1H432.86a9.09,9.09,0,0,1,0-18.17H590.64a9.09,9.09,0,0,1,0,18.17Z"/><line class="cls-11" x1="361.95" y1="241.02" x2="394.95" y2="241.02"/><path class="cls-12" d="M395,250.1H362a9.09,9.09,0,0,1,0-18.17h33a9.09,9.09,0,0,1,0,18.17Z"/><line class="cls-11" x1="565.73" y1="275.88" x2="590.64" y2="275.88"/><path class="cls-12" d="M590.64,285H565.73a9.09,9.09,0,0,1,0-18.17h24.91a9.09,9.09,0,0,1,0,18.17Z"/><line class="cls-11" x1="361.95" y1="275.88" x2="542.74" y2="275.88"/><path class="cls-12" d="M542.74,285H362a9.09,9.09,0,0,1,0-18.17H542.74a9.09,9.09,0,0,1,0,18.17Z"/><line class="cls-11" x1="442.34" y1="310.74" x2="590.64" y2="310.74"/><path class="cls-12" d="M590.64,319.82H442.34a9.08,9.08,0,1,1,0-18.16h148.3a9.08,9.08,0,1,1,0,18.16Z"/><line class="cls-11" x1="361.95" y1="310.74" x2="409.74" y2="310.74"/><path class="cls-12" d="M409.74,319.82H362a9.08,9.08,0,1,1,0-18.16h47.79a9.08,9.08,0,0,1,0,18.16Z"/><line class="cls-11" x1="490.53" y1="345.6" x2="590.64" y2="345.6"/><path class="cls-12" d="M590.64,354.68H490.53a9.08,9.08,0,1,1,0-18.16H590.64a9.08,9.08,0,1,1,0,18.16Z"/><line class="cls-11" x1="401.4" y1="345.6" x2="466.53" y2="345.6"/><path class="cls-12" d="M466.53,354.68H401.4a9.08,9.08,0,0,1,0-18.16h65.13a9.08,9.08,0,1,1,0,18.16Z"/><line class="cls-11" x1="361.95" y1="345.6" x2="378.45" y2="345.6"/><path class="cls-12" d="M378.45,354.68H362a9.08,9.08,0,0,1,0-18.16h16.5a9.08,9.08,0,0,1,0,18.16Z"/><line class="cls-11" x1="503.42" y1="380.46" x2="590.64" y2="380.46"/><path class="cls-12" d="M590.64,389.54H503.42a9.08,9.08,0,0,1,0-18.16h87.22a9.08,9.08,0,1,1,0,18.16Z"/><line class="cls-11" x1="353.19" y1="380.46" x2="466.53" y2="380.46"/><path class="cls-12" d="M466.53,389.54H353.19a9.08,9.08,0,1,1,0-18.16H466.53a9.08,9.08,0,1,1,0,18.16Z"/><line class="cls-11" x1="186.81" y1="380.46" x2="323.36" y2="380.46"/><path class="cls-12" d="M323.36,389.54H186.81a9.08,9.08,0,0,1,0-18.16H323.36a9.08,9.08,0,1,1,0,18.16Z"/><line class="cls-11" x1="61.6" y1="380.46" x2="151.21" y2="380.46"/><path class="cls-12" d="M151.21,389.54H61.6a9.08,9.08,0,1,1,0-18.16h89.61a9.08,9.08,0,1,1,0,18.16Z"/><line class="cls-11" x1="345.11" y1="415.32" x2="590.64" y2="415.32"/><path class="cls-12" d="M590.64,424.4H345.11a9.08,9.08,0,0,1,0-18.16H590.64a9.08,9.08,0,1,1,0,18.16Z"/><line class="cls-11" x1="61.6" y1="415.32" x2="297.26" y2="415.32"/><path class="cls-12" d="M297.26,424.4H61.6a9.08,9.08,0,0,1,0-18.16H297.26a9.08,9.08,0,0,1,0,18.16Z"/><line class="cls-11" x1="207.77" y1="450.18" x2="590.64" y2="450.18"/><path class="cls-12" d="M590.64,459.26H207.77a9.08,9.08,0,0,1,0-18.16H590.64a9.08,9.08,0,1,1,0,18.16Z"/><line class="cls-11" x1="61.6" y1="450.18" x2="153.08" y2="450.18"/><path class="cls-12" d="M153.08,459.26H61.6a9.08,9.08,0,0,1,0-18.16h91.48a9.08,9.08,0,0,1,0,18.16Z"/><line class="cls-11" x1="404.43" y1="519.9" x2="590.64" y2="519.9"/><path class="cls-12" d="M590.64,529H404.43a9.08,9.08,0,1,1,0-18.16H590.64a9.08,9.08,0,1,1,0,18.16Z"/><line class="cls-11" x1="61.6" y1="519.9" x2="353.19" y2="519.9"/><path class="cls-12" d="M353.19,529H61.6a9.08,9.08,0,1,1,0-18.16H353.19a9.08,9.08,0,0,1,0,18.16Z"/><line class="cls-11" x1="540.59" y1="554.76" x2="590.64" y2="554.76"/><path class="cls-12" d="M590.64,563.85h-50a9.09,9.09,0,0,1,0-18.17h50a9.09,9.09,0,0,1,0,18.17Z"/><line class="cls-11" x1="232.3" y1="554.76" x2="511.75" y2="554.76"/><path class="cls-12" d="M511.75,563.85H232.3a9.09,9.09,0,0,1,0-18.17H511.75a9.09,9.09,0,0,1,0,18.17Z"/><line class="cls-11" x1="61.6" y1="554.76" x2="193.86" y2="554.76"/><path class="cls-12" d="M193.86,563.85H61.6a9.09,9.09,0,0,1,0-18.17H193.86a9.09,9.09,0,0,1,0,18.17Z"/><line class="cls-11" x1="297.26" y1="589.62" x2="590.64" y2="589.62"/><path class="cls-12" d="M590.64,598.71H297.26a9.09,9.09,0,0,1,0-18.17H590.64a9.09,9.09,0,0,1,0,18.17Z"/><line class="cls-11" x1="61.6" y1="589.62" x2="263.38" y2="589.62"/><path class="cls-12" d="M263.38,598.71H61.6a9.09,9.09,0,0,1,0-18.17H263.38a9.09,9.09,0,0,1,0,18.17Z"/><line class="cls-11" x1="277.01" y1="624.49" x2="298.49" y2="624.49"/><path class="cls-12" d="M298.49,633.57H277a9.09,9.09,0,0,1,0-18.17h21.48a9.09,9.09,0,0,1,0,18.17Z"/><line class="cls-11" x1="61.6" y1="624.49" x2="245.96" y2="624.49"/><path class="cls-12" d="M246,633.57H61.6a9.09,9.09,0,0,1,0-18.17H246a9.09,9.09,0,0,1,0,18.17Z"/><line class="cls-11" x1="162.49" y1="659.35" x2="298.49" y2="659.35"/><path class="cls-12" d="M298.49,668.43h-136a9.08,9.08,0,0,1,0-18.16h136a9.08,9.08,0,0,1,0,18.16Z"/><line class="cls-11" x1="61.6" y1="659.35" x2="122.34" y2="659.35"/><path class="cls-12" d="M122.34,668.43H61.6a9.08,9.08,0,0,1,0-18.16h60.74a9.08,9.08,0,0,1,0,18.16Z"/><line class="cls-11" x1="217.81" y1="694.21" x2="298.49" y2="694.21"/><path class="cls-12" d="M298.49,703.29H217.81a9.08,9.08,0,0,1,0-18.16h80.68a9.08,9.08,0,0,1,0,18.16Z"/><line class="cls-11" x1="61.6" y1="694.21" x2="193.86" y2="694.21"/><path class="cls-12" d="M193.86,703.29H61.6a9.08,9.08,0,0,1,0-18.16H193.86a9.08,9.08,0,0,1,0,18.16Z"/><line class="cls-11" x1="141.99" y1="729.07" x2="298.49" y2="729.07"/><path class="cls-12" d="M298.49,738.15H142A9.08,9.08,0,0,1,142,720h156.5a9.08,9.08,0,0,1,0,18.16Z"/><line class="cls-11" x1="61.6" y1="729.07" x2="92.38" y2="729.07"/><path class="cls-12" d="M92.39,738.15H61.6a9.08,9.08,0,0,1,0-18.16H92.39a9.08,9.08,0,1,1,0,18.16Z"/><line class="cls-11" x1="245.96" y1="763.93" x2="298.49" y2="763.93"/><path class="cls-12" d="M298.49,773H246a9.08,9.08,0,0,1,0-18.16h52.53a9.08,9.08,0,0,1,0,18.16Z"/><line class="cls-11" x1="106.41" y1="763.93" x2="223.42" y2="763.93"/><path class="cls-12" d="M223.42,773h-117a9.08,9.08,0,0,1,0-18.16h117a9.08,9.08,0,1,1,0,18.16Z"/><line class="cls-11" x1="180.05" y1="798.79" x2="298.49" y2="798.79"/><path class="cls-12" d="M298.49,807.87H180a9.08,9.08,0,1,1,0-18.16H298.49a9.08,9.08,0,0,1,0,18.16Z"/><line class="cls-11" x1="61.6" y1="798.79" x2="141.99" y2="798.79"/><path class="cls-12" d="M142,807.87H61.6a9.08,9.08,0,0,1,0-18.16H142a9.08,9.08,0,0,1,0,18.16Z"/><line class="cls-11" x1="61.6" y1="833.65" x2="298.49" y2="833.65"/><path class="cls-12" d="M298.49,842.73H61.6a9.08,9.08,0,0,1,0-18.16H298.49a9.08,9.08,0,0,1,0,18.16Z"/><line class="cls-11" x1="458.38" y1="868.51" x2="590.64" y2="868.51"/><path class="cls-12" d="M590.64,877.59H458.38a9.08,9.08,0,1,1,0-18.16H590.64a9.08,9.08,0,1,1,0,18.16Z"/><line class="cls-11" x1="211.27" y1="868.51" x2="429.22" y2="868.51"/><path class="cls-12" d="M429.22,877.59H211.27a9.08,9.08,0,1,1,0-18.16h218a9.08,9.08,0,0,1,0,18.16Z"/><line class="cls-11" x1="61.6" y1="868.51" x2="185" y2="868.51"/><path class="cls-12" d="M185,877.59H61.6a9.08,9.08,0,1,1,0-18.16H185a9.08,9.08,0,0,1,0,18.16Z"/><rect class="cls-11" x="61.6" y="136.43" width="264.52" height="209.17"/><path class="cls-12" d="M326.12,354.68H61.6a9.09,9.09,0,0,1-9.08-9.08V136.43a9.09,9.09,0,0,1,9.08-9.08H326.12a9.08,9.08,0,0,1,9.08,9.08V345.6A9.08,9.08,0,0,1,326.12,354.68ZM70.68,336.52H317v-191H70.68Z"/><rect class="cls-11" x="326.12" y="624.49" width="264.52" height="209.17"/><path class="cls-12" d="M590.64,842.73H326.12a9.08,9.08,0,0,1-9.08-9.08V624.49a9.09,9.09,0,0,1,9.08-9.09H590.64a9.08,9.08,0,0,1,9.08,9.09V833.65A9.07,9.07,0,0,1,590.64,842.73ZM335.2,824.57H581.56v-191H335.2Z"/><path class="cls-12" d="M121.18,88.5a15.26,15.26,0,1,1,15.26-15.26,3,3,0,0,1-3,3H126.8a3,3,0,0,1,0-6.05h3.08a9.21,9.21,0,1,0-8.7,12.23,3,3,0,0,1,0,6.06Z"/><path class="cls-12" d="M133.41,76.26a3,3,0,0,1-2.14-5.16L135.33,67a3,3,0,1,1,4.28,4.28l-4.06,4.06A3,3,0,0,1,133.41,76.26Z"/></g><circle class="cls-13" cx="434.75" cy="393.08" r="109.16"/><line class="cls-14" x1="518.08" y1="476.4" x2="600.92" y2="559.25"/><path class="cls-15" d="M403.52,424.31A91.43,91.43,0,0,1,389,313.92a91.42,91.42,0,1,0,124.91,124.9A91.44,91.44,0,0,1,403.52,424.31Z"/><rect class="cls-4" x="184.09" y="194.59" width="283.37" height="16.16" rx="8.08"/><polyline class="cls-5" points="217.7 337.16 243.99 363.45 256.46 298.4 278.47 320.41 256.46 298.4 217.7 337.16 154.44 273.9 105.53 322.82"/><polygon class="cls-9" points="220.87 340.33 225.67 329.2 250.9 303.97 252.92 316.87 241.29 360.76 220.87 340.33"/><polyline class="cls-8" points="280.3 647.58 319.63 583.57 358.15 671.08 390.14 622.58 422 652.08 455.07 612.95"/><line class="cls-3" x1="83.9" y1="445.63" x2="83.9" y2="486.85"/></g></g></svg>