<svg xmlns="http://www.w3.org/2000/svg" viewBox="0 0 420.64 416"><defs><style>.cls-1{fill:#232257;}</style></defs><title>research</title><g id="Layer_2" data-name="Layer 2"><g id="Layer_2-2" data-name="Layer 2"><path class="cls-1" d="M280.84,416H27.24A27.27,27.27,0,0,1,0,388.76V27.23A27.27,27.27,0,0,1,27.24,0h253.6a27.26,27.26,0,0,1,27.23,27.23v49H291.55v-49a10.72,10.72,0,0,0-10.71-10.7H27.24a10.71,10.71,0,0,0-10.71,10.7V388.76a10.72,10.72,0,0,0,10.71,10.71h253.6a10.72,10.72,0,0,0,10.71-10.71V223.88h16.52V388.76A27.26,27.26,0,0,1,280.84,416Z"/><path class="cls-1" d="M112.67,122H37.8a8.26,8.26,0,0,1-8.26-8.26V38.83a8.26,8.26,0,0,1,8.26-8.26h74.87a8.26,8.26,0,0,1,8.26,8.26V113.7A8.26,8.26,0,0,1,112.67,122ZM46.06,105.44h58.35V47.09H46.06Z"/><path class="cls-1" d="M192,154.43H37.8a8.26,8.26,0,1,1,0-16.52H192a8.26,8.26,0,1,1,0,16.52Z"/><path class="cls-1" d="M270.27,316.78H112.67a8.26,8.26,0,0,1,0-16.52h157.6a8.26,8.26,0,1,1,0,16.52Z"/><path class="cls-1" d="M83.89,316.78H37.8a8.26,8.26,0,0,1,0-16.52H83.89a8.26,8.26,0,1,1,0,16.52Z"/><path class="cls-1" d="M83.89,284.31H37.8a8.27,8.27,0,0,1,0-16.53H83.89a8.27,8.27,0,0,1,0,16.53Z"/><path class="cls-1" d="M156.4,284.31H110.31a8.27,8.27,0,0,1,0-16.53H156.4a8.27,8.27,0,0,1,0,16.53Z"/><path class="cls-1" d="M273.36,284.31H180.09a8.27,8.27,0,1,1,0-16.53h93.27a8.27,8.27,0,0,1,0,16.53Z"/><path class="cls-1" d="M83.89,186.9H37.8a8.26,8.26,0,1,1,0-16.52H83.89a8.26,8.26,0,1,1,0,16.52Z"/><path class="cls-1" d="M156.4,186.9H110.31a8.26,8.26,0,0,1,0-16.52H156.4a8.26,8.26,0,0,1,0,16.52Z"/><path class="cls-1" d="M196.31,186.9H180.09a8.26,8.26,0,1,1,0-16.52h16.22a8.26,8.26,0,0,1,0,16.52Z"/><path class="cls-1" d="M154,316.78H112.67a8.26,8.26,0,0,1,0-16.52H154a8.26,8.26,0,1,1,0,16.52Z"/><path class="cls-1" d="M227.85,349.25H37.8a8.26,8.26,0,0,1,0-16.52H227.85a8.26,8.26,0,1,1,0,16.52Z"/><path class="cls-1" d="M270.27,349.25H250.32a8.26,8.26,0,1,1,0-16.52h19.95a8.26,8.26,0,1,1,0,16.52Z"/><path class="cls-1" d="M227.85,251.84H37.8a8.26,8.26,0,1,1,0-16.52H227.85a8.26,8.26,0,0,1,0,16.52Z"/><path class="cls-1" d="M270.27,251.84H250.32a8.26,8.26,0,1,1,0-16.52h19.95a8.26,8.26,0,1,1,0,16.52Z"/><path class="cls-1" d="M180.09,381.72H37.8a8.27,8.27,0,0,1,0-16.53H180.09a8.27,8.27,0,0,1,0,16.53Z"/><path class="cls-1" d="M270.27,381.72H212.16a8.27,8.27,0,0,1,0-16.53h58.11a8.27,8.27,0,1,1,0,16.53Z"/><path class="cls-1" d="M180.09,219.37H37.8a8.26,8.26,0,1,1,0-16.52H180.09a8.26,8.26,0,0,1,0,16.52Z"/><path class="cls-1" d="M212.16,219.38a8.35,8.35,0,0,1-5.83-2.43,8.24,8.24,0,0,1,0-11.69,8.83,8.83,0,0,1,1.25-1,7.15,7.15,0,0,1,1.42-.75,6.87,6.87,0,0,1,1.56-.47A8.25,8.25,0,0,1,218,217,8.35,8.35,0,0,1,212.16,219.38Z"/><path class="cls-1" d="M271.47,240.05A87.92,87.92,0,1,1,333.65,90h0a87.9,87.9,0,0,1-62.18,150.08Zm0-159.31A71.42,71.42,0,1,0,322,101.66,71,71,0,0,0,271.47,80.74Z"/><path class="cls-1" d="M404.12,301.33a16.52,16.52,0,0,1-11.69-4.84L322.8,226.86a16.53,16.53,0,0,1,23.38-23.37l69.62,69.62a16.53,16.53,0,0,1-11.68,28.22Z"/><path class="cls-1" d="M311.31,203.8A11.81,11.81,0,0,1,299.5,192V112.32a11.81,11.81,0,1,1,23.61,0V192A11.8,11.8,0,0,1,311.31,203.8Z"/><path class="cls-1" d="M273.36,138.16h-52a11.81,11.81,0,1,1,0-23.61h52a11.81,11.81,0,0,1,0,23.61Z"/><path class="cls-1" d="M273.36,201.07H241.22a11.81,11.81,0,1,1,0-23.61h32.14a11.81,11.81,0,0,1,0,23.61Z"/><path class="cls-1" d="M241.22,170.35h-26a11.81,11.81,0,1,1,0-23.61h26a11.81,11.81,0,0,1,0,23.61Z"/><path class="cls-1" d="M273.29,170.35h-6.5a11.81,11.81,0,0,1,0-23.61h6.5a11.81,11.81,0,0,1,0,23.61Z"/></g></g></svg>