<svg xmlns="http://www.w3.org/2000/svg" viewBox="0 0 756.67 868"><defs><style>.cls-1,.cls-5{fill:#232257;}.cls-2{opacity:0.2;}.cls-3{fill:#242058;}.cls-4{opacity:0.5;}.cls-5{font-size:72.26px;font-family:Manrope-ExtraBold, Manrope;font-weight:800;}.cls-6{letter-spacing:-0.01em;}.cls-7{letter-spacing:-0.02em;}</style></defs><title>research_1</title><g id="Layer_2" data-name="Layer 2"><g id="Layer_3" data-name="Layer 3"><path class="cls-1" d="M539.3,748.31H14.86A14.86,14.86,0,0,1,0,733.45V14.86A14.86,14.86,0,0,1,14.86,0H539.3a14.87,14.87,0,0,1,14.87,14.86V137.19H524.44V29.73H29.73V718.59H524.44V402.73h29.73V733.45A14.86,14.86,0,0,1,539.3,748.31Z"/><path class="cls-1" d="M202.67,219.39H68a14.86,14.86,0,0,1-14.87-14.86V69.85A14.86,14.86,0,0,1,68,55H202.67a14.86,14.86,0,0,1,14.87,14.86V204.53A14.86,14.86,0,0,1,202.67,219.39ZM82.86,189.66h105V84.72H82.86Z"/><path class="cls-1" d="M345.45,277.8H68a14.87,14.87,0,1,1,0-29.73H345.45a14.87,14.87,0,0,1,0,29.73Z"/><path class="cls-1" d="M486.17,569.84H202.67a14.87,14.87,0,0,1,0-29.73h283.5a14.87,14.87,0,0,1,0,29.73Z"/><path class="cls-1" d="M150.89,569.84H68a14.87,14.87,0,1,1,0-29.73h82.89a14.87,14.87,0,1,1,0,29.73Z"/><path class="cls-1" d="M150.89,511.43H68a14.86,14.86,0,1,1,0-29.72h82.89a14.86,14.86,0,1,1,0,29.72Z"/><path class="cls-1" d="M281.33,511.43h-82.9a14.86,14.86,0,0,1,0-29.72h82.9a14.86,14.86,0,0,1,0,29.72Z"/><path class="cls-1" d="M491.72,511.43H324a14.86,14.86,0,1,1,0-29.72H491.72a14.86,14.86,0,1,1,0,29.72Z"/><path class="cls-1" d="M150.89,336.21H68a14.87,14.87,0,1,1,0-29.73h82.89a14.87,14.87,0,1,1,0,29.73Z"/><path class="cls-1" d="M281.33,336.21h-82.9a14.87,14.87,0,0,1,0-29.73h82.9a14.87,14.87,0,0,1,0,29.73Z"/><path class="cls-1" d="M353.12,336.21H324a14.87,14.87,0,1,1,0-29.73h29.17a14.87,14.87,0,1,1,0,29.73Z"/><path class="cls-1" d="M277.08,569.84H202.67a14.87,14.87,0,0,1,0-29.73h74.41a14.87,14.87,0,1,1,0,29.73Z"/><path class="cls-1" d="M409.85,628.25H68a14.87,14.87,0,1,1,0-29.73H409.85a14.87,14.87,0,1,1,0,29.73Z"/><path class="cls-1" d="M486.17,628.25h-35.9a14.87,14.87,0,0,1,0-29.73h35.9a14.87,14.87,0,0,1,0,29.73Z"/><path class="cls-1" d="M409.85,453H68a14.87,14.87,0,1,1,0-29.73H409.85a14.87,14.87,0,1,1,0,29.73Z"/><path class="cls-1" d="M486.17,453h-35.9a14.87,14.87,0,0,1,0-29.73h35.9a14.87,14.87,0,0,1,0,29.73Z"/><path class="cls-1" d="M324,686.66H68a14.87,14.87,0,1,1,0-29.73H324a14.87,14.87,0,0,1,0,29.73Z"/><path class="cls-1" d="M486.17,686.66H381.64a14.87,14.87,0,0,1,0-29.73H486.17a14.87,14.87,0,0,1,0,29.73Z"/><path class="cls-1" d="M324,394.62H68a14.87,14.87,0,1,1,0-29.73H324a14.87,14.87,0,0,1,0,29.73Z"/><path class="cls-1" d="M381.63,394.61a14.76,14.76,0,0,1-10.49-4.38,15,15,0,0,1-4.38-10.49,16.17,16.17,0,0,1,.3-2.88,15.49,15.49,0,0,1,.85-2.81,17.64,17.64,0,0,1,1.36-2.54,15.7,15.7,0,0,1,1.87-2.26c5.52-5.56,15.5-5.56,21,0a13.22,13.22,0,0,1,1.83,2.26,12.89,12.89,0,0,1,2.2,5.35,12.58,12.58,0,0,1,.3,2.88,14.87,14.87,0,0,1-14.86,14.87Z"/><path class="cls-1" d="M488.33,431.89a157.14,157.14,0,0,1-111.86-46.33c-61.68-61.68-61.68-162,0-223.71s162-61.68,223.71,0a158.19,158.19,0,0,1-111.85,270Zm0-286.59a128.37,128.37,0,1,0,90.83,37.57h0A128.07,128.07,0,0,0,488.33,145.3Z"/><g class="cls-2"><circle class="cls-3" cx="488.33" cy="273.7" r="108.97"/></g><path class="cls-1" d="M726.94,542a29.64,29.64,0,0,1-21-8.71L580.66,408.09a29.73,29.73,0,1,1,42.05-42L748,491.29a29.73,29.73,0,0,1-21,50.75Z"/><path class="cls-1" d="M560,366.6a21.24,21.24,0,0,1-21.24-21.23V202a21.24,21.24,0,0,1,42.47,0V345.37A21.23,21.23,0,0,1,560,366.6Z"/><path class="cls-1" d="M491.72,248.53h-93.5a21.24,21.24,0,1,1,0-42.47h93.5a21.24,21.24,0,1,1,0,42.47Z"/><path class="cls-1" d="M491.72,361.69H433.91a21.24,21.24,0,1,1,0-42.47h57.81a21.24,21.24,0,1,1,0,42.47Z"/><path class="cls-1" d="M433.91,306.42H387.16a21.24,21.24,0,1,1,0-42.47h46.75a21.24,21.24,0,0,1,0,42.47Z"/><path class="cls-1" d="M491.6,306.42H479.91a21.24,21.24,0,1,1,0-42.47H491.6a21.24,21.24,0,0,1,0,42.47Z"/><g class="cls-4"><path class="cls-3" d="M539.3,407.65a143.32,143.32,0,1,1,0-267.89V105.69a175.5,175.5,0,1,0,0,336Z"/></g><text class="cls-5" transform="translate(203.47 845.42)">Res<tspan class="cls-6" x="136.17" y="0">e</tspan><tspan x="181.19" y="0">a</tspan><tspan class="cls-7" x="225.07" y="0">r</tspan><tspan x="257.97" y="0">ch</tspan></text></g></g></svg>