<svg xmlns="http://www.w3.org/2000/svg" viewBox="0 0 1366 488"><defs><style>.cls-1{fill:#fff;}.cls-2,.cls-6{fill:#232257;}.cls-3{opacity:0.2;}.cls-4{fill:#242058;}.cls-5{opacity:0.5;}.cls-6{font-size:27.12px;font-family:Manrope-ExtraBold, Manrope;font-weight:800;}.cls-7{letter-spacing:-0.01em;}.cls-8{letter-spacing:-0.02em;}.cls-9{letter-spacing:-0.02em;}.cls-10{letter-spacing:-0.03em;}.cls-11{letter-spacing:0em;}.cls-12{letter-spacing:-0.03em;}</style></defs><title>skills</title><g id="Layer_2" data-name="Layer 2"><g id="Layer_1-2" data-name="Layer 1"><rect class="cls-1" width="1366" height="488"/><path class="cls-2" d="M346.42,384.43H149.58a5.58,5.58,0,0,1-5.58-5.58V109.15a5.58,5.58,0,0,1,5.58-5.58H346.42a5.58,5.58,0,0,1,5.58,5.58v45.91H340.84V114.73H155.16V373.27H340.84V254.73H352V378.85A5.58,5.58,0,0,1,346.42,384.43Z"/><path class="cls-2" d="M220.07,185.91H169.52a5.58,5.58,0,0,1-5.58-5.58V129.78a5.57,5.57,0,0,1,5.58-5.57h50.55a5.57,5.57,0,0,1,5.58,5.57v50.55A5.58,5.58,0,0,1,220.07,185.91Zm-45-11.16h39.39V135.36H175.1Z"/><path class="cls-2" d="M273.66,207.84H169.52a5.58,5.58,0,1,1,0-11.16H273.66a5.58,5.58,0,0,1,0,11.16Z"/><path class="cls-2" d="M326.47,317.45H220.07a5.58,5.58,0,1,1,0-11.16h106.4a5.58,5.58,0,0,1,0,11.16Z"/><path class="cls-2" d="M200.64,317.45H169.52a5.58,5.58,0,0,1,0-11.16h31.12a5.58,5.58,0,0,1,0,11.16Z"/><path class="cls-2" d="M200.64,295.52H169.52a5.58,5.58,0,1,1,0-11.15h31.12a5.58,5.58,0,0,1,0,11.15Z"/><path class="cls-2" d="M249.59,295.52H218.48a5.58,5.58,0,1,1,0-11.15h31.11a5.58,5.58,0,1,1,0,11.15Z"/><path class="cls-2" d="M328.56,295.52h-63a5.58,5.58,0,1,1,0-11.15h63a5.58,5.58,0,1,1,0,11.15Z"/><path class="cls-2" d="M200.64,229.76H169.52a5.58,5.58,0,0,1,0-11.16h31.12a5.58,5.58,0,0,1,0,11.16Z"/><path class="cls-2" d="M249.59,229.76H218.48a5.58,5.58,0,0,1,0-11.16h31.11a5.58,5.58,0,0,1,0,11.16Z"/><path class="cls-2" d="M276.54,229.76h-11a5.58,5.58,0,0,1,0-11.16h11a5.58,5.58,0,0,1,0,11.16Z"/><path class="cls-2" d="M248,317.45H220.07a5.58,5.58,0,1,1,0-11.16H248a5.58,5.58,0,1,1,0,11.16Z"/><path class="cls-2" d="M297.83,339.37H169.52a5.58,5.58,0,0,1,0-11.16H297.83a5.58,5.58,0,1,1,0,11.16Z"/><path class="cls-2" d="M326.47,339.37H313a5.58,5.58,0,0,1,0-11.16h13.47a5.58,5.58,0,0,1,0,11.16Z"/><path class="cls-2" d="M297.83,273.6H169.52a5.58,5.58,0,0,1,0-11.16H297.83a5.58,5.58,0,1,1,0,11.16Z"/><path class="cls-2" d="M326.47,273.6H313a5.58,5.58,0,1,1,0-11.16h13.47a5.58,5.58,0,0,1,0,11.16Z"/><path class="cls-2" d="M265.59,361.29H169.52a5.58,5.58,0,0,1,0-11.16h96.07a5.58,5.58,0,1,1,0,11.16Z"/><path class="cls-2" d="M326.47,361.29H287.24a5.58,5.58,0,1,1,0-11.16h39.23a5.58,5.58,0,1,1,0,11.16Z"/><path class="cls-2" d="M265.59,251.68H169.52a5.58,5.58,0,0,1,0-11.16h96.07a5.58,5.58,0,1,1,0,11.16Z"/><path class="cls-2" d="M287.24,251.68a5.62,5.62,0,0,1-5.58-5.58,5.6,5.6,0,0,1,.11-1.09,5.53,5.53,0,0,1,.32-1,6.66,6.66,0,0,1,.51-1,5.59,5.59,0,0,1,8.59-.85,5.69,5.69,0,0,1,.69.85,5.84,5.84,0,0,1,.52,1,5.47,5.47,0,0,1,.3,1,4.92,4.92,0,0,1,.12,1.09,5.6,5.6,0,0,1-5.58,5.58Z"/><path class="cls-2" d="M327.28,265.67a59.37,59.37,0,1,1,42-17.39A59,59,0,0,1,327.28,265.67Zm0-107.57a48.17,48.17,0,1,0,34.1,14.1h0A48.12,48.12,0,0,0,327.28,158.1Z"/><g class="cls-3"><circle class="cls-4" cx="327.28" cy="206.3" r="40.9"/></g><path class="cls-2" d="M416.84,307a11.13,11.13,0,0,1-7.89-3.27l-47-47A11.16,11.16,0,0,1,377.72,241l47,47A11.16,11.16,0,0,1,416.84,307Z"/><path class="cls-2" d="M354.18,241.16a8,8,0,0,1-8-8V179.4a8,8,0,1,1,15.94,0v53.79A8,8,0,0,1,354.18,241.16Z"/><path class="cls-2" d="M328.56,196.85h-35.1a8,8,0,1,1,0-15.94h35.1a8,8,0,0,1,0,15.94Z"/><path class="cls-2" d="M328.56,239.32h-21.7a8,8,0,0,1,0-15.94h21.7a8,8,0,0,1,0,15.94Z"/><path class="cls-2" d="M306.86,218.58H289.31a8,8,0,0,1,0-15.94h17.55a8,8,0,0,1,0,15.94Z"/><path class="cls-2" d="M328.51,218.58h-4.39a8,8,0,0,1,0-15.94h4.39a8,8,0,1,1,0,15.94Z"/><g class="cls-5"><path class="cls-4" d="M346.42,256.57a53.79,53.79,0,1,1,0-100.55V143.23a66.47,66.47,0,0,0-19.13-2.8,65.87,65.87,0,0,0,0,131.74,66.14,66.14,0,0,0,19.13-2.81Z"/></g><path class="cls-2" d="M585.54,187.48a6.06,6.06,0,0,1-2.9-11.38,208.69,208.69,0,0,1,197.43-.53,6.06,6.06,0,1,1-5.74,10.68,196.55,196.55,0,0,0-185.89.49A6,6,0,0,1,585.54,187.48Z"/><path class="cls-2" d="M681.84,337a208.61,208.61,0,0,1-59.51-8.6,6.06,6.06,0,0,1,3.46-11.62,198,198,0,0,0,113.31-.36,6.06,6.06,0,1,1,3.53,11.6A208.65,208.65,0,0,1,681.84,337Z"/><path class="cls-2" d="M681.84,317.35A187,187,0,0,1,548.32,261.8a25.3,25.3,0,0,1,0-35.6,188.25,188.25,0,0,1,267,0,25.3,25.3,0,0,1,0,35.6A187,187,0,0,1,681.84,317.35Zm0-134.58a174.92,174.92,0,0,0-124.92,52,13.13,13.13,0,0,0,0,18.5,176.11,176.11,0,0,0,249.85,0,13.15,13.15,0,0,0,0-18.5A174.92,174.92,0,0,0,681.84,182.77Z"/><path class="cls-2" d="M681.84,250.06H634.66A6.06,6.06,0,0,1,628.6,244a53.24,53.24,0,0,1,53.24-53.24,6.06,6.06,0,0,1,6.06,6.06V244A6.06,6.06,0,0,1,681.84,250.06Zm-40.68-12.12h34.62V203.32a41.17,41.17,0,0,0-34.62,34.62Z"/><g class="cls-5"><path class="cls-2" d="M715.22,210.64,681.84,244V196.82A47,47,0,0,1,715.22,210.64Z"/></g><path class="cls-2" d="M681.84,250.06a6.05,6.05,0,0,1-6.06-6.06V196.82a6.06,6.06,0,0,1,6.06-6.06,52.86,52.86,0,0,1,37.67,15.6,6.06,6.06,0,0,1,0,8.57l-33.37,33.36A6.06,6.06,0,0,1,681.84,250.06Zm6.06-46.74v26.05L706.34,211A40.64,40.64,0,0,0,687.9,203.32Z"/><path class="cls-2" d="M729,250.06H681.84a6.06,6.06,0,0,1-4.28-10.35l33.37-33.36a6.05,6.05,0,0,1,8.57,0A52.87,52.87,0,0,1,735.09,244,6.06,6.06,0,0,1,729,250.06Zm-32.55-12.12h26a40.62,40.62,0,0,0-7.63-18.42Z"/><path class="cls-2" d="M681.84,297.26A53.26,53.26,0,0,1,628.6,244a6.06,6.06,0,0,1,6.06-6.06h47.18a6.1,6.1,0,0,1,4.29,1.77l33.37,33.38a6,6,0,0,1,0,8.57A52.89,52.89,0,0,1,681.84,297.26Zm-40.68-47.2a41.15,41.15,0,0,0,65.17,27l-27-27Z"/><path class="cls-2" d="M715.22,283.44a6.06,6.06,0,0,1-4.29-1.78l-33.37-33.37a6.06,6.06,0,0,1,4.28-10.35H729A6.06,6.06,0,0,1,735.1,244a52.93,52.93,0,0,1-15.59,37.66A6.06,6.06,0,0,1,715.22,283.44Zm-18.74-33.38,18.43,18.43a40.76,40.76,0,0,0,7.63-18.43Z"/><text class="cls-6" transform="translate(220.37 420.88)">Res<tspan class="cls-7" x="51.11" y="0">e</tspan><tspan x="68" y="0">a</tspan><tspan class="cls-8" x="84.48" y="0">r</tspan><tspan x="96.82" y="0">ch</tspan></text><text class="cls-6" transform="translate(556.88 420.88)">Data <tspan class="cls-9" x="71.2" y="0">V</tspan><tspan x="89.08" y="0">isualisation</tspan></text><text class="cls-6" transform="translate(961.62 420.88)">Adobe Illust<tspan class="cls-10" x="165.76" y="0">r</tspan><tspan class="cls-11" x="177.96" y="0">a</tspan><tspan class="cls-12" x="194.43" y="0">t</tspan><tspan x="206.13" y="0">or</tspan></text><path class="cls-2" d="M1167,349.91H993a26.46,26.46,0,0,1-26.46-26.45v-174A26.46,26.46,0,0,1,993,123h174a26.46,26.46,0,0,1,26.46,26.46v174A26.46,26.46,0,0,1,1167,349.91ZM993,143.11a6.35,6.35,0,0,0-6.35,6.35v174a6.35,6.35,0,0,0,6.35,6.35h174a6.35,6.35,0,0,0,6.35-6.35v-174a6.35,6.35,0,0,0-6.35-6.35Z"/><path class="cls-2" d="M1106.76,270.34h-15.88l-5.68-16.09h-26.4l-5.67,16.09h-15.47l27.64-72.19h14Zm-26.51-29.81-4.64-13.09c-1.44-4.23-2.89-8.56-3.61-11.24-.72,2.68-2.16,7-3.61,11.24l-4.64,13.09Z"/><path class="cls-2" d="M1126,200.94a8.15,8.15,0,1,1-5-5A8.17,8.17,0,0,1,1126,200.94Zm-.58,69.4H1111.2V216.2h14.23Z"/><g class="cls-5"><rect class="cls-4" x="966.23" y="329.95" width="227.54" height="35.05" rx="16.06"/></g></g></g></svg>