<svg xmlns="http://www.w3.org/2000/svg" width="94.421" height="59.028" viewBox="0 0 94.421 59.028">
  <defs>
    <style>
      .cls-1 {
        fill: #242058;
      }
    </style>
  </defs>
  <path id="behance" class="cls-1" d="M27.306,4.5a35.1,35.1,0,0,1,7.557.74,17,17,0,0,1,5.845,2.4,11.063,11.063,0,0,1,3.778,4.408,15.728,15.728,0,0,1,1.338,6.809,12.808,12.808,0,0,1-2,7.32,14.417,14.417,0,0,1-5.911,4.8,13.87,13.87,0,0,1,7.958,5.392,16.153,16.153,0,0,1,2.617,9.288,16.27,16.27,0,0,1-1.614,7.6,14.564,14.564,0,0,1-4.565,5.313A20.032,20.032,0,0,1,35.74,61.59a28.792,28.792,0,0,1-7.517,1H0V4.531H27.306V4.5ZM66.671,52.369C68.4,54.054,70.894,54.9,74.125,54.9a10.278,10.278,0,0,0,6.022-1.759,7.245,7.245,0,0,0,3.07-3.7H93.4c-1.586,5.038-4.125,8.659-7.478,10.823A21.59,21.59,0,0,1,73.8,63.531a24.122,24.122,0,0,1-8.942-1.574,19.472,19.472,0,0,1-6.769-4.487A20.074,20.074,0,0,1,53.852,50.5a25.823,25.823,0,0,1-1.468-8.934,23.936,23.936,0,0,1,1.586-8.777,20.428,20.428,0,0,1,11.24-11.744,21.089,21.089,0,0,1,8.737-1.7A19.84,19.84,0,0,1,83.315,21.4a18.892,18.892,0,0,1,6.533,5.51,21.917,21.917,0,0,1,3.7,7.95,31.756,31.756,0,0,1,.826,9.367H64.109c0,3.306,1.1,6.423,2.794,8.127l-.315.118Zm-40.3.2a16.571,16.571,0,0,0,3.566-.366,9.127,9.127,0,0,0,3-1.181,5.832,5.832,0,0,0,2.047-2.295,8.068,8.068,0,0,0,.748-3.778c0-2.952-.866-5.077-2.519-6.376a10.838,10.838,0,0,0-6.651-1.889H12.752v15.94H26.369V52.5ZM79.923,30.329C78.537,28.814,76.223,28,73.4,28a9.76,9.76,0,0,0-4.589.937A8.48,8.48,0,0,0,65.9,31.258a8.193,8.193,0,0,0-1.543,2.952A13.8,13.8,0,0,0,63.826,37H82.568a11.243,11.243,0,0,0-2.676-6.651v.039Zm-54.262-2.42a9.165,9.165,0,0,0,5.608-1.622c1.472-1.063,2.18-2.834,2.18-5.266a7.416,7.416,0,0,0-.708-3.33,5.752,5.752,0,0,0-1.968-2.015,8.333,8.333,0,0,0-2.834-1.011,17.42,17.42,0,0,0-3.306-.291H12.712V27.913H25.661ZM61.468,8.4H84.956v5.723H61.468V8.388Z" transform="translate(0 -4.503)"/>
</svg>
