<svg xmlns="http://www.w3.org/2000/svg" width="243.45" height="664.803" viewBox="0 0 243.45 664.803">
  <defs>
    <style>
      .cls-1 {
        fill: #00b4a5;
      }

      .cls-2 {
        fill: #69c7c1;
      }

      .cls-3 {
        fill: #9cd8d9;
      }

      .cls-4 {
        fill: #232257;
      }
    </style>
  </defs>
  <g id="Asset_10" data-name="Asset 10" transform="translate(0 -0.05)">
    <g id="Layer_1" data-name="Layer 1" transform="translate(0 0.05)">
      <path id="Path_106" data-name="Path 106" class="cls-1" d="M.841,173.392v-7.309A11.061,11.061,0,0,1,11.9,155H232.324a11.039,11.039,0,0,1,11.061,11.061v176.8a11.04,11.04,0,0,1-11.061,11.061h0a11.061,11.061,0,0,0-11.061,11.061v39.091A11.061,11.061,0,0,1,210.2,415.138h0a11.061,11.061,0,0,1-11.061-11.061V336.871A11.061,11.061,0,0,0,188.08,325.81h0a11.061,11.061,0,0,0-11.061,11.061v41.894a11.061,11.061,0,0,1-11,11.061h0a11.083,11.083,0,0,0-11.083,11.083v46.573a11.061,11.061,0,0,1-11.061,11.061h0a11.061,11.061,0,0,1-11.061-11.061V368.458A11.039,11.039,0,0,0,121.757,357.4h0a11.061,11.061,0,0,0-11.126,11.061V404.1A11.061,11.061,0,0,1,99.571,415.16h0A11.083,11.083,0,0,0,88.51,426.243v48.384a11.083,11.083,0,0,1-11.061,11.083h0a11.061,11.061,0,0,1-11.061-11.083V340.946a11.061,11.061,0,0,0-11.061-11.061h0a11.082,11.082,0,0,0-11.083,11.061v25.981a11.061,11.061,0,0,1-11.061,11.061h0a11.061,11.061,0,0,1-11.061-11.061V311.191A11.061,11.061,0,0,0,11.061,300.13h0A11.061,11.061,0,0,1,0,289.069V173.392Z" transform="translate(0 179.094)"/>
      <path id="Path_107" data-name="Path 107" class="cls-2" d="M6.468,146.662A6.468,6.468,0,0,0,0,153.13V263.093a11.061,11.061,0,0,0,11.061,11.061h0a11.061,11.061,0,0,1,11.061,11.061v33.4a11.061,11.061,0,0,0,11.061,11.061h0a11.061,11.061,0,0,1,11.061,11.061v2.415a11.061,11.061,0,0,0,11.061,11.061h0a11.061,11.061,0,0,0,11.061-11.061V319.325a11.061,11.061,0,0,1,11.061-11.061h0a11.061,11.061,0,0,1,11.061,11.061v71.519a11.061,11.061,0,0,0,11.083,11h0a11.061,11.061,0,0,0,11.061-11.061v-9.918A11.061,11.061,0,0,1,121.693,369.8h0a11.061,11.061,0,0,0,11.061-11.082V336.445a11.061,11.061,0,0,1,11.061-11.061h0a11.039,11.039,0,0,1,11.061,11.061v79.648a11.083,11.083,0,0,0,11.147,11.083h0a11.083,11.083,0,0,0,11.061-11.083V320.77a11.061,11.061,0,0,1,11.061-11.061h0a11.061,11.061,0,0,1,11.061,11.061v5.218a11.061,11.061,0,0,0,11,11.169h0A11.061,11.061,0,0,0,221.263,326.1V294.465A11.061,11.061,0,0,1,232.324,283.4h0a11.061,11.061,0,0,0,11.061-11.061V153.108a6.468,6.468,0,0,0-6.468-6.468Z" transform="translate(0 169.429)"/>
      <path id="Path_108" data-name="Path 108" class="cls-3" d="M241.488,158.958,129.368,3.888h0a12.053,12.053,0,0,0-.97-1.121l-.474-.41a8.625,8.625,0,0,0-.712-.6l-.539-.367-.647-.41a10.78,10.78,0,0,0-1.38-.561h0l-.625-.172L123.18.05H120.2L119.3.266l-.539.129h0a10.78,10.78,0,0,0-1.38.561l-.668.41-.6.367-.69.6-.453.367c-.345.367-.668.755-.97,1.143h0L1.811,158.958A9.487,9.487,0,0,0,0,164.542V421.123a11.061,11.061,0,0,0,11.061,11.061h0a11.061,11.061,0,0,0,11.061-11.061V387.056a11.061,11.061,0,0,1,11.061-11.061h0a11.061,11.061,0,0,1,11.061,11.061v70.376a11.083,11.083,0,0,0,11.083,11.061h0a11.061,11.061,0,0,0,11.061-11.061V349.992a11.061,11.061,0,0,1,11.061-11.061h0A11.061,11.061,0,0,1,88.51,349.992v33.744A11.061,11.061,0,0,0,99.571,394.8h0a11.083,11.083,0,0,1,11.061,11.083V510.948a11.061,11.061,0,0,0,11.061,11.061h0a11.061,11.061,0,0,0,11.061-11.061V372.61a11.061,11.061,0,0,1,11.061-11.061h0a11.061,11.061,0,0,1,11.061,11.061v30.962a11.083,11.083,0,0,0,11.147,11.061h0a11.061,11.061,0,0,1,11.061,11.061v17.012a11.039,11.039,0,0,0,11.061,11.061h0a11.061,11.061,0,0,0,11.061-11.061V353.161A11.061,11.061,0,0,1,210.267,342.1h0a11.061,11.061,0,0,1,11.061,11.061v25.7a11.061,11.061,0,0,0,11.061,11.061h0a11.061,11.061,0,0,0,11.061-11.061V164.542A9.487,9.487,0,0,0,241.488,158.958Z" transform="translate(0 -0.05)"/>
      <path id="Path_109" data-name="Path 109" class="cls-2" d="M56.44,221.453V22.29L145.187,145V261.061Z" transform="translate(65.253 25.663)"/>
      <path id="Path_110" data-name="Path 110" class="cls-2" d="M104.027,221.464V22.28L15.28,145.008V261.073Z" transform="translate(17.666 25.651)"/>
      <path id="Path_111" data-name="Path 111" class="cls-1" d="M46.75,52.66V231.253l21.971-9.789V22.28Z" transform="translate(54.05 25.651)"/>
      <path id="Path_112" data-name="Path 112" class="cls-1" d="M109.663,91.154V207.2L88.08,197.56V68.86l9.638,5.757Z" transform="translate(101.833 79.504)"/>
      <path id="Path_113" data-name="Path 113" class="cls-4" d="M19.326,272.671A7.568,7.568,0,0,1,11.78,265.1V149.059a7.5,7.5,0,0,1,1.423-4.312L101.95,21.912a7.547,7.547,0,0,1,13.67,4.42V225.516a7.568,7.568,0,0,1-4.463,6.9L22.388,272A7.611,7.611,0,0,1,19.326,272.671ZM26.873,151.5V253.481l73.654-32.86V49.661Z" transform="translate(13.619 21.599)"/>
      <path id="Path_114" data-name="Path 114" class="cls-4" d="M149.256,272.671a7.612,7.612,0,0,1-3.062-.668L57.4,232.416a7.568,7.568,0,0,1-4.485-6.9V26.332a7.546,7.546,0,0,1,13.67-4.42l88.747,122.728a7.5,7.5,0,0,1,1.423,4.312V265.06a7.568,7.568,0,0,1-7.547,7.568Zm-81.2-52.049,73.654,32.86V151.5L68.056,49.661Z" transform="translate(61.183 21.599)"/>
      <path id="Path_115" data-name="Path 115" class="cls-4" d="M36.136,243.023a7.546,7.546,0,0,1-7.546-7.547V129.566a7.546,7.546,0,0,1,15.093,0v105.91A7.546,7.546,0,0,1,36.136,243.023Z" transform="translate(33.054 140.965)"/>
      <path id="Path_116" data-name="Path 116" class="cls-4" d="M83.966,186.684a7.547,7.547,0,0,1-7.547-7.546V129.546a7.546,7.546,0,0,1,15.093,0v49.591A7.547,7.547,0,0,1,83.966,186.684Z" transform="translate(88.352 140.941)"/>
      <path id="Path_117" data-name="Path 117" class="cls-4" d="M83.966,265.139a7.546,7.546,0,0,1-7.547-7.547V161.817a7.546,7.546,0,0,1,15.093,0v95.776A7.546,7.546,0,0,1,83.966,265.139Z" transform="translate(88.352 178.25)"/>
      <path id="Path_118" data-name="Path 118" class="cls-4" d="M83.966,275.648A7.546,7.546,0,0,1,76.42,268.1V223.986a7.546,7.546,0,0,1,15.093,0V268.1A7.546,7.546,0,0,1,83.966,275.648Z" transform="translate(88.352 250.127)"/>
      <circle id="Ellipse_20" data-name="Ellipse 20" class="cls-4" cx="7.546" cy="7.546" r="7.546" transform="translate(61.644 388.084)"/>
    </g>
  </g>
</svg>
