<svg xmlns="http://www.w3.org/2000/svg" width="94.457" height="94.457" viewBox="0 0 94.457 94.457">
  <defs>
    <style>
      .cls-1 {
        fill: #242058;
      }
    </style>
  </defs>
  <path id="instagram" class="cls-1" d="M47.229,0C34.4,0,32.8.059,27.759.283a34.825,34.825,0,0,0-11.465,2.2A23.128,23.128,0,0,0,7.927,7.927,23.044,23.044,0,0,0,2.48,16.294a34.723,34.723,0,0,0-2.2,11.465C.047,32.8,0,34.4,0,47.228S.059,61.661.283,66.7a34.847,34.847,0,0,0,2.2,11.465A23.161,23.161,0,0,0,7.927,86.53a23.1,23.1,0,0,0,8.367,5.447,34.869,34.869,0,0,0,11.465,2.2c5.038.236,6.64.283,19.47.283s14.432-.059,19.47-.283a34.949,34.949,0,0,0,11.465-2.2A24.137,24.137,0,0,0,91.978,78.163a34.847,34.847,0,0,0,2.2-11.465c.236-5.038.283-6.64.283-19.47S94.4,32.8,94.174,27.759a34.927,34.927,0,0,0-2.2-11.465,23.18,23.18,0,0,0-5.447-8.367,23.011,23.011,0,0,0-8.367-5.447A34.745,34.745,0,0,0,66.7.283C61.661.047,60.059,0,47.229,0Zm0,8.5c12.606,0,14.11.063,19.088.279a26.021,26.021,0,0,1,8.765,1.633,15.542,15.542,0,0,1,8.966,8.962,26.076,26.076,0,0,1,1.625,8.765c.224,4.983.275,6.478.275,19.088s-.059,14.11-.291,19.088A26.578,26.578,0,0,1,84,75.081a15,15,0,0,1-3.538,5.439,14.734,14.734,0,0,1-5.431,3.526,26.268,26.268,0,0,1-8.8,1.625c-5.014.224-6.49.275-19.124.275S33,85.889,27.987,85.657A26.78,26.78,0,0,1,19.187,84a14.626,14.626,0,0,1-5.427-3.538,14.341,14.341,0,0,1-3.542-5.431,26.8,26.8,0,0,1-1.653-8.8c-.177-4.959-.24-6.49-.24-19.065s.063-14.113.24-19.131a26.772,26.772,0,0,1,1.653-8.792,14,14,0,0,1,3.542-5.435,13.969,13.969,0,0,1,5.427-3.534,26.14,26.14,0,0,1,8.741-1.657c5.018-.177,6.494-.236,19.124-.236l.177.118Zm0,14.476A24.252,24.252,0,1,0,71.481,47.228,24.25,24.25,0,0,0,47.229,22.977Zm0,39.995A15.743,15.743,0,1,1,62.972,47.228,15.739,15.739,0,0,1,47.229,62.971ZM78.108,22.02a5.667,5.667,0,1,1-5.667-5.663A5.671,5.671,0,0,1,78.108,22.02Z"/>
</svg>
