<svg xmlns="http://www.w3.org/2000/svg" viewBox="0 0 126.58 102.7"><defs><style>.cls-1{fill:#9cd8d9;}.cls-2{fill:#6ac7c0;}.cls-3{fill:#008075;}.cls-4{fill:#00b4a5;}.cls-5{fill:#9dd8d8;}.cls-6{fill:#69c7c1;}.cls-7{fill:#232257;}.cls-8{fill:#d3edf0;}</style></defs><title>Mail</title><g id="Layer_2" data-name="Layer 2"><g id="Layer_1-2" data-name="Layer 1"><path class="cls-1" d="M118.36,51.35a51.52,51.52,0,0,1-.79,9c-.09.5-.19,1-.29,1.5q-.39,1.85-.9,3.66c-.11.38-.22.76-.34,1.13a50.91,50.91,0,0,1-3.68,8.8,51.13,51.13,0,0,1-6.89,9.92,51.41,51.41,0,0,1-5,5,50.7,50.7,0,0,1-6.86,5,50,50,0,0,1-6.73,3.42,47.19,47.19,0,0,1-5.5,2,51.41,51.41,0,0,1-46.7-9.46c-.36-.28-.7-.57-1-.87A49.31,49.31,0,0,1,29,85.82a49.81,49.81,0,0,1-4.83-6.2q-1.34-2-2.48-4.17c-.22-.42-.44-.83-.64-1.26l-.3-.6c-.21-.42-.4-.84-.58-1.26-.1-.21-.2-.43-.29-.65a45,45,0,0,1-1.71-4.54,1.61,1.61,0,0,1-.09-.29s0,0,0,0q-.13-.39-.24-.78a7.15,7.15,0,0,1-.23-.79c-.1-.31-.18-.64-.27-.95a.11.11,0,0,0,0-.05c-.13-.51-.26-1-.38-1.56,0-.12-.05-.25-.08-.37-.12-.58-.24-1.16-.34-1.74a47.71,47.71,0,0,1-.65-5c-.12-1.4-.18-2.81-.18-4.24,0-.24,0-.48,0-.72a47.87,47.87,0,0,1,.31-5c.06-.55.13-1.1.21-1.64a.15.15,0,0,1,0-.07c.07-.54.16-1.08.25-1.61s.2-1.1.32-1.64c.29-1.42.65-2.82,1.07-4.19l.24-.78a49.17,49.17,0,0,1,1.88-5,51.57,51.57,0,0,1,7.62-12.31A51.37,51.37,0,0,1,79.47,1.53a47.33,47.33,0,0,1,6.12,1.94,51.25,51.25,0,0,1,19.68,13.65,49.37,49.37,0,0,1,4.65,6,50.44,50.44,0,0,1,4.14,7.62,49.17,49.17,0,0,1,1.88,5,51.15,51.15,0,0,1,2.41,14.77C118.36,50.78,118.36,51.07,118.36,51.35Z"/><path class="cls-2" d="M126.58,33.25a2.44,2.44,0,0,1-.73,1.75,2.5,2.5,0,0,1-1.76.73H94.31a2.49,2.49,0,0,0-2.48,2.49,2.49,2.49,0,0,1-2.48,2.48H79.42a2.47,2.47,0,0,0-1.75,4.23,2.44,2.44,0,0,0,1.75.73h34.75a2.48,2.48,0,0,1,2.48,2.48,2.48,2.48,0,0,0,.73,1.76,2.44,2.44,0,0,0,1,.6c0,.28,0,.57,0,.85a51.52,51.52,0,0,1-.79,9,2.17,2.17,0,0,1-.92.19H86.87a2.49,2.49,0,1,0,0,5h29.51a51.24,51.24,0,0,1-4,9.93H81.9a2.48,2.48,0,0,0-2.48,2.48,2.49,2.49,0,0,0,2.48,2.48h32.27a2.48,2.48,0,0,1,2.48,2.48,2.44,2.44,0,0,1-.73,1.75,2.47,2.47,0,0,1-1.75.73H99.27a2.49,2.49,0,0,0,0,5h9.38a2.48,2.48,0,0,1,0,5h-59a2.48,2.48,0,0,1-2.48-2.48,2.49,2.49,0,0,0-2.49-2.48H12.41a2.48,2.48,0,0,1-2.48-2.49A2.44,2.44,0,0,0,9.2,86.1a2.48,2.48,0,0,0-1.76-.73h-5A2.48,2.48,0,0,1,0,82.89a2.44,2.44,0,0,1,.73-1.75,2.44,2.44,0,0,1,1.75-.73H22.34a2.51,2.51,0,0,0,2.48-2.48,2.49,2.49,0,0,0-2.48-2.48h-.68a50.54,50.54,0,0,1-5.17-14.88l.33,0h.55a2.48,2.48,0,0,0,2.48-2.48,2.44,2.44,0,0,0-.73-1.75,2.47,2.47,0,0,0-1.75-.73H15.84c-.12-1.4-.18-2.81-.18-4.24,0-.24,0-.48,0-.72H37.23a2.49,2.49,0,0,0,0-5H16a47.88,47.88,0,0,1,.79-5H27.3a2.48,2.48,0,0,0,1.75-4.24,2.44,2.44,0,0,0-1.75-.73H12.41a2.48,2.48,0,0,1-2.48-2.48,2.44,2.44,0,0,1,.73-1.75,2.47,2.47,0,0,1,1.75-.73H32.26a2.49,2.49,0,0,0,2.49-2.48,2.44,2.44,0,0,1,.73-1.75,2.47,2.47,0,0,1,1.75-.73H81.9a2.48,2.48,0,0,1,2.48,2.48A2.44,2.44,0,0,0,85.11,30a2.48,2.48,0,0,0,1.76.73h37.22A2.49,2.49,0,0,1,126.58,33.25Z"/><circle class="cls-3" cx="95.25" cy="81.03" r="3.92"/><path class="cls-3" d="M40.54,49.69l1.78-1.77a1.26,1.26,0,0,0,0-1.78h0a1.26,1.26,0,0,0-1.78,0l-1.77,1.78L37,46.14a1.26,1.26,0,0,0-1.78,0h0a1.26,1.26,0,0,0,0,1.78L37,49.69l-1.78,1.78A1.26,1.26,0,1,0,37,53.24l1.78-1.77,1.77,1.77a1.26,1.26,0,1,0,1.78-1.77Z"/><path class="cls-3" d="M20.06,38.74,21.84,37a1.25,1.25,0,0,0,0-1.77h0a1.26,1.26,0,0,0-1.78,0L18.29,37l-1.78-1.77a1.25,1.25,0,0,0-1.77,0h0a1.25,1.25,0,0,0,0,1.77l1.77,1.78-1.77,1.77a1.26,1.26,0,1,0,1.77,1.78l1.78-1.78,1.77,1.78a1.26,1.26,0,0,0,1.78-1.78Z"/><polygon class="cls-4" points="93.39 45.98 67.01 67.91 40.63 45.98 93.39 45.98"/><polygon class="cls-4" points="93.39 45.98 67.01 67.91 40.63 45.98 93.39 45.98"/><polygon class="cls-3" points="85.47 45.98 63.05 64.61 67.01 67.91 93.39 45.98 85.47 45.98"/><polygon class="cls-5" points="40.63 45.98 67.01 24.06 93.39 45.98 40.63 45.98"/><polygon class="cls-6" points="67.01 24.06 62.87 27.5 85.12 45.98 93.39 45.98 67.01 24.06"/><path class="cls-7" d="M95.22,45.66a1.84,1.84,0,0,0-.64-1.11l-4.7-3.91-5-4.13-1.54-1.28L81.82,34l-1.39-1.16-2.25-1.86L76,29.09l-1.16-1L73,26.59,72,25.81l-.92-.76L68.2,22.63a1.87,1.87,0,0,0-2.38,0l-2.91,2.42-.92.76-.94.78L59.2,28.13,55.87,30.9,53.37,33,52.2,34l-1.54,1.28-1.54,1.28-9.68,8a1.83,1.83,0,0,0-.65,1.67,1.38,1.38,0,0,0,.09.39,1.77,1.77,0,0,0,.47.72,1.48,1.48,0,0,0,.29.22,1.79,1.79,0,0,0,1,.29H93.4a1.84,1.84,0,0,0,1.74-1.23,1.38,1.38,0,0,0,.09-.39A1.51,1.51,0,0,0,95.22,45.66ZM45.77,44.12l3.35-2.78,1.54-1.28,1.54-1.28,1.19-1h0L56,35.66,58,34l3.71-3.08,2.64-2.19.69-.58,1.86-1.54.13-.11.13.11L69,28.13l3.33,2.77,3.18,2.64.47.39,2.13,1.77,2.3,1.91,1.41,1.17,1.54,1.28.77.64.77.64,3.35,2.78Z"/><rect class="cls-8" x="50.66" y="26.59" width="32.7" height="50.59"/><rect class="cls-5" x="75.98" y="26.59" width="7.38" height="50.59"/><path class="cls-7" d="M81.82,58.47v17h1.54V57.19Zm0-10.63v5.79l1.54-1.28V47.84Zm0,27.61h1.54V57.19l-1.54,1.28Zm0-27.61v5.79l1.54-1.28V47.84Zm1.54-22.79H50.66a1.51,1.51,0,0,0-1.32.76,1.48,1.48,0,0,0-.22.78V77.17a1.44,1.44,0,0,0,.2.74,1.51,1.51,0,0,0,1.34.8h32.7a1.51,1.51,0,0,0,1.34-.8,1.44,1.44,0,0,0,.2-.74V26.59A1.54,1.54,0,0,0,83.36,25.05ZM81.82,75.63H52.2V28.13H81.82Zm0-27.79v5.79l1.54-1.28V47.84Zm0,10.63v17h1.54V57.19Z"/><path class="cls-7" d="M74.44,34H54.81a1.54,1.54,0,0,1,0-3.08H74.44a1.54,1.54,0,1,1,0,3.08Z"/><path class="cls-7" d="M78.93,34h-.48a1.54,1.54,0,0,1,0-3.08h.48a1.54,1.54,0,0,1,0,3.08Z"/><path class="cls-7" d="M74.44,38.74H54.81a1.54,1.54,0,1,1,0-3.08H74.44a1.54,1.54,0,0,1,0,3.08Z"/><path class="cls-7" d="M78.93,38.74h-.48a1.54,1.54,0,0,1,0-3.08h.48a1.54,1.54,0,1,1,0,3.08Z"/><path class="cls-7" d="M74.44,43.5H54.81a1.54,1.54,0,0,1,0-3.08H74.44a1.54,1.54,0,1,1,0,3.08Z"/><path class="cls-7" d="M78.93,43.5h-.48a1.54,1.54,0,0,1,0-3.08h.48a1.54,1.54,0,0,1,0,3.08Z"/><path class="cls-7" d="M74.44,48.26H54.81a1.54,1.54,0,0,1,0-3.08H74.44a1.54,1.54,0,1,1,0,3.08Z"/><path class="cls-7" d="M78.93,48.26h-.48a1.54,1.54,0,0,1,0-3.08h.48a1.54,1.54,0,0,1,0,3.08Z"/><path class="cls-7" d="M74.44,53H54.81a1.54,1.54,0,1,1,0-3.08H74.44a1.54,1.54,0,1,1,0,3.08Z"/><path class="cls-7" d="M78.93,53h-.48a1.54,1.54,0,0,1,0-3.08h.48a1.54,1.54,0,0,1,0,3.08Z"/><path class="cls-7" d="M74.44,57.78H54.81a1.54,1.54,0,0,1,0-3.08H74.44a1.54,1.54,0,1,1,0,3.08Z"/><path class="cls-7" d="M78.93,57.78h-.48a1.54,1.54,0,0,1,0-3.08h.48a1.54,1.54,0,0,1,0,3.08Z"/><path class="cls-7" d="M74.44,62.53H54.81a1.54,1.54,0,1,1,0-3.07H74.44a1.54,1.54,0,1,1,0,3.07Z"/><path class="cls-7" d="M78.93,62.53h-.48a1.54,1.54,0,1,1,0-3.07h.48a1.54,1.54,0,1,1,0,3.07Z"/><path class="cls-7" d="M74.44,67.29H54.81a1.54,1.54,0,1,1,0-3.07H74.44a1.54,1.54,0,1,1,0,3.07Z"/><path class="cls-7" d="M78.93,67.29h-.48a1.54,1.54,0,1,1,0-3.07h.48a1.54,1.54,0,1,1,0,3.07Z"/><path class="cls-7" d="M74.44,72.05H54.81a1.54,1.54,0,0,1,0-3.08H74.44a1.54,1.54,0,1,1,0,3.08Z"/><path class="cls-7" d="M78.93,72.05h-.48a1.54,1.54,0,0,1,0-3.08h.48a1.54,1.54,0,0,1,0,3.08Z"/><polygon class="cls-5" points="40.63 45.69 40.63 77.91 93.39 77.91 93.39 45.69 67.01 67.62 40.63 45.69"/><polygon class="cls-6" points="87.07 50.95 87.07 77.91 93.39 77.91 93.39 45.69 87.07 50.95"/><path class="cls-7" d="M80.45,56.45l-1.6,1.33L76,60.16l-.17.15-2.68,2.22h-2l-2,1.69L67,65.93,65,64.22l-.72-.6-1.31-1.09H57.09l2,1.69,3.69,3.07,2,1.68,1,.81a1.87,1.87,0,0,0,2.38,0l1-.81,2-1.68,3.63-3L76,63.32l1.43-1.2L80,59.94l1.78-1.47V55.31Zm0,0-1.6,1.33L76,60.16l-.17.15-2.68,2.22h-2l-2,1.69L67,65.93,65,64.22l-.72-.6-1.31-1.09H57.09l2,1.69,3.69,3.07,2,1.68,1,.81a1.87,1.87,0,0,0,2.38,0l1-.81,2-1.68,3.63-3L76,63.32l1.43-1.2L80,59.94l1.78-1.47V55.31ZM95.23,46.22a1.85,1.85,0,0,0-3-1.22l-.79.66L91,46l-2.24,1.86L84.9,51.07l-1.54,1.28-1.54,1.28L80,55.14l-2.64,2.19L76,58.48l-1.22,1h0l-3.65,3-2,1.69L67,65.93,65,64.22l-.72-.6-1.31-1.09-3.7-3.07-2-1.68L53.88,55,52.2,53.63l-1.54-1.28-1.54-1.28-3.89-3.23L43,46l-1.18-1h0a1.84,1.84,0,0,0-2-.25,1.81,1.81,0,0,0-1,1.47.75.75,0,0,0,0,.21V78.64a1.85,1.85,0,0,0,1.85,1.86H93.39a1.61,1.61,0,0,0,.54-.09,1.84,1.84,0,0,0,1.32-1.77V46.43A.75.75,0,0,0,95.23,46.22ZM91.54,76.78H42.48V50.39l6.64,5.52,1.54,1.28,1.54,1.28,1.63,1.35,3.26,2.71,2,1.69,3.69,3.07,2,1.68,1,.81a1.87,1.87,0,0,0,2.38,0l1-.81,2-1.68,3.63-3L76,63.32l1.43-1.2L80,59.94l1.78-1.47,1.54-1.28,1.54-1.28,2.17-1.81,4.47-3.71ZM80.45,56.45l-1.6,1.33L76,60.16l-.17.15-2.68,2.22h-2l-2,1.69L67,65.93,65,64.22l-.72-.6-1.31-1.09H57.09l2,1.69,3.69,3.07,2,1.68,1,.81a1.87,1.87,0,0,0,2.38,0l1-.81,2-1.68,3.63-3L76,63.32l1.43-1.2L80,59.94l1.78-1.47V55.31Z"/><path class="cls-3" d="M29.73,23.94H23.59a50.14,50.14,0,0,1,4-5.48l.94,1.64,1.72,3A.59.59,0,0,1,29.73,23.94Z"/><path class="cls-3" d="M95.25,35.47H91.83a.58.58,0,0,1-.5-.88l1.71-3,1.71-3a.58.58,0,0,1,1,0l1.71,3,1.71,3a.58.58,0,0,1-.5.88Z"/><path class="cls-3" d="M60.62,88.61H57.2a.58.58,0,0,1-.51-.88l1.71-3,1.71-3a.58.58,0,0,1,1,0l1.71,3,1.71,3a.59.59,0,0,1-.51.88Z"/><path class="cls-3" d="M18.29,71.68H14.87a.58.58,0,0,1-.51-.88l1.71-3,1.71-3a.59.59,0,0,1,1,0l1.71,3,1.71,3a.59.59,0,0,1-.51.88Z"/><path class="cls-3" d="M118.47,64.22l1.78-1.78a1.26,1.26,0,0,0,0-1.78h0a1.26,1.26,0,0,0-1.78,0l-1.77,1.78-1.78-1.78a1.25,1.25,0,0,0-1.77,0h0a1.26,1.26,0,0,0,0,1.78l1.77,1.78L113.15,66a1.26,1.26,0,1,0,1.77,1.78L116.7,66l1.77,1.78A1.26,1.26,0,0,0,120.25,66Z"/><path class="cls-3" d="M85.14,3.92l1.77-1.78a1.25,1.25,0,0,0,0-1.77h0a1.25,1.25,0,0,0-1.77,0L83.36,2.14,81.59.37a1.26,1.26,0,0,0-1.78,0h0a1.25,1.25,0,0,0,0,1.77l1.78,1.78L79.81,5.69a1.26,1.26,0,0,0,1.78,1.78l1.77-1.78,1.78,1.78a1.26,1.26,0,1,0,1.77-1.78Z"/><path class="cls-3" d="M86.91,98.65l-.07.07a47.19,47.19,0,0,1-5.5,2l.25-.25-1.78-1.77a1.26,1.26,0,0,1,0-1.78,1.26,1.26,0,0,1,1.78,0l1.77,1.78,1.78-1.78A1.25,1.25,0,0,1,86,96.5a1.21,1.21,0,0,1,.88.37A1.26,1.26,0,0,1,86.91,98.65Z"/><circle class="cls-3" cx="31.72" cy="88.61" r="3.92"/><circle class="cls-3" cx="50.66" cy="13.69" r="3.92"/><path class="cls-3" d="M109.92,23.15a3.91,3.91,0,1,1-4.65-6A49.37,49.37,0,0,1,109.92,23.15Z"/><circle class="cls-3" cx="99.17" cy="51.88" r="3.92"/></g></g></svg>