<svg xmlns="http://www.w3.org/2000/svg" width="94.461" height="76.774" viewBox="0 0 94.461 76.774">
  <defs>
    <style>
      .cls-1 {
        fill: #242058;
      }
    </style>
  </defs>
  <path id="twitter" class="cls-1" d="M94.276,11.389a39.36,39.36,0,0,1-11.118,3.05A19.514,19.514,0,0,0,91.671,3.722a40,40,0,0,1-12.307,4.66A19.358,19.358,0,0,0,45.867,21.6a19.816,19.816,0,0,0,.5,4.424A54.843,54.843,0,0,1,6.455,5.847a18.977,18.977,0,0,0-2.621,9.741,19.367,19.367,0,0,0,8.611,16.121,19.3,19.3,0,0,1-8.769-2.424v.24a19.375,19.375,0,0,0,15.53,19,19.542,19.542,0,0,1-8.706.335A19.429,19.429,0,0,0,28.621,62.3,38.838,38.838,0,0,1,4.6,70.59,41.1,41.1,0,0,1,0,70.326,55.082,55.082,0,0,0,29.742,79.02c35.634,0,55.1-29.5,55.1-55.045,0-.823,0-1.653-.059-2.479a39.1,39.1,0,0,0,9.682-10.028l-.185-.079Z" transform="translate(0 -2.246)"/>
</svg>
